<?xml version="1.0" encoding="UTF-8"?>
<!-- Generator: https://ezgif.com/webp-to-svg -->
<svg version="1.1" xmlns="http://www.w3.org/2000/svg" width="1160" height="773">
<path d="M0 0 C382.8 0 765.6 0 1160 0 C1160 255.09 1160 510.18 1160 773 C777.2 773 394.4 773 0 773 C0 517.91 0 262.82 0 0 Z " fill="#124086" transform="translate(0,0)"/>
<path d="M0 0 C382.8 0 765.6 0 1160 0 C1160 127.38 1160 254.76 1160 386 C1064.3 386 968.6 386 870 386 C869.01 374.12 868.02 362.24 867 350 C865.85 342.24 864.67 334.64 863 327 C862.8 326.05 862.59 325.11 862.38 324.13 C847.17 255.5 807.83 194.44 751 153 C750.41 152.57 749.83 152.14 749.22 151.7 C728.55 136.75 705.9 124.85 682 116 C681.13 115.67 680.26 115.35 679.36 115.01 C633.48 98.03 583.32 93.06 535 101 C533.18 101.27 531.36 101.54 529.55 101.81 C502.82 106 476.18 114.86 452 127 C451.27 127.36 450.54 127.73 449.78 128.1 C430.09 137.98 411.99 149.97 395 164 C394.48 164.43 393.95 164.87 393.41 165.31 C381.75 174.98 370.68 185.32 361 197 C360.56 197.51 360.13 198.03 359.68 198.55 C342.16 219.11 326.8 242.43 316.5 267.46 C315.44 269.96 314.35 272.28 313.09 274.67 C302.32 295.94 297.21 321.46 293.75 344.88 C293.6 345.89 293.45 346.9 293.29 347.94 C291.57 360.6 290.95 373.22 290 386 C194.3 386 98.6 386 0 386 C0 258.62 0 131.24 0 0 Z " fill="#70D3EC" transform="translate(0,0)"/>
<path d="M0 0 C25.05 -1.09 51.63 2.36 75.51 10.11 C76.38 10.39 77.26 10.67 78.16 10.95 C126.79 26.51 171 55.58 202.51 96.11 C203.62 97.44 203.62 97.44 204.75 98.8 C206.51 101.11 206.51 101.11 206.51 103.11 C207.17 103.11 207.83 103.11 208.51 103.11 C209.7 104.69 209.7 104.69 211 106.88 C211.72 108.06 211.72 108.06 212.45 109.27 C212.94 110.11 213.44 110.94 213.95 111.8 C214.44 112.62 214.93 113.44 215.43 114.28 C216.8 116.55 218.15 118.83 219.51 121.11 C220.04 122 220.57 122.89 221.12 123.8 C221.58 124.57 222.04 125.33 222.51 126.11 C223.1 127.1 223.69 128.09 224.31 129.1 C234.58 146.59 241.95 165.63 247.51 185.11 C247.74 185.91 247.97 186.71 248.21 187.54 C250.11 194.24 251.49 200.93 252.63 207.8 C252.8 208.78 252.97 209.76 253.15 210.77 C254.61 219.37 255.67 227.7 255.71 236.42 C255.72 237.3 255.73 238.17 255.73 239.08 C255.75 241.9 255.76 244.73 255.76 247.55 C255.76 248.52 255.76 249.48 255.76 250.47 C255.75 265.58 255.04 280.19 252.51 295.11 C252.27 296.72 252.04 298.33 251.81 299.94 C244.17 347.82 217.45 392.42 184.51 427.11 C183.75 427.92 183.75 427.92 182.98 428.73 C175.55 436.52 167.76 443.42 159.15 449.87 C157.64 451.02 156.15 452.2 154.66 453.38 C140.91 464.15 125.37 472.83 109.51 480.11 C108.79 480.44 108.08 480.77 107.34 481.11 C62.8 501.4 9.94 509.48 -38.31 499.55 C-40.61 499.09 -42.91 498.68 -45.22 498.27 C-60.89 495.45 -76.65 491.34 -91 484.29 C-93.92 482.91 -96.9 481.84 -99.93 480.74 C-105.46 478.65 -110.4 476.05 -115.44 472.96 C-117.86 471.5 -120.28 470.13 -122.76 468.79 C-127.66 466.08 -132.27 463.04 -136.87 459.86 C-138.11 459.01 -138.11 459.01 -139.39 458.13 C-159.14 444.4 -177.81 427.21 -192.49 408.11 C-193.2 407.21 -193.92 406.3 -194.65 405.36 C-220.11 372.32 -237.78 333.18 -244.07 291.87 C-244.36 289.97 -244.68 288.07 -245.03 286.18 C-246.8 275.7 -246.83 265.3 -246.81 254.7 C-246.8 251.58 -246.83 248.46 -246.85 245.34 C-246.91 227.73 -245.02 210.72 -240.74 193.61 C-240.49 192.58 -240.23 191.55 -239.97 190.49 C-236.84 178.06 -233.38 165.41 -227.45 154 C-225.98 151.1 -224.76 148.1 -223.49 145.11 C-207 109.95 -182.31 77.97 -151.49 54.11 C-150.61 53.38 -149.72 52.64 -148.81 51.88 C-146.49 50.11 -146.49 50.11 -144.49 50.11 C-144.49 49.45 -144.49 48.79 -144.49 48.11 C-142.95 46.96 -142.95 46.96 -140.8 45.69 C-140.02 45.22 -139.24 44.75 -138.43 44.27 C-137.61 43.79 -136.78 43.3 -135.93 42.8 C-129.3 38.9 -129.3 38.9 -122.97 34.54 C-119.04 31.67 -114.78 29.69 -110.37 27.68 C-109.52 27.29 -108.67 26.89 -107.8 26.49 C-106.11 25.71 -104.43 24.94 -102.74 24.16 C-100.92 23.31 -99.11 22.42 -97.31 21.52 C-68.86 7.37 -36.33 1.15 -4.76 0.19 C-3.17 0.14 -1.58 0.07 0 0 Z " fill="#FBD016" transform="translate(575.4912109375,134.88525390625)"/>
<path d="M0 0 C0.89 -0 1.77 -0 2.69 -0 C42.22 0.05 81.53 7.37 117.54 24.08 C120.09 25.26 122.65 26.41 125.22 27.55 C144.67 36.36 162.7 47.43 179.31 60.84 C180.86 62.09 182.42 63.31 183.99 64.54 C243.61 111.79 280.21 182.12 289.52 257.12 C290.81 268.74 291.3 280.31 291.31 292 C291.31 293.15 291.31 293.15 291.31 294.32 C291.3 308.14 290.35 321.6 288.06 335.25 C287.81 336.77 287.81 336.77 287.56 338.31 C284.78 354.73 280.34 370.47 275.06 386.25 C274.69 387.38 274.69 387.38 274.31 388.54 C258.22 436.88 225.01 482.8 185.06 514.25 C183.33 515.71 181.6 517.17 179.88 518.62 C168.42 527.98 155.9 535.93 143.06 543.25 C142.44 543.61 141.83 543.97 141.19 544.33 C91.73 572.71 31.23 584.48 -25.38 579.06 C-26.06 579 -26.74 578.93 -27.45 578.87 C-60.34 575.69 -93.28 566.99 -122.94 552.25 C-124.22 551.63 -125.5 551 -126.79 550.38 C-164.21 532.1 -199.44 505.47 -224.94 472.25 C-225.94 470.99 -226.94 469.73 -227.95 468.46 C-235.53 458.84 -242.3 448.87 -248.64 438.39 C-249.76 436.54 -250.9 434.71 -252.04 432.89 C-277.01 391.56 -289.15 341.34 -289.19 293.31 C-289.19 292.58 -289.19 291.84 -289.19 291.08 C-289.14 260.02 -284.17 229.89 -274.94 200.25 C-274.4 198.51 -274.4 198.51 -273.84 196.74 C-259.9 153.71 -234.85 116.84 -203.94 84.25 C-203.16 83.43 -202.37 82.6 -201.57 81.75 C-196.92 76.98 -192 72.71 -186.8 68.55 C-184.91 67.03 -183.04 65.47 -181.2 63.88 C-161.7 47.02 -138.67 34.2 -115.02 24.14 C-113.3 23.4 -111.58 22.64 -109.86 21.87 C-84.05 10.48 -56.78 4.81 -28.94 1.25 C-28.16 1.14 -27.38 1.04 -26.58 0.93 C-17.77 -0.13 -8.86 0.01 0 0 Z M-28.22 39.99 C-30.55 40.21 -32.89 40.42 -35.22 40.62 C-56.36 42.76 -77.8 49.11 -96.94 58.25 C-98.31 58.86 -99.69 59.46 -101.06 60.06 C-101.79 60.39 -102.53 60.72 -103.28 61.06 C-105.33 61.98 -107.4 62.87 -109.47 63.75 C-121.8 69.14 -132.75 76.36 -143.87 83.89 C-145.94 85.25 -145.94 85.25 -147.94 86.25 C-147.94 86.91 -147.94 87.57 -147.94 88.25 C-148.79 88.64 -148.79 88.64 -149.66 89.04 C-158.8 93.91 -166.48 102.14 -173.94 109.25 C-174.54 109.82 -175.14 110.39 -175.76 110.98 C-184.64 119.51 -192.66 128.31 -199.94 138.25 C-200.38 138.85 -200.82 139.46 -201.28 140.08 C-210.89 153.18 -210.89 153.18 -218.94 167.25 C-219.71 168.7 -220.49 170.16 -221.28 171.61 C-227.41 182.92 -227.41 182.92 -232.15 194.87 C-232.95 197.28 -233.89 199.59 -234.88 201.94 C-238.98 212.16 -241.93 222.76 -244.56 233.44 C-244.85 234.58 -244.85 234.58 -245.15 235.75 C-249.34 253.32 -250.48 270.87 -250.38 288.88 C-250.37 289.92 -250.37 290.97 -250.37 292.05 C-250.3 308.41 -249.51 324.23 -245.94 340.25 C-245.75 341.11 -245.56 341.96 -245.37 342.84 C-244.12 348.39 -242.61 353.82 -240.94 359.25 C-240.56 360.5 -240.56 360.5 -240.18 361.77 C-230.63 393.01 -215.48 421.87 -194.94 447.25 C-194.5 447.79 -194.07 448.33 -193.62 448.88 C-181.57 463.7 -168.12 477.66 -152.69 488.97 C-150.81 490.34 -148.95 491.74 -147.09 493.15 C-140.26 498.27 -133.39 503.05 -125.94 507.25 C-124.7 507.98 -123.46 508.7 -122.23 509.43 C-115.1 513.59 -108.12 517.26 -100.29 519.98 C-97.38 521.08 -94.64 522.31 -91.83 523.64 C-85.84 526.39 -79.74 528.41 -73.44 530.31 C-72.3 530.66 -71.17 531 -70 531.36 C-60.41 534.22 -50.8 536.52 -40.94 538.25 C-39.77 538.46 -38.6 538.68 -37.4 538.89 C26.07 549.22 94.43 532.1 146.62 495.12 C153.41 490.2 159.75 484.75 166.06 479.25 C166.74 478.68 167.42 478.11 168.12 477.53 C179.12 468.26 189.37 457.7 198.06 446.25 C198.7 445.42 198.7 445.42 199.34 444.58 C215.77 423.05 229.29 399.5 238.16 373.85 C238.76 372.12 239.37 370.4 240 368.68 C249.14 343.45 252.25 316.92 252.3 290.2 C252.31 287.42 252.34 284.63 252.38 281.84 C252.48 264.82 250.45 248.28 246.31 231.75 C246.06 230.72 245.8 229.68 245.54 228.62 C241.97 214.45 237.65 200.33 231.06 187.25 C230.44 185.98 229.81 184.7 229.19 183.43 C227.18 179.35 225.13 175.3 223.06 171.25 C222.58 170.3 222.1 169.36 221.6 168.38 C217.3 160.21 212.18 152.56 207.09 144.86 C206.06 143.25 206.06 143.25 205.06 141.25 C204.4 141.25 203.74 141.25 203.06 141.25 C202.8 140.68 202.54 140.12 202.28 139.53 C197.41 130.38 189.17 122.72 182.06 115.25 C181.52 114.68 180.98 114.11 180.43 113.53 C172.69 105.44 164.66 98.17 155.69 91.48 C154.18 90.34 152.7 89.17 151.22 87.99 C119.69 63.28 80.29 47.83 41.06 41.25 C39.6 41 39.6 41 38.1 40.75 C15.9 37.13 -5.9 37.81 -28.22 39.99 Z " fill="#007A4D" transform="translate(578.9375,96.75)"/>
<path d="M0 0 C0.99 -0.01 0.99 -0.01 1.99 -0.01 C4.2 -0.03 6.4 -0.03 8.6 -0.04 C10.18 -0.05 11.76 -0.06 13.34 -0.06 C18.53 -0.09 23.72 -0.11 28.91 -0.12 C30.7 -0.12 32.49 -0.13 34.28 -0.14 C41.72 -0.16 49.17 -0.18 56.61 -0.19 C67.27 -0.2 77.92 -0.24 88.58 -0.29 C96.08 -0.33 103.58 -0.35 111.07 -0.36 C115.55 -0.36 120.02 -0.37 124.5 -0.41 C128.71 -0.44 132.93 -0.44 137.14 -0.43 C138.68 -0.43 140.22 -0.44 141.76 -0.46 C151.29 -0.56 159.57 -0 167.04 6.56 C173.11 13.23 173.87 19.89 173.73 28.46 C173.72 29.43 173.72 30.4 173.72 31.39 C173.7 34.46 173.66 37.52 173.62 40.59 C173.61 42.68 173.59 44.77 173.58 46.86 C173.55 51.96 173.49 57.05 173.44 62.15 C160.24 62.15 147.04 62.15 133.44 62.15 C133.11 55.88 132.78 49.61 132.44 43.15 C130.84 41.56 129.2 42.03 126.99 42.03 C126.04 42.02 125.08 42.02 124.09 42.02 C123.03 42.02 121.97 42.02 120.87 42.02 C119.76 42.02 118.65 42.02 117.51 42.02 C113.82 42.01 110.13 42.02 106.44 42.02 C103.88 42.02 101.33 42.02 98.78 42.02 C93.42 42.02 88.07 42.02 82.71 42.02 C76.51 42.03 70.31 42.03 64.11 42.02 C58.15 42.02 52.2 42.02 46.24 42.02 C43.7 42.02 41.16 42.02 38.62 42.02 C35.08 42.02 31.54 42.02 28 42.02 C26.94 42.02 25.88 42.02 24.78 42.02 C23.82 42.02 22.87 42.02 21.88 42.03 C21.04 42.03 20.2 42.03 19.34 42.03 C17.43 41.94 17.43 41.94 16.44 43.15 C16.34 44.62 16.31 46.08 16.31 47.55 C16.31 48.5 16.3 49.45 16.3 50.43 C16.3 51.48 16.3 52.53 16.31 53.61 C16.3 54.71 16.3 55.81 16.3 56.94 C16.3 60.59 16.3 64.25 16.3 67.9 C16.3 70.43 16.3 72.95 16.3 75.48 C16.3 80.79 16.3 86.09 16.31 91.4 C16.31 97.54 16.31 103.68 16.3 109.81 C16.3 115.71 16.3 121.61 16.3 127.51 C16.3 130.02 16.3 132.53 16.3 135.05 C16.3 138.55 16.3 142.06 16.31 145.57 C16.3 146.62 16.3 147.67 16.3 148.75 C16.3 149.7 16.31 150.65 16.31 151.63 C16.31 152.46 16.31 153.29 16.31 154.15 C16.31 156.23 16.31 156.23 17.44 158.15 C42.19 158.65 42.19 158.65 67.44 159.15 C67.39 154.84 67.34 150.53 67.3 146.09 C67.27 142.64 67.25 139.18 67.23 135.73 C67.21 132.09 67.18 128.46 67.13 124.82 C67.09 121.31 67.07 117.8 67.06 114.3 C67.05 112.32 67.01 110.34 66.98 108.36 C66.98 100.16 67.73 94.64 73.08 88.17 C73.61 87.73 74.14 87.29 74.69 86.84 C75.21 86.39 75.73 85.94 76.26 85.48 C84.46 80.48 92.58 80.72 101.87 80.75 C103.43 80.74 105 80.74 106.56 80.73 C110.78 80.71 115 80.71 119.23 80.72 C122.76 80.72 126.29 80.71 129.83 80.71 C138.17 80.69 146.51 80.7 154.85 80.71 C163.44 80.72 172.02 80.71 180.61 80.68 C188 80.66 195.39 80.65 202.78 80.66 C207.18 80.66 211.59 80.66 215.99 80.64 C220.14 80.62 224.28 80.63 228.43 80.65 C229.94 80.65 231.46 80.65 232.97 80.64 C242.47 80.58 251.14 80.96 258.87 87.08 C259.65 88.05 259.65 88.05 260.44 89.03 C261.24 89.98 261.24 89.98 262.06 90.96 C265.8 96.93 265.71 102.77 265.63 109.58 C265.63 111.07 265.63 111.07 265.62 112.58 C265.61 115.73 265.59 118.88 265.56 122.03 C265.55 124.17 265.54 126.31 265.53 128.45 C265.51 133.69 265.47 138.92 265.44 144.15 C252.24 144.15 239.04 144.15 225.44 144.15 C225 134.22 225 134.22 224.87 131.08 C224.83 130.27 224.79 129.46 224.75 128.63 C224.72 127.79 224.68 126.96 224.64 126.1 C224.64 124.15 224.64 124.15 223.44 123.15 C221.96 123.06 220.48 123.03 218.99 123.03 C218.04 123.02 217.08 123.02 216.09 123.02 C215.03 123.02 213.97 123.02 212.87 123.02 C211.76 123.02 210.65 123.02 209.51 123.02 C205.82 123.01 202.13 123.02 198.44 123.02 C195.88 123.02 193.33 123.02 190.78 123.02 C185.42 123.02 180.07 123.02 174.71 123.02 C168.51 123.03 162.31 123.03 156.11 123.02 C150.15 123.02 144.2 123.02 138.24 123.02 C135.7 123.02 133.16 123.02 130.62 123.02 C127.08 123.02 123.54 123.02 120 123.02 C118.94 123.02 117.88 123.02 116.78 123.02 C115.82 123.02 114.87 123.02 113.88 123.03 C113.04 123.03 112.2 123.03 111.34 123.03 C109.43 122.94 109.43 122.94 108.44 124.15 C108.28 126.75 108.18 129.31 108.12 131.91 C108.09 133.07 108.09 133.07 108.06 134.26 C107.99 136.74 107.93 139.23 107.87 141.72 C107.83 143.4 107.79 145.08 107.74 146.76 C107.64 150.89 107.53 155.02 107.44 159.15 C111.42 159.02 115.39 158.87 119.37 158.72 C120.51 158.68 121.65 158.64 122.82 158.6 C124.44 158.53 124.44 158.53 126.09 158.47 C127.09 158.43 128.09 158.4 129.12 158.36 C131.4 158.41 131.4 158.41 132.44 157.15 C132.59 155.67 132.69 154.17 132.75 152.68 C132.79 151.87 132.83 151.06 132.87 150.23 C132.91 149.19 132.95 148.16 133 147.09 C133.22 142.17 133.22 142.17 133.44 137.15 C146.64 137.15 159.84 137.15 173.44 137.15 C173.53 143.4 173.61 149.64 173.66 155.89 C173.68 158.01 173.7 160.13 173.74 162.25 C173.79 165.31 173.81 168.37 173.83 171.43 C173.85 172.37 173.87 173.31 173.89 174.27 C173.89 181.32 172.62 187.66 167.74 193.01 C160.61 199.7 153.68 200.59 144.25 200.45 C143.2 200.44 142.14 200.44 141.05 200.43 C137.7 200.42 134.35 200.38 131 200.34 C128.72 200.33 126.44 200.31 124.16 200.3 C118.58 200.27 113.01 200.22 107.44 200.15 C107.55 205.55 107.68 210.94 107.81 216.33 C107.85 218.17 107.89 220.01 107.93 221.84 C107.99 224.48 108.05 227.11 108.12 229.74 C108.14 230.98 108.14 230.98 108.17 232.25 C107.91 236.01 107.91 236.01 109.44 239.15 C110.92 239.25 112.4 239.28 113.88 239.27 C115.33 239.28 115.33 239.28 116.8 239.28 C117.86 239.27 118.92 239.27 120.01 239.27 C121.13 239.27 122.24 239.27 123.38 239.27 C127.08 239.27 130.78 239.26 134.47 239.25 C137.03 239.25 139.58 239.25 142.13 239.25 C148.18 239.24 154.23 239.24 160.28 239.23 C167.17 239.21 174.05 239.21 180.94 239.2 C195.1 239.19 209.27 239.18 223.44 239.15 C226.43 233.16 225.06 225.84 225.44 219.15 C238.64 219.15 251.84 219.15 265.44 219.15 C265.53 225.42 265.61 231.68 265.66 237.94 C265.68 240.07 265.7 242.2 265.74 244.32 C265.79 247.39 265.81 250.46 265.83 253.53 C265.85 254.47 265.87 255.41 265.89 256.39 C265.89 264.94 263.24 270.74 257.29 276.83 C252.23 280.44 247.56 281.53 241.42 281.54 C240.75 281.55 240.08 281.55 239.39 281.56 C237.17 281.57 234.94 281.57 232.71 281.56 C231.11 281.56 229.51 281.57 227.9 281.58 C223.56 281.6 219.22 281.6 214.87 281.59 C211.24 281.59 207.61 281.59 203.98 281.6 C195.41 281.61 186.85 281.61 178.28 281.6 C169.45 281.59 160.62 281.6 151.8 281.63 C144.21 281.65 136.62 281.66 129.03 281.65 C124.5 281.65 119.97 281.65 115.44 281.67 C111.18 281.68 106.92 281.68 102.66 281.66 C101.1 281.66 99.54 281.66 97.99 281.67 C87.18 281.74 79.76 280.82 71.76 273.01 C66.5 265.63 67.04 258.23 67.14 249.47 C67.15 248.05 67.15 246.62 67.16 245.2 C67.17 241.47 67.2 237.74 67.23 234.01 C67.26 230.19 67.27 226.38 67.29 222.56 C67.32 215.09 67.37 207.62 67.44 200.15 C66.53 200.16 65.62 200.17 64.69 200.18 C56.11 200.26 47.53 200.32 38.96 200.36 C34.55 200.38 30.14 200.41 25.73 200.46 C21.47 200.5 17.21 200.52 12.95 200.53 C11.33 200.54 9.71 200.56 8.09 200.58 C-2.26 200.71 -10.81 200.48 -18.94 193.34 C-23.73 188.57 -24.94 182.57 -24.95 176.06 C-24.96 175.39 -24.96 174.71 -24.97 174.01 C-24.98 171.75 -24.98 169.5 -24.97 167.25 C-24.97 165.62 -24.98 164 -24.99 162.38 C-25.01 157.98 -25.01 153.58 -25 149.19 C-25 145.51 -25 141.84 -25.01 138.16 C-25.02 129.49 -25.02 120.82 -25.01 112.14 C-25 103.21 -25.01 94.27 -25.04 85.33 C-25.06 77.65 -25.07 69.96 -25.06 62.28 C-25.06 57.7 -25.06 53.11 -25.08 48.53 C-25.09 44.22 -25.09 39.91 -25.07 35.59 C-25.07 34.01 -25.07 32.44 -25.08 30.86 C-25.14 21.03 -24.81 14.06 -18.13 6.34 C-12.16 1.25 -7.73 0.04 0 0 Z " fill="#11110F" transform="translate(459.5638732910156,245.84609985351563)"/>
</svg>
