<?xml version="1.0" encoding="UTF-8"?>
<!-- Generator: https://ezgif.com/webp-to-svg -->
<svg version="1.1" xmlns="http://www.w3.org/2000/svg" width="1160" height="580">
<path d="M0 0 C382.8 0 765.6 0 1160 0 C1160 191.4 1160 382.8 1160 580 C777.2 580 394.4 580 0 580 C0 388.6 0 197.2 0 0 Z " fill="#0073CF" transform="translate(0,0)"/>
<path d="M0 0 C7.49 2.56 12.88 7.73 16.46 14.78 C18.33 20.93 18.49 29.21 16.2 35.3 C11.6 42.72 6.06 47.43 -1.04 52.45 C-15 62.67 -24.88 79.9 -27.91 96.81 C-31.25 118.81 -27.23 138.4 -15.02 157.04 C-13.65 158.89 -12.23 160.66 -10.73 162.42 C-10.14 163.21 -9.55 164 -8.94 164.82 C-6.47 167.73 -3.76 170.06 -0.73 172.36 C-0.17 172.79 0.4 173.23 0.99 173.67 C11.16 181.23 22.22 184.98 34.27 188.42 C34.27 248.15 34.27 307.88 34.27 369.42 C29.32 369.42 24.37 369.42 19.27 369.42 C19.27 310.35 19.27 251.28 19.27 190.42 C15.97 189.76 12.67 189.1 9.27 188.42 C6.4 187.34 3.75 186.25 1.02 184.92 C0.29 184.57 -0.44 184.22 -1.19 183.85 C-26.95 170.99 -46.81 147.98 -55.98 120.72 C-56.99 117.3 -57.92 113.9 -58.73 110.42 C-59 109.34 -59 109.34 -59.27 108.23 C-65.66 79.9 -58.77 51.54 -44.05 27.17 C-37.3 16.51 -28.7 5.32 -16.73 0.42 C-11.88 -2 -5.16 -1.09 0 0 Z " fill="#FDFDFE" transform="translate(532.734375,100.578125)"/>
<path d="M0 0 C20.74 15.91 34.2 42.38 37.68 68 C40.53 98.47 33.95 125.6 15.25 150.06 C4.18 163.35 -8.12 173.97 -23.75 181.5 C-24.42 181.83 -25.09 182.15 -25.79 182.49 C-31.32 185.01 -35.72 185.74 -42 187 C-42 246.07 -42 305.14 -42 366 C-46.95 366 -51.9 366 -57 366 C-57 306.27 -57 246.54 -57 185 C-54.03 184.01 -51.06 183.02 -48 182 C-39.76 179.13 -32.23 175.91 -25 171 C-24.24 170.49 -23.48 169.98 -22.7 169.45 C-7.97 158.79 1.95 141.08 5.62 123.39 C9.06 101.74 4.44 80.44 -8.38 62.75 C-13.83 55.77 -19.38 50.06 -26.62 44.94 C-33.32 40.2 -37.82 36.06 -40 28 C-40.78 20.14 -41.15 12.39 -36 6 C-26.28 -4.5 -12.61 -8.12 0 0 Z " fill="#FDFEFE" transform="translate(650,104)"/>
<path d="M0 0 C5.59 4.33 9.14 9.09 10.38 16.18 C12.35 43.62 -8.69 76.3 -25.68 96.25 C-43.73 116.88 -68.12 135.71 -95 143 C-95.99 143 -96.98 143 -98 143 C-98 200.09 -98 257.18 -98 316 C-102.95 316 -107.9 316 -113 316 C-113 258.25 -113 200.5 -113 141 C-109.04 139.35 -105.08 137.7 -101 136 C-90.63 131.07 -81.57 125.73 -73 118 C-71.82 117.01 -71.82 117.01 -70.61 116.01 C-50.75 99.21 -38.12 72.67 -35 47 C-34.9 44.47 -34.85 41.94 -34.82 39.41 C-34.8 37.97 -34.78 36.53 -34.75 35.09 C-34.72 32.86 -34.69 30.63 -34.67 28.39 C-34.54 9.8 -34.54 9.8 -28.52 3.43 C-20.21 -3.77 -9.77 -5.53 0 0 Z " fill="#FDFEFE" transform="translate(727,154)"/>
<path d="M0 0 C4.4 3.74 6.43 7.46 8 13 C8.17 15.42 8.24 17.86 8.24 20.29 C8.25 21.71 8.26 23.13 8.28 24.55 C8.28 25.29 8.29 26.02 8.29 26.78 C8.58 56.8 16.37 82.77 36 106 C36.64 106.77 37.28 107.55 37.94 108.35 C50.99 123.69 68.59 132.64 87 140 C87 197.75 87 255.5 87 315 C82.05 315 77.1 315 72 315 C71.67 258.24 71.34 201.48 71 143 C66.71 141.35 62.42 139.7 58 138 C55.35 136.81 52.77 135.63 50.19 134.31 C49.19 133.81 49.19 133.81 48.18 133.29 C34.82 126.37 23.01 118.26 12 108 C11.47 107.51 10.94 107.01 10.39 106.51 C-6.62 90.55 -19.68 70.79 -28 49 C-28.67 47.35 -28.67 47.35 -29.36 45.68 C-33.69 34.91 -38.65 22.48 -35.38 10.78 C-32.57 4.29 -27.31 -0.41 -21 -3.44 C-13.12 -4.91 -6.99 -3.99 0 0 Z " fill="#FDFEFE" transform="translate(459,155)"/>
<path d="M0 0 C4.34 1.77 7.24 3.96 10 7.75 C11.84 13.73 11.99 18.7 9.12 24.38 C5.53 30.22 0.69 35.03 -4 40 C-5.15 41.33 -6.3 42.66 -7.44 44 C-16.1 53.89 -25.5 62.15 -36 70 C-36.56 70.42 -37.11 70.84 -37.68 71.28 C-53.07 82.92 -79.89 103 -100 103 C-100 157.78 -100 212.56 -100 269 C-105.28 269 -110.56 269 -116 269 C-116 213.23 -116 157.46 -116 100 C-111.71 98.35 -107.42 96.7 -103 95 C-99.78 93.47 -96.64 91.93 -93.5 90.25 C-92.69 89.82 -91.88 89.39 -91.05 88.95 C-83.99 85.11 -77.42 80.85 -71 76 C-70.11 75.33 -69.21 74.66 -68.29 73.96 C-48.13 58.15 -32.84 38.63 -21.79 15.56 C-17.14 5.91 -11.86 -2.3 0 0 Z " fill="#F9FBFD" transform="translate(750,201)"/>
<path d="M0 0 C7.01 3.81 9.45 8.83 12.81 15.88 C32.42 55.1 63.42 82.6 104 99 C105.49 99.5 105.49 99.5 107 100 C107 155.77 107 211.54 107 269 C101.72 269 96.44 269 91 269 C91 214.22 91 159.44 91 103 C88.03 102.34 85.06 101.68 82 101 C77.51 99.34 73.28 97.14 69 95 C68.09 94.55 67.18 94.1 66.24 93.64 C35.54 78.44 8.25 58.17 -13 31 C-13.61 30.22 -14.23 29.44 -14.86 28.63 C-19.33 22.82 -20.86 18.4 -20 11 C-18.65 6.84 -16.45 3.98 -12.81 1.56 C-8.72 -0.45 -4.44 -1.16 0 0 Z " fill="#F9FBFD" transform="translate(419,201)"/>
<path d="M0 0 C3.8 2.01 7.09 4.08 9 8 C9.71 12.59 9.65 15.79 7.41 19.94 C4.61 23.5 1.65 25.97 -2 28.62 C-2.7 29.14 -3.4 29.65 -4.12 30.18 C-31.24 49.78 -61.58 63 -93 74 C-93.33 125.81 -93.66 177.62 -94 231 C-98.95 231 -103.9 231 -109 231 C-109 177.54 -109 124.08 -109 69 C-105.04 67.35 -101.08 65.7 -97 64 C-66.15 49.99 -41.4 32.85 -17.66 8.68 C-16.43 7.43 -16.43 7.43 -15.18 6.15 C-14.44 5.4 -13.71 4.65 -12.95 3.87 C-8.89 -0.02 -5.47 -0.85 0 0 Z " fill="#FDFDFE" transform="translate(764,239)"/>
<path d="M0 0 C4.2 2.48 7.53 5.31 10.91 8.82 C11.81 9.74 12.71 10.66 13.64 11.62 C14.11 12.1 14.57 12.58 15.06 13.08 C23.52 21.79 32.09 29.93 42 37 C42.84 37.62 43.68 38.25 44.54 38.89 C62.22 51.72 81.92 60.63 102 69 C102 122.46 102 175.92 102 231 C97.05 231 92.1 231 87 231 C86.67 179.19 86.34 127.38 86 74 C76.1 70.53 76.1 70.53 66 67 C62.18 65.49 58.43 63.97 54.69 62.31 C53.74 61.89 52.79 61.47 51.81 61.04 C-9.49 33.55 -9.49 33.55 -16 17 C-16.65 13.24 -16.84 9.58 -15.02 6.15 C-10.64 0.66 -6.93 -0.72 0 0 Z " fill="#FDFDFE" transform="translate(403,239)"/>
<path d="M0 0 C2.69 1.46 5.18 3.02 7.68 4.8 C8.62 5.42 9.57 6.04 10.55 6.68 C16.69 12.82 19.93 20.3 20.11 28.99 C20.01 37.06 17.09 43.18 12.68 49.8 C12.02 49.8 11.36 49.8 10.68 49.8 C10.42 50.41 10.16 51.01 9.9 51.64 C7.5 55.88 2.99 57.94 -1.46 59.6 C-9.39 61.71 -17.75 60.87 -25.32 57.8 C-25.32 57.14 -25.32 56.48 -25.32 55.8 C-26.17 55.64 -27.02 55.47 -27.89 55.3 C-34.19 52.55 -37.92 47.27 -40.76 41.11 C-43.42 33.65 -43.73 25.38 -40.7 17.99 C-39.95 16.57 -39.16 15.17 -38.32 13.8 C-37.91 13.1 -37.5 12.4 -37.07 11.68 C-29.11 -0.3 -13.42 -4.84 0 0 Z " fill="#FBCA03" transform="translate(591.32421875,183.19921875)"/>
<path d="M0 0 C5.28 0 10.56 0 16 0 C16 59.4 16 118.8 16 180 C10.72 180 5.44 180 0 180 C0 120.6 0 61.2 0 0 Z " fill="#F6FAFD" transform="translate(572,290)"/>
</svg>
