<?xml version="1.0" encoding="UTF-8"?>
<!-- Generator: https://ezgif.com/webp-to-svg -->
<svg version="1.1" xmlns="http://www.w3.org/2000/svg" width="1160" height="773">
<path d="M0 0 C382.8 0 765.6 0 1160 0 C1160 255.09 1160 510.18 1160 773 C777.2 773 394.4 773 0 773 C0 517.91 0 262.82 0 0 Z " fill="#FEFEFE" transform="translate(0,0)"/>
<path d="M0 0 C4.66 3.74 7.31 7.88 9.5 13.39 C9.85 14.1 10.21 14.81 10.58 15.54 C11.9 19.64 11.84 23.54 11.81 27.83 C11.8 28.72 11.8 29.61 11.79 30.53 C11.27 59.29 -5.36 86.27 -19.5 110.39 C-20.03 111.29 -20.56 112.19 -21.1 113.12 C-28.61 125.91 -36.66 138.31 -44.88 150.64 C-45.35 151.34 -45.82 152.05 -46.3 152.77 C-51.86 161.11 -57.52 169.34 -63.5 177.39 C-62.05 180.45 -60.68 182.45 -58.13 184.7 C-57.54 185.24 -56.96 185.77 -56.36 186.32 C-54.58 187.59 -54.58 187.59 -52.61 187.17 C-50.01 186.21 -48.81 184.97 -46.93 182.93 C-46.27 182.21 -45.6 181.5 -44.92 180.77 C-44.23 180 -43.53 179.24 -42.82 178.45 C-42.1 177.68 -41.38 176.9 -40.64 176.1 C-36.28 171.37 -31.96 166.62 -27.69 161.82 C-20.14 153.42 -12.39 145.19 -4.68 136.94 C0.75 131.13 6.13 125.27 11.5 119.39 C11.83 120.05 12.16 120.71 12.5 121.39 C11.32 124.21 10.07 126.95 8.75 129.7 C-8.54 167.06 -30.12 218.89 -15.5 260.39 C-11.44 270.21 -5.19 276.08 4.46 280.35 C12.1 282.97 19.25 283.72 27.31 283.64 C28.28 283.63 29.26 283.63 30.26 283.62 C37.2 283.52 43.73 282.95 50.5 281.39 C51.68 281.17 52.86 280.95 54.08 280.72 C74.48 276.68 94.03 267.76 112.5 258.39 C113.62 257.82 113.62 257.82 114.78 257.24 C136.02 246.4 156.53 234.43 176.5 221.39 C177.56 220.7 178.63 220.01 179.73 219.29 C208.04 200.68 235.28 180.47 261.93 159.58 C262.5 159.13 263.07 158.69 263.65 158.23 C267.32 155.35 270.92 152.39 274.5 149.39 C275.16 149.72 275.82 150.05 276.5 150.39 C274.83 152.08 273.17 153.77 271.5 155.45 C271.04 155.92 270.58 156.39 270.11 156.87 C267.49 159.51 264.8 162.01 261.96 164.42 C255.64 169.89 249.87 175.95 244 181.89 C230.51 195.53 230.51 195.53 224.3 200.81 C220.86 203.82 217.7 207.13 214.5 210.39 C209.98 215 205.4 219.42 200.51 223.63 C197 226.7 193.63 229.93 190.25 233.14 C184.34 238.73 178.39 244.27 172.39 249.75 C169.25 252.62 166.12 255.5 163 258.39 C145.06 274.96 145.06 274.96 138.48 280.66 C136.18 282.66 133.94 284.71 131.68 286.77 C128.26 289.86 124.78 292.82 121.18 295.7 C116.96 299.11 112.96 302.68 109 306.39 C104.19 310.89 99.24 315.12 94.11 319.25 C91.5 321.39 88.99 323.61 86.5 325.89 C82.25 329.75 77.88 333.4 73.42 337 C70.22 339.61 67.08 342.28 63.93 344.95 C59.46 348.75 54.94 352.47 50.33 356.11 C48.09 357.91 45.87 359.73 43.66 361.57 C36.1 367.86 28.49 374 20.59 379.85 C15.5 383.62 10.49 387.49 5.5 391.39 C-2.11 397.33 -9.77 403.19 -17.53 408.93 C-18.81 409.88 -20.09 410.83 -21.37 411.79 C-32.48 420.09 -43.98 427.81 -55.5 435.52 C-56.26 436.02 -57.01 436.53 -57.79 437.05 C-68.86 444.45 -80.09 451.53 -91.5 458.39 C-92.43 458.95 -93.36 459.51 -94.31 460.09 C-124.84 478.44 -167.78 503.34 -204.88 495.27 C-213.15 492.88 -219.05 488.65 -224.21 481.81 C-227.83 475.04 -229.04 468.51 -228.94 460.89 C-228.93 459.6 -228.93 459.6 -228.92 458.27 C-228.6 445.14 -225.01 433.26 -219.5 421.39 C-218.95 420.11 -218.95 420.11 -218.39 418.81 C-202.58 382.57 -179.46 344.58 -154.47 314.08 C-154.15 313.52 -153.83 312.97 -153.5 312.39 C-154.71 308.76 -156.04 307.96 -159.07 305.7 C-160.31 304.77 -160.31 304.77 -161.57 303.82 C-162.21 303.35 -162.85 302.88 -163.5 302.39 C-170.24 305.42 -174.77 311.63 -179.52 317.12 C-186.58 325.19 -193.98 332.98 -201.31 340.82 C-205.82 345.65 -210.29 350.51 -214.75 355.38 C-219.65 360.74 -224.58 366.06 -229.5 371.39 C-229.5 367.88 -228.27 365.9 -226.69 362.84 C-224.6 358.53 -222.99 354.04 -221.32 349.56 C-220.39 347.08 -219.43 344.6 -218.46 342.13 C-196.67 286.19 -196.67 286.19 -202.32 227.96 C-206.63 218.62 -213.64 212.66 -223.19 209.08 C-238.63 203.78 -258 204.74 -273.5 209.39 C-275.19 209.85 -276.88 210.31 -278.57 210.76 C-293.51 214.93 -307.49 220.79 -321.5 227.39 C-322.25 227.74 -323 228.09 -323.77 228.46 C-328.41 230.66 -332.96 233 -337.5 235.39 C-338.81 236.07 -338.81 236.07 -340.14 236.77 C-377.46 256.42 -413.86 279.73 -447.09 305.76 C-451.37 309.09 -455.76 312.26 -460.13 315.45 C-467.11 320.57 -473.87 325.83 -480.5 331.39 C-483.4 333.75 -486.29 336.1 -489.19 338.45 C-491.07 340.02 -492.81 341.62 -494.5 343.39 C-495.16 343.06 -495.82 342.73 -496.5 342.39 C-493.51 339.37 -490.51 336.35 -487.5 333.33 C-486.66 332.48 -485.83 331.63 -484.96 330.76 C-481.3 327.08 -477.65 323.45 -473.69 320.08 C-467.63 314.88 -462.12 309.07 -456.5 303.39 C-443.49 290.23 -443.49 290.23 -437.23 284.9 C-434.34 282.38 -431.68 279.63 -429 276.89 C-424.93 272.77 -420.81 268.81 -416.39 265.06 C-414.17 263.09 -412.09 261.01 -410 258.89 C-406.71 255.56 -403.32 252.43 -399.77 249.38 C-396.95 246.91 -394.19 244.37 -391.44 241.83 C-390.62 241.07 -390.62 241.07 -389.79 240.3 C-386.72 237.46 -383.66 234.61 -380.61 231.75 C-368.81 220.7 -368.81 220.7 -363.45 216.09 C-360.99 213.94 -358.59 211.73 -356.19 209.52 C-352.59 206.23 -348.93 203.07 -345.13 200.02 C-340.93 196.63 -336.94 193.08 -333 189.39 C-328.22 184.91 -323.3 180.71 -318.18 176.6 C-315.37 174.28 -312.69 171.86 -310 169.39 C-305.61 165.36 -301.1 161.55 -296.46 157.81 C-293.07 155.04 -289.75 152.19 -286.44 149.33 C-281.78 145.31 -277.07 141.38 -272.25 137.57 C-269.42 135.32 -266.62 133.05 -263.82 130.76 C-256.4 124.71 -248.93 118.74 -241.38 112.85 C-239.37 111.29 -237.37 109.72 -235.37 108.16 C-215.84 92.91 -196.2 77.89 -175.74 63.92 C-173.4 62.32 -171.07 60.72 -168.75 59.11 C-155.79 50.2 -142.7 41.59 -129.24 33.44 C-128.06 32.73 -126.89 32.01 -125.72 31.3 C-36.33 -23.35 -36.33 -23.35 0 0 Z " fill="#A07332" transform="translate(688.50390625,141.609375)"/>
<path d="M0 0 C4.66 3.74 7.31 7.88 9.5 13.39 C9.85 14.1 10.21 14.81 10.58 15.54 C11.9 19.64 11.84 23.54 11.81 27.83 C11.8 28.72 11.8 29.61 11.79 30.53 C11.27 59.29 -5.36 86.27 -19.5 110.39 C-20.03 111.29 -20.56 112.19 -21.1 113.12 C-28.61 125.91 -36.66 138.31 -44.88 150.64 C-45.35 151.34 -45.82 152.05 -46.3 152.77 C-51.86 161.11 -57.52 169.34 -63.5 177.39 C-61.75 181.23 -59.76 182.96 -56.38 185.52 C-41.56 197.42 -31.95 215.53 -29.5 234.39 C-28.14 257.55 -33.14 278.69 -48.22 296.85 C-63.02 313.34 -82.13 322.89 -104.32 324.61 C-120.83 325.15 -137.94 320.92 -151.5 311.39 C-149.44 305.91 -146.53 301.16 -143.44 296.2 C-142.91 295.29 -142.37 294.37 -141.82 293.43 C-137.73 286.92 -137.73 286.92 -134.06 285.33 C-131.85 284.84 -129.76 284.51 -127.5 284.39 C-127.83 283.4 -128.16 282.41 -128.5 281.39 C-129.16 281.06 -129.82 280.73 -130.5 280.39 C-130.5 279.4 -130.5 278.41 -130.5 277.39 C-132.48 277.72 -134.46 278.05 -136.5 278.39 C-138.6 273.96 -138.6 273.96 -138.13 271.08 C-137.82 270.24 -137.82 270.24 -137.5 269.39 C-136.64 270.84 -136.64 270.84 -135.75 272.33 C-133.86 275.49 -133.86 275.49 -131.25 276.27 C-130.68 276.31 -130.1 276.35 -129.5 276.39 C-129.5 277.05 -129.5 277.71 -129.5 278.39 C-128.77 278.49 -128.03 278.59 -127.27 278.69 C-121.57 279.56 -117.78 280.25 -113.5 284.39 C-112.51 284.72 -111.52 285.05 -110.5 285.39 C-109.62 287.1 -109.62 287.1 -108.94 289.2 C-108.69 289.93 -108.43 290.65 -108.17 291.39 C-107.69 292.83 -107.22 294.26 -106.75 295.7 C-104.67 298.51 -101.73 299.19 -98.5 300.39 C-99.16 299.4 -99.82 298.41 -100.5 297.39 C-101 294.52 -101 294.52 -100.5 291.39 C-98.68 289.24 -96.88 288.01 -94.5 286.39 C-93.84 286.39 -93.18 286.39 -92.5 286.39 C-92.17 285.4 -91.84 284.41 -91.5 283.39 C-89.25 282.7 -89.25 282.7 -86.5 282.39 C-84.19 283.7 -84.19 283.7 -82.5 285.39 C-82.5 286.05 -82.5 286.71 -82.5 287.39 C-81.89 287.18 -81.27 286.98 -80.63 286.77 C-79.93 286.64 -79.23 286.52 -78.5 286.39 C-76.5 288.39 -76.5 288.39 -76.38 291.02 C-76.42 291.8 -76.46 292.58 -76.5 293.39 C-75.84 293.39 -75.18 293.39 -74.5 293.39 C-74.17 294.38 -73.84 295.37 -73.5 296.39 C-74.82 296.72 -76.14 297.05 -77.5 297.39 C-74.13 298.89 -72.3 299.39 -68.5 299.39 C-68.17 298.73 -67.84 298.07 -67.5 297.39 C-68.16 297.39 -68.82 297.39 -69.5 297.39 C-69.6 296.46 -69.6 296.46 -69.69 295.52 C-70.33 293.11 -70.33 293.11 -73.07 292.14 C-74.27 291.77 -74.27 291.77 -75.5 291.39 C-75.5 290.07 -75.5 288.75 -75.5 287.39 C-74.23 287.43 -72.95 287.47 -71.63 287.52 C-69.49 287.63 -69.49 287.63 -67.5 287.39 C-66.84 286.73 -66.18 286.07 -65.5 285.39 C-65.5 284.07 -65.5 282.75 -65.5 281.39 C-66.82 281.06 -68.14 280.73 -69.5 280.39 C-69.5 279.07 -69.5 277.75 -69.5 276.39 C-68.84 276.39 -68.18 276.39 -67.5 276.39 C-67.5 275.73 -67.5 275.07 -67.5 274.39 C-66.91 274.12 -66.31 273.85 -65.69 273.58 C-62.56 271.88 -60.98 270.3 -59.32 267.14 C-58.3 263.69 -58.11 260.97 -58.5 257.39 C-60.44 255.69 -60.44 255.69 -62.5 254.39 C-62.5 253.07 -62.5 251.75 -62.5 250.39 C-63.82 250.72 -65.14 251.05 -66.5 251.39 C-65.06 246.69 -65.06 246.69 -62.63 245.39 C-59.76 245.39 -58.6 246.52 -56.5 248.39 C-56.5 247.4 -56.5 246.41 -56.5 245.39 C-57.49 245.06 -58.48 244.73 -59.5 244.39 C-59.46 243.38 -59.41 242.36 -59.36 241.32 C-59.33 239.97 -59.29 238.62 -59.25 237.27 C-59.2 236.27 -59.2 236.27 -59.15 235.25 C-59.05 230.11 -60.26 227.32 -63.5 223.39 C-64.49 222.73 -65.48 222.07 -66.5 221.39 C-66.5 222.05 -66.5 222.71 -66.5 223.39 C-67.16 223.39 -67.82 223.39 -68.5 223.39 C-70.81 219.19 -70.44 216.12 -69.7 211.57 C-69.49 209.26 -69.82 207.6 -70.5 205.39 C-69.51 205.39 -68.52 205.39 -67.5 205.39 C-66.17 207.06 -64.84 208.72 -63.5 210.39 C-62.51 210.39 -61.52 210.39 -60.5 210.39 C-62.16 207.86 -63.3 206.5 -66 205.08 C-69.45 202.75 -70.11 200.25 -71.5 196.39 C-71.93 195.6 -72.35 194.8 -72.79 193.98 C-73.5 191.39 -73.5 191.39 -72.2 188.82 C-71.54 187.98 -70.88 187.13 -70.19 186.27 C-67.34 182.61 -67.34 182.61 -65.5 178.39 C-66.23 178.11 -66.96 177.83 -67.7 177.54 C-70.31 176.47 -72.79 175.26 -75.32 174.02 C-92.85 166.17 -113.45 164.17 -131.94 169.99 C-141.85 173.88 -151.34 178.48 -159.5 185.39 C-160.47 186.09 -161.44 186.79 -162.44 187.52 C-176.89 199.93 -185.01 220.03 -186.71 238.62 C-187.97 258.91 -181.9 279.61 -168.84 295.4 C-168.38 295.91 -167.92 296.42 -167.44 296.95 C-165.5 299.39 -165.5 299.39 -165.66 301.31 C-166.71 303.91 -168.08 305.23 -170.13 307.14 C-172.81 309.72 -175.39 312.32 -177.82 315.14 C-185.39 323.93 -193.38 332.35 -201.31 340.82 C-205.82 345.65 -210.29 350.51 -214.75 355.38 C-219.65 360.74 -224.58 366.06 -229.5 371.39 C-229.5 367.88 -228.27 365.9 -226.69 362.84 C-224.6 358.53 -222.99 354.04 -221.32 349.56 C-220.39 347.08 -219.43 344.6 -218.46 342.13 C-196.67 286.19 -196.67 286.19 -202.32 227.96 C-206.63 218.62 -213.64 212.66 -223.19 209.08 C-238.63 203.78 -258 204.74 -273.5 209.39 C-275.19 209.85 -276.88 210.31 -278.57 210.76 C-293.51 214.93 -307.49 220.79 -321.5 227.39 C-322.25 227.74 -323 228.09 -323.77 228.46 C-328.41 230.66 -332.96 233 -337.5 235.39 C-338.81 236.07 -338.81 236.07 -340.14 236.77 C-377.46 256.42 -413.86 279.73 -447.09 305.76 C-451.37 309.09 -455.76 312.26 -460.13 315.45 C-467.11 320.57 -473.87 325.83 -480.5 331.39 C-483.4 333.75 -486.29 336.1 -489.19 338.45 C-491.07 340.02 -492.81 341.62 -494.5 343.39 C-495.16 343.06 -495.82 342.73 -496.5 342.39 C-493.51 339.37 -490.51 336.35 -487.5 333.33 C-486.66 332.48 -485.83 331.63 -484.96 330.76 C-481.3 327.08 -477.65 323.45 -473.69 320.08 C-467.63 314.88 -462.12 309.07 -456.5 303.39 C-443.49 290.23 -443.49 290.23 -437.23 284.9 C-434.34 282.38 -431.68 279.63 -429 276.89 C-424.93 272.77 -420.81 268.81 -416.39 265.06 C-414.17 263.09 -412.09 261.01 -410 258.89 C-406.71 255.56 -403.32 252.43 -399.77 249.38 C-396.95 246.91 -394.19 244.37 -391.44 241.83 C-390.62 241.07 -390.62 241.07 -389.79 240.3 C-386.72 237.46 -383.66 234.61 -380.61 231.75 C-368.81 220.7 -368.81 220.7 -363.45 216.09 C-360.99 213.94 -358.59 211.73 -356.19 209.52 C-352.59 206.23 -348.93 203.07 -345.13 200.02 C-340.93 196.63 -336.94 193.08 -333 189.39 C-328.22 184.91 -323.3 180.71 -318.18 176.6 C-315.37 174.28 -312.69 171.86 -310 169.39 C-305.61 165.36 -301.1 161.55 -296.46 157.81 C-293.07 155.04 -289.75 152.19 -286.44 149.33 C-281.78 145.31 -277.07 141.38 -272.25 137.57 C-269.42 135.32 -266.62 133.05 -263.82 130.76 C-256.4 124.71 -248.93 118.74 -241.38 112.85 C-239.37 111.29 -237.37 109.72 -235.37 108.16 C-215.84 92.91 -196.2 77.89 -175.74 63.92 C-173.4 62.32 -171.07 60.72 -168.75 59.11 C-155.79 50.2 -142.7 41.59 -129.24 33.44 C-128.06 32.73 -126.89 32.01 -125.72 31.3 C-36.33 -23.35 -36.33 -23.35 0 0 Z " fill="#2E3C5A" transform="translate(688.50390625,141.609375)"/>
<path d="M0 0 C-0.77 4.41 -3.24 7.2 -5.92 10.68 C-7.3 12.99 -7.3 12.99 -6.29 15.53 C-5.86 16.34 -5.44 17.16 -5 18 C-4.7 18.7 -4.41 19.41 -4.11 20.13 C-2.02 24.66 -0.47 26.59 4 29 C5.81 31.69 5.81 31.69 7 34 C2.01 32.72 -0.58 30.83 -4 27 C-3.81 27.85 -3.63 28.69 -3.44 29.56 C-2.96 33.29 -3.46 36.3 -4 40 C-3.64 42.81 -3.64 42.81 -3 45 C-2.34 45 -1.68 45 -1 45 C-1 44.34 -1 43.68 -1 43 C3.26 44.52 4.89 47.1 7 51 C7.13 53.83 7.09 56.12 6.75 58.88 C6.65 59.91 6.65 59.91 6.55 60.96 C6.39 62.64 6.2 64.32 6 66 C7.32 66.33 8.64 66.66 10 67 C9.67 68.32 9.34 69.64 9 71 C7.68 70.34 6.36 69.68 5 69 C5 68.34 5 67.68 5 67 C4.34 67 3.68 67 3 67 C2.67 67.66 2.34 68.32 2 69 C1.34 69.99 0.68 70.98 0 72 C1.32 71.67 2.64 71.34 4 71 C3.67 72.65 3.34 74.3 3 76 C3.96 76.46 3.96 76.46 4.94 76.94 C7 78 7 78 8 79 C8.41 84.25 7.66 87.46 5 92 C4.34 92 3.68 92 3 92 C2.01 93.98 2.01 93.98 1 96 C0.01 96 -0.98 96 -2 96 C-2 96.66 -2 97.32 -2 98 C-2.66 98 -3.32 98 -4 98 C-4 99.32 -4 100.64 -4 102 C-2.35 102.33 -0.7 102.66 1 103 C0.25 107.75 0.25 107.75 -2 110 C-4.73 109.97 -7.3 109.44 -10 109 C-9.89 110.96 -9.89 110.96 -9 113 C-6.51 114.3 -6.51 114.3 -4 115 C-4 116.32 -4 117.64 -4 119 C-3.34 119 -2.68 119 -2 119 C-2.33 119.99 -2.66 120.98 -3 122 C-7.32 121.49 -11.03 120.8 -15 119 C-15 118.67 -15 118.34 -15 118 C-13.02 117.67 -11.04 117.34 -9 117 C-9 116.34 -9 115.68 -9 115 C-9.66 115 -10.32 115 -11 115 C-11.66 113.02 -12.32 111.04 -13 109 C-14.32 109 -15.64 109 -17 109 C-17.64 108.32 -18.28 107.64 -18.94 106.94 C-20.82 104.73 -20.82 104.73 -23.44 104.94 C-26.76 106.32 -28.57 108.38 -31 111 C-31.99 111.66 -32.98 112.32 -34 113 C-34.29 116.42 -34.09 118.74 -33 122 C-39.12 121.16 -39.12 121.16 -41.54 117.97 C-43.35 114.7 -44.82 111.54 -46 108 C-47.49 107.5 -47.49 107.5 -49 107 C-49.54 106.36 -50.07 105.72 -50.62 105.06 C-53.62 102.46 -56.13 102.08 -59.98 101.39 C-62 101 -62 101 -64 100 C-64 99.34 -64 98.68 -64 98 C-65.14 97.91 -65.14 97.91 -66.31 97.81 C-69 97 -69 97 -70.81 94.44 C-71.2 93.63 -71.6 92.83 -72 92 C-71.5 95.96 -71.5 95.96 -71 100 C-68.03 99.5 -68.03 99.5 -65 99 C-65 99.99 -65 100.98 -65 102 C-64.01 102.33 -63.02 102.66 -62 103 C-62 103.99 -62 104.98 -62 106 C-65.13 107.86 -67.37 108.2 -71 108 C-71.27 108.73 -71.53 109.46 -71.81 110.21 C-72.99 112.97 -74.33 115.19 -76.04 117.64 C-76.62 118.49 -77.2 119.33 -77.8 120.19 C-78.4 121.06 -79 121.92 -79.62 122.81 C-80.24 123.7 -80.85 124.58 -81.48 125.49 C-82.98 127.66 -84.49 129.83 -86 132 C-94.8 128.61 -100.89 122.81 -106 115 C-106.64 114.06 -107.28 113.13 -107.93 112.16 C-120.33 93.18 -125.13 71.48 -120.5 49.06 C-117.57 36.25 -111.6 24.91 -103 15 C-102.24 13.99 -101.47 12.98 -100.69 11.94 C-74.08 -17.15 -32.64 -17.88 0 0 Z " fill="#A17434" transform="translate(623,320)"/>
<path d="M0 0 C0.99 0.33 1.98 0.66 3 1 C3.5 2.49 3.5 2.49 4 4 C4.62 4.12 5.24 4.25 5.88 4.38 C8 5 8 5 9.62 7.25 C11 10 11 10 11.88 12.62 C13.33 15.7 15.11 16.31 18 18 C19.81 20.69 19.81 20.69 21 23 C16.01 21.72 13.42 19.83 10 16 C10.19 16.85 10.37 17.69 10.56 18.56 C11.04 22.29 10.54 25.3 10 29 C10.36 31.81 10.36 31.81 11 34 C11.66 34 12.32 34 13 34 C13 33.34 13 32.68 13 32 C17.26 33.52 18.89 36.1 21 40 C21.13 42.83 21.09 45.12 20.75 47.88 C20.68 48.56 20.62 49.25 20.55 49.96 C20.39 51.64 20.2 53.32 20 55 C21.98 55.5 21.98 55.5 24 56 C23.67 57.32 23.34 58.64 23 60 C21.68 59.34 20.36 58.68 19 58 C19 57.34 19 56.68 19 56 C18.34 56 17.68 56 17 56 C16.5 56.99 16.5 56.99 16 58 C15.34 58.99 14.68 59.98 14 61 C15.32 60.67 16.64 60.34 18 60 C17.67 61.65 17.34 63.3 17 65 C17.96 65.46 17.96 65.46 18.94 65.94 C21 67 21 67 22 68 C22.41 73.25 21.66 76.46 19 81 C18.34 81 17.68 81 17 81 C16.01 82.98 16.01 82.98 15 85 C14.01 85 13.02 85 12 85 C12 85.66 12 86.32 12 87 C11.34 87 10.68 87 10 87 C10 88.32 10 89.64 10 91 C11.65 91.33 13.3 91.66 15 92 C14.25 96.75 14.25 96.75 12 99 C9.27 98.97 6.7 98.44 4 98 C4.11 99.96 4.11 99.96 5 102 C7.49 103.3 7.49 103.3 10 104 C10 105.32 10 106.64 10 108 C10.66 108 11.32 108 12 108 C11.5 109.49 11.5 109.49 11 111 C6.68 110.49 2.97 109.8 -1 108 C-1 107.67 -1 107.34 -1 107 C0.98 106.67 2.96 106.34 5 106 C5 105.34 5 104.68 5 104 C4.34 104 3.68 104 3 104 C2.34 102.02 1.68 100.04 1 98 C-0.32 98 -1.64 98 -3 98 C-3.64 97.32 -4.28 96.64 -4.94 95.94 C-6.82 93.73 -6.82 93.73 -9.44 93.94 C-12.76 95.32 -14.57 97.38 -17 100 C-17.99 100.66 -18.98 101.32 -20 102 C-20.29 105.42 -20.09 107.74 -19 111 C-25.12 110.16 -25.12 110.16 -27.54 106.97 C-29.35 103.7 -30.82 100.54 -32 97 C-32.99 96.67 -33.98 96.34 -35 96 C-35.54 95.36 -36.07 94.72 -36.62 94.06 C-39.62 91.46 -42.13 91.08 -45.98 90.39 C-48 90 -48 90 -50 89 C-50 88.34 -50 87.68 -50 87 C-51.14 86.91 -51.14 86.91 -52.31 86.81 C-55 86 -55 86 -56.81 83.44 C-57.2 82.63 -57.6 81.83 -58 81 C-57.5 84.96 -57.5 84.96 -57 89 C-54.03 88.5 -54.03 88.5 -51 88 C-51 88.99 -51 89.98 -51 91 C-50.01 91.33 -49.02 91.66 -48 92 C-48 92.99 -48 93.98 -48 95 C-51.38 97.04 -54.02 97.27 -57.94 97.25 C-58.96 97.26 -59.98 97.26 -61.03 97.27 C-64.23 96.98 -66.27 96.72 -69 95 C-70.07 91.95 -70.07 91.95 -70.69 88.25 C-71.48 83.65 -72.44 79.4 -74 75 C-74.35 73.67 -74.69 72.34 -75 71 C-72.03 70.01 -72.03 70.01 -69 69 C-70.12 66.4 -71 65 -73.19 63.12 C-75 61 -75 61 -74.75 57.75 C-74.5 56.84 -74.25 55.94 -74 55 C-74.66 54.67 -75.32 54.34 -76 54 C-76 54.99 -76 55.98 -76 57 C-76.99 57 -77.98 57 -79 57 C-78.34 52.05 -77.68 47.1 -77 42 C-77.66 42 -78.32 42 -79 42 C-79 44.64 -79 47.28 -79 50 C-80.98 50.5 -80.98 50.5 -83 51 C-83 50.01 -83 49.02 -83 48 C-82.67 48.33 -82.34 48.66 -82 49 C-81.34 45.7 -80.68 42.4 -80 39 C-80.66 39 -81.32 39 -82 39 C-82 38.01 -82 37.02 -82 36 C-84.64 36 -87.28 36 -90 36 C-90.33 33.69 -90.66 31.38 -91 29 C-89.02 28.01 -87.04 27.02 -85 26 C-84.67 27.65 -84.34 29.3 -84 31 C-80.83 29.17 -80.83 29.17 -79 26 C-78.34 26.99 -77.68 27.98 -77 29 C-76.01 29.29 -75.02 29.58 -74 29.88 C-73.01 30.25 -72.02 30.62 -71 31 C-70.31 32.66 -69.64 34.32 -69 36 C-66.19 36.94 -63.96 37 -61 37 C-60.59 36.03 -60.17 35.06 -59.75 34.06 C-58 31 -58 31 -55.88 30.25 C-54.95 30.13 -54.95 30.13 -54 30 C-53.67 29.34 -53.34 28.68 -53 28 C-57.5 29.69 -61.73 31.82 -66 34 C-66.66 33.34 -67.32 32.68 -68 32 C-67.34 32 -66.68 32 -66 32 C-65.67 30.68 -65.34 29.36 -65 28 C-65.66 28 -66.32 28 -67 28 C-66.67 27.01 -66.34 26.02 -66 25 C-59.97 23.93 -54.11 23.9 -48 24 C-45 29.62 -45 29.62 -45 33 C-46.98 33.5 -46.98 33.5 -49 34 C-47.79 33.75 -47.79 33.75 -46.56 33.5 C-35.97 32.01 -35.97 32.01 -32 34 C-31.81 33.04 -31.81 33.04 -31.62 32.06 C-31.42 31.38 -31.21 30.7 -31 30 C-30.34 29.67 -29.68 29.34 -29 29 C-29 29.66 -29 30.32 -29 31 C-28.01 31 -27.02 31 -26 31 C-26 31.66 -26 32.32 -26 33 C-25.34 33 -24.68 33 -24 33 C-24.23 32.44 -24.45 31.89 -24.69 31.31 C-25.13 28.04 -23.94 26.58 -22 24 C-21.34 24 -20.68 24 -20 24 C-20 23.34 -20 22.68 -20 22 C-18.68 22 -17.36 22 -16 22 C-16 22.99 -16 23.98 -16 25 C-14.89 24.34 -13.77 23.68 -12.62 23 C-9.25 21 -9.25 21 -7 21 C-6.67 19.35 -6.34 17.7 -6 16 C-5.01 15.67 -4.02 15.34 -3 15 C-1.19 10.07 -0.55 5.21 0 0 Z " fill="#FCFCFC" transform="translate(609,331)"/>
<path d="M0 0 C2.48 0.99 2.48 0.99 5 2 C5 2.66 5 3.32 5 4 C6.98 4.66 8.96 5.32 11 6 C11 7.65 11 9.3 11 11 C11.66 11 12.32 11 13 11 C14.82 14.07 15.19 15.92 14.69 19.44 C14.58 20.22 14.47 21 14.36 21.8 C13.96 24.22 13.54 26.61 13 29 C9.12 27.25 9.12 27.25 8 25 C7.01 24.67 6.02 24.34 5 24 C5.07 22.48 5.07 22.48 5.14 20.93 C5.18 19.58 5.21 18.23 5.25 16.88 C5.28 16.21 5.32 15.54 5.35 14.86 C5.45 9.68 4.08 7.06 1 3 C0.67 2.01 0.34 1.02 0 0 Z " fill="#535D73" transform="translate(624,362)"/>
<path d="M0 0 C-0.33 0.99 -0.66 1.98 -1 3 C-1.93 3.15 -1.93 3.15 -2.88 3.31 C-5.37 3.86 -5.37 3.86 -6.75 7.06 C-7.16 8.03 -7.58 9 -8 10 C-11.32 10 -13.09 9.57 -16 8 C-17.31 5.38 -17.31 5.38 -18 3 C-16.68 2.34 -15.36 1.68 -14 1 C-14.33 2.32 -14.66 3.64 -15 5 C-11.32 4.29 -8.32 2.69 -5 1 C-2 0 -2 0 0 0 Z " fill="#B29162" transform="translate(556,359)"/>
<path d="M0 0 C0.66 0.33 1.32 0.66 2 1 C-3.54 8.18 -10.25 13.99 -17 20 C-17.66 19.67 -18.32 19.34 -19 19 C-12.73 12.73 -6.46 6.46 0 0 Z " fill="#424F6A" transform="translate(211,465)"/>
<path d="M0 0 C0.33 0.99 0.66 1.98 1 3 C1.99 3 2.98 3 4 3 C3.67 3.99 3.34 4.98 3 6 C3.99 7.49 3.99 7.49 5 9 C5 9.99 5 10.98 5 12 C3.12 11.75 3.12 11.75 1 11 C0.33 9.67 -0.33 8.33 -1 7 C-3.05 6.19 -3.05 6.19 -5 6 C-5 4.68 -5 3.36 -5 2 C-2 0 -2 0 0 0 Z " fill="#A77F44" transform="translate(544,383)"/>
<path d="M0 0 C1.21 0.03 1.21 0.03 2.44 0.06 C2.44 0.72 2.44 1.38 2.44 2.06 C1.78 2.72 1.12 3.38 0.44 4.06 C0.81 4.78 1.18 5.51 1.56 6.25 C2.63 9.67 2.04 10.94 0.44 14.06 C-0.88 13.4 -2.2 12.74 -3.56 12.06 C-3.59 10.25 -3.61 8.44 -3.62 6.62 C-3.64 5.62 -3.65 4.61 -3.66 3.57 C-3.53 0.15 -3.42 0.08 0 0 Z " fill="#A9824A" transform="translate(557.5625,391.9375)"/>
<path d="M0 0 C3.47 1.49 3.47 1.49 7 3 C7 4.32 7 5.64 7 7 C7.66 7 8.32 7 9 7 C8.67 7.99 8.34 8.98 8 10 C3.68 9.49 -0.03 8.8 -4 7 C-4 6.67 -4 6.34 -4 6 C-2.02 5.67 -0.04 5.34 2 5 C2 4.34 2 3.68 2 3 C1.34 3 0.68 3 0 3 C0 2.01 0 1.02 0 0 Z " fill="#E9E6E1" transform="translate(612,432)"/>
<path d="M0 0 C0.66 0 1.32 0 2 0 C1 7.33 1 7.33 -1 10 C-4.12 11.25 -4.12 11.25 -7 12 C-7.33 11.01 -7.66 10.02 -8 9 C-6.86 7.89 -6.86 7.89 -5.69 6.75 C-3.04 4.18 -3.04 4.18 -1.31 1.69 C-0.88 1.13 -0.45 0.57 0 0 Z " fill="#EEEEED" transform="translate(633,424)"/>
<path d="M0 0 C0.74 0.19 1.49 0.37 2.25 0.56 C4.95 0.99 6.45 0.85 9 0 C8.01 0.5 8.01 0.5 7 1 C7 1.66 7 2.32 7 3 C6.34 3 5.68 3 5 3 C4.34 4.65 3.68 6.3 3 8 C2.01 8 1.02 8 0 8 C-0.98 4.95 -0.98 3.05 0 0 Z " fill="#E0D7C9" transform="translate(532,351)"/>
<path d="M0 0 C0.21 0.58 0.41 1.15 0.62 1.75 C1.94 4.26 1.94 4.26 4.94 5.94 C8.08 8.06 9.33 9.66 11 13 C4.71 11.39 1.55 8.33 -2 3 C-1.34 3 -0.68 3 0 3 C0 2.01 0 1.02 0 0 Z " fill="#E1E0DE" transform="translate(619,341)"/>
<path d="M0 0 C0.66 0 1.32 0 2 0 C3.81 3.07 4.23 5.03 3.81 8.56 C3.74 9.33 3.66 10.09 3.58 10.88 C2.9 13.36 1.94 14.36 0 16 C-0.04 14.33 -0.04 12.67 0 11 C0.33 10.67 0.66 10.34 1 10 C1.16 6.47 1.04 3.38 0 0 Z " fill="#DCDBDA" transform="translate(635,373)"/>
<path d="M0 0 C3 2 3 2 3.94 4 C5.24 6.46 6.47 6.99 9 8 C6.69 8.33 4.38 8.66 2 9 C0.5 5.63 0 3.8 0 0 Z " fill="#A87F45" transform="translate(550,411)"/>
<path d="M0 0 C3.47 1.49 3.47 1.49 7 3 C7 4.32 7 5.64 7 7 C5.35 7 3.7 7 2 7 C2 5.68 2 4.36 2 3 C1.34 3 0.68 3 0 3 C0 2.01 0 1.02 0 0 Z " fill="#BBBCC0" transform="translate(612,432)"/>
<path d="M0 0 C-1.15 3.45 -2.32 4.38 -5.06 6.69 C-5.8 7.31 -6.53 7.93 -7.29 8.57 C-7.85 9.04 -8.42 9.52 -9 10 C-9.66 9.67 -10.32 9.34 -11 9 C-9.55 7.49 -8.09 6 -6.62 4.5 C-5.41 3.25 -5.41 3.25 -4.16 1.97 C-2 0 -2 0 0 0 Z " fill="#777E8F" transform="translate(203,475)"/>
<path d="M0 0 C0.33 0.66 0.66 1.32 1 2 C1.66 2.33 2.32 2.66 3 3 C2.67 4.65 2.34 6.3 2 8 C0.68 6.68 -0.64 5.36 -2 4 C-1.34 2.68 -0.68 1.36 0 0 Z " fill="#D4CABB" transform="translate(579,360)"/>
<path d="M0 0 C1.32 1.32 2.64 2.64 4 4 C3.01 4.5 3.01 4.5 2 5 C1.67 5.66 1.34 6.32 1 7 C0.34 5.02 -0.32 3.04 -1 1 C-0.67 0.67 -0.34 0.34 0 0 Z " fill="#4F596E" transform="translate(619,346)"/>
</svg>
