<?xml version="1.0" encoding="UTF-8"?>
<!-- Generator: https://ezgif.com/webp-to-svg -->
<svg version="1.1" xmlns="http://www.w3.org/2000/svg" width="1160" height="773">
<path d="M0 0 C382.8 0 765.6 0 1160 0 C1160 255.09 1160 510.18 1160 773 C777.2 773 394.4 773 0 773 C0 517.91 0 262.82 0 0 Z " fill="#FEFEFE" transform="translate(0,0)"/>
<path d="M0 0 C6.43 -0.17 12.22 0.36 18.5 1.69 C19.81 1.96 19.81 1.96 21.14 2.24 C23.77 2.81 26.38 3.4 29 4 C29.72 4.17 30.45 4.33 31.19 4.5 C80.5 16.3 124.13 52.28 150.38 94.81 C170 127.47 170 127.47 170 140 C170.8 139.68 170.8 139.68 171.61 139.34 C172.32 139.07 173.02 138.79 173.75 138.5 C174.45 138.22 175.14 137.94 175.86 137.66 C178 137 178 137 182 137 C192.25 190.85 182.65 246.3 151.98 292.11 C141.78 307.07 130.04 321.46 116 333 C114.97 333.88 113.94 334.76 112.91 335.64 C111.82 336.57 110.72 337.51 109.62 338.44 C108.84 339.11 108.84 339.11 108.04 339.8 C104.23 343 104.23 343 102 343 C102.43 343.63 102.87 344.25 103.31 344.9 C104.15 346.12 104.15 346.12 105 347.38 C105.56 348.19 106.11 349 106.69 349.84 C108 352 108 352 108 354 C88.33 365.25 67.47 373.57 45.11 377.61 C43 378 40.9 378.45 38.8 378.9 C-8.56 388.41 -60.99 374.97 -101 349 C-103.1 347.67 -105.21 346.33 -107.31 345 C-108.88 344 -110.44 343 -112 342 C-113.98 344.64 -115.96 347.28 -118 350 C-127.79 345.1 -135.41 334.52 -142 326 C-142.42 325.47 -142.83 324.94 -143.26 324.39 C-161.93 300.56 -174.53 273.2 -181.25 243.75 C-181.4 243.09 -181.55 242.43 -181.71 241.75 C-184.51 228.66 -185.35 215.79 -185.32 202.45 C-185.31 199.83 -185.34 197.22 -185.36 194.6 C-185.42 178.75 -183.56 163.29 -179.31 148 C-178.87 146.36 -178.43 144.71 -177.99 143.06 C-177.8 142.37 -177.61 141.68 -177.41 140.97 C-176.86 138.68 -176.86 138.68 -177 135 C-180.3 134.01 -183.6 133.02 -187 132 C-185.77 129.52 -184.54 127.04 -183.31 124.56 C-182.97 123.87 -182.63 123.19 -182.28 122.48 C-178.16 114.19 -173.75 106.29 -168.38 98.75 C-167.86 98.02 -167.34 97.29 -166.81 96.54 C-161.89 89.7 -156.55 83.32 -151 77 C-150.41 76.29 -149.82 75.58 -149.21 74.84 C-130.85 52.83 -105.3 36.87 -79.11 25.91 C-77.7 25.3 -76.3 24.67 -74.92 24.01 C-68.54 21 -62.01 19.17 -55.19 17.44 C-54 17.13 -52.8 16.83 -51.58 16.52 C-34.19 12.21 -17.9 10.51 0 11 C-0.19 9.74 -0.37 8.48 -0.56 7.19 C-1.01 4.17 -1 3 0 0 Z " fill="#FEFEFE" transform="translate(586,197)"/>
<path d="M0 0 C0.69 0.22 1.37 0.45 2.08 0.68 C12.06 3.98 21.51 7.99 30.94 12.62 C31.88 13.08 32.82 13.54 33.79 14.02 C55 24.53 74.28 37.55 91.71 53.58 C93.75 55.45 95.83 57.26 97.94 59.06 C106.48 66.54 113.91 74.73 120.94 83.62 C121.82 84.72 122.71 85.81 123.59 86.91 C149.94 119.62 149.94 119.62 149.94 128.62 C150.76 128.18 151.58 127.74 152.42 127.28 C154.04 126.43 154.04 126.43 155.69 125.56 C156.75 124.99 157.82 124.43 158.92 123.84 C161.94 122.62 161.94 122.62 164.15 122.55 C167.07 124.3 167.57 126.74 168.75 129.88 C169 130.54 169.25 131.21 169.51 131.89 C170.34 134.13 171.14 136.38 171.94 138.62 C172.36 139.78 172.36 139.78 172.79 140.96 C176.64 151.47 179.71 162.08 182.19 173 C182.42 174.01 182.66 175.03 182.9 176.07 C187.05 195.21 188.49 214.32 188.38 233.88 C188.37 235.48 188.37 235.48 188.37 237.11 C188.3 253.61 187.45 269.45 183.94 285.62 C183.62 287.17 183.62 287.17 183.3 288.74 C178.89 310.25 171.54 330.46 162.38 350.38 C161.86 351.5 161.34 352.63 160.81 353.8 C151.04 374.51 137.39 393.3 122.52 410.62 C119.96 413.6 117.44 416.6 114.94 419.62 C118.24 423.25 121.54 426.88 124.94 430.62 C88.55 467.01 38.44 490.19 -12.06 498.62 C-13.37 498.85 -13.37 498.85 -14.71 499.08 C-67.73 507.93 -125.72 498.82 -173.19 473.61 C-175.05 472.63 -176.91 471.68 -178.79 470.73 C-188.64 465.68 -197.86 459.77 -207.06 453.62 C-207.67 453.22 -208.27 452.82 -208.89 452.41 C-210.28 451.48 -211.67 450.55 -213.06 449.62 C-211.79 446.96 -210.41 444.55 -208.7 442.15 C-208.23 441.49 -207.76 440.83 -207.28 440.14 C-206.52 439.08 -206.52 439.08 -205.75 438 C-204.96 436.88 -204.96 436.88 -204.15 435.74 C-199.73 429.54 -195.28 423.35 -190.8 417.19 C-188.2 413.61 -185.63 410.02 -183.12 406.38 C-182.67 405.72 -182.21 405.07 -181.74 404.39 C-180.89 403.16 -180.05 401.93 -179.22 400.69 C-178.09 399.05 -178.09 399.05 -176.06 396.62 C-172.13 396.62 -170.01 398.43 -166.88 400.56 C-147.84 413.08 -128.18 421.97 -106.2 428.04 C-104.42 428.53 -102.65 429.04 -100.88 429.55 C-66.37 439.06 -26.58 437 6.94 424.62 C8.46 424.1 9.99 423.59 11.52 423.07 C21.42 419.65 30.54 415.46 39.69 410.35 C42.94 408.62 42.94 408.62 44.94 408.62 C44.5 408 44.07 407.37 43.62 406.73 C43.07 405.91 42.51 405.09 41.94 404.25 C41.38 403.44 40.82 402.63 40.25 401.79 C38.94 399.62 38.94 399.62 38.94 397.62 C40.97 395.93 43.01 394.33 45.12 392.75 C55.25 384.98 64.91 376.59 72.94 366.62 C73.75 365.63 74.57 364.64 75.41 363.62 C105.28 326.91 122.16 281.64 122.12 234.19 C122.12 233.15 122.12 232.12 122.12 231.06 C122.06 221.94 121.3 212.98 120.21 203.94 C119.73 199.84 119.34 195.73 118.94 191.62 C114.98 192.62 111.02 193.61 106.94 194.62 C106.64 193.76 106.35 192.9 106.05 192 C96.64 165.23 83.02 140.68 63.94 119.62 C63.02 118.58 62.11 117.53 61.2 116.49 C55.32 109.81 48.99 104.07 41.94 98.62 C40.96 97.84 39.99 97.05 38.99 96.23 C23.97 84.25 7.45 75.41 -10.06 67.62 C-11.18 67.12 -12.29 66.62 -13.44 66.1 C-28.99 59.61 -46.31 56.05 -63.06 54.62 C-63.39 55.62 -63.72 56.61 -64.06 57.62 C-64.06 38.49 -64.06 19.34 -64.06 -0.38 C-78.23 0.24 -91.13 0.87 -104.91 3.37 C-107.61 3.69 -110.34 3.62 -113.06 3.62 C-113.39 -1.66 -113.72 -6.94 -114.06 -12.38 C-74.87 -15.08 -37.41 -12.36 0 0 Z " fill="#FE0101" transform="translate(649.0625,142.375)"/>
<path d="M0 0 C0.69 0.22 1.37 0.45 2.08 0.68 C12.06 3.98 21.51 7.99 30.94 12.62 C31.88 13.08 32.82 13.54 33.79 14.02 C55 24.53 74.28 37.55 91.71 53.58 C93.75 55.45 95.83 57.26 97.94 59.06 C106.48 66.54 113.91 74.73 120.94 83.62 C121.82 84.72 122.71 85.81 123.59 86.91 C141.89 109.61 157.11 135.93 166.56 163.56 C166.82 164.31 167.08 165.07 167.35 165.84 C168.2 168.47 168.94 170.92 168.93 173.7 C167.94 175.62 167.94 175.62 164.99 176.96 C163.68 177.37 162.35 177.76 161.03 178.14 C160.32 178.36 159.6 178.57 158.87 178.8 C156.54 179.51 154.21 180.19 151.88 180.88 C149.48 181.6 147.08 182.33 144.69 183.05 C143.08 183.54 141.47 184.03 139.87 184.51 C131.81 186.94 123.84 189.62 115.87 192.34 C114.98 192.64 114.08 192.95 113.15 193.26 C111.99 193.66 111.99 193.66 110.81 194.07 C108.94 194.62 108.94 194.62 106.94 194.62 C106.64 193.76 106.35 192.9 106.05 192 C96.64 165.23 83.02 140.68 63.94 119.62 C63.02 118.58 62.11 117.53 61.2 116.49 C55.32 109.81 48.99 104.07 41.94 98.62 C40.96 97.84 39.99 97.05 38.99 96.23 C23.97 84.25 7.45 75.41 -10.06 67.62 C-11.18 67.12 -12.29 66.62 -13.44 66.1 C-28.99 59.61 -46.31 56.05 -63.06 54.62 C-63.56 56.11 -63.56 56.11 -64.06 57.62 C-64.06 38.49 -64.06 19.34 -64.06 -0.38 C-78.23 0.24 -91.13 0.87 -104.91 3.37 C-107.61 3.69 -110.34 3.62 -113.06 3.62 C-113.39 -1.66 -113.72 -6.94 -114.06 -12.38 C-74.87 -15.08 -37.41 -12.36 0 0 Z " fill="#119C52" transform="translate(649.0625,142.375)"/>
<path d="M0 0 C7.73 2.06 15.41 4.28 23.06 6.62 C24.17 6.96 25.27 7.3 26.41 7.65 C38.71 11.47 50.86 15.7 63 20 C62.75 20.93 62.75 20.93 62.5 21.89 C61.72 24.84 60.95 27.79 60.19 30.75 C59.8 32.22 59.8 32.22 59.4 33.71 C55.08 50.53 53.46 67.11 53.62 84.44 C53.63 85.78 53.63 85.78 53.64 87.15 C53.8 114.03 58.51 139.14 69 164 C69.28 164.66 69.55 165.31 69.83 165.99 C81.13 192.51 98.65 214.84 119 235 C117.43 239.88 114.6 243.44 111.5 247.44 C110.41 248.86 109.32 250.29 108.24 251.72 C107.69 252.44 107.15 253.15 106.59 253.89 C104.24 257.02 101.95 260.19 99.69 263.38 C99.08 264.23 99.08 264.23 98.46 265.1 C94.95 270.05 91.47 275.02 88 280 C88.74 280.27 89.48 280.54 90.24 280.82 C92.9 281.96 94.82 283.2 97.12 284.94 C105.01 290.6 113.57 295.21 122 300 C123.36 300.78 124.72 301.55 126.08 302.33 C127.53 303.16 127.53 303.16 129 304 C128.44 307.99 127.24 310.53 124.94 313.81 C124.39 314.6 123.84 315.39 123.28 316.21 C122.86 316.8 122.43 317.39 122 318 C107.11 312.48 92.96 300.22 81 290 C80.24 289.35 79.48 288.7 78.7 288.04 C66.56 277.39 54.74 265.89 45 253 C44.5 252.36 44.01 251.73 43.5 251.08 C30.11 233.88 18.37 215.17 10 195 C9.66 194.19 9.31 193.38 8.96 192.54 C-17.07 130.56 -19.97 64.09 0 0 Z " fill="#0194C5" transform="translate(348,312)"/>
<path d="M0 0 C2.06 0.93 2.06 0.93 3.52 3.57 C3.97 4.77 4.41 5.96 4.88 7.18 C5.13 7.85 5.38 8.51 5.63 9.2 C6.46 11.44 7.26 13.69 8.06 15.93 C8.35 16.7 8.63 17.47 8.92 18.27 C12.77 28.78 15.83 39.39 18.31 50.31 C18.55 51.32 18.78 52.33 19.02 53.38 C23.18 72.52 24.62 91.63 24.5 111.18 C24.5 112.78 24.5 112.78 24.49 114.42 C24.42 130.92 23.57 146.76 20.06 162.93 C19.75 164.48 19.75 164.48 19.43 166.05 C15.01 187.56 7.66 207.77 -1.5 227.68 C-2.02 228.81 -2.54 229.94 -3.07 231.11 C-14.85 256.12 -32.02 279.77 -51.94 298.93 C-54.43 301.41 -56.91 303.9 -59.34 306.44 C-66.35 313.68 -73.9 319.87 -81.94 325.93 C-82.69 326.53 -83.45 327.13 -84.22 327.75 C-85.94 328.93 -85.94 328.93 -87.94 328.93 C-89.17 327.44 -89.17 327.44 -90.55 325.34 C-91.07 324.56 -91.59 323.79 -92.13 322.99 C-92.68 322.15 -93.24 321.3 -93.81 320.43 C-98.06 314.1 -102.38 307.87 -107 301.81 C-111.32 296.12 -115.55 290.38 -119.69 284.56 C-120.21 283.83 -120.74 283.09 -121.28 282.34 C-121.76 281.66 -122.24 280.98 -122.73 280.29 C-123.16 279.69 -123.59 279.09 -124.03 278.47 C-124.94 276.93 -124.94 276.93 -124.94 274.93 C-122.91 273.24 -120.87 271.64 -118.75 270.06 C-108.62 262.29 -98.96 253.9 -90.94 243.93 C-90.12 242.94 -89.3 241.95 -88.46 240.93 C-58.6 204.22 -41.71 158.95 -41.75 111.5 C-41.75 110.46 -41.75 109.43 -41.75 108.36 C-41.82 99.27 -42.59 90.35 -43.67 81.33 C-44.17 76.87 -44.55 72.4 -44.94 67.93 C-40.05 66.3 -35.16 64.66 -30.27 63.03 C-28.61 62.47 -26.96 61.92 -25.3 61.36 C-15.55 58.1 -5.79 54.89 4.06 51.93 C1.7 38.96 -3.18 26.74 -9.31 15.11 C-10.9 12.09 -12.35 9.32 -12.94 5.93 C-11.21 4.94 -9.48 3.94 -7.75 2.96 C-6.4 2.2 -5.07 1.42 -3.75 0.62 C-1.94 -0.07 -1.94 -0.07 0 0 Z " fill="#84016B" transform="translate(812.9375,265.06640625)"/>
<path d="M0 0 C0.33 21.78 0.66 43.56 1 66 C-9.39 66.5 -9.39 66.5 -20 67 C-24.21 67.47 -28.28 67.98 -32.44 68.69 C-33.47 68.86 -34.5 69.03 -35.56 69.21 C-49.49 71.64 -63.18 74.97 -76 81 C-76.92 81.41 -77.84 81.82 -78.79 82.24 C-94.7 89.37 -109.19 97.29 -123 108 C-123.81 108.61 -124.62 109.23 -125.46 109.86 C-141.87 122.57 -154.65 137.44 -166.71 154.22 C-167.57 155.41 -168.44 156.59 -169.32 157.77 C-172.16 161.63 -174.41 165.53 -176.5 169.88 C-179.17 175.35 -181.97 180.72 -185 186 C-191.95 185.39 -198.25 183.06 -204.81 180.81 C-207.22 180 -209.63 179.18 -212.04 178.37 C-213.22 177.97 -214.4 177.56 -215.61 177.15 C-220.3 175.56 -224.99 174 -229.69 172.44 C-231.13 171.96 -232.57 171.48 -234.01 171 C-235.49 170.5 -235.49 170.5 -237 170 C-237.16 171.38 -237.16 171.38 -237.32 172.79 C-238.08 178.08 -239.53 183.21 -240.88 188.38 C-243.39 198.19 -245.45 207.99 -247 218 C-248.75 217.69 -250.5 217.38 -252.25 217.06 C-253.22 216.89 -254.2 216.71 -255.2 216.54 C-257.5 216.1 -259.74 215.58 -262 215 C-261.43 207.94 -259.96 201.53 -257.94 194.75 C-257.63 193.7 -257.31 192.65 -256.99 191.57 C-241.31 139.82 -210.92 91.48 -168 58 C-167.02 57.21 -166.03 56.42 -165.02 55.61 C-127.49 25.75 -82.94 9.51 -36.06 1.69 C-35.1 1.52 -34.14 1.34 -33.15 1.17 C-21.9 -0.6 -11.77 0 0 0 Z " fill="#FED600" transform="translate(585,142)"/>
</svg>
