<?xml version="1.0" encoding="UTF-8"?>
<!-- Generator: https://ezgif.com/webp-to-svg -->
<svg version="1.1" xmlns="http://www.w3.org/2000/svg" width="1160" height="870">
<path d="M0 0 C382.8 0 765.6 0 1160 0 C1160 287.1 1160 574.2 1160 870 C777.2 870 394.4 870 0 870 C0 582.9 0 295.8 0 0 Z " fill="#006EB6" transform="translate(0,0)"/>
<path d="M0 0 C0.91 0.72 1.82 1.43 2.75 2.17 C18.17 14.54 32.91 28.33 45 44 C45.66 44.84 45.66 44.84 46.34 45.7 C67.83 72.98 84.64 104.78 93.13 138.57 C93.86 141.46 94.69 144.28 95.56 147.12 C97.7 154.9 98.58 162.97 99.6 170.95 C99.89 173.19 100.2 175.42 100.52 177.65 C101.88 187.41 102.44 197.02 102.44 206.88 C102.44 207.64 102.44 208.41 102.44 209.19 C102.33 263.47 84.22 318.93 51 362 C50.59 362.54 50.19 363.07 49.77 363.62 C43.27 372.16 36.45 380.27 29 388 C28.45 388.57 27.9 389.15 27.33 389.74 C19.95 397.37 12.4 404.48 4 411 C2.56 412.16 2.56 412.16 1.1 413.35 C-52.26 455.8 -121.46 473.91 -188.84 466.61 C-190.56 466.41 -192.28 466.21 -194 466 C-194.73 465.91 -195.46 465.83 -196.21 465.74 C-226.53 461.96 -256.33 452.04 -282.93 437.15 C-284.81 436.11 -286.69 435.09 -288.59 434.08 C-304.68 425.28 -319.43 414.3 -333 402 C-334.11 401.01 -335.22 400.03 -336.32 399.04 C-367.85 370.74 -391.61 333.77 -406 294 C-406 293.34 -406 292.68 -406 292 C-405.31 292.16 -404.62 292.33 -403.91 292.49 C-400.68 293.06 -397.67 293.11 -394.39 293.1 C-392.52 293.09 -392.52 293.09 -390.61 293.09 C-389.31 293.08 -388.02 293.07 -386.69 293.06 C-385.37 293.06 -384.06 293.05 -382.71 293.05 C-379.47 293.04 -376.24 293.02 -373 293 C-373.75 292.15 -374.51 291.3 -375.29 290.42 C-377.92 287.25 -379.68 283.99 -381.43 280.24 C-381.73 279.59 -382.04 278.95 -382.35 278.28 C-383.35 276.15 -384.33 274.01 -385.31 271.88 C-386.01 270.37 -386.71 268.86 -387.42 267.35 C-394.56 251.97 -401.42 236.45 -408.27 220.93 C-410.64 215.55 -413.03 210.18 -415.44 204.81 C-415.98 203.6 -415.98 203.6 -416.53 202.37 C-417.89 198.94 -417.89 198.94 -420 196 C-420.63 187.87 -419.49 179.89 -418.25 171.88 C-418.07 170.7 -417.89 169.52 -417.71 168.31 C-416.63 161.45 -415.43 154.64 -413.88 147.88 C-413.72 147.18 -413.56 146.48 -413.4 145.76 C-413 144.16 -412.51 142.57 -412 141 C-411.34 140.67 -410.68 140.34 -410 140 C-406.39 147.64 -402.84 155.3 -399.5 163.06 C-396.74 169.46 -393.71 175.68 -390.56 181.89 C-388.92 185.16 -387.41 188.45 -385.96 191.8 C-384.86 194.32 -383.71 196.82 -382.56 199.31 C-380.84 203.1 -379.2 206.9 -377.62 210.75 C-375.5 215.91 -373.18 220.96 -370.8 226.01 C-368.45 230.99 -366.21 236.02 -364 241.06 C-361.03 247.81 -357.85 254.41 -354.51 260.98 C-353.29 263.42 -352.14 265.87 -351.06 268.38 C-350.38 269.92 -349.69 271.46 -349 273 C-348.73 273.62 -348.45 274.23 -348.17 274.87 C-347.2 277.03 -346.2 279.17 -345.19 281.31 C-344.88 282.01 -344.57 282.7 -344.26 283.42 C-342.37 287.35 -340.42 290.36 -336.35 292.36 C-330.74 293.89 -324.82 293.4 -319.06 293.25 C-317.7 293.23 -316.33 293.21 -314.97 293.2 C-311.64 293.15 -308.32 293.08 -305 293 C-306.27 291.72 -306.27 291.72 -307.57 290.42 C-312.36 284.81 -314.95 277.95 -317.88 271.25 C-318.53 269.78 -319.18 268.31 -319.84 266.84 C-320.86 264.55 -321.88 262.26 -322.9 259.96 C-326.18 252.56 -329.56 245.21 -332.94 237.85 C-339.03 224.62 -344.98 211.33 -350.86 198.01 C-356.49 185.3 -362.28 172.67 -368.13 160.06 C-374.53 146.28 -380.75 132.43 -386.88 118.52 C-387.19 117.81 -387.5 117.1 -387.83 116.36 C-388.43 115 -389.02 113.64 -389.62 112.28 C-391.12 108.88 -392.73 105.58 -394.51 102.31 C-396 99 -396 99 -396 96.5 C-394.54 92.87 -392.8 89.44 -390.94 86 C-390.54 85.26 -390.14 84.52 -389.73 83.75 C-386.08 77 -382.13 70.47 -378 64 C-375.41 66.29 -374.19 68.42 -372.88 71.61 C-372.31 72.96 -372.31 72.96 -371.73 74.34 C-371.35 75.28 -370.96 76.22 -370.56 77.19 C-368.21 82.86 -365.83 88.47 -363.03 93.95 C-360.96 98.07 -359.09 102.29 -357.19 106.5 C-356.75 107.47 -356.31 108.43 -355.86 109.43 C-353.3 115.08 -350.78 120.75 -348.31 126.44 C-345.29 133.4 -342.11 140.28 -338.88 147.14 C-337.11 150.89 -335.37 154.64 -333.62 158.39 C-332.21 161.42 -330.79 164.45 -329.36 167.47 C-325.29 176.08 -321.47 184.78 -317.7 193.52 C-314.82 200.17 -311.82 206.75 -308.72 213.3 C-306.34 218.38 -304.09 223.52 -301.84 228.66 C-299.99 232.86 -298.03 236.96 -295.96 241.05 C-294.42 244.17 -293.06 247.36 -291.69 250.56 C-288.54 257.82 -285.29 265.01 -281.88 272.14 C-281.28 273.41 -280.68 274.68 -280.09 275.95 C-279.2 277.87 -278.29 279.78 -277.38 281.69 C-276.85 282.81 -276.32 283.92 -275.77 285.07 C-273.25 289.23 -270.6 291.47 -266 293 C-263.79 293.08 -261.58 293.11 -259.36 293.1 C-257.42 293.09 -257.42 293.09 -255.43 293.09 C-254.06 293.08 -252.68 293.07 -251.31 293.06 C-249.93 293.06 -248.55 293.05 -247.16 293.05 C-243.77 293.04 -240.39 293.02 -237 293 C-237.39 292.59 -237.77 292.17 -238.17 291.75 C-242.03 287.47 -244.63 283.3 -246.96 278.05 C-247.31 277.29 -247.66 276.54 -248.01 275.76 C-249.15 273.28 -250.26 270.8 -251.38 268.31 C-252.17 266.56 -252.97 264.8 -253.77 263.05 C-259.23 251.04 -264.58 238.99 -269.91 226.92 C-275.69 213.84 -281.67 200.86 -287.71 187.9 C-293.74 174.97 -299.61 161.98 -305.37 148.93 C-309.65 139.24 -314.01 129.59 -318.5 120 C-324.12 107.99 -329.53 95.9 -334.88 83.77 C-338.31 75.98 -341.81 68.22 -345.42 60.51 C-346.13 58.98 -346.85 57.45 -347.56 55.92 C-348.58 53.73 -349.61 51.53 -350.66 49.35 C-351.61 47.35 -352.54 45.35 -353.48 43.34 C-354.01 42.21 -354.55 41.08 -355.1 39.91 C-356 37 -356 37 -355.32 34.79 C-353.2 31.91 -350.82 29.29 -348.38 26.69 C-347.84 26.11 -347.3 25.54 -346.75 24.95 C-338.47 16.15 -338.47 16.15 -334 13 C-333.34 13 -332.68 13 -332 13 C-331.26 14.69 -331.26 14.69 -330.5 16.41 C-326.96 24.41 -323.38 32.38 -319.65 40.3 C-316.96 46.04 -314.38 51.84 -311.84 57.66 C-309.99 61.87 -308.03 66 -305.95 70.11 C-300.93 80.07 -296.52 90.31 -292.2 100.59 C-290.26 105.18 -288.21 109.66 -285.94 114.1 C-284.4 117.2 -283.05 120.38 -281.69 123.56 C-279.12 129.49 -276.46 135.36 -273.7 141.2 C-270.99 146.98 -268.4 152.81 -265.84 158.66 C-263.99 162.85 -262.03 166.96 -259.96 171.05 C-258.42 174.17 -257.06 177.36 -255.69 180.56 C-253.14 186.45 -250.5 192.27 -247.77 198.07 C-245.28 203.36 -242.89 208.67 -240.5 214 C-237.86 219.9 -235.19 225.78 -232.44 231.62 C-229.89 237.05 -227.42 242.51 -225 248 C-221.73 255.4 -218.4 262.77 -214.92 270.08 C-214.27 271.43 -213.63 272.78 -213 274.14 C-211.97 276.33 -210.92 278.51 -209.88 280.69 C-209.56 281.36 -209.25 282.03 -208.93 282.72 C-206.9 286.87 -204.86 289.46 -201 292 C-197.58 293.14 -194.97 293.11 -191.36 293.1 C-189.42 293.09 -189.42 293.09 -187.43 293.09 C-186.06 293.08 -184.68 293.07 -183.31 293.06 C-181.93 293.06 -180.55 293.05 -179.16 293.05 C-175.77 293.04 -172.39 293.02 -169 293 C-169.76 292.3 -170.52 291.61 -171.3 290.89 C-174.07 287.93 -175.52 285.44 -177.21 281.78 C-177.49 281.17 -177.77 280.57 -178.06 279.95 C-178.99 277.95 -179.9 275.94 -180.81 273.94 C-181.47 272.51 -182.13 271.08 -182.79 269.65 C-188.27 257.75 -193.58 245.77 -198.87 233.79 C-203.68 222.92 -208.59 212.1 -213.56 201.31 C-213.92 200.54 -214.27 199.77 -214.64 198.98 C-215.35 197.43 -216.07 195.88 -216.78 194.33 C-217.13 193.57 -217.49 192.8 -217.85 192.02 C-218.2 191.26 -218.55 190.5 -218.91 189.72 C-222.47 182 -225.99 174.25 -229.5 166.5 C-234.48 155.53 -239.49 144.57 -244.53 133.62 C-250.46 120.74 -256.34 107.83 -262.12 94.88 C-266.32 85.48 -270.59 76.11 -274.88 66.75 C-275.21 66.02 -275.55 65.29 -275.89 64.53 C-276.23 63.8 -276.56 63.07 -276.91 62.32 C-277.58 60.84 -278.26 59.36 -278.94 57.88 C-279.27 57.15 -279.61 56.41 -279.96 55.66 C-284.24 46.3 -288.49 36.94 -292.74 27.57 C-293.35 26.24 -293.95 24.9 -294.56 23.57 C-295 22.61 -295 22.61 -295.44 21.62 C-297.34 17.45 -299.25 13.28 -301.16 9.12 C-301.87 7.57 -301.87 7.57 -302.6 5.99 C-303.46 4.09 -304.33 2.21 -305.21 0.32 C-305.58 -0.5 -305.96 -1.31 -306.34 -2.15 C-306.66 -2.85 -306.99 -3.55 -307.32 -4.28 C-308 -6 -308 -6 -308 -8 C-305.76 -9.68 -303.53 -11.23 -301.19 -12.75 C-300.5 -13.2 -299.81 -13.65 -299.1 -14.12 C-288.84 -20.77 -278.02 -25.99 -266.93 -31.1 C-265.31 -31.85 -263.7 -32.63 -262.1 -33.41 C-238.66 -44.64 -211.75 -50.65 -186 -53 C-184.5 -53.14 -184.5 -53.14 -182.96 -53.28 C-117.8 -58.83 -51.48 -40.93 0 0 Z M-199 -13 C-199.81 -12.87 -200.63 -12.73 -201.47 -12.59 C-224 -8.78 -244.73 -0.34 -265 10 C-264.45 14.87 -262.97 18.43 -260.69 22.75 C-258.23 27.48 -256.04 32.21 -254.14 37.19 C-252.82 40.45 -251.35 43.61 -249.86 46.8 C-249.55 47.45 -249.24 48.1 -248.93 48.77 C-247.96 50.85 -246.98 52.92 -246 55 C-245.68 55.67 -245.37 56.34 -245.04 57.04 C-244.4 58.39 -243.77 59.73 -243.13 61.08 C-241.85 63.81 -240.57 66.53 -239.28 69.25 C-238.63 70.64 -237.98 72.02 -237.33 73.4 C-233.97 80.49 -230.68 87.57 -227.83 94.89 C-226.61 97.99 -225.19 100.99 -223.75 104 C-221.07 109.65 -218.51 115.34 -216 121.06 C-213.03 127.8 -209.86 134.4 -206.52 140.96 C-204.9 144.2 -203.4 147.48 -201.96 150.8 C-200.85 153.34 -199.71 155.86 -198.56 158.38 C-197.71 160.25 -196.85 162.12 -196 164 C-195.48 165.14 -195.48 165.14 -194.95 166.3 C-191.48 173.92 -188.05 181.55 -184.62 189.19 C-184.34 189.83 -184.05 190.46 -183.76 191.12 C-180.51 198.36 -177.28 205.6 -174.12 212.88 C-171.74 218.36 -169.25 223.79 -166.7 229.2 C-163.98 234.98 -161.4 240.81 -158.84 246.66 C-156.99 250.86 -155.04 254.98 -152.97 259.07 C-151.45 262.1 -150.04 265.17 -148.62 268.25 C-147.71 270.2 -146.8 272.16 -145.88 274.11 C-145.05 275.89 -144.24 277.67 -143.43 279.46 C-140.68 285.31 -138.49 289.46 -133 293 C-129.84 294.05 -127.57 294.15 -124.26 294.18 C-123.07 294.19 -121.89 294.2 -120.67 294.22 C-119.38 294.22 -118.1 294.23 -116.77 294.24 C-115.78 294.24 -115.78 294.24 -114.76 294.25 C-111.23 294.27 -107.7 294.29 -104.18 294.3 C-101.3 294.3 -98.43 294.32 -95.56 294.36 C-65.38 294.93 -65.38 294.93 -36.44 287.44 C-33.53 286.64 -31.93 286.48 -29.27 287.97 C-25.1 291 -21.47 294.57 -17.83 298.21 C-15.16 300.82 -12.32 303.19 -9.44 305.56 C-8.38 306.45 -7.33 307.34 -6.28 308.23 C-5.75 308.67 -5.22 309.12 -4.68 309.58 C-1.02 312.68 2.61 315.81 6.24 318.94 C6.79 319.41 7.34 319.89 7.91 320.37 C8.38 320.78 8.86 321.19 9.35 321.62 C11.54 323.45 13.77 325.22 16 327 C-163.68 327.5 -163.68 327.5 -347 328 C-339.74 338.88 -332.52 348.79 -323.54 358.25 C-321 361 -321 361 -319 364 C-318.34 364 -317.68 364 -317 364 C-317 364.66 -317 365.32 -317 366 C-315.55 367.5 -315.55 367.5 -313.62 369.06 C-311.33 371 -309.06 372.94 -306.88 375 C-284.15 396.43 -255.68 411.1 -226.06 420.35 C-224.24 420.92 -222.44 421.52 -220.63 422.12 C-201 428.3 -179.8 430.23 -159.31 430.25 C-158.59 430.25 -157.86 430.25 -157.11 430.25 C-144.21 430.23 -131.71 429.31 -119 427 C-118.08 426.84 -117.15 426.68 -116.2 426.51 C-94.7 422.67 -74.15 415.5 -55 405 C-53.66 404.28 -52.31 403.57 -50.96 402.85 C0.8 374.91 38.9 325.57 55.66 269.55 C71.1 216.07 66.38 156.75 41 107 C40.7 106.39 40.39 105.79 40.08 105.16 C29.73 84.54 15.94 66.59 0 50 C-0.86 49.1 -1.71 48.21 -2.59 47.28 C-8.37 41.36 -14.47 36.06 -21 31 C-21.83 30.36 -21.83 30.36 -22.68 29.7 C-72.79 -8.93 -136.85 -23.72 -199 -13 Z " fill="#FDFEFE" transform="translate(739,228)"/>
</svg>
