<?xml version="1.0" encoding="UTF-8"?>
<!-- Generator: https://ezgif.com/webp-to-svg -->
<svg version="1.1" xmlns="http://www.w3.org/2000/svg" width="1160" height="773">
<path d="M0 0 C382.8 0 765.6 0 1160 0 C1160 255.09 1160 510.18 1160 773 C777.2 773 394.4 773 0 773 C0 517.91 0 262.82 0 0 Z " fill="#003DA5" transform="translate(0,0)"/>
<path d="M0 0 C3.7 0.58 6.46 1.6 9.71 3.45 C10.61 3.96 11.52 4.47 12.45 5 C13.41 5.56 14.38 6.11 15.38 6.69 C16.39 7.27 17.4 7.85 18.45 8.45 C44.66 23.52 70.16 39.76 95 57 C95.76 57.53 96.52 58.06 97.31 58.6 C112.16 68.93 126.75 79.63 141.04 90.72 C143.94 92.95 146.87 95.14 149.81 97.31 C155.31 101.42 160.63 105.72 165.93 110.06 C170.26 113.6 174.64 117.07 179.06 120.5 C184.74 124.91 190.19 129.56 195.59 134.3 C199.28 137.52 203 140.67 206.81 143.75 C211.18 147.28 215.35 150.99 219.5 154.78 C221.96 156.96 224.49 159.01 227.06 161.06 C233.7 166.42 239.8 172.33 245.98 178.2 C249.81 181.83 253.7 185.38 257.64 188.89 C261.9 192.7 266.1 196.55 270.3 200.43 C271.45 201.49 272.6 202.55 273.76 203.62 C288.26 216.98 302.11 231.01 316 245 C312.67 246.11 311.57 245.88 308.22 245.11 C306.73 244.79 306.73 244.79 305.22 244.46 C303.21 244.01 301.2 243.55 299.2 243.09 C276.26 238.15 252.88 237.49 229.5 237.62 C228.13 237.63 226.75 237.63 225.38 237.64 C201.88 237.7 178.51 238.64 155.11 240.81 C153.19 240.98 151.28 241.15 149.36 241.31 C120.51 243.77 91.63 248.87 63.18 254.18 C55.78 255.55 48.45 256.74 40.94 257.25 C39.36 257.36 39.36 257.36 37.76 257.47 C11.37 259.1 -14.78 258.31 -41 255 C-42.43 254.82 -42.43 254.82 -43.88 254.64 C-58.51 252.79 -74 250.67 -88 246 C-86.4 241.32 -83.85 237.57 -81.12 233.5 C-37.88 167.55 -13.18 89.75 0 0 Z " fill="#00ADC6" transform="translate(466,198)"/>
<path d="M0 0 C4.49 1.66 8.61 3.85 12.81 6.12 C13.51 6.5 14.2 6.87 14.91 7.25 C16.61 8.17 18.3 9.08 20 10 C16.64 17.14 12.79 23.72 8.38 30.25 C7.76 31.16 7.14 32.08 6.51 33.02 C-2.04 45.61 -11.46 57.04 -22 68 C-22.55 68.58 -23.1 69.16 -23.67 69.75 C-31.39 77.82 -39.39 85.07 -48.34 91.75 C-49.94 92.95 -51.51 94.17 -53.09 95.4 C-60.1 100.79 -67.37 105.53 -75 110 C-75.61 110.36 -76.22 110.72 -76.84 111.09 C-99.06 124.23 -122.92 133.07 -148 139 C-148.79 139.19 -149.58 139.37 -150.39 139.57 C-152.78 140.12 -155.17 140.66 -157.56 141.19 C-158.24 141.34 -158.93 141.5 -159.63 141.66 C-173.92 144.67 -188.34 145.31 -202.9 145.21 C-205.53 145.19 -208.15 145.19 -210.78 145.19 C-218.92 145.17 -226.92 145.04 -235 144 C-235.18 138.56 -234.86 133.55 -233.99 128.17 C-233.81 127.01 -233.62 125.85 -233.43 124.66 C-233.29 123.78 -233.15 122.9 -233 122 C-231.91 122.01 -230.83 122.02 -229.71 122.03 C-201.15 122.28 -173.87 122.03 -146 115 C-144.73 114.68 -144.73 114.68 -143.44 114.36 C-141.06 113.76 -138.69 113.14 -136.31 112.5 C-135.64 112.32 -134.97 112.15 -134.28 111.96 C-76.4 95.69 -29.08 51.14 0 0 Z " fill="#00ACC6" transform="translate(771,499)"/>
<path d="M0 0 C1.27 -0 2.54 -0 3.85 -0 C23.29 0.01 42.36 0.51 61.62 3.25 C62.72 3.41 63.82 3.56 64.96 3.72 C81.23 6.09 97.31 9.33 113.12 13.88 C113.85 14.08 114.58 14.29 115.32 14.5 C120.38 16.01 120.38 16.01 122.62 18.25 C121 18.13 119.37 18.01 117.75 17.88 C116.85 17.81 115.94 17.74 115.01 17.66 C112.35 17.34 109.93 16.88 107.34 16.29 C99.68 14.72 91.91 14.45 84.12 14.06 C83.28 14.02 82.43 13.98 81.55 13.93 C58.24 12.78 34.93 13.44 11.62 14.25 C10.59 14.29 9.56 14.32 8.49 14.36 C-3.62 14.79 -15.68 15.35 -27.75 16.56 C-28.9 16.67 -30.05 16.77 -31.24 16.88 C-40.58 17.79 -49.81 19.21 -59.07 20.66 C-71.27 22.57 -83.51 24.21 -95.75 25.81 C-96.9 25.96 -98.04 26.11 -99.22 26.27 C-115.49 28.41 -131.75 30.44 -148.08 31.97 C-150.55 32.27 -152.94 32.76 -155.38 33.25 C-185.64 37.26 -217.41 37.06 -247.38 31.25 C-249.1 30.92 -249.1 30.92 -250.86 30.58 C-267.91 27.27 -284.66 22.96 -301.38 18.25 C-301.38 17.92 -301.38 17.59 -301.38 17.25 C-299.33 17.39 -297.29 17.54 -295.25 17.69 C-294.11 17.77 -292.98 17.85 -291.8 17.93 C-288.38 18.25 -288.38 18.25 -285.7 18.74 C-281.69 19.35 -277.73 19.59 -273.68 19.79 C-272.84 19.83 -271.99 19.87 -271.12 19.92 C-228.47 22.05 -187.43 21.53 -145.21 14.38 C-119.13 10 -92.84 6.85 -66.56 3.94 C-65.4 3.81 -64.25 3.68 -63.05 3.55 C-55.83 2.75 -48.61 1.98 -41.38 1.25 C-40.15 1.12 -38.92 1 -37.66 0.87 C-25.16 -0.21 -12.54 0.01 0 0 Z " fill="#F6F8FB" transform="translate(703.375,445.75)"/>
<path d="M0 0 C1.63 0.01 1.63 0.01 3.29 0.01 C35.85 0.13 69.16 2.25 101.06 9.25 C101.06 9.58 101.06 9.91 101.06 10.25 C100.01 10.26 98.95 10.27 97.86 10.27 C87.82 10.35 77.77 10.44 67.73 10.54 C62.57 10.59 57.41 10.63 52.24 10.67 C47.25 10.71 42.25 10.76 37.25 10.81 C35.36 10.83 33.47 10.84 31.58 10.85 C11.77 10.98 -7.69 13.1 -27.31 15.69 C-28.9 15.89 -30.49 16.1 -32.08 16.31 C-38.88 17.19 -45.67 18.08 -52.46 18.99 C-66.06 20.81 -79.67 22.37 -93.31 23.75 C-94.88 23.91 -94.88 23.91 -96.49 24.07 C-129.35 27.38 -161.89 29.93 -194.94 29.25 C-196.38 29.23 -196.38 29.23 -197.86 29.22 C-212.3 29.06 -231.18 28.32 -243.94 21.25 C-242.35 21.24 -242.35 21.24 -240.74 21.22 C-219.18 21 -197.74 20.24 -176.25 18.38 C-175.3 18.29 -174.36 18.21 -173.38 18.13 C-147.61 15.89 -122 12.22 -96.37 8.73 C-80.34 6.55 -64.3 4.56 -48.21 2.91 C-44.48 2.53 -40.75 2.11 -37.03 1.63 C-24.68 0.04 -12.44 -0.06 0 0 Z " fill="#00AAC6" transform="translate(752.9375,466.75)"/>
<path d="M0 0 C5.17 0.3 9.45 1.55 14 4 C15.94 6.69 15.94 6.69 17 9 C13.37 8.01 9.74 7.02 6 6 C6.66 7.98 7.32 9.96 8 12 C6.02 11.67 4.04 11.34 2 11 C2.5 13.48 2.5 13.48 3 16 C3.5 15.63 3.99 15.25 4.5 14.87 C8 12.44 10.17 11.03 14.5 10.88 C18.86 12.28 22.51 14 26 17 C27.25 19.5 27.25 19.5 27 22 C24.94 25.17 23.16 26.9 20 29 C19.24 31.12 19.24 31.12 18.88 33.5 C18.07 37.87 18.07 37.87 17 40 C16.34 40 15.68 40 15 40 C14.81 39.25 14.61 38.5 14.41 37.73 C14.15 36.75 13.89 35.76 13.62 34.75 C13.37 33.78 13.11 32.8 12.85 31.8 C11.47 27.05 11.47 27.05 8.06 23.75 C5.9 22.83 5.9 22.83 3 23 C3.49 23.58 3.99 24.16 4.5 24.76 C11.11 32.83 11.11 32.83 11 38 C10.13 41.49 9.55 43.45 7 46 C1.39 40.02 0.03 35.14 0 27 C-0.27 28.19 -0.54 29.37 -0.81 30.59 C-5.62 50.84 -15.29 71.66 -31.04 85.83 C-34.1 87.66 -36.63 86.71 -40 86 C-39.74 82.42 -39.12 81.13 -36.59 78.49 C-35.57 77.61 -34.54 76.74 -33.5 75.88 C-17.65 61.9 -8.13 44.66 -4 24 C-9.61 26.64 -15.22 29.28 -21 32 C-20.02 27.1 -18.94 24.04 -15 21 C-12.04 19.95 -9.11 19.39 -6 19 C-6.53 18.76 -7.06 18.52 -7.61 18.27 C-15.45 14.54 -15.45 14.54 -18 11 C-18.12 9 -18.12 9 -17 7 C-12.79 3.32 -9.35 2.51 -3.95 2.27 C-1.77 2.17 -1.77 2.17 0 0 Z " fill="#F9FBFD" transform="translate(488,292)"/>
<path d="M0 0 C3.85 3.85 4.43 6.84 6 12 C10.62 11.67 15.24 11.34 20 11 C17 14 14 17 11 20 C11.29 20.87 11.58 21.73 11.88 22.62 C12.92 25.75 13.96 28.88 15 32 C10.77 30.69 6.93 29.06 3 27 C2.43 27.51 1.87 28.01 1.29 28.53 C0.55 29.18 -0.18 29.83 -0.94 30.5 C-1.67 31.15 -2.4 31.8 -3.15 32.47 C-5 34 -5 34 -6 34 C-5.86 32.4 -5.71 30.79 -5.56 29.19 C-5.44 27.85 -5.44 27.85 -5.32 26.48 C-5 24 -5 24 -4 21 C-4.7 20.73 -5.4 20.46 -6.12 20.19 C-9.16 18.93 -12.07 17.5 -15 16 C-15 15.34 -15 14.68 -15 14 C-8.56 13.5 -8.56 13.5 -2 13 C-1.34 8.71 -0.68 4.42 0 0 Z " fill="#F1F4FA" transform="translate(326,320)"/>
<path d="M0 0 C1.69 1.5 3.39 2.99 5.08 4.49 C7.82 6.66 7.82 6.66 11 8 C13.88 7.15 13.88 7.15 16.75 5.62 C17.73 5.14 18.72 4.66 19.73 4.16 C20.48 3.78 21.23 3.4 22 3 C20.9 5.85 19.77 8.4 18.25 11.06 C16.68 13.82 16.68 13.82 17.73 15.95 C19.04 18.07 20.47 19.88 22.12 21.75 C22.66 22.36 23.2 22.98 23.76 23.61 C24.17 24.07 24.58 24.53 25 25 C23.23 24.86 21.46 24.71 19.69 24.56 C18.7 24.48 17.72 24.4 16.7 24.32 C14 24 14 24 11 23 C10.73 23.89 10.46 24.77 10.19 25.69 C9.08 28.77 7.77 31.26 6 34 C3.15 29.72 3.4 26.1 3 21 C-1.29 20.67 -5.58 20.34 -10 20 C-6.49 16.49 -3.45 15.12 1 13 C0.67 8.71 0.34 4.42 0 0 Z " fill="#F1F4FA" transform="translate(732,204)"/>
<path d="M0 0 C1.41 4.54 0.62 8.34 0 13 C3.63 14.65 7.26 16.3 11 18 C11 18.66 11 19.32 11 20 C7.04 20.66 3.08 21.32 -1 22 C-1.66 26.29 -2.32 30.58 -3 35 C-6.23 31.77 -7.83 28.97 -10 25 C-14.78 24.9 -19.28 25.23 -24 26 C-23.67 25.34 -23.34 24.68 -23 24 C-22.34 24 -21.68 24 -21 24 C-20.73 23.4 -20.46 22.8 -20.19 22.19 C-19 20 -19 20 -17.31 18.56 C-15.73 17.04 -15.73 17.04 -16.12 14.62 C-17.07 11.79 -18.42 9.53 -20 7 C-20 6.34 -20 5.68 -20 5 C-19.4 5.22 -18.79 5.43 -18.17 5.66 C-17.37 5.93 -16.57 6.21 -15.75 6.5 C-14.96 6.78 -14.17 7.06 -13.36 7.34 C-10.77 8.18 -10.77 8.18 -7 8 C-4.99 6.26 -4.99 6.26 -3.25 4 C-2.64 3.26 -2.02 2.51 -1.39 1.75 C-0.93 1.17 -0.47 0.6 0 0 Z " fill="#F1F4FA" transform="translate(361,491)"/>
<path d="M0 0 C0.46 0.42 0.92 0.84 1.39 1.28 C2.31 2.1 2.31 2.1 3.25 2.94 C3.85 3.48 4.46 4.03 5.08 4.59 C7.16 6.12 8.43 6.77 11 7 C13.12 6.23 13.12 6.23 15.12 5 C17.2 3.81 17.2 3.81 19 3 C19.66 3.33 20.32 3.66 21 4 C19.35 7.63 17.7 11.26 16 15 C17.32 16.3 18.64 17.6 20 18.94 C21.35 20.27 22.69 21.62 24 23 C24 23.33 24 23.66 24 24 C19.71 23.67 15.42 23.34 11 23 C8.03 28.44 8.03 28.44 5 34 C4.67 34 4.34 34 4 34 C3.34 29.71 2.68 25.42 2 21 C-3.94 20.01 -3.94 20.01 -10 19 C-10 18.34 -10 17.68 -10 17 C-8.54 16.33 -7.08 15.66 -5.62 15 C-4.81 14.63 -4 14.26 -3.16 13.88 C-1 13 -1 13 1 13 C0.83 12.34 0.67 11.68 0.5 11 C-0.12 7.27 -0.06 3.78 0 0 Z " fill="#F2F5FA" transform="translate(318,410)"/>
<path d="M0 0 C0.66 0 1.32 0 2 0 C3.28 4.71 4 8.04 4 13 C8.62 13 13.24 13 18 13 C14.77 16.23 11.97 17.83 8 20 C8.33 24.29 8.66 28.58 9 33 C4 30 4 30 2.56 28.25 C0.98 26.71 0.98 26.71 -1.75 27.06 C-5.66 28.19 -8.54 29.86 -12 32 C-11.53 29.28 -10.99 26.97 -9.88 24.44 C-8.86 21.62 -8.96 20.75 -10 18 C-11.61 16.28 -11.61 16.28 -13.56 14.81 C-14.72 13.89 -15.87 12.96 -17 12 C-17 11.67 -17 11.34 -17 11 C-15.4 10.97 -13.79 10.95 -12.19 10.94 C-11.29 10.93 -10.4 10.91 -9.48 10.9 C-7 11 -7 11 -4 12 C-3.8 11.39 -3.59 10.77 -3.38 10.14 C-2.25 6.76 -1.13 3.38 0 0 Z " fill="#F1F5FA" transform="translate(342,279)"/>
<path d="M0 0 C0.46 0.41 0.92 0.82 1.39 1.24 C2.31 2.05 2.31 2.05 3.25 2.88 C3.85 3.41 4.46 3.94 5.08 4.49 C7.05 6.04 8.62 7.19 11 8 C13.13 7.38 13.13 7.38 15.12 6.12 C18.85 4 18.85 4 21 4 C19.94 7.4 18.99 10.01 17 13 C17.28 16.62 18.99 18.32 21.56 20.75 C22.2 21.36 22.84 21.98 23.5 22.61 C24 23.07 24.49 23.53 25 24 C21.6 25.14 19.23 24.84 15.75 24.06 C14.86 23.87 13.97 23.67 13.05 23.47 C12.37 23.32 11.7 23.16 11 23 C10.73 23.89 10.46 24.77 10.19 25.69 C9.08 28.77 7.77 31.26 6 34 C3.29 29.93 3.42 26.85 3 22 C-0.63 21.34 -4.26 20.68 -8 20 C-8 19.01 -8 18.02 -8 17 C-6.71 16.33 -5.42 15.66 -4.12 15 C-3.41 14.63 -2.69 14.26 -1.95 13.88 C0 13 0 13 2 13 C1.86 12.4 1.71 11.79 1.56 11.17 C1.38 10.37 1.19 9.57 1 8.75 C0.81 7.96 0.63 7.17 0.44 6.36 C0 4 0 4 0 0 Z " fill="#F2F5FA" transform="translate(450,156)"/>
<path d="M0 0 C2.68 1.34 2.95 2.72 4.12 5.44 C4.48 6.24 4.83 7.04 5.2 7.87 C6 10 6 10 6 12 C6.66 11.67 7.32 11.34 8 11 C9.87 10.93 11.75 10.92 13.62 10.94 C15.13 10.95 15.13 10.95 16.66 10.96 C17.43 10.98 18.21 10.99 19 11 C14 16 14 16 12.12 17.5 C10.75 19 10.75 19 11.12 21.31 C12.13 24.39 13.53 27.12 15 30 C15 30.66 15 31.32 15 32 C12.24 30.98 9.9 29.94 7.44 28.31 C5.18 26.85 5.18 26.85 3.06 27 C-0.07 28.52 -2.4 30.69 -5 33 C-6.53 28.92 -5.63 25.21 -5 21 C-8.3 19.02 -11.6 17.04 -15 15 C-11.69 12.79 -10.66 12.78 -6.81 12.88 C-5.91 12.89 -5.01 12.91 -4.08 12.93 C-3.39 12.95 -2.71 12.98 -2 13 C-1.86 11.78 -1.71 10.57 -1.56 9.31 C-1.17 6.17 -0.68 3.09 0 0 Z " fill="#F3F6FA" transform="translate(442,582)"/>
<path d="M0 0 C2 2 2 2 2.2 4.82 C2.17 5.91 2.15 7 2.12 8.12 C2.11 9.22 2.09 10.32 2.07 11.45 C2.05 12.29 2.02 13.13 2 14 C3.86 14.19 3.86 14.19 5.75 14.38 C8.92 14.69 11.21 15.45 14 17 C13.29 17.21 12.58 17.42 11.85 17.64 C8.75 18.81 6.52 19.83 4 22 C2.8 26.37 2.78 30.5 3 35 C0.02 32.1 -2.5 29.34 -5 26 C-8.96 26.99 -12.92 27.98 -17 29 C-15.48 25.2 -13.86 21.64 -12 18 C-14.31 15.03 -16.62 12.06 -19 9 C-15.19 7.73 -13.72 8.71 -10 10 C-8.68 10 -7.36 10 -6 10 C-4.19 7.8 -4.19 7.8 -2.75 5 C-2.23 4.07 -1.71 3.14 -1.17 2.19 C-0.79 1.47 -0.4 0.74 0 0 Z " fill="#F3F6FA" transform="translate(382,526)"/>
<path d="M0 0 C3.63 1.81 4.48 6.41 6 10 C10.29 10 14.58 10 19 10 C18.26 10.72 17.51 11.44 16.75 12.19 C14.31 14.69 12.13 17.24 10 20 C10.3 20.63 10.6 21.25 10.91 21.9 C11.29 22.72 11.67 23.53 12.06 24.38 C12.45 25.19 12.83 26 13.22 26.84 C13.48 27.55 13.74 28.26 14 29 C13.67 29.66 13.34 30.32 13 31 C12.4 30.62 11.79 30.23 11.17 29.84 C10.37 29.35 9.57 28.87 8.75 28.38 C7.96 27.89 7.17 27.4 6.36 26.9 C4.06 25.74 4.06 25.74 1.94 26.69 C1.3 27.12 0.66 27.55 0 28 C-0.63 28.43 -1.27 28.85 -1.92 29.29 C-2.53 29.73 -3.13 30.17 -3.75 30.62 C-4.82 31.41 -5.89 32.19 -7 33 C-6.67 28.71 -6.34 24.42 -6 20 C-7.65 19.03 -9.3 18.06 -11 17.06 C-12.69 16.07 -14.36 15.06 -16 14 C-16 13.67 -16 13.34 -16 13 C-11.38 12.67 -6.76 12.34 -2 12 C-1.86 10.21 -1.71 8.41 -1.56 6.56 C-1.12 1.12 -1.12 1.12 0 0 Z " fill="#F3F6FB" transform="translate(787,275)"/>
<path d="M0 0 C1.14 3.4 0.84 5.77 0.06 9.25 C-0.13 10.14 -0.33 11.03 -0.53 11.95 C-0.68 12.63 -0.84 13.3 -1 14 C-0.37 14.2 0.25 14.41 0.9 14.62 C1.72 14.89 2.53 15.16 3.38 15.44 C4.19 15.7 5 15.97 5.84 16.25 C8 17 8 17 10 18 C10 18.66 10 19.32 10 20 C6.04 20.66 2.08 21.32 -2 22 C-2.33 26.29 -2.66 30.58 -3 35 C-3.66 35 -4.32 35 -5 35 C-6.65 31.7 -8.3 28.4 -10 25 C-16.44 25.5 -16.44 25.5 -23 26 C-21.47 24.05 -19.94 22.09 -18.41 20.14 C-16.97 17.96 -16.2 16.6 -16 14 C-16.99 11.87 -16.99 11.87 -18.5 9.88 C-19.97 7.8 -19.97 7.8 -21 6 C-20.67 5.34 -20.34 4.68 -20 4 C-19.32 4.38 -18.65 4.77 -17.95 5.16 C-17.06 5.65 -16.17 6.13 -15.25 6.62 C-13.93 7.36 -13.93 7.36 -12.58 8.1 C-10.09 9.25 -10.09 9.25 -7.88 8.38 C-5.83 6.88 -4.35 5.34 -2.75 3.38 C-2.23 2.74 -1.71 2.11 -1.17 1.46 C-0.79 0.98 -0.4 0.5 0 0 Z " fill="#F3F6FA" transform="translate(396,207)"/>
<path d="M0 0 C0.33 0 0.66 0 1 0 C1.66 4.29 2.32 8.58 3 13 C7.29 13.33 11.58 13.66 16 14 C12 18 12 18 7 21 C7.33 25.29 7.66 29.58 8 34 C6.05 32.44 4.09 30.88 2.14 29.31 C-0.15 27.65 -0.15 27.65 -4 28 C-6.11 29.1 -6.11 29.1 -8.12 30.56 C-10.2 32 -10.2 32 -12 33 C-12.66 32.67 -13.32 32.34 -14 32 C-12.35 27.71 -10.7 23.42 -9 19 C-10.32 18.34 -11.64 17.68 -13 17 C-15.25 14.38 -15.25 14.38 -17 12 C-11.06 11.5 -11.06 11.5 -5 11 C-3.35 7.37 -1.7 3.74 0 0 Z " fill="#F4F6FB" transform="translate(587,129)"/>
<path d="M0 0 C2.21 3.8 3.01 7.76 4 12 C8.29 12.33 12.58 12.66 17 13 C14.15 15.85 11.42 17.89 8 20 C7.34 20 6.68 20 6 20 C6.33 21.22 6.66 22.43 7 23.69 C7.8 26.87 8.21 29.7 8 33 C4.58 30.75 1.28 28.46 -2 26 C-5.63 27.98 -9.26 29.96 -13 32 C-10.05 22.89 -10.05 22.89 -8 19 C-8.54 18.77 -9.07 18.55 -9.62 18.31 C-12.8 16.56 -15.28 14.41 -18 12 C-18 11.67 -18 11.34 -18 11 C-13.71 11 -9.42 11 -5 11 C-4.36 9.37 -3.72 7.74 -3.06 6.06 C-1.12 1.12 -1.12 1.12 0 0 Z " fill="#F4F7FB" transform="translate(804,316)"/>
<path d="M0 0 C3.07 4.1 5 6.86 5 12 C11.43 11.5 11.43 11.5 18 11 C12.38 17.88 12.38 17.88 9 19 C9.37 19.69 9.75 20.37 10.13 21.08 C10.6 21.98 11.08 22.88 11.56 23.81 C12.04 24.71 12.51 25.6 13 26.52 C14 29 14 29 13 32 C12.48 31.63 11.96 31.25 11.43 30.87 C7.26 27.96 7.26 27.96 2.44 26.81 C-1.23 28.6 -4.05 31.22 -7 34 C-6.43 29.31 -5.81 24.65 -5 20 C-5.89 19.75 -6.77 19.5 -7.69 19.25 C-11 18 -11 18 -16 14 C-11.71 13.34 -7.42 12.68 -3 12 C-2.01 8.04 -1.02 4.08 0 0 Z " fill="#F4F7FB" transform="translate(540,130)"/>
<path d="M0 0 C0.66 0 1.32 0 2 0 C2.03 1.62 2.05 3.25 2.06 4.88 C2.07 5.78 2.09 6.68 2.1 7.62 C2 10 2 10 1 12 C2.33 12.4 2.33 12.4 3.69 12.81 C6.77 13.92 9.26 15.23 12 17 C8.7 20.3 4.55 19.65 0 20 C-0.33 24.29 -0.66 28.58 -1 33 C-1.66 33 -2.32 33 -3 33 C-4.65 29.7 -6.3 26.4 -8 23 C-14.43 23.5 -14.43 23.5 -21 24 C-19.47 22.05 -17.94 20.09 -16.41 18.14 C-14.97 15.96 -14.2 14.6 -14 12 C-14.99 9.87 -14.99 9.87 -16.5 7.88 C-17.97 5.8 -17.97 5.8 -19 4 C-18.67 3.34 -18.34 2.68 -18 2 C-17.32 2.38 -16.65 2.77 -15.95 3.16 C-15.06 3.65 -14.17 4.13 -13.25 4.62 C-11.93 5.36 -11.93 5.36 -10.58 6.1 C-8.07 7.26 -8.07 7.26 -5.8 6.31 C-3.4 4.56 -1.84 2.33 0 0 Z " fill="#F3F6FB" transform="translate(675,155)"/>
<path d="M0 0 C0.59 0.44 1.18 0.89 1.79 1.35 C2.58 1.91 3.37 2.48 4.19 3.06 C4.96 3.63 5.74 4.2 6.54 4.79 C8.93 6.22 8.93 6.22 11.56 5.84 C14.03 4.99 15.74 4.02 17.81 2.44 C18.42 1.98 19.02 1.53 19.64 1.06 C20.32 0.53 20.32 0.53 21 0 C22 2 22 2 21.41 3.8 C20.8 5.18 20.2 6.56 19.59 7.93 C18.86 10.47 18.91 11.59 20 14 C22.07 15.74 22.07 15.74 24.56 17.19 C26.05 18.11 27.54 19.04 29 20 C29 20.33 29 20.66 29 21 C24.38 21 19.76 21 15 21 C14.01 24.96 13.02 28.92 12 33 C8.7 28.59 8.13 26.23 7 21 C2.71 21 -1.58 21 -6 21 C-3.15 18.07 -0.35 15.36 3 13 C2.69 11.58 2.38 10.17 2.06 8.75 C1.89 7.96 1.71 7.17 1.54 6.36 C1.05 4.23 0.54 2.11 0 0 Z " fill="#F5F8FB" transform="translate(325,453)"/>
<path d="M0 0 C3.11 3.11 4.93 5.28 7 9 C11.34 8.39 15.68 7.74 20 7 C18.85 9.58 17.72 11.31 15.81 13.44 C13.79 15.79 13.79 15.79 13.94 18.31 C15.47 22.19 17.68 25.55 20 29 C19.32 28.78 18.65 28.57 17.95 28.34 C17.06 28.07 16.17 27.79 15.25 27.5 C14.37 27.22 13.49 26.94 12.58 26.66 C9.8 25.84 9.8 25.84 6 26 C4.25 27.74 4.25 27.74 2.81 30 C1.89 31.34 0.96 32.68 0 34 C-0.33 34 -0.66 34 -1 34 C-1 29.71 -1 25.42 -1 21 C-2.98 20.67 -4.96 20.34 -7 20 C-9.03 19.06 -11.04 18.07 -13 17 C-8.81 14.21 -4.94 13.9 0 13 C0 8.71 0 4.42 0 0 Z " fill="#F5F8FB" transform="translate(494,139)"/>
<path d="M0 0 C0.33 0 0.66 0 1 0 C1.99 3.96 2.98 7.92 4 12 C5.61 12.12 7.22 12.25 8.88 12.38 C13.75 12.75 13.75 12.75 16 15 C14.71 15.84 13.42 16.67 12.12 17.5 C11.05 18.2 11.05 18.2 9.95 18.91 C8 20 8 20 6 20 C6.33 21.22 6.66 22.43 7 23.69 C7.8 26.87 8.21 29.7 8 33 C4.58 30.75 1.28 28.46 -2 26 C-5.63 27.98 -9.26 29.96 -13 32 C-12.48 30.62 -11.97 29.24 -11.44 27.81 C-9.74 22.88 -9.74 22.88 -11 18 C-12.76 16.29 -14.57 14.74 -16.5 13.23 C-17 12.83 -17.49 12.42 -18 12 C-18 11.67 -18 11.34 -18 11 C-13.71 11 -9.42 11 -5 11 C-4.36 9.37 -3.72 7.74 -3.06 6.06 C-1.12 1.12 -1.12 1.12 0 0 Z " fill="#F4F7FB" transform="translate(410,557)"/>
<path d="M0 0 C0.33 0 0.66 0 1 0 C1.03 1.42 1.05 2.83 1.06 4.25 C1.07 5.04 1.09 5.83 1.1 6.64 C1 8.91 0.63 10.83 0 13 C0.61 13.18 1.23 13.36 1.86 13.55 C2.67 13.8 3.48 14.05 4.31 14.31 C5.11 14.56 5.91 14.8 6.74 15.05 C9 16 9 16 12 19 C5.57 19.5 5.57 19.5 -1 20 C-1.66 24.29 -2.32 28.58 -3 33 C-7 28 -7 28 -9 24 C-13.29 24 -17.58 24 -22 24 C-19.71 21.46 -19.71 21.46 -17.41 18.92 C-15.88 16.83 -15.2 15.59 -15 13 C-15.96 10.87 -15.96 10.87 -17.44 8.88 C-20 5.17 -20 5.17 -20 3 C-14.38 4.79 -14.38 4.79 -11.88 6.19 C-9.43 7.25 -8.48 6.88 -6 6 C-4.29 4.62 -4.29 4.62 -2.81 2.94 C-1.89 1.94 -0.96 0.96 0 0 Z " fill="#F6F8FB" transform="translate(814,405)"/>
<path d="M0 0 C3.63 2.31 7.26 4.62 11 7 C12.44 6.03 13.89 5.06 15.38 4.06 C19.75 1.12 19.75 1.12 22 0 C21.01 4.29 20.02 8.58 19 13 C21.6 14.79 24.21 16.58 26.81 18.37 C27.53 18.91 28.26 19.45 29 20 C29 20.33 29 20.66 29 21 C24.38 21 19.76 21 15 21 C14.71 22.42 14.42 23.85 14.12 25.31 C13.46 28.58 12.9 30.15 11 33 C10.49 31.56 10 30.13 9.5 28.69 C9.22 27.89 8.94 27.09 8.66 26.26 C8 24 8 24 8 21 C3.38 21 -1.24 21 -6 21 C-3.15 18.07 -0.35 15.36 3 13 C2.69 11.58 2.38 10.17 2.06 8.75 C1.89 7.96 1.71 7.17 1.54 6.36 C1.05 4.23 0.53 2.12 0 0 Z " fill="#F5F7FB" transform="translate(410,180)"/>
<path d="M0 0 C4.21 2.03 8.05 4.5 12 7 C14.97 4.69 17.94 2.38 21 0 C22.18 3.55 21.7 4.7 20.56 8.19 C20.13 9.54 20.13 9.54 19.69 10.92 C19.35 11.95 19.35 11.95 19 13 C19.72 13.49 20.44 13.99 21.19 14.5 C22.58 15.46 22.58 15.46 24 16.44 C24.93 17.08 25.86 17.71 26.81 18.37 C27.53 18.91 28.26 19.45 29 20 C29 20.33 29 20.66 29 21 C24.38 21 19.76 21 15 21 C14.71 22.61 14.42 24.22 14.12 25.88 C13.25 30.75 13.25 30.75 11 33 C10.49 31.56 10 30.13 9.5 28.69 C9.22 27.89 8.94 27.09 8.66 26.26 C8 24 8 24 8 21 C3.38 21 -1.24 21 -6 21 C-1 16 -1 16 2 14 C2.66 14 3.32 14 4 14 C3.8 13.32 3.59 12.65 3.38 11.95 C3.11 11.06 2.84 10.17 2.56 9.25 C2.3 8.37 2.03 7.49 1.75 6.58 C1.12 4.39 0.53 2.21 0 0 Z " fill="#F7F9FC" transform="translate(696,177)"/>
<path d="M0 0 C3.39 3.13 5.61 5.57 7 10 C8.03 9.68 8.03 9.68 9.08 9.34 C9.98 9.07 10.88 8.79 11.81 8.5 C12.71 8.22 13.6 7.94 14.52 7.66 C17 7 17 7 20 7 C18.85 9.59 17.7 11.34 15.81 13.5 C13.81 15.75 13.81 15.75 14 17.94 C15.39 20.81 17.22 23.36 19 26 C19 26.66 19 27.32 19 28 C15.04 27.01 11.08 26.02 7 25 C5.87 26.49 4.73 27.97 3.56 29.5 C2.4 31.02 1.22 32.53 0 34 C-0.33 34 -0.66 34 -1 34 C-1.33 29.71 -1.66 25.42 -2 21 C-5.63 19.68 -9.26 18.36 -13 17 C-9.57 13.57 -4.69 13.76 0 13 C0 8.71 0 4.42 0 0 Z " fill="#F6F8FC" transform="translate(318,365)"/>
<path d="M0 0 C2.38 2.98 4.73 5.94 7 9 C11.34 8.39 15.68 7.74 20 7 C18.85 9.58 17.72 11.31 15.81 13.44 C13.77 15.8 13.77 15.8 14 18.38 C15.32 21.84 17.07 24.83 19 28 C18.41 27.84 17.82 27.69 17.21 27.53 C11.04 25.79 11.04 25.79 5 27 C3.52 28.76 2.25 30.56 1.02 32.5 C0.68 33 0.35 33.49 0 34 C-0.33 34 -0.66 34 -1 34 C-1 29.71 -1 25.42 -1 21 C-2.98 20.67 -4.96 20.34 -7 20 C-9.88 18.44 -9.88 18.44 -12 17 C-8.72 13.72 -4.5 13.81 0 13 C0 8.71 0 4.42 0 0 Z " fill="#F5F8FB" transform="translate(763,237)"/>
<path d="M0 0 C2.65 2.58 4.94 4.92 7 8 C11.12 8.37 14.95 7.77 19 7 C17.95 9.27 16.96 11.04 15.31 12.94 C13.8 14.91 13.8 14.91 14 17.25 C15.43 21.2 17.67 24.53 20 28 C15.15 27.22 10.62 25.6 6 24 C5.72 24.6 5.45 25.21 5.16 25.83 C3.6 28.75 1.4 30.73 -1 33 C-1.33 29.04 -1.66 25.08 -2 21 C-5.63 19.68 -9.26 18.36 -13 17 C-13 16.34 -13 15.68 -13 15 C-11.58 14.66 -10.17 14.33 -8.75 14 C-7.57 13.72 -7.57 13.72 -6.36 13.44 C-4 13 -4 13 0 13 C0 8.71 0 4.42 0 0 Z " fill="#F5F7FB" transform="translate(479,602)"/>
<path d="M0 0 C0.33 0 0.66 0 1 0 C1.33 3.96 1.66 7.92 2 12 C5.96 13.32 9.92 14.64 14 16 C10.89 19.11 7.17 19.69 3 21 C3 25.29 3 29.58 3 34 C-2 29 -2 29 -3.38 27.12 C-5.12 25.67 -5.12 25.67 -8.25 26.19 C-11.91 26.98 -15.43 27.91 -19 29 C-16.69 25.37 -14.38 21.74 -12 18 C-12.97 16.74 -13.94 15.48 -14.94 14.19 C-16.86 11.7 -18 10.01 -19 7 C-17.08 7.52 -15.16 8.04 -13.24 8.56 C-10.64 9.07 -8.63 9.37 -6 9 C-4.13 7.05 -4.13 7.05 -2.75 4.5 C-1.85 2.99 -0.93 1.49 0 0 Z " fill="#F5F8FB" transform="translate(813,360)"/>
<path d="M0 0 C0.33 0 0.66 0 1 0 C1 4.62 1 9.24 1 14 C2.05 14.14 3.1 14.29 4.19 14.44 C7.15 14.88 10.07 15.38 13 16 C13 16.66 13 17.32 13 18 C9.7 19.32 6.4 20.64 3 22 C2.67 25.96 2.34 29.92 2 34 C1.26 33.24 0.51 32.47 -0.25 31.69 C-3.39 28.52 -3.39 28.52 -7 26 C-9.86 26.29 -9.86 26.29 -12.75 27.31 C-13.73 27.62 -14.72 27.92 -15.73 28.24 C-16.48 28.49 -17.23 28.74 -18 29 C-17.63 28.4 -17.25 27.79 -16.87 27.17 C-16.4 26.37 -15.92 25.57 -15.44 24.75 C-14.96 23.96 -14.49 23.17 -14 22.36 C-12.84 20.11 -12.84 20.11 -13.16 17.97 C-14.17 15.6 -15.47 13.78 -17.06 11.75 C-17.61 11.04 -18.16 10.34 -18.72 9.61 C-19.14 9.08 -19.57 8.55 -20 8 C-18.42 8.31 -16.83 8.62 -15.25 8.94 C-14.37 9.11 -13.49 9.29 -12.58 9.46 C-10.37 9.92 -8.18 10.43 -6 11 C-5.75 10.3 -5.5 9.6 -5.25 8.88 C-3.83 5.62 -2.07 2.88 0 0 Z " fill="#F7F9FC" transform="translate(633,137)"/>
<path d="M0 0 C0.33 0 0.66 0 1 0 C1 4.29 1 8.58 1 13 C5.64 13.68 5.64 13.68 10.28 14.37 C11.18 14.58 12.07 14.78 13 15 C13.5 15.99 13.5 15.99 14 17 C10.37 18.32 6.74 19.64 3 21 C2.67 24.96 2.34 28.92 2 33 C-0.91 30.78 -2.95 29.07 -5 26 C-9.57 26.55 -13.67 27.42 -18 29 C-17.02 26.29 -16.18 24.21 -14.31 22 C-12.79 20.08 -12.79 20.08 -13 17.69 C-14.4 13.92 -16.56 11.19 -19 8 C-14.71 8.33 -10.42 8.66 -6 9 C-5.03 7.51 -4.06 6.03 -3.06 4.5 C-2.07 2.98 -1.06 1.48 0 0 Z " fill="#F7F9FC" transform="translate(366,241)"/>
<path d="M0 0 C2 1.19 2 1.19 3 3 C3.19 5.69 3.19 5.69 3 8 C2.34 8 1.68 8 1 8 C0.28 7.2 -0.44 6.39 -1.19 5.56 C-4.53 2.52 -6.57 2.26 -11 2 C-7.2 -0.54 -4.46 -0.59 0 0 Z " fill="#28B9CF" transform="translate(504,309)"/>
<path d="M0 0 C0 0.33 0 0.66 0 1 C-6.03 0.49 -12.02 -0.07 -18 -1 C-18 -1.33 -18 -1.66 -18 -2 C-11.65 -3.73 -6.05 -2.21 0 0 Z " fill="#B7C9E6" transform="translate(826,463)"/>
<path d="M0 0 C0.99 0 1.98 0 3 0 C5.19 3 5.19 3 7 6 C6.67 6.66 6.34 7.32 6 8 C2.43 6.12 0.45 4.83 -1 1 C-0.67 0.67 -0.34 0.34 0 0 Z " fill="#2EBBD1" transform="translate(480,302)"/>
<path d="M0 0 C2.97 0.5 2.97 0.5 6 1 C5.67 1.99 5.34 2.98 5 4 C2.94 4.69 2.94 4.69 1 5 C0.67 3.35 0.34 1.7 0 0 Z " fill="#2FBAD0" transform="translate(490,303)"/>
</svg>
