<?xml version="1.0" encoding="UTF-8"?>
<!-- Generator: https://ezgif.com/webp-to-svg -->
<svg version="1.1" xmlns="http://www.w3.org/2000/svg" width="1160" height="773">
<path d="M0 0 C382.8 0 765.6 0 1160 0 C1160 255.09 1160 510.18 1160 773 C777.2 773 394.4 773 0 773 C0 517.91 0 262.82 0 0 Z " fill="#002490" transform="translate(0,0)"/>
<path d="M0 0 C4.44 1.59 8.35 3.89 12.38 6.31 C31.72 17.83 51.41 28.47 71.56 38.5 C72.74 39.09 73.92 39.68 75.13 40.28 C91.84 48.63 108.62 56.55 125.89 63.67 C129.34 65.15 132.72 66.75 136.11 68.37 C144.84 72.51 153.84 75.95 162.88 79.38 C164.62 80.04 166.37 80.71 168.12 81.37 C173.08 83.26 178.04 85.13 183 87 C184.17 87.44 185.34 87.88 186.54 88.34 C215.89 99.36 245.95 109.01 276.2 117.24 C278.69 117.92 281.17 118.61 283.66 119.31 C308.7 126.25 334.43 131.41 360 136 C360.99 136.18 360.99 136.18 362.01 136.36 C379.77 139.56 397.55 142.73 415.51 144.61 C418.67 144.96 421.82 145.37 424.97 145.78 C451.64 149.22 478.33 149.41 505.17 149.43 C508.09 149.44 511.01 149.45 513.94 149.46 C535.16 149.51 555.98 149.25 577 146 C578.61 145.76 580.23 145.53 581.84 145.29 C591.64 143.85 601.04 141.14 610.52 138.3 C613.66 137.37 616.76 136.55 620 136 C616.84 121.23 607.82 107.99 599 96 C603.18 96 605.07 98.3 608.06 100.94 C608.64 101.44 609.22 101.94 609.81 102.46 C610.99 103.48 612.17 104.51 613.34 105.54 C614.8 106.83 616.28 108.09 617.76 109.35 C623.23 114.08 627.68 119.11 631.99 124.91 C632.99 125.94 632.99 125.94 634 127 C642.63 127 649.72 119.93 655.75 114.29 C665.86 104.03 672.23 90.8 672.38 76.31 C672.05 49.95 658.39 24.09 642 4 C642.33 3.34 642.66 2.68 643 2 C651.59 8.35 659.66 15.04 667.37 22.43 C668.46 23.48 669.56 24.52 670.66 25.56 C689.07 42.9 705.74 65.79 707.16 91.89 C707.68 110.27 700.08 126.36 688 140 C677.61 150.13 664.33 157.48 651 163 C650.96 164.43 650.96 164.43 650.92 165.89 C650.23 181.76 644.91 195.95 633 207 C618.41 218.54 602.83 224.4 585 229 C584.9 230.04 584.8 231.08 584.7 232.15 C583.13 247.4 578.81 259.13 566.58 269.18 C551.18 280.03 531.94 286.91 513 287 C512.03 287.01 511.06 287.03 510.06 287.04 C507.71 287.06 505.36 287.05 503 287 C503.1 287.95 503.21 288.9 503.31 289.88 C503.28 296.68 499.36 302.86 494.88 307.75 C486.96 315 477.19 318.28 467 321 C466.34 321.19 465.69 321.38 465.01 321.57 C386.8 338.28 286.56 301.59 220.69 262.44 C219.86 261.95 219.04 261.46 218.19 260.96 C214.35 258.63 210.99 256.41 208 253 C212.42 254.26 216.08 256.09 220.01 258.38 C229.79 264.06 239.89 268.8 250.25 273.31 C250.91 273.6 251.57 273.89 252.26 274.19 C287.62 289.63 324.83 301.13 363 307 C364.25 307.2 365.49 307.39 366.77 307.59 C384.49 310.29 402.02 311.4 419.94 311.5 C420.85 311.51 421.76 311.52 422.71 311.53 C442.88 311.71 466.81 309.5 482.27 295.12 C484.33 292.6 485.58 289.93 487 287 C485.78 287.03 485.78 287.03 484.55 287.06 C439.05 288.06 393.29 282.39 349 272 C347.8 271.72 346.61 271.44 345.37 271.15 C275.85 254.65 210.38 228.21 150 190 C148.87 189.29 147.74 188.59 146.61 187.88 C140.6 184.11 134.77 180.12 129 176 C129.66 175.67 130.32 175.34 131 175 C133.55 176.45 135.99 177.95 138.44 179.56 C170.44 200.41 207.32 215.68 243 229 C243.97 229.36 244.94 229.73 245.94 230.1 C296.29 248.94 348.4 261.51 401.81 267.69 C402.82 267.81 403.84 267.93 404.88 268.05 C423.97 270.14 443.13 270.14 462.31 270.06 C464.63 270.06 466.94 270.05 469.25 270.05 C474.83 270.04 480.42 270.02 486 270 C485.38 268.4 484.75 266.81 484.12 265.21 C483.77 264.32 483.42 263.43 483.06 262.52 C481.75 259.41 480.12 256.68 478.25 253.88 C477.33 252.48 477.33 252.48 476.39 251.05 C475.93 250.38 475.47 249.7 475 249 C475.66 248.67 476.32 248.34 477 248 C477 248.66 477 249.32 477 250 C477.57 250.26 478.14 250.51 478.73 250.77 C485.98 254.69 491.44 261.28 496 268 C509.94 266.32 522.19 263.74 535 258 C535.78 257.67 536.56 257.34 537.36 257 C548.5 251.98 555.58 244.17 560 233 C558.11 233.02 558.11 233.02 556.18 233.03 C492.52 233.51 429.32 229.23 367.13 214.73 C363.94 213.99 360.74 213.28 357.55 212.57 C304.37 200.77 252.41 182.87 203 160 C201.55 159.34 200.11 158.68 198.66 158.02 C188.66 153.41 178.92 148.38 169.22 143.18 C167.19 142.1 165.17 141.04 163.13 139.97 C138.38 126.99 114.92 111.96 92 96 C92.66 95.67 93.32 95.34 94 95 C95.82 95.86 95.82 95.86 98.06 97.25 C98.91 97.77 99.75 98.29 100.62 98.82 C102.02 99.68 102.02 99.68 103.44 100.56 C115.23 107.69 127.34 114.06 139.62 120.29 C142.86 121.93 146.08 123.58 149.3 125.25 C161.56 131.52 173.97 137.33 186.56 142.88 C187.26 143.18 187.96 143.49 188.67 143.81 C208.57 152.6 208.57 152.6 228.94 160.19 C230.61 160.76 232.28 161.34 233.95 161.91 C234.88 162.23 235.82 162.55 236.78 162.88 C240.6 164.21 244.42 165.57 248.23 166.93 C250.48 167.73 252.72 168.53 254.96 169.33 C256.42 169.85 257.87 170.37 259.33 170.89 C269.79 174.65 280.3 177.99 291 181 C291.71 181.2 292.42 181.4 293.15 181.61 C298.3 183.06 303.46 184.47 308.62 185.88 C309.41 186.09 310.2 186.3 311.01 186.52 C326.91 190.82 342.89 194.61 359 198 C360.81 198.38 360.81 198.38 362.65 198.77 C371.69 200.63 380.75 202.13 389.88 203.44 C390.6 203.54 391.33 203.65 392.08 203.76 C396.65 204.41 401.23 205.06 405.8 205.69 C407.89 205.98 409.98 206.28 412.07 206.58 C455.05 212.68 502.59 216.72 545.58 209.36 C550.03 208.69 554.52 208.36 559 208 C555.08 197.42 550.26 187.25 543.07 178.49 C542 177 542 177 542 175 C541.32 175.02 540.64 175.04 539.93 175.06 C498.12 176.14 456.32 170.91 415 165 C413.93 164.85 413.93 164.85 412.84 164.69 C376.55 159.48 340.32 151.79 305 142 C303.07 141.48 301.14 140.95 299.21 140.43 C248.05 126.51 198.19 109.17 150 87 C148.99 86.54 148.99 86.54 147.97 86.07 C122.88 74.51 98.48 62.14 74.49 48.42 C72.39 47.22 70.29 46.03 68.18 44.86 C57.58 38.9 47.29 32.46 37 26 C36.36 25.6 35.71 25.19 35.05 24.78 C26.98 19.71 19.08 14.4 11.19 9.06 C10.2 8.4 9.21 7.74 8.2 7.05 C6.82 6.12 6.82 6.12 5.42 5.16 C4.59 4.6 3.76 4.04 2.91 3.46 C1 2 1 2 0 0 Z " fill="#FAFBFD" transform="translate(232,229)"/>
<path d="M0 0 C17.59 7.97 32.75 27.45 41.31 44.12 C41.65 44.78 41.99 45.44 42.34 46.12 C47.48 56.55 48.55 67.14 45.56 78.44 C40.05 94.53 28.22 104.91 13.28 112.25 C6.08 115.6 -1.39 117.82 -9 120 C-10 120.35 -11 120.71 -12.02 121.07 C-71.98 139.8 -162.69 119.58 -221.75 104.81 C-224.76 104.06 -227.78 103.35 -230.8 102.65 C-296.97 87.14 -365.11 60.61 -422.06 23.26 C-424.3 21.81 -426.56 20.39 -428.82 18.97 C-437.03 13.84 -445.18 8.71 -453 3 C-452.34 2.67 -451.68 2.34 -451 2 C-449.27 2.77 -449.27 2.77 -447.16 4.04 C-446.36 4.51 -445.56 4.98 -444.73 5.47 C-443.41 6.26 -443.41 6.26 -442.06 7.06 C-416.22 22.15 -389.24 35.65 -361.52 46.96 C-358.7 48.12 -355.9 49.31 -353.09 50.5 C-342.35 55.05 -331.61 59.4 -320.56 63.12 C-317.45 64.19 -314.35 65.28 -311.25 66.38 C-297.71 71.13 -284.16 75.62 -270.31 79.37 C-268.13 79.96 -265.97 80.59 -263.8 81.23 C-254.18 84.04 -244.46 86.35 -234.69 88.56 C-233.46 88.84 -232.22 89.12 -230.95 89.41 C-212.75 93.49 -194.5 96.68 -176 99.06 C-175.02 99.19 -174.03 99.32 -173.02 99.45 C-168.08 100.08 -163.15 100.71 -158.21 101.33 C-153.99 101.87 -149.78 102.45 -145.57 103.05 C-113.48 107.33 -77.53 107.9 -45.5 102.69 C-44.7 102.56 -43.89 102.43 -43.06 102.29 C-21.78 98.68 2.9 91.19 16.18 73.01 C22.5 62.2 22.64 50.72 20.36 38.62 C19.45 35.6 18.33 32.86 17 30 C16.72 29.39 16.44 28.77 16.15 28.14 C12.28 19.71 7.88 11.88 2.57 4.26 C1 2 1 2 0 0 Z " fill="#FAFBFD" transform="translate(786,200)"/>
<path d="M0 0 C-6.5 15.17 -20.41 22.79 -35.04 28.83 C-37.01 29.61 -38.99 30.32 -41 31 C-42.02 31.37 -43.04 31.74 -44.09 32.12 C-47.51 31.98 -47.92 31.5 -50.26 29.17 C-51.42 27.86 -52.56 26.53 -53.69 25.19 C-54.91 23.8 -56.14 22.41 -57.38 21.03 C-57.98 20.34 -58.59 19.66 -59.21 18.95 C-62.51 15.35 -66.14 12.18 -69.79 8.95 C-71.6 7.35 -73.31 5.71 -75 4 C-74.02 3.98 -73.03 3.96 -72.02 3.94 C-48.23 3.45 -23.58 -0.71 0 0 Z " fill="#032691" transform="translate(851,401)"/>
<path d="M0 0 C10.41 4.2 10.41 4.2 14.02 7.82 C13.65 10.44 13.65 10.44 13.02 12.82 C-2.27 17.71 -18.87 14.29 -33.6 8.94 C-34.25 8.71 -34.9 8.48 -35.57 8.24 C-40.22 6.44 -43.49 4.32 -46.98 0.82 C-46.98 -0.5 -46.98 -1.82 -46.98 -3.18 C-34.24 -10.58 -12.87 -4.92 0 0 Z " fill="#F8F9FC" transform="translate(573.97509765625,565.18310546875)"/>
<path d="M0 0 C4.97 1.73 9.31 4.43 13.81 7.12 C14.6 7.59 15.39 8.06 16.2 8.54 C18.14 9.69 20.07 10.84 22 12 C21.67 12.99 21.34 13.98 21 15 C17.5 12.69 14 10.38 10.5 8.06 C9.5 7.4 8.5 6.74 7.46 6.06 C6.52 5.44 5.57 4.81 4.59 4.16 C3.71 3.58 2.83 3 1.93 2.4 C1.29 1.94 0.66 1.48 0 1 C0 0.67 0 0.34 0 0 Z " fill="#D8DDEE" transform="translate(324,324)"/>
<path d="M0 0 C4.2 1.51 7.87 3.63 11.62 6 C12.2 6.36 12.77 6.71 13.36 7.08 C15.93 8.68 18.48 10.32 21 12 C20.01 12.33 19.02 12.66 18 13 C15.55 11.74 15.55 11.74 12.75 9.88 C11.29 8.91 11.29 8.91 9.81 7.92 C8.88 7.29 7.95 6.65 7 6 C6.25 5.49 5.5 4.98 4.72 4.45 C3.12 3.34 1.56 2.18 0 1 C0 0.67 0 0.34 0 0 Z " fill="#C6CEE6" transform="translate(361,404)"/>
<path d="M0 0 C6.16 1.67 11.48 4.88 17 8 C16.67 8.99 16.34 9.98 16 11 C13.33 9.36 10.66 7.71 8 6.06 C7.24 5.59 6.47 5.13 5.69 4.64 C4.97 4.19 4.24 3.75 3.5 3.29 C2.83 2.87 2.16 2.46 1.47 2.03 C0.98 1.69 0.5 1.35 0 1 C0 0.67 0 0.34 0 0 Z " fill="#D9DEEE" transform="translate(440,482)"/>
<path d="M0 0 C4.39 1.6 8.29 3.78 12.31 6.12 C12.96 6.5 13.6 6.87 14.27 7.25 C15.85 8.17 17.42 9.08 19 10 C18.01 10.66 17.02 11.32 16 12 C13.52 10.38 11.04 8.75 8.56 7.12 C7.86 6.66 7.15 6.2 6.42 5.73 C5.75 5.29 5.07 4.84 4.38 4.38 C3.76 3.97 3.13 3.57 2.49 3.15 C1 2 1 2 0 0 Z " fill="#CFD6EA" transform="translate(232,229)"/>
<path d="M0 0 C4.14 1.54 7.94 3.51 11.81 5.62 C12.41 5.95 13.01 6.27 13.62 6.61 C15.08 7.4 16.54 8.2 18 9 C17.01 9.66 16.02 10.32 15 11 C13.25 9.92 11.5 8.84 9.75 7.75 C8.78 7.15 7.8 6.54 6.8 5.92 C4.2 4.14 2.14 2.3 0 0 Z " fill="#D0D6EA" transform="translate(333,202)"/>
</svg>
