<?xml version="1.0" encoding="UTF-8"?>
<!-- Generator: https://ezgif.com/webp-to-svg -->
<svg version="1.1" xmlns="http://www.w3.org/2000/svg" width="1160" height="773">
<path d="M0 0 C382.8 0 765.6 0 1160 0 C1160 255.09 1160 510.18 1160 773 C777.2 773 394.4 773 0 773 C0 517.91 0 262.82 0 0 Z " fill="#0039A6" transform="translate(0,0)"/>
<path d="M0 0 C1.35 -0 1.35 -0 2.73 -0.01 C4.63 -0.02 6.53 -0.02 8.43 -0.02 C11.28 -0.02 14.12 -0.04 16.97 -0.06 C32.64 -0.11 47.9 1.08 63.26 4.36 C64.26 4.57 65.27 4.78 66.3 5 C100.95 12.68 134.33 29.33 161.45 52.17 C161.97 52.61 162.5 53.05 163.05 53.5 C175 63.45 185.82 73.89 195.45 86.17 C196.24 87.14 197.03 88.11 197.84 89.12 C222.25 119.76 238.14 157.15 244.07 195.76 C244.4 197.85 244.76 199.93 245.13 202.01 C248.6 224.05 247.62 248.55 243.7 270.42 C243.52 271.4 243.34 272.39 243.16 273.4 C241.48 282.51 239.24 291.34 236.45 300.17 C236.2 300.94 235.96 301.71 235.72 302.51 C227.64 328.1 215.19 352.18 198.45 373.17 C197.37 374.53 197.37 374.53 196.27 375.92 C190.63 382.96 184.63 389.61 178.45 396.17 C177.41 397.27 177.41 397.27 176.36 398.39 C171.11 403.8 165.37 408.51 159.45 413.17 C158.52 413.9 157.59 414.63 156.64 415.39 C127.63 437.74 93.77 453.03 57.88 460.04 C56.85 460.25 55.82 460.45 54.75 460.66 C40.71 463.25 26.56 463.41 12.32 463.42 C11.46 463.42 10.59 463.42 9.7 463.42 C-2.98 463.4 -15.13 462.89 -27.55 460.17 C-29.33 459.81 -31.11 459.46 -32.89 459.1 C-50.4 455.48 -67.53 450.33 -83.51 442.21 C-84.98 441.46 -86.45 440.73 -87.93 440 C-106.44 430.85 -123.16 419.94 -138.55 406.17 C-139.45 405.39 -140.34 404.61 -141.25 403.8 C-150.56 395.57 -158.85 386.92 -166.55 377.17 C-167.32 376.23 -168.09 375.29 -168.89 374.32 C-195.28 341.31 -211.24 300.92 -216.55 259.17 C-216.7 258.08 -216.7 258.08 -216.84 256.98 C-217.8 248.84 -217.8 240.67 -217.8 232.48 C-217.81 231.71 -217.81 230.93 -217.81 230.14 C-217.79 216.95 -217 204.15 -214.55 191.17 C-214.39 190.27 -214.22 189.38 -214.05 188.46 C-207.16 152.72 -192.3 118.68 -169.55 90.17 C-168.84 89.26 -168.12 88.35 -167.38 87.41 C-161.74 80.38 -155.73 73.73 -149.55 67.17 C-148.94 66.51 -148.32 65.85 -147.69 65.17 C-142.72 60.02 -137.15 55.61 -131.55 51.17 C-130.59 50.38 -129.62 49.6 -128.62 48.79 C-93.14 20.62 -45.85 0.06 0 0 Z " fill="#ED2A38" transform="translate(565.5546875,154.83203125)"/>
<path d="M0 0 C1.35 -0 1.35 -0 2.73 -0.01 C4.63 -0.02 6.53 -0.02 8.43 -0.02 C11.28 -0.02 14.12 -0.04 16.97 -0.06 C32.64 -0.11 47.9 1.08 63.26 4.36 C64.26 4.57 65.27 4.78 66.3 5 C100.95 12.68 134.33 29.33 161.45 52.17 C161.97 52.61 162.5 53.05 163.05 53.5 C175 63.45 185.82 73.89 195.45 86.17 C196.24 87.14 197.03 88.11 197.84 89.12 C222.25 119.76 238.14 157.15 244.07 195.76 C244.4 197.85 244.76 199.93 245.13 202.01 C248.6 224.05 247.62 248.55 243.7 270.42 C243.52 271.4 243.34 272.39 243.16 273.4 C241.48 282.51 239.24 291.34 236.45 300.17 C236.2 300.94 235.96 301.71 235.72 302.51 C227.64 328.1 215.19 352.18 198.45 373.17 C197.37 374.53 197.37 374.53 196.27 375.92 C190.63 382.96 184.63 389.61 178.45 396.17 C177.41 397.27 177.41 397.27 176.36 398.39 C171.11 403.8 165.37 408.51 159.45 413.17 C158.52 413.9 157.59 414.63 156.64 415.39 C127.63 437.74 93.77 453.03 57.88 460.04 C56.85 460.25 55.82 460.45 54.75 460.66 C40.71 463.25 26.56 463.41 12.32 463.42 C11.46 463.42 10.59 463.42 9.7 463.42 C-2.98 463.4 -15.13 462.89 -27.55 460.17 C-29.33 459.81 -31.11 459.46 -32.89 459.1 C-50.4 455.48 -67.53 450.33 -83.51 442.21 C-84.98 441.46 -86.45 440.73 -87.93 440 C-106.44 430.85 -123.16 419.94 -138.55 406.17 C-139.45 405.39 -140.34 404.61 -141.25 403.8 C-150.56 395.57 -158.85 386.92 -166.55 377.17 C-167.32 376.23 -168.09 375.29 -168.89 374.32 C-195.28 341.31 -211.24 300.92 -216.55 259.17 C-216.7 258.08 -216.7 258.08 -216.84 256.98 C-217.8 248.84 -217.8 240.67 -217.8 232.48 C-217.81 231.71 -217.81 230.93 -217.81 230.14 C-217.79 216.95 -217 204.15 -214.55 191.17 C-214.39 190.27 -214.22 189.38 -214.05 188.46 C-207.16 152.72 -192.3 118.68 -169.55 90.17 C-168.84 89.26 -168.12 88.35 -167.38 87.41 C-161.74 80.38 -155.73 73.73 -149.55 67.17 C-148.94 66.51 -148.32 65.85 -147.69 65.17 C-142.72 60.02 -137.15 55.61 -131.55 51.17 C-130.59 50.38 -129.62 49.6 -128.62 48.79 C-93.14 20.62 -45.85 0.06 0 0 Z M-41.75 17.68 C-42.52 17.91 -43.29 18.15 -44.08 18.4 C-45.31 18.78 -45.31 18.78 -46.55 19.17 C-47.9 19.57 -47.9 19.57 -49.27 19.98 C-70.57 26.41 -91.43 35.08 -109.55 48.17 C-110.19 48.62 -110.83 49.07 -111.48 49.54 C-119.79 55.49 -127.58 61.76 -135.01 68.77 C-137.08 70.72 -139.17 72.55 -141.37 74.36 C-145.19 77.6 -148.32 81.34 -151.55 85.17 C-152.37 86.08 -153.18 87 -154.02 87.94 C-193.67 132.84 -209.63 191.35 -206.25 250.29 C-204.47 275.76 -198.26 301.38 -186.55 324.17 C-185.94 325.43 -185.33 326.7 -184.72 327.97 C-177.95 341.97 -170.23 354.96 -160.55 367.17 C-159.85 368.07 -159.14 368.97 -158.41 369.9 C-150.27 380.06 -141.63 389.89 -131.55 398.17 C-130.66 398.93 -129.77 399.7 -128.86 400.49 C-98.43 426.47 -61.74 442.67 -22.55 450.17 C-21.59 450.35 -20.62 450.54 -19.62 450.73 C-9.42 452.45 0.73 452.51 11.06 452.48 C14.04 452.48 17.03 452.5 20.02 452.53 C36.11 452.58 51.85 451.02 67.45 446.92 C68.67 446.6 68.67 446.6 69.92 446.28 C105.02 436.88 137.45 419.55 163.9 394.56 C165.97 392.62 168.06 390.78 170.26 388.98 C174.08 385.73 177.21 381.99 180.45 378.17 C181.26 377.25 182.07 376.34 182.91 375.4 C222.82 330.2 238.08 271.74 235.2 212.55 C233.91 192.17 228.95 172.12 221.45 153.17 C221.18 152.48 220.92 151.79 220.65 151.08 C210.99 125.92 196.92 103.58 178.73 83.68 C177.19 81.99 175.67 80.28 174.16 78.56 C169.54 73.32 164.84 68.59 159.45 64.17 C158.94 63.74 158.43 63.32 157.91 62.88 C142.63 50.1 126.26 40.04 108.45 31.17 C107.44 30.67 106.43 30.16 105.4 29.64 C93.8 24.13 81.51 20.31 69.13 16.98 C68.27 16.74 67.41 16.5 66.52 16.26 C50.29 12.05 34.1 10.67 17.38 10.78 C14.45 10.79 11.51 10.78 8.58 10.76 C-8.58 10.74 -25.32 12.55 -41.75 17.68 Z " fill="#FBF9FB" transform="translate(565.5546875,154.83203125)"/>
<path d="M0 0 C2.81 -0.03 5.62 -0.05 8.44 -0.06 C9.24 -0.07 10.04 -0.08 10.87 -0.09 C12.91 -0.1 14.96 -0.05 17 0 C18.71 1.71 18.17 3.92 18.24 6.22 C18.9 26.59 22.7 45.98 30 65 C30.24 65.66 30.49 66.31 30.74 66.98 C36.91 83.32 46.35 97.16 57.61 110.36 C59.46 112.54 61.23 114.76 63 117 C62.36 117.6 62.36 117.6 61.7 118.22 C57.03 122.73 53.18 127.52 49.44 132.81 C48.87 133.62 48.3 134.42 47.71 135.25 C46.13 137.49 44.56 139.74 43 142 C42.39 142.88 41.78 143.75 41.14 144.66 C32.39 158.19 26.88 174.44 23 190 C22.7 191.13 22.41 192.27 22.11 193.44 C19.85 203.21 19.27 213.08 18.65 223.07 C18.54 224.78 18.54 224.78 18.43 226.52 C18.37 227.55 18.31 228.58 18.25 229.65 C18 232 18 232 17 233 C14.14 233.07 11.3 233.09 8.44 233.06 C7.63 233.06 6.82 233.05 5.99 233.05 C4 233.04 2 233.02 0 233 C-1.79 196.45 10.37 160.18 35 133 C41.14 126.86 47.57 121.51 55 117 C54.3 116.45 53.61 115.89 52.89 115.32 C24.76 92.74 8.29 65.72 2 30 C1.69 28.31 1.69 28.31 1.38 26.59 C-0.08 17.67 -0.21 9 0 0 Z " fill="#F8DD01" transform="translate(464,270)"/>
<path d="M0 0 C1.58 0.01 3.16 0.02 4.75 0.04 C5.55 0.04 6.36 0.04 7.19 0.05 C9.19 0.06 11.19 0.08 13.18 0.1 C14.63 34.96 3.4 69.27 -18.82 96.1 C-19.58 97.11 -20.34 98.12 -21.13 99.16 C-27.14 105.73 -34.5 111.05 -41.82 116.1 C-41.12 116.65 -40.43 117.2 -39.71 117.77 C-8.23 143.05 8.3 175.22 12.88 215.24 C13.35 221.2 13.35 227.12 13.18 233.1 C10.37 233.12 7.56 233.14 4.75 233.16 C3.94 233.17 3.14 233.18 2.31 233.19 C0.27 233.19 -1.77 233.15 -3.82 233.1 C-5.51 231.4 -5.07 229.19 -5.18 226.87 C-7.31 188.31 -18.5 152.05 -44.47 122.77 C-46.37 120.61 -48.13 118.43 -49.82 116.1 C-49.21 115.47 -48.6 114.83 -47.98 114.18 C-20.24 84.56 -6.06 45.16 -4.99 4.83 C-4.77 0.12 -4.77 0.12 0 0 Z " fill="#F8DE01" transform="translate(682.81640625,269.90234375)"/>
<path d="M0 0 C5.94 0 11.88 0 18 0 C18.3 11.83 17.53 22.46 15 34 C14.86 34.65 14.72 35.31 14.58 35.98 C7.88 66.82 -5.85 92.02 -26 116 C-22.8 120.31 -19.57 124.57 -16.12 128.69 C-11.5 134.46 -7.7 140.61 -4 147 C-3.66 147.57 -3.33 148.14 -2.98 148.72 C11.79 173.94 18.51 203.97 18 233 C12.06 233 6.12 233 0 233 C-0.01 231.75 -0.03 230.5 -0.04 229.21 C-0.52 208.25 -3.71 187.03 -10 167 C-10.19 166.38 -10.38 165.76 -10.58 165.12 C-14.29 153.12 -19.33 142.18 -25.12 131.06 C-25.56 130.23 -25.99 129.4 -26.43 128.55 C-26.85 127.76 -27.27 126.97 -27.7 126.16 C-28.07 125.46 -28.44 124.75 -28.82 124.02 C-29.99 121.92 -29.99 121.92 -31.65 119.85 C-33 118 -33 118 -32.94 116.19 C-31.56 112.97 -29.78 110.01 -28 107 C-22.61 97.65 -18.2 87.94 -14 78 C-13.52 76.88 -13.03 75.76 -12.54 74.6 C-3.28 51.12 -0.97 24.98 0 0 Z " fill="#F8DD01" transform="translate(654,270)"/>
<path d="M0 0 C5.94 0 11.88 0 18 0 C18.03 1.45 18.05 2.91 18.08 4.41 C19.04 42.62 28.63 78.89 48.65 111.55 C50.89 115.62 50.89 115.62 51 118 C49.63 120.67 49.63 120.67 47.56 123.75 C26.54 156.32 18.68 194.7 18 233 C12.06 233 6.12 233 0 233 C-0.96 190.08 14.59 148.48 44 117 C41.43 113.48 38.85 109.98 35.98 106.69 C13.86 81.22 -0.42 42.29 -0.06 8.5 C-0.04 5.69 -0.02 2.89 0 0 Z " fill="#F8DD01" transform="translate(488,270)"/>
<path d="M0 0 C5.61 0 11.22 0 17 0 C17 76.56 17 153.12 17 232 C11.39 232 5.78 232 0 232 C-0.42 183.06 -0.42 183.06 2 165 C2.09 164.34 2.17 163.68 2.26 163.01 C6.18 133.5 6.18 133.5 8.16 124.58 C9.81 116.62 9.11 109.34 7.25 101.5 C5.16 91.92 3.93 82.29 2.81 72.56 C2.73 71.84 2.64 71.12 2.56 70.37 C2 65.58 1.49 60.79 1 56 C0.89 54.96 0.78 53.93 0.67 52.86 C-0.32 42.16 -0.11 31.42 -0.06 20.69 C-0.06 18.68 -0.05 16.66 -0.05 14.65 C-0.04 9.77 -0.02 4.88 0 0 Z " fill="#F8E000" transform="translate(560,271)"/>
<path d="M0 0 C1.58 0.01 3.16 0.02 4.75 0.04 C5.55 0.04 6.36 0.04 7.19 0.05 C9.19 0.06 11.19 0.08 13.18 0.1 C14.04 36.75 5.76 73.32 -13.13 105 C-13.51 105.64 -13.88 106.27 -14.27 106.93 C-15.31 108.67 -16.38 110.39 -17.45 112.11 C-19 115.49 -19.08 116.65 -17.82 120.1 C-16.7 122.3 -16.7 122.3 -15.25 124.47 C4.95 157.25 14.57 194.61 13.18 233.1 C10.37 233.12 7.56 233.14 4.75 233.16 C3.94 233.17 3.14 233.18 2.31 233.19 C0.27 233.19 -1.77 233.15 -3.82 233.1 C-5.58 231.34 -4.99 228.82 -5.03 226.43 C-5.05 225.24 -5.08 224.04 -5.11 222.82 C-5.13 221.53 -5.16 220.24 -5.19 218.91 C-5.55 206.14 -6.73 193.71 -8.82 181.1 C-9.05 179.63 -9.28 178.17 -9.5 176.7 C-12.5 158.16 -16.19 137.83 -24.89 121.02 C-26.47 117.73 -26.31 114.71 -25.25 111.25 C-24.44 109.14 -23.58 107.06 -22.69 104.97 C-10.26 74.13 -6.12 42.01 -5.16 8.95 C-5.13 7.94 -5.09 6.93 -5.06 5.89 C-5.04 4.99 -5.01 4.09 -4.99 3.16 C-4.68 -0.53 -3.91 0.1 0 0 Z " fill="#F8DD01" transform="translate(634.81640625,269.90234375)"/>
<path d="M0 0 C2.81 -0.03 5.62 -0.05 8.44 -0.06 C9.24 -0.07 10.04 -0.08 10.87 -0.09 C12.91 -0.1 14.96 -0.05 17 0 C18.7 1.7 18.19 3.93 18.25 6.27 C18.28 7.37 18.31 8.48 18.34 9.62 C18.37 10.82 18.4 12.02 18.44 13.25 C19.56 46.34 24.06 80.4 38 110.77 C39.93 116.99 37.75 122.06 35.38 127.88 C22.35 161.44 18.36 197.27 17 233 C11.39 233 5.78 233 0 233 C-1.31 192.22 9.23 152.15 32 118 C31.69 113.99 30.21 111.5 27.94 108.25 C23.11 100.88 19.56 93.03 16 85 C15.47 83.84 14.95 82.68 14.41 81.49 C3.23 55.43 -0.75 28.13 0 0 Z " fill="#F8DD01" transform="translate(512,270)"/>
<path d="M0 0 C5.61 0 11.22 0 17 0 C17.19 21.77 17.36 43.33 15 65 C14.84 66.59 14.68 68.17 14.53 69.76 C13.7 77.75 12.37 85.57 10.73 93.43 C10.02 96.89 9.39 100.34 8.81 103.81 C8.65 104.77 8.5 105.72 8.33 106.71 C7.38 116.12 8.63 124.72 10.31 134 C12.06 143.95 13.61 153.9 14.75 163.94 C14.87 164.93 14.98 165.93 15.1 166.96 C16.77 182.15 17.13 197.17 17.06 212.44 C17.06 214.34 17.05 216.25 17.05 218.16 C17.04 222.77 17.02 227.39 17 232 C11.39 232 5.78 232 0 232 C0 155.44 0 78.88 0 0 Z " fill="#F8E000" transform="translate(583,271)"/>
<path d="M0 0 C5.61 0 11.22 0 17 0 C17.11 2.57 17.22 5.13 17.33 7.77 C18.65 37.73 20.47 67.41 25.29 97.03 C25.88 100.68 26.45 104.34 27 108 C27.22 109.45 27.22 109.45 27.45 110.94 C28.35 118.17 27.27 124.48 25.75 131.56 C20.74 156.89 19.19 182.27 18 208 C17.94 209.27 17.88 210.54 17.82 211.85 C17.53 218.23 17.25 224.62 17 231 C11.39 231 5.78 231 0 231 C-0.54 211.53 0.68 193.21 4 174 C4.18 172.95 4.35 171.91 4.54 170.83 C7.51 153.66 11.63 135.02 19.84 119.54 C21.31 116.33 21.13 115.33 20 112 C19.15 109.73 18.27 107.47 17.37 105.21 C3.85 71.37 -0.6 36.26 0 0 Z " fill="#F8DF01" transform="translate(536,271)"/>
<path d="M0 0 C5.61 0 11.22 0 17 0 C17.54 31.44 14.32 63.15 4 93 C3.59 94.2 3.59 94.2 3.18 95.42 C-1.41 108.98 -1.41 108.98 -3.23 112.16 C-5.24 116.99 -1.67 122.49 0.19 127 C13.35 160.11 17.83 195.55 17 231 C11.39 231 5.78 231 0 231 C-0.04 229.54 -0.07 228.08 -0.11 226.57 C-1.1 193.06 -2.21 158.49 -9.62 125.7 C-11.67 116.26 -10.71 108.89 -8.75 99.5 C-2.37 66.74 -1.2 33.27 0 0 Z " fill="#F8DF00" transform="translate(607,271)"/>
</svg>
