<?xml version="1.0" encoding="UTF-8"?>
<!-- Generator: https://ezgif.com/webp-to-svg -->
<svg version="1.1" xmlns="http://www.w3.org/2000/svg" width="1160" height="772">
<path d="M0 0 C382.8 0 765.6 0 1160 0 C1160 254.76 1160 509.52 1160 772 C777.2 772 394.4 772 0 772 C0 517.24 0 262.48 0 0 Z " fill="#00ABC2" transform="translate(0,0)"/>
<path d="M0 0 C4.18 1.86 5.73 3.99 8 8 C10.51 14.56 10.24 20.94 10.16 27.9 C10.15 29.13 10.15 30.36 10.14 31.63 C10.13 35.54 10.1 39.46 10.06 43.38 C10.03 47.31 10.01 51.25 9.99 55.19 C9.98 57.63 9.96 60.08 9.94 62.53 C9.93 63.63 9.92 64.73 9.92 65.86 C9.91 66.83 9.9 67.8 9.89 68.8 C9.75 70.98 9.75 70.98 11 72 C11.29 71.03 11.59 70.05 11.89 69.05 C15.02 59.04 18.86 49.48 23.06 39.88 C27.37 30.03 31.19 20.37 34 10 C34.37 8.69 34.74 7.39 35.12 6.08 C35.55 4.56 35.55 4.56 36 3 C36.66 3 37.32 3 38 3 C43.51 11.86 43.35 21.49 41.3 31.39 C40.24 35.91 39.14 40.42 38 44.92 C35.41 55.2 34.02 64.41 35 75 C35.34 74.32 35.69 73.63 36.04 72.93 C39.96 65.38 44.34 58.22 48.94 51.06 C57.06 38.41 64.39 25.99 70 12 C70.99 12.33 71.98 12.66 73 13 C77.23 25.68 73.25 38.41 68 50 C66.79 52.7 65.6 55.4 64.41 58.11 C63.62 59.9 62.81 61.69 61.98 63.47 C59.36 69.33 58.25 74.58 58 81 C58.48 80.32 58.95 79.64 59.44 78.94 C64.08 72.52 69.04 66.67 74.5 60.94 C84.99 49.92 94.7 38.43 102 25 C102.66 25 103.32 25 104 25 C106.95 30.9 105.14 38.53 103.25 44.5 C99.86 53.31 94.58 60.98 89.42 68.84 C84.3 76.64 80.03 83.54 79 93 C79.45 92.53 79.9 92.05 80.36 91.57 C85.04 86.76 89.97 82.49 95.2 78.29 C98.8 75.35 102.23 72.25 105.67 69.11 C107.75 67.23 109.87 65.39 112 63.56 C118.25 58.11 124.2 52.26 129.5 45.88 C130.74 44.45 130.74 44.45 132 43 C132.66 43 133.32 43 134 43 C135.4 53.92 131.08 62.32 124.88 70.95 C121.11 75.65 117.04 80.03 112.94 84.44 C106.8 91.11 101.12 98.41 98 107 C98.46 106.64 98.91 106.28 99.38 105.91 C104.83 101.7 110.54 98.19 116.5 94.75 C118.46 93.61 120.41 92.46 122.36 91.31 C123.8 90.47 123.8 90.47 125.26 89.61 C142.07 79.95 142.07 79.95 156.61 67.25 C158 66 158 66 161 66 C157.61 85.12 144.61 95.45 130 107 C123.73 111.96 119.33 117.27 115 124 C115.87 123.56 116.74 123.12 117.63 122.67 C128.71 117.22 140.12 112.76 151.69 108.48 C160.86 105.05 170.41 101.39 178.17 95.29 C180 94 180 94 183 94 C182.69 101.48 179.3 105.68 174.13 110.88 C168.12 116.41 161.64 120.46 154.56 124.5 C141.05 131.37 141.05 131.37 131 142 C131.77 141.74 132.54 141.48 133.34 141.22 C141.6 138.56 149.78 136.82 158.31 135.31 C171.45 132.86 183.61 128.96 195.93 123.73 C198 123 198 123 201 123 C199.66 129.93 194.34 135.47 188.71 139.44 C180.27 144.31 171.03 147.86 161.94 151.34 C154.68 154.13 148.36 157.53 142 162 C142.33 162.33 142.66 162.66 143 163 C145.89 162.76 148.75 162.46 151.62 162.12 C159.34 161.27 166.99 160.8 174.75 160.56 C185.39 160.2 195.45 158.95 205.69 155.9 C209 155 209 155 213 155 C212.62 158.41 211.18 160.34 208.7 162.64 C197.44 171.62 183.99 174.66 170.23 177.71 C161.92 179.61 153.76 181.6 147 187 C147.62 187.02 148.25 187.04 148.89 187.06 C151.8 187.16 154.71 187.27 157.62 187.38 C158.6 187.41 159.58 187.44 160.59 187.47 C165.99 187.68 171.2 188.15 176.53 189.03 C185.63 190.41 194.69 190.22 203.88 190.12 C205.64 190.11 207.41 190.11 209.18 190.1 C213.45 190.08 217.73 190.04 222 190 C219.14 196.14 214.39 198.74 208.23 201.06 C196.46 204.49 183.91 205.37 171.74 206.18 C165.5 206.65 159.92 207.98 154 210 C157.73 211.45 161.31 212.24 165.25 212.81 C170.59 213.65 175.69 214.95 180.88 216.44 C195.09 220.49 209.38 222.93 224 225 C221.04 229.39 218.1 231.71 213 233 C208.32 233.4 203.67 233.35 198.97 233.29 C197.62 233.29 196.26 233.28 194.9 233.28 C191.35 233.27 187.79 233.24 184.24 233.21 C180.61 233.18 176.98 233.16 173.34 233.15 C166.23 233.11 159.11 233.06 152 233 C152 233.66 152 234.32 152 235 C152.61 235.1 153.22 235.19 153.85 235.29 C160.29 236.42 165.74 238.38 171.62 241.19 C173.39 242 175.16 242.81 176.92 243.62 C179.32 244.74 181.73 245.87 184.12 247.01 C195.09 252.21 206.23 255.51 218.01 258.45 C220 259 220 259 222 260 C222 260.66 222 261.32 222 262 C204.9 269.71 187.03 264.17 169.72 259.37 C163.16 257.68 156.74 257.81 150 258 C151.1 258.59 152.2 259.19 153.34 259.8 C161.29 264.13 169.07 268.57 176.62 273.56 C192.51 284.03 192.51 284.03 210.06 291.15 C210.7 291.43 211.34 291.71 212 292 C212.33 292.99 212.66 293.98 213 295 C209.48 297.16 206.59 297.3 202.5 297.31 C201.38 297.33 200.25 297.35 199.09 297.36 C188.55 296.78 178.78 292.51 169.19 288.44 C156.07 282.6 156.07 282.6 142 281 C142.49 281.29 142.97 281.59 143.48 281.89 C153.55 288.26 162.28 296.42 170.94 304.56 C175.35 308.64 179.92 312.36 184.75 315.94 C185.35 316.39 185.95 316.83 186.57 317.3 C190.84 320.39 195.24 322.74 200 325 C199.67 325.99 199.34 326.98 199 328 C182.2 328.88 171.52 323.08 157.73 314.28 C148.72 308.57 140.28 303.99 130 301 C130 301.66 130 302.32 130 303 C130.55 303.22 131.11 303.44 131.68 303.66 C134.74 305.43 136.86 307.83 139.19 310.44 C139.67 310.97 140.15 311.5 140.65 312.05 C144.51 316.37 148.18 320.83 151.81 325.34 C154.73 328.88 157.79 332.28 160.89 335.66 C162.8 337.77 164.62 339.94 166.44 342.12 C169.84 346.08 173.79 349.13 177.96 352.24 C180 354 180 354 181 357 C169.2 358.17 160.05 353.37 150.84 346.37 C147.09 343.24 143.59 339.88 140.07 336.52 C133.29 330.19 125.38 324.98 117 321 C117.86 322.12 117.86 322.12 118.73 323.25 C124.32 330.72 129.09 338.47 133.62 346.62 C139.95 357.99 146.16 368.48 155.21 377.94 C157 380 157 380 158 383 C149.94 383.78 145.35 381.97 139 377 C132 370.87 125.96 363.93 120.15 356.67 C114.39 349.5 109.14 343.44 101 339 C101.66 340.19 101.66 340.19 102.33 341.41 C106.97 350.13 110.62 359.09 114.05 368.33 C118.36 379.92 123.05 390.56 130.02 400.86 C132 404 132 404 132 407 C115.85 402.56 108.31 389.71 100.29 376.17 C95.08 367.41 89.48 359.97 82 353 C82.19 353.66 82.38 354.31 82.57 354.99 C84.5 361.9 86.08 368.84 87.5 375.88 C87.94 378 88.38 380.13 88.82 382.26 C89.47 385.41 90.11 388.55 90.71 391.71 C92.71 401.56 96.58 410.75 100.31 420.05 C101 422 101 422 101 424 C94.24 423.15 90.32 419.02 86 414 C80.59 405.73 77.17 396.16 73.51 387.03 C70.27 379.02 66.53 371.68 61 365 C61.13 366.04 61.27 367.07 61.4 368.14 C62.46 376.99 63.09 385.73 63.24 394.65 C63.48 407.71 64.78 419.56 68.56 432.08 C69 434 69 434 69 438 C63.3 436.62 60.11 432.72 57 428 C51.86 417.5 49.28 405.98 46.54 394.67 C44.58 386.74 42.57 378.86 38 372 C37.98 372.59 37.96 373.18 37.94 373.78 C37.84 376.54 37.73 379.3 37.62 382.06 C37.59 382.99 37.56 383.91 37.53 384.86 C37.31 390.33 36.8 395.65 36 401.06 C34.75 410.01 34.55 418.92 34.38 427.94 C34.34 429.6 34.3 431.27 34.26 432.94 C34.16 436.96 34.08 440.98 34 445 C29.9 443.08 27.22 440.98 25 437 C21.31 426.43 20.17 415.91 19.44 404.81 C18.77 394.94 17.84 385.54 15 376 C14.81 376.85 14.81 376.85 14.62 377.72 C12.37 387.86 10.07 397.97 7.38 408 C4.33 419.4 1.77 430.4 1.21 442.23 C1 445 1 445 0 447 C-2.53 446.01 -3.78 445.36 -5.23 443.01 C-5.55 442.24 -5.86 441.48 -6.19 440.69 C-6.51 439.93 -6.83 439.17 -7.17 438.39 C-8.98 433.2 -9.15 428.27 -9.12 422.81 C-9.13 422.11 -9.13 421.4 -9.14 420.68 C-9.13 416.82 -8.93 413.06 -8.5 409.23 C-7.87 403.34 -7.82 397.48 -7.81 391.56 C-7.8 390.49 -7.79 389.41 -7.78 388.31 C-7.77 387.28 -7.77 386.25 -7.77 385.19 C-7.77 384.27 -7.76 383.34 -7.76 382.39 C-7.84 379.73 -7.84 379.73 -10 377 C-10.21 377.77 -10.43 378.53 -10.65 379.32 C-13.24 388.19 -16.66 396.52 -20.44 404.94 C-26.43 418.33 -31.76 431.63 -35 446 C-37.78 444.33 -38.9 443.23 -40.22 440.23 C-44.19 423.81 -38.68 404.84 -33.84 389.12 C-32.88 385.57 -32.58 382.24 -32.38 378.56 C-32.3 377.33 -32.23 376.09 -32.15 374.82 C-32.1 373.89 -32.05 372.96 -32 372 C-32.66 372 -33.32 372 -34 372 C-34.26 372.86 -34.52 373.72 -34.79 374.61 C-38.27 384.36 -44.6 392.96 -50.5 401.38 C-58.29 412.53 -64.32 424.2 -69 437 C-69.66 437 -70.32 437 -71 437 C-75.24 430.41 -73.78 419.62 -72.2 412.29 C-69.49 403.85 -65.85 395.73 -62.21 387.67 C-59.2 380.89 -56 373.52 -56 366 C-56.37 366.57 -56.73 367.14 -57.11 367.73 C-63.15 376.78 -70.58 384.44 -78.12 392.23 C-85.2 399.61 -90.68 407.28 -96 416 C-97.59 418.43 -99.2 420.71 -101 423 C-101.66 423 -102.32 423 -103 423 C-103.93 406.7 -99.4 396.9 -90.6 383.3 C-87.24 378.07 -84.15 372.81 -81.38 367.25 C-81.06 366.62 -80.74 365.99 -80.41 365.34 C-78.44 361.29 -77.12 357.34 -76 353 C-80.61 356.87 -84.93 360.92 -89.12 365.25 C-93.81 370 -98.77 374.09 -104.07 378.14 C-107.85 381.04 -111.29 384.06 -114.56 387.53 C-116 389 -116 389 -119 391.38 C-122.33 394.29 -124.72 397.43 -127.29 401.01 C-129.07 403.08 -130.5 403.98 -133 405 C-132.62 387.6 -123.48 375.63 -112.02 363.42 C-106.31 357.29 -101.43 350.66 -98 343 C-98.33 342.67 -98.66 342.34 -99 342 C-100.15 342.82 -100.15 342.82 -101.32 343.65 C-107.12 347.74 -112.95 351.65 -119.06 355.25 C-138.26 366.37 -138.26 366.37 -155.22 380.49 C-157 382 -157 382 -160 382 C-159.38 368.42 -150.17 359.19 -140.72 350.53 C-136.37 346.65 -131.8 343.07 -127.11 339.61 C-121.37 335.11 -117.82 329.13 -114 323 C-115 323.48 -115.99 323.97 -117.02 324.47 C-127.37 329.46 -137.88 333.87 -148.59 338.06 C-151.18 339.07 -153.77 340.09 -156.35 341.12 C-157.15 341.44 -157.94 341.75 -158.76 342.08 C-165.54 344.87 -171.5 348.53 -177.58 352.61 C-180 354 -180 354 -183 354 C-182.2 345.83 -178.84 340.96 -172.79 335.46 C-167.1 330.81 -160.64 327.16 -154.34 323.4 C-150.92 321.35 -147.55 319.22 -144.19 317.06 C-143.13 316.39 -142.07 315.72 -140.98 315.04 C-134.75 311.05 -134.75 311.05 -131 305 C-131.76 305.25 -132.53 305.51 -133.32 305.77 C-142.57 308.74 -151.88 310.88 -161.48 312.39 C-168.68 313.57 -175.37 315.6 -182.25 318 C-184.32 318.71 -186.38 319.42 -188.45 320.12 C-189.41 320.45 -190.36 320.78 -191.35 321.12 C-194.54 322.18 -197.75 323.12 -201 324 C-199.38 316.81 -195.15 312.24 -189.27 308.06 C-179.86 302.38 -169.71 298.39 -159.54 294.3 C-152.83 291.56 -146.51 288.82 -141 284 C-142.26 284.31 -143.52 284.63 -144.82 284.95 C-152.23 286.43 -159.7 286.46 -167.23 286.72 C-181.04 287.21 -194.14 288.08 -207.48 291.98 C-211 293 -211 293 -214 293 C-211.92 286.86 -208.16 283.72 -203 280 C-193.28 275.33 -182.73 272.99 -172.28 270.52 C-164.01 268.55 -156.42 266.29 -149 262 C-150.19 261.96 -151.38 261.93 -152.6 261.89 C-161.62 261.55 -170.4 260.87 -179.31 259.44 C-193.45 257.23 -207.74 257.73 -222 258 C-219.55 252.78 -216.06 250.64 -211 248 C-201.07 244.85 -190.76 244.15 -180.44 243.34 C-171.67 242.64 -163.46 241.4 -155 239 C-153.67 238.66 -152.34 238.33 -151 238 C-151 237.34 -151 236.68 -151 236 C-152.22 236.06 -153.45 236.11 -154.71 236.17 C-160.9 236.17 -166.64 234.71 -172.62 233.25 C-173.78 232.98 -174.93 232.7 -176.11 232.42 C-182.23 230.96 -188.31 229.41 -194.38 227.75 C-204.15 225.08 -213.91 223.75 -224 223 C-222.15 218.66 -219.25 216.82 -215 215 C-211.55 214.18 -208.34 213.87 -204.8 213.87 C-203.33 213.87 -203.33 213.87 -201.82 213.86 C-200.3 213.87 -200.3 213.87 -198.75 213.88 C-197.75 213.87 -196.75 213.87 -195.72 213.86 C-190.5 213.87 -185.44 214.12 -180.26 214.77 C-175.94 215.21 -171.6 215.14 -167.25 215.12 C-166.33 215.13 -165.41 215.13 -164.46 215.14 C-163.57 215.14 -162.68 215.13 -161.77 215.13 C-160.97 215.13 -160.17 215.13 -159.35 215.13 C-156.82 214.99 -154.47 214.55 -152 214 C-152 213.67 -152 213.34 -152 213 C-152.85 212.79 -153.7 212.57 -154.57 212.35 C-163.55 209.96 -171.63 206.65 -180 202.56 C-193.01 196.25 -205.86 191.19 -220 188 C-220 187.01 -220 186.02 -220 185 C-206.66 179.28 -193.59 181.94 -180.12 185.47 C-170.89 187.79 -161.56 189.62 -152 189 C-152.76 188.58 -153.51 188.17 -154.29 187.74 C-162.02 183.42 -169.5 178.8 -176.94 174 C-193.98 162.86 -193.98 162.86 -213 156 C-213 155.01 -213 154.02 -213 153 C-206.74 148.82 -197.22 150.53 -190.06 151.88 C-182.42 153.81 -175.3 157.17 -168.13 160.42 C-160.98 163.66 -154.47 166.09 -146.56 166.62 C-145.51 166.7 -144.46 166.77 -143.38 166.85 C-142.2 166.93 -142.2 166.93 -141 167 C-141.84 166.45 -141.84 166.45 -142.7 165.89 C-152.35 159.37 -161.08 151.72 -169.54 143.74 C-178.52 135.31 -188.44 128.33 -199 122 C-198.67 121.34 -198.34 120.68 -198 120 C-179.73 118.77 -167.23 126.81 -152.48 136.25 C-142.48 142.75 -142.48 142.75 -131 145 C-131.47 144.55 -131.95 144.1 -132.43 143.64 C-137.16 139.04 -141.38 134.2 -145.51 129.07 C-149.79 123.79 -154.25 118.67 -158.69 113.53 C-159.77 112.26 -160.84 110.98 -161.9 109.68 C-165.8 104.97 -170.2 101.18 -175 97.41 C-177.64 95.31 -178.91 94.28 -180 91 C-168.67 89.95 -157.72 95.14 -149 102 C-145.76 104.88 -142.62 107.86 -139.49 110.86 C-132.72 117.32 -125.85 122.73 -117 126 C-117.48 125.44 -117.96 124.89 -118.46 124.31 C-123.86 117.83 -128.16 110.97 -132.3 103.65 C-139.24 91.4 -146.27 79.42 -155.62 68.81 C-158 66 -158 66 -158 63 C-140.41 66.51 -129.45 79.29 -119 93 C-113.66 99.9 -107.44 105.42 -100 110 C-100.36 109.24 -100.73 108.48 -101.1 107.7 C-103.95 101.67 -106.61 95.64 -108.96 89.41 C-109.33 88.44 -109.33 88.44 -109.71 87.45 C-110.7 84.81 -111.69 82.16 -112.67 79.51 C-116.67 68.76 -121 58.19 -127.94 48.94 C-130 46 -130 46 -130 42 C-121.25 42.44 -115.17 49.45 -109.33 55.34 C-105.31 59.93 -102.46 65.14 -99.5 70.44 C-95.2 78.1 -90.84 84.73 -84.71 91.06 C-83 93 -83 93 -83 95 C-82.34 95 -81.68 95 -81 95 C-81.3 94.33 -81.61 93.66 -81.92 92.96 C-87.04 80.75 -89.29 67.82 -91.8 54.86 C-93.19 47.91 -95.13 41.57 -97.79 35 C-99.38 31.05 -100.7 27.05 -102 23 C-95.02 24.43 -89.59 29.28 -85.59 35.02 C-80.53 43.07 -77.15 51.79 -73.59 60.57 C-68.41 73.83 -68.41 73.83 -59 84 C-59.14 83.32 -59.28 82.64 -59.42 81.94 C-60.92 73.98 -61.27 66.2 -61.35 58.13 C-61.22 37 -61.22 37 -67 17 C-67.04 15 -67.04 13 -67 11 C-62.1 11.54 -59.7 14.9 -56.75 18.55 C-49.25 29.17 -47.11 44.05 -44.23 56.49 C-42.75 62.68 -40.82 68.29 -38 74 C-37.93 72.26 -37.93 72.26 -37.85 70.48 C-37.48 62.45 -37 54.59 -35.5 46.68 C-34.37 40.61 -33.86 34.81 -33.9 28.66 C-33.9 27.89 -33.91 27.13 -33.91 26.34 C-33.91 23.91 -33.92 21.49 -33.94 19.06 C-33.94 17.41 -33.95 15.75 -33.95 14.1 C-33.96 10.07 -33.98 6.03 -34 2 C-28.19 4.63 -25.07 9.06 -22.68 14.86 C-21.3 19.21 -20.93 23.73 -20.44 28.25 C-20.31 29.3 -20.19 30.36 -20.06 31.45 C-19.48 36.43 -18.95 41.42 -18.47 46.41 C-18.32 48.04 -18.16 49.68 -18 51.31 C-17.93 52.08 -17.85 52.86 -17.77 53.65 C-17.22 58.93 -16.21 63.9 -14.59 68.97 C-14 71 -14 71 -14 74 C-13.34 74 -12.68 74 -12 74 C-12.03 73.34 -12.06 72.68 -12.09 72 C-12.29 64.76 -11.21 58.52 -9.31 51.56 C-8.91 50 -8.91 50 -8.5 48.41 C-7.22 43.48 -5.88 38.57 -4.52 33.66 C-1.46 22.37 -0.15 11.71 0 0 Z " fill="#FBFDFE" transform="translate(583,162)"/>
<path d="M0 0 C1.6 1.35 3.18 2.73 4.75 4.12 C5.27 4.58 5.78 5.04 6.31 5.51 C12.88 11.35 19.21 17.27 24.75 24.12 C20.57 24.12 18.23 21.89 14.94 19.56 C3.67 11.85 -8.16 6.16 -21.25 2.12 C-22.29 1.8 -23.33 1.48 -24.4 1.15 C-54.53 -6.69 -88.24 0.92 -114.63 16.07 C-142.11 33.61 -160.11 60.46 -167.25 92.12 C-168.52 99.51 -168.43 106.89 -168.44 114.38 C-168.46 116.24 -168.46 116.24 -168.47 118.15 C-168.52 144.23 -158.86 169.79 -141.25 189.12 C-140.68 189.82 -140.11 190.52 -139.52 191.25 C-127.72 205.63 -109.9 217.19 -92.44 223.31 C-91.54 223.64 -90.65 223.97 -89.72 224.31 C-77.76 228.59 -66.5 230.61 -53.83 230.46 C-51.69 230.44 -49.54 230.44 -47.4 230.45 C-36.08 230.43 -25.32 229.22 -14.56 225.56 C-13.81 225.31 -13.05 225.05 -12.27 224.78 C1.59 219.87 13.5 212.5 24.75 203.12 C24.75 206.65 24.3 206.98 21.97 209.45 C21.38 210.08 20.79 210.72 20.18 211.37 C19.54 212.03 18.91 212.69 18.25 213.38 C17.6 214.06 16.95 214.74 16.29 215.44 C-3.65 236.21 -28.43 248.66 -56.19 255.44 C-57.16 255.68 -57.16 255.68 -58.15 255.92 C-94.08 264.13 -132.83 256.28 -163.75 237.06 C-169.51 233.39 -175.05 229.56 -180.25 225.12 C-181.03 224.46 -181.82 223.8 -182.62 223.12 C-206.15 202.61 -222.53 174.94 -228.25 144.12 C-228.42 143.3 -228.59 142.48 -228.76 141.63 C-230.38 133.09 -230.61 124.66 -230.56 116 C-230.56 115.27 -230.56 114.54 -230.55 113.79 C-230.33 75.25 -215.91 41.73 -189.25 14.12 C-188.51 13.33 -187.77 12.54 -187.01 11.73 C-173.98 -1.87 -157.69 -11.9 -140.25 -18.88 C-138.72 -19.5 -138.72 -19.5 -137.16 -20.14 C-92.6 -36.75 -37.67 -29.19 0 0 Z " fill="#01ABC2" transform="translate(668.25,270.875)"/>
<path d="M0 0 C2.61 3.12 3.9 6.06 5.19 9.9 C5.58 11.04 5.97 12.18 6.37 13.35 C6.76 14.53 7.16 15.72 7.56 16.94 C8.35 19.28 9.15 21.62 9.94 23.96 C10.29 25 10.64 26.04 10.99 27.11 C11.65 28.99 12.36 30.85 13.13 32.69 C14 35 14 35 14 38 C21.73 34.93 29.16 31.47 36.58 27.72 C39.79 26.11 43 24.53 46.25 23 C47.12 22.59 47.99 22.18 48.89 21.75 C49.59 21.5 50.28 21.25 51 21 C51.66 21.33 52.32 21.66 53 22 C47.06 34.21 41.12 46.42 35 59 C38.3 59.99 41.6 60.98 45 62 C47.37 62.81 49.74 63.63 52.1 64.48 C53.33 64.92 54.56 65.36 55.83 65.82 C57.1 66.27 58.36 66.73 59.62 67.19 C60.93 67.66 62.23 68.12 63.54 68.59 C66.69 69.73 69.85 70.86 73 72 C73 72.66 73 73.32 73 74 C71.99 74.35 70.97 74.71 69.93 75.07 C66.16 76.38 62.4 77.7 58.64 79.02 C57.01 79.59 55.38 80.16 53.75 80.72 C51.41 81.54 49.07 82.36 46.73 83.18 C46 83.43 45.27 83.68 44.52 83.94 C41.38 85.05 38.79 86.14 36 88 C37.08 90.39 38.17 92.78 39.25 95.17 C40.17 97.18 41.08 99.2 42 101.22 C43.98 105.59 45.96 109.96 48.04 114.29 C48.58 115.43 49.13 116.57 49.69 117.75 C50.17 118.73 50.64 119.72 51.14 120.73 C51.42 121.48 51.71 122.23 52 123 C51.67 123.66 51.34 124.32 51 125 C47.44 123.37 43.89 121.73 40.33 120.09 C38.54 119.27 36.74 118.44 34.95 117.62 C30.02 115.35 25.11 113.08 20.28 110.61 C17.31 108.85 17.31 108.85 15 109 C14.75 109.66 14.51 110.32 14.25 111 C5.2 135.19 5.2 135.19 1 146 C-1.53 143.47 -2.13 141.23 -3.31 137.86 C-3.75 136.62 -4.18 135.39 -4.63 134.12 C-5.09 132.81 -5.54 131.5 -6 130.19 C-6.89 127.64 -7.79 125.09 -8.69 122.54 C-9.28 120.84 -9.28 120.84 -9.89 119.11 C-10.59 117.15 -11.34 115.2 -12.14 113.28 C-13 111 -13 111 -13 108 C-15.23 108.95 -17.46 109.91 -19.69 110.88 C-20.39 111.18 -21.09 111.48 -21.81 111.79 C-26.14 113.69 -30.41 115.66 -34.67 117.73 C-35.62 118.19 -36.56 118.64 -37.54 119.12 C-39.42 120.03 -41.29 120.96 -43.17 121.89 C-44.03 122.31 -44.89 122.72 -45.77 123.16 C-46.54 123.54 -47.31 123.92 -48.1 124.31 C-48.73 124.54 -49.35 124.76 -50 125 C-50.66 124.67 -51.32 124.34 -52 124 C-51.26 122.55 -51.26 122.55 -50.5 121.06 C-46.53 113.25 -42.75 105.4 -39.35 97.32 C-37.81 93.69 -36.12 90.32 -34 87 C-34.84 86.89 -35.68 86.78 -36.54 86.67 C-40.32 85.94 -43.75 84.72 -47.31 83.31 C-48.71 82.77 -50.12 82.24 -51.52 81.7 C-52.25 81.42 -52.97 81.14 -53.72 80.86 C-57.63 79.39 -61.56 78.01 -65.5 76.62 C-66.25 76.36 -67 76.1 -67.77 75.83 C-69.51 75.22 -71.26 74.61 -73 74 C-69.52 71 -65.66 69.59 -61.39 68.08 C-60.66 67.82 -59.94 67.56 -59.19 67.29 C-56.88 66.46 -54.56 65.63 -52.25 64.81 C-50.68 64.25 -49.11 63.68 -47.54 63.12 C-43.69 61.74 -39.85 60.37 -36 59 C-36.56 54.05 -38.18 50.04 -40.38 45.63 C-40.71 44.95 -41.04 44.27 -41.38 43.57 C-42.44 41.42 -43.5 39.27 -44.56 37.12 C-45.28 35.66 -46 34.19 -46.72 32.73 C-48.47 29.15 -50.23 25.57 -52 22 C-51.34 21.67 -50.68 21.34 -50 21 C-47.66 21.97 -45.45 23.01 -43.2 24.15 C-42.53 24.48 -41.85 24.81 -41.16 25.15 C-39 26.22 -36.84 27.3 -34.69 28.38 C-32.54 29.45 -30.4 30.51 -28.25 31.57 C-26.91 32.23 -25.57 32.9 -24.24 33.57 C-20.85 35.25 -17.76 36.47 -14 37 C-9.72 25.96 -5.51 14.93 -1.91 3.64 C-1 1 -1 1 0 0 Z " fill="#02ABC2" transform="translate(619,313)"/>
</svg>
