<?xml version="1.0" encoding="UTF-8"?>
<!-- Generator: https://ezgif.com/webp-to-svg -->
<svg version="1.1" xmlns="http://www.w3.org/2000/svg" width="1160" height="870">
<path d="M0 0 C382.8 0 765.6 0 1160 0 C1160 287.1 1160 574.2 1160 870 C777.2 870 394.4 870 0 870 C0 582.9 0 295.8 0 0 Z " fill="#004990" transform="translate(0,0)"/>
<path d="M0 0 C0.33 0 0.66 0 1 0 C1 70.95 1 141.9 1 215 C-6.86 208.26 -6.86 208.26 -9.51 205.47 C-10.11 204.85 -10.7 204.23 -11.31 203.59 C-11.93 202.95 -12.55 202.3 -13.18 201.63 C-14.54 200.24 -15.89 198.85 -17.24 197.45 C-19.35 195.28 -21.45 193.11 -23.54 190.92 C-25.57 188.78 -27.62 186.67 -29.68 184.57 C-30.3 183.91 -30.91 183.25 -31.55 182.57 C-34.78 179.32 -36.27 178.1 -40.95 177.48 C-45.05 177.85 -49.06 178.71 -53.05 179.69 C-53.8 179.87 -54.56 180.04 -55.34 180.23 C-56.97 180.61 -58.59 181 -60.21 181.39 C-63.68 182.22 -67.14 183.04 -70.61 183.85 C-72.4 184.27 -74.19 184.69 -75.99 185.12 C-85.04 187.25 -94.11 189.3 -103.19 191.31 C-103.94 191.48 -104.69 191.65 -105.47 191.82 C-114.87 193.91 -124.28 195.95 -133.76 197.72 C-137.52 198.44 -141.19 199.31 -144.88 200.34 C-152.16 202.37 -159.51 204 -166.88 205.64 C-169.33 206.19 -171.77 206.75 -174.21 207.3 C-175.78 207.65 -177.35 208.01 -178.93 208.36 C-179.65 208.52 -180.37 208.69 -181.11 208.86 C-185.15 209.74 -188.87 210.17 -193 210 C-192 208 -192 208 -188.41 206.7 C-186.82 206.21 -185.22 205.73 -183.62 205.25 C-181.87 204.71 -180.12 204.17 -178.37 203.64 C-177.47 203.36 -176.58 203.09 -175.65 202.81 C-171.65 201.59 -167.67 200.33 -163.69 199.06 C-162.1 198.56 -160.52 198.06 -158.94 197.56 C-150.89 195.02 -142.84 192.45 -134.8 189.89 C-129.29 188.14 -123.78 186.38 -118.26 184.63 C-113.61 183.15 -108.95 181.66 -104.29 180.18 C-94.88 177.18 -85.46 174.19 -76.03 171.26 C-73.01 170.32 -69.99 169.36 -66.97 168.39 C-65.68 167.98 -65.68 167.98 -64.37 167.57 C-62.71 167.04 -61.04 166.5 -59.38 165.97 C-55.61 164.76 -51.91 163.66 -48 163 C-47.8 162.07 -47.61 161.15 -47.41 160.2 C-45.2 150.15 -42.35 140.38 -39.28 130.56 C-36.57 121.91 -34.01 113.22 -31.5 104.5 C-28.76 94.97 -25.95 85.47 -23 76 C-20.04 66.47 -17.2 56.9 -14.44 47.31 C-11.72 37.9 -8.98 28.5 -6.12 19.12 C-5.85 18.22 -5.58 17.32 -5.29 16.39 C-3.61 10.9 -1.84 5.44 0 0 Z " fill="#FAFBFC" transform="translate(580,217)"/>
<path d="M0 0 C2.22 2.73 3.55 5.07 4.58 8.43 C4.85 9.3 5.12 10.16 5.4 11.06 C5.82 12.45 5.82 12.45 6.25 13.88 C6.87 15.87 7.49 17.86 8.11 19.86 C8.42 20.88 8.73 21.9 9.06 22.95 C10.53 27.7 12.05 32.44 13.56 37.19 C15.96 44.73 18.35 52.28 20.73 59.82 C23.51 68.62 26.31 77.41 29.11 86.2 C29.99 88.97 30.87 91.74 31.75 94.51 C32.04 95.42 32.33 96.32 32.63 97.26 C33.21 99.08 33.79 100.9 34.37 102.73 C35.86 107.44 37.37 112.15 38.89 116.85 C41.9 126.17 44.88 135.43 47 145 C47.8 145.18 48.59 145.37 49.41 145.56 C69.22 150.33 88.75 156.35 108.22 162.34 C116.23 164.79 124.27 167.12 132.31 169.44 C142.97 172.51 153.59 175.68 164.18 178.97 C174.14 182.06 184.13 185.05 194.13 188.03 C195.33 188.39 196.53 188.75 197.77 189.12 C198.83 189.43 199.89 189.75 200.98 190.07 C204 191 207 191.99 210 193 C210 193.33 210 193.66 210 194 C139.05 194 68.1 194 -5 194 C1.74 186.14 1.74 186.14 4.63 183.41 C5.28 182.8 5.92 182.19 6.58 181.56 C7.26 180.92 7.93 180.29 8.62 179.63 C10.07 178.24 11.51 176.85 12.95 175.45 C15.2 173.27 17.45 171.11 19.73 168.97 C21.95 166.88 24.13 164.76 26.31 162.63 C27.34 161.69 27.34 161.69 28.39 160.72 C31.91 157.28 31.91 157.28 33.23 152.69 C33 150.38 32.59 148.25 32 146 C31.8 145.14 31.6 144.28 31.39 143.39 C31.16 142.65 30.93 141.91 30.7 141.14 C29.27 136.17 28.12 131.17 27.05 126.11 C26.88 125.29 26.71 124.48 26.53 123.63 C26.17 121.91 25.8 120.18 25.44 118.45 C22.06 102.34 18.49 86.28 14.74 70.25 C11.95 58.3 9.33 46.33 6.94 34.29 C5.73 28.27 4.36 22.35 2.68 16.43 C-0.36 5.56 -0.36 5.56 0 0 Z " fill="#FAFBFC" transform="translate(586,241)"/>
<path d="M0 0 C70.62 0 141.24 0 214 0 C207.27 7.85 207.27 7.85 204.33 10.48 C203.68 11.07 203.03 11.66 202.36 12.26 C201.69 12.88 201.01 13.49 200.31 14.12 C198.1 16.18 195.91 18.25 193.71 20.32 C192.19 21.73 190.66 23.13 189.12 24.51 C179.86 32.27 179.86 32.27 175.56 42.97 C176.01 46.45 177.07 49.66 178.28 52.94 C179.5 56.42 180.17 60.02 180.95 63.62 C181.29 65.12 181.65 66.63 182.01 68.13 C185.82 84.27 189.42 100.44 192.85 116.67 C195.22 127.89 197.68 139.08 200.23 150.26 C200.51 151.47 200.79 152.68 201.07 153.93 C202.44 159.9 203.81 165.88 205.19 171.85 C205.69 174.03 206.19 176.21 206.69 178.39 C206.93 179.39 207.16 180.39 207.4 181.43 C207.61 182.35 207.82 183.28 208.04 184.23 C208.32 185.44 208.32 185.44 208.6 186.67 C209.03 189.15 209.07 191.49 209 194 C206.42 191.42 205.99 189.24 204.93 185.75 C204.74 185.12 204.54 184.49 204.34 183.83 C203.92 182.46 203.5 181.09 203.09 179.72 C201.98 176.07 200.86 172.42 199.73 168.78 C199.51 168.04 199.28 167.3 199.04 166.54 C196.87 159.51 194.54 152.53 192.19 145.56 C189.62 137.94 187.15 130.31 184.95 122.57 C183.01 115.81 180.74 109.16 178.5 102.5 C176.01 95.09 173.54 87.7 171.38 80.19 C171.18 79.55 170.98 78.9 170.78 78.24 C169.59 74.28 168.65 70.34 167.81 66.29 C165.88 56.53 165.88 56.53 160.36 48.6 C155.93 46.28 151.06 45.56 146.18 44.67 C140.46 43.47 134.93 41.6 129.36 39.85 C125.8 38.73 122.22 37.66 118.64 36.58 C117.92 36.37 117.2 36.15 116.46 35.93 C108.36 33.5 100.24 31.15 92.11 28.81 C82.33 25.99 72.58 23.05 62.85 20.02 C54.35 17.39 45.81 14.9 37.25 12.44 C24.76 8.85 12.36 5.03 0 1 C0 0.67 0 0.34 0 0 Z " fill="#FCFDFD" transform="translate(366,434)"/>
<path d="M0 0 C7.86 6.74 7.86 6.74 10.42 9.44 C11 10.04 11.57 10.64 12.16 11.25 C12.76 11.88 13.35 12.5 13.96 13.15 C15.27 14.5 16.58 15.84 17.89 17.19 C19.92 19.29 21.95 21.39 23.96 23.51 C25.92 25.58 27.91 27.61 29.9 29.65 C30.79 30.6 30.79 30.6 31.7 31.58 C34.67 34.57 36.71 36.39 41.03 36.48 C44.62 36.05 48.03 35.51 51.54 34.67 C52.81 34.37 54.09 34.07 55.4 33.77 C56.09 33.6 56.77 33.44 57.47 33.27 C61.32 32.34 65.18 31.45 69.04 30.55 C69.89 30.35 70.74 30.15 71.62 29.94 C83.37 27.2 95.16 24.61 106.94 22 C109.28 21.48 111.62 20.96 113.96 20.44 C118.52 19.43 123.08 18.42 127.64 17.41 C135.77 15.61 143.9 13.8 152.03 11.99 C161.62 9.86 161.62 9.86 166.03 8.89 C168.96 8.24 171.88 7.57 174.8 6.89 C175.61 6.71 176.42 6.52 177.26 6.33 C178.83 5.97 180.39 5.61 181.96 5.24 C185.7 4.39 189.16 3.78 193 4 C189.73 6.18 186.51 7.3 182.81 8.5 C182.04 8.75 181.27 9.01 180.48 9.27 C171.85 12.09 163.16 14.76 154.49 17.46 C143.66 20.82 132.91 24.34 122.17 27.96 C115.67 30.14 109.16 32.18 102.56 34.05 C94.68 36.32 86.91 38.94 79.18 41.68 C73.83 43.55 68.78 45.17 63.14 45.86 C57.83 46.61 53.09 47.31 49 51 C44.45 58.82 42.84 68.05 40.95 76.81 C39.62 82.84 37.84 88.73 36.07 94.64 C35.5 96.57 34.93 98.51 34.37 100.45 C31.49 110.45 28.42 120.37 25.3 130.3 C22.74 138.5 20.33 146.73 18 155 C14.25 168.3 10.19 181.48 6.04 194.66 C4.34 200.1 2.67 205.55 1 211 C0.67 211 0.34 211 0 211 C0 141.37 0 71.74 0 0 Z " fill="#FDFDFE" transform="translate(581,438)"/>
<path d="M0 0 C-0.34 1.78 -0.73 3.55 -1.12 5.31 C-1.33 6.3 -1.54 7.28 -1.76 8.3 C-3.46 12.01 -5.24 12.57 -9 14 C-11.22 14.61 -13.45 15.17 -15.69 15.69 C-40.34 21.87 -61.69 35.66 -80 53 C-80.88 53.82 -81.77 54.64 -82.68 55.48 C-99.36 71.46 -113.5 93.56 -119.38 116.05 C-122.79 128.99 -122.79 128.99 -126.75 132.31 C-130.17 133.88 -133.22 135 -137 135 C-136.53 128.27 -135.48 122.07 -133.5 115.62 C-133.24 114.77 -132.97 113.91 -132.7 113.03 C-125.59 90.71 -114.07 70.1 -98 53 C-97.41 52.37 -96.82 51.74 -96.22 51.09 C-73.78 27.27 -34.95 -1.79 0 0 Z " fill="#FBFCFD" transform="translate(553,268)"/>
<path d="M0 0 C81.18 0 162.36 0 246 0 C246 2.97 246 5.94 246 9 C164.82 9 83.64 9 0 9 C0 6.03 0 3.06 0 0 Z " fill="#FEFEFE" transform="translate(827,430)"/>
<path d="M0 0 C81.18 0 162.36 0 246 0 C246 2.97 246 5.94 246 9 C164.82 9 83.64 9 0 9 C0 6.03 0 3.06 0 0 Z " fill="#FFFFFF" transform="translate(88,430)"/>
<path d="M0 0 C30 3.09 60.44 20.61 82 41 C83.35 42.15 84.7 43.3 86.06 44.44 C105.41 61.47 119.96 85.65 128 110 C128.55 111.65 128.55 111.65 129.11 113.32 C131.59 121.07 134 128.82 134 137 C130.07 136.49 126.58 135.73 123 134 C120.78 130.86 120.08 127.53 119.25 123.81 C118.71 121.81 118.16 119.8 117.61 117.8 C117.34 116.81 117.08 115.82 116.81 114.81 C110.39 92.47 95.93 72.5 80 56 C79.21 55.15 78.42 54.3 77.61 53.42 C60.16 35.07 34.63 20.56 9.94 15.06 C4.51 13.68 4.51 13.68 2.26 10.65 C0.73 6.99 0 3.97 0 0 Z " fill="#F9FBFC" transform="translate(611,270)"/>
<path d="M0 0 C3.94 0.55 7.45 1.16 11 3 C12.13 5.06 12.13 5.06 12.84 7.59 C13.12 8.51 13.39 9.44 13.67 10.39 C13.95 11.37 14.22 12.36 14.5 13.38 C15.1 15.4 15.71 17.42 16.32 19.44 C16.61 20.41 16.9 21.38 17.2 22.38 C24.17 45.11 37.96 64.96 54.61 81.61 C55.93 82.93 57.24 84.26 58.49 85.63 C68.15 96.06 80.83 103.49 93.28 110.08 C94.73 110.86 96.16 111.65 97.6 112.46 C104.31 116.08 111.5 118.33 118.73 120.67 C119.45 120.9 120.17 121.13 120.91 121.37 C122.87 121.96 124.87 122.4 126.87 122.83 C130 124 130 124 131.78 126.53 C132.16 127.51 132.54 128.49 132.94 129.5 C133.34 130.48 133.74 131.46 134.15 132.47 C135 135 135 135 135 137 C102.42 132.75 72.43 115.51 49 93 C48.5 92.54 48.01 92.07 47.5 91.59 C22.66 68.26 3.04 34.37 0 0 Z " fill="#F9FBFC" transform="translate(416,462)"/>
<path d="M0 0 C-0.89 16.38 -7.96 31.46 -15 46 C-15.49 47.03 -15.98 48.05 -16.49 49.11 C-23.16 62.12 -32.36 74.12 -42.56 84.53 C-44.08 86.08 -45.56 87.66 -47.05 89.24 C-61.28 104.15 -78.88 116.22 -98 124 C-98.67 124.28 -99.34 124.55 -100.03 124.84 C-124.06 134.69 -124.06 134.69 -136 134 C-134.91 126.21 -134.91 126.21 -133 123 C-130.32 122 -127.96 121.34 -125.19 120.75 C-88.97 111.84 -55.07 87.49 -35 56 C-34.62 55.42 -34.25 54.84 -33.86 54.24 C-25.85 41.8 -19.51 28.34 -15.93 13.92 C-13.87 5.65 -13.87 5.65 -10.83 3.36 C-8.56 2.33 -6.41 1.61 -4 1 C-2 0 -2 0 0 0 Z " fill="#F9FBFC" transform="translate(745,466)"/>
<path d="M0 0 C2.97 0 5.94 0 9 0 C9 33.33 9 66.66 9 101 C6.03 101 3.06 101 0 101 C0 67.67 0 34.34 0 0 Z " fill="#FFFFFF" transform="translate(576,681)"/>
<path d="M0 0 C2.97 0 5.94 0 9 0 C9 33.33 9 66.66 9 101 C6.03 101 3.06 101 0 101 C0 67.67 0 34.34 0 0 Z " fill="#FFFFFF" transform="translate(576,87)"/>
<path d="M0 0 C0.33 0.66 0.66 1.32 1 2 C-4.07 3.26 -8.73 4.27 -14 4 C-13 2 -13 2 -10.82 1.11 C-9.93 0.85 -9.04 0.58 -8.12 0.31 C-7.24 0.04 -6.36 -0.23 -5.45 -0.51 C-3 -1 -3 -1 0 0 Z " fill="#E1E9F2" transform="translate(401,423)"/>
<path d="M0 0 C3.34 3.64 3.98 7.29 5 12 C4.34 12 3.68 12 3 12 C2.67 12.66 2.34 13.32 2 14 C-0.3 4.59 -0.3 4.59 0 0 Z " fill="#D9E4EE" transform="translate(586,241)"/>
</svg>
