<?xml version="1.0" encoding="UTF-8"?>
<!-- Generator: https://ezgif.com/webp-to-svg -->
<svg version="1.1" xmlns="http://www.w3.org/2000/svg" width="1160" height="630">
<path d="M0 0 C382.8 0 765.6 0 1160 0 C1160 207.9 1160 415.8 1160 630 C777.2 630 394.4 630 0 630 C0 422.1 0 214.2 0 0 Z " fill="#FEFEFE" transform="translate(0,0)"/>
<path d="M0 0 C28.48 27.48 47.59 68.2 48.58 107.94 C49.35 157.43 34.47 200.38 0.36 236.8 C-14.41 251.92 -32.35 264.02 -51.66 272.57 C-52.35 272.87 -53.04 273.18 -53.75 273.5 C-66.01 278.86 -78.53 282.09 -91.66 284.57 C-92.35 284.7 -93.03 284.83 -93.74 284.97 C-127.83 291.25 -162.89 284.73 -193.66 269.57 C-194.32 269.24 -194.98 268.92 -195.67 268.59 C-222.52 255.38 -244.69 234.74 -260.66 209.57 C-261.03 208.99 -261.39 208.42 -261.77 207.83 C-284.67 171.41 -292.6 125.79 -283.04 83.85 C-281.51 77.67 -279.67 71.61 -277.66 65.57 C-277.4 64.79 -277.14 64.01 -276.88 63.21 C-262.8 21.75 -230.96 -11.48 -192.43 -31.07 C-126.5 -62.79 -53.13 -48.6 0 0 Z " fill="#147562" transform="translate(733.66015625,169.43359375)"/>
<path d="M0 0 C0.7 0.11 1.4 0.22 2.12 0.34 C13.36 2.17 24.16 5.59 35 9 C31.71 10.05 29.24 9.94 25.84 9.44 C24.83 9.3 23.82 9.16 22.78 9.02 C21.7 8.87 20.61 8.72 19.5 8.56 C-25.56 2.81 -73.34 13.45 -109.83 41.41 C-113.66 44.48 -117.34 47.73 -121 51 C-122.4 52.19 -123.79 53.38 -125.19 54.56 C-126.47 55.7 -127.74 56.85 -129 58 C-130.13 59.03 -130.13 59.03 -131.29 60.09 C-142.46 70.75 -151.39 83.61 -159 97 C-159.39 97.67 -159.78 98.34 -160.18 99.02 C-170.03 116.07 -176.65 134.59 -180 154 C-180.18 155 -180.35 156.01 -180.54 157.04 C-181.98 166.04 -182.34 174.83 -182.32 183.93 C-182.31 186.3 -182.34 188.67 -182.36 191.04 C-182.55 236.83 -161.61 281.51 -130 314 C-127.42 316.45 -124.73 318.73 -122 321 C-121.15 321.75 -120.3 322.5 -119.43 323.27 C-106.63 334.36 -92.37 342.95 -77 350 C-75.98 350.47 -74.95 350.94 -73.89 351.43 C-55.33 359.52 -34.15 365.02 -13.85 365.24 C-13.08 365.25 -12.31 365.26 -11.52 365.27 C37.17 365.76 81.46 352.63 117.77 319.04 C119.65 317.32 121.57 315.72 123.56 314.12 C128.38 310.03 132.09 304.93 136 300 C136.65 299.24 137.3 298.48 137.96 297.7 C159.94 271.68 172.29 237.51 176 204 C176.33 204 176.66 204 177 204 C178.88 254.31 162.21 306.06 130 345 C129.53 345.57 129.06 346.14 128.57 346.73 C94.05 388.47 47.32 414.16 -6 423 C-7.34 423.25 -8.69 423.49 -10.03 423.74 C-31.14 427.09 -54.09 426.02 -75 422 C-75.92 421.82 -76.84 421.65 -77.79 421.46 C-128.54 411.39 -175.47 383.1 -206.75 341.65 C-207.85 340.2 -208.97 338.76 -210.09 337.33 C-230.62 310.34 -243.6 277.32 -249 244 C-249.12 243.28 -249.24 242.55 -249.36 241.8 C-253.15 217.22 -252.25 191.24 -247 167 C-246.83 166.19 -246.66 165.37 -246.48 164.53 C-239.53 132.47 -224.86 102.3 -204 77 C-202.8 75.53 -202.8 75.53 -201.58 74.02 C-190.98 61.12 -179.41 49.95 -166 40 C-165.43 39.57 -164.86 39.14 -164.28 38.7 C-155.3 31.94 -145.96 26.19 -136 21 C-135.28 20.62 -134.56 20.25 -133.83 19.86 C-92.45 -1.47 -45.77 -7.73 0 0 Z " fill="#016A56" transform="translate(617,104)"/>
<path d="M0 0 C0.49 0.37 0.98 0.74 1.49 1.11 C2.82 2.11 4.15 3.11 5.48 4.1 C7.23 5.42 8.96 6.76 10.68 8.12 C21.92 16.9 33.39 22.98 47.15 26.8 C50 28 50 28 50.74 29.71 C51.07 32.62 50.62 34.96 50.04 37.83 C49.81 38.96 49.59 40.09 49.36 41.25 C49 43.01 49 43.01 48.62 44.81 C48.16 47.13 47.69 49.45 47.23 51.77 C47.01 52.85 46.79 53.93 46.57 55.05 C45.93 58.36 45.42 61.66 45 65 C39.48 66.99 33.83 68.29 28.12 69.62 C27.15 69.85 26.18 70.08 25.17 70.32 C22.78 70.88 20.39 71.44 18 72 C17.67 75.3 17.34 78.6 17 82 C30.86 93.45 30.86 93.45 47.44 97.56 C49.64 97.09 51.82 96.57 54 96 C56.15 95.69 58.31 95.44 60.47 95.21 C63.65 94.85 66.82 94.42 70 94 C70.66 88.72 71.32 83.44 72 78 C70.02 77.34 68.04 76.68 66 76 C64.47 75.25 62.96 74.46 61.48 73.62 C60.68 73.17 59.89 72.73 59.07 72.27 C58.27 71.81 57.46 71.35 56.62 70.88 C55.79 70.41 54.96 69.94 54.11 69.46 C52.07 68.31 50.03 67.16 48 66 C48.54 57.78 49.88 49.87 51.56 41.81 C51.91 40.1 51.91 40.1 52.27 38.35 C52.84 35.57 53.42 32.78 54 30 C55.62 30.22 55.62 30.22 57.28 30.44 C82.42 33.57 105.46 31.77 130 26 C130.36 45.23 130.13 63.96 127 83 C126.85 83.94 126.7 84.88 126.55 85.84 C126.39 86.74 126.23 87.65 126.07 88.57 C125.93 89.38 125.79 90.18 125.65 91.01 C125 93 125 93 122.25 94.94 C120.39 95.49 120.39 95.49 118 96 C116.91 96.26 115.83 96.52 114.71 96.79 C105.85 98.82 97.21 100.11 88.12 100.25 C86.63 100.28 85.13 100.31 83.64 100.35 C81.33 100.39 79.03 100.44 76.72 100.48 C67.19 100.65 57.9 101.22 48.45 102.58 C39.23 103.7 39.23 103.7 35.45 100.99 C34.84 100.56 34.23 100.14 33.6 99.7 C32.97 99.24 32.34 98.78 31.69 98.31 C30.36 97.39 29.03 96.47 27.7 95.55 C27.06 95.1 26.43 94.66 25.77 94.21 C21.31 91.17 16.67 88.71 11.71 86.61 C5.88 84.13 0.36 81.1 -5.16 78.01 C-6.83 77.09 -8.53 76.25 -10.23 75.41 C-13.07 73.83 -14.99 72.56 -17 70 C-18 65.2 -16.94 60.73 -16 56 C-15.67 54.11 -15.35 52.23 -15.03 50.34 C-13.09 39.53 -10.61 28.95 -7.44 18.44 C-7.16 17.5 -6.88 16.57 -6.59 15.61 C-4.85 10.1 -2.72 5.1 0 0 Z " fill="#FCFDFD" transform="translate(559,221)"/>
<path d="M0 0 C-1.78 15.49 -8.21 30.46 -14.12 44.75 C-14.53 45.74 -14.94 46.72 -15.36 47.74 C-16.53 50.52 -17.75 53.26 -19 56 C-19.58 57.3 -19.58 57.3 -20.17 58.63 C-22.17 62.72 -23.1 64.6 -27.37 66.49 C-28.57 66.66 -29.77 66.83 -31 67 C-32.66 67.31 -32.66 67.31 -34.35 67.63 C-44.07 68.92 -53.71 69.19 -63.5 69.19 C-64.79 69.19 -66.08 69.19 -67.4 69.19 C-74.01 69.15 -80.45 68.89 -87 68 C-87.2 58.93 -86.64 50.18 -85.5 41.19 C-85.36 40.01 -85.21 38.82 -85.07 37.61 C-84.72 34.74 -84.36 31.87 -84 29 C-80.44 28.16 -76.88 27.33 -73.31 26.5 C-72.31 26.26 -71.3 26.02 -70.26 25.78 C-68.8 25.44 -68.8 25.44 -67.3 25.09 C-66.41 24.88 -65.51 24.67 -64.59 24.46 C-62 24 -59.62 23.92 -57 24 C-56.94 22.94 -56.88 21.88 -56.82 20.79 C-56.73 19.4 -56.65 18.01 -56.56 16.62 C-56.52 15.93 -56.48 15.23 -56.44 14.51 C-56.11 9.23 -56.11 9.23 -55 7 C-54.38 6.98 -53.76 6.96 -53.13 6.94 C-36.59 6.38 -20.91 5.38 -4.95 0.8 C-2 0 -2 0 0 0 Z " fill="#FCFDFD" transform="translate(683,318)"/>
<path d="M0 0 C0.75 1.68 0.75 1.68 1.28 3.88 C1.48 4.71 1.68 5.54 1.89 6.39 C2.09 7.29 2.29 8.19 2.5 9.12 C2.71 10.05 2.93 10.98 3.15 11.94 C4.7 18.98 5.87 26.04 6.81 33.19 C6.94 34.12 7.06 35.05 7.19 36.01 C7.92 42.03 8.14 47.94 8 54 C5.88 54.63 3.75 55.25 1.62 55.88 C0.44 56.22 -0.74 56.57 -1.96 56.93 C-3.31 57.29 -4.65 57.65 -6 58 C-6.68 58.19 -7.36 58.38 -8.06 58.57 C-15.92 60.46 -23.82 60.3 -31.85 60.26 C-34.3 60.25 -36.74 60.26 -39.19 60.27 C-48.33 60.28 -57 59.76 -66 58 C-65.01 53.33 -64.01 48.66 -63 44 C-62.67 42.47 -62.67 42.47 -62.33 40.91 C-56.61 14.5 -56.61 14.5 -53 3 C-51.11 3.25 -51.11 3.25 -49.19 3.5 C-34.55 4.91 -19.76 4.88 -5.77 -0.16 C-3 -1 -3 -1 0 0 Z " fill="#FDFEFD" transform="translate(680,190)"/>
<path d="M0 0 C0.66 0 1.32 0 2 0 C2.5 1.03 2.99 2.05 3.5 3.11 C10.13 16.7 17.43 28.14 28 39 C28.85 39.88 29.69 40.75 30.57 41.65 C34.54 45.83 34.54 45.83 39.1 49.32 C41 51 41 51 41.47 53.2 C41.46 54.49 41.46 54.49 41.44 55.8 C41.43 57.26 41.43 57.26 41.43 58.76 C41.4 59.81 41.38 60.87 41.36 61.96 C41.34 63.62 41.34 63.62 41.33 65.31 C41.3 68.85 41.25 72.39 41.19 75.94 C41.13 80.55 41.08 85.16 41.04 89.78 C41.03 91.46 41.03 91.46 41.01 93.17 C40.93 103.14 41.35 113.05 42 123 C25.29 114.83 10.33 97.16 0 82 C-0.89 80.9 -0.89 80.9 -1.8 79.77 C-7.98 71.48 -7.95 63.87 -7.62 54 C-7.6 52.43 -7.57 50.85 -7.54 49.28 C-7.31 38.34 -6.46 27.69 -4 17 C-3.82 16.2 -3.65 15.41 -3.47 14.59 C-2.38 9.71 -1.22 4.85 0 0 Z " fill="#FCFDFD" transform="translate(497,240)"/>
<path d="M0 0 C0.66 0 1.32 0 2 0 C2.12 0.68 2.25 1.36 2.38 2.06 C5.12 14.95 11.19 26.3 19.24 36.67 C20.11 37.82 20.11 37.82 21 39 C21.93 40.2 21.93 40.2 22.88 41.43 C24 44 24 44 23.26 46.75 C22.48 48.36 22.48 48.36 21.69 50 C12.89 69.82 8.8 91.62 6 113 C-10.94 100.57 -26.15 82.19 -33 62 C-33.85 56.1 -31.4 51.35 -29.06 46.06 C-28.66 45.13 -28.25 44.2 -27.83 43.24 C-20.89 27.7 -11.38 12.7 0 0 Z " fill="#FCFDFD" transform="translate(533,175)"/>
<path d="M0 0 C-0.36 18.71 -5.12 37.4 -11.29 54.98 C-11.95 56.85 -12.56 58.74 -13.18 60.63 C-13.55 61.68 -13.93 62.73 -14.31 63.81 C-14.62 64.69 -14.92 65.56 -15.24 66.46 C-19.9 73.18 -28.78 76.62 -36 80 C-36.91 80.43 -37.82 80.86 -38.75 81.3 C-63.98 93 -63.98 93 -76 93 C-75.45 88.28 -74.1 84.93 -71.83 80.77 C-67.84 73.14 -65.1 65.23 -62.45 57.06 C-61.68 54.67 -60.89 52.29 -60.1 49.9 C-59.59 48.36 -59.08 46.81 -58.57 45.26 C-58.34 44.56 -58.11 43.87 -57.88 43.15 C-56.7 39.49 -55.8 35.93 -55.12 32.14 C-54.28 28.24 -54.28 28.24 -51.99 26.28 C-51.18 26 -50.36 25.72 -49.52 25.43 C-48.61 25.1 -47.7 24.76 -46.76 24.42 C-45.79 24.09 -44.82 23.77 -43.81 23.44 C-41.79 22.69 -39.78 21.94 -37.76 21.18 C-36.77 20.81 -35.79 20.45 -34.77 20.07 C-23.59 15.75 -13.78 9.02 -4.07 2.12 C-1 0 -1 0 0 0 Z " fill="#FDFDFD" transform="translate(740,289)"/>
<path d="M0 0 C5.71 10.15 7.03 23.82 7.81 35.3 C7.95 37.26 8.11 39.22 8.29 41.17 C10.07 62.22 10.07 62.22 5.77 67.5 C2.93 69.75 0.33 71.39 -2.91 72.95 C-5.17 74.09 -7.28 75.38 -9.43 76.73 C-35.56 93 -35.56 93 -45 93 C-44.25 80.02 -44.25 80.02 -43.52 73.68 C-41.71 57.82 -41.37 41.95 -41 26 C-40.06 25.58 -39.11 25.15 -38.14 24.71 C-24.07 18.32 -10.87 11.27 0 0 Z " fill="#FDFDFD" transform="translate(733,220)"/>
<path d="M0 0 C0.8 0.47 1.6 0.93 2.42 1.41 C4.47 2.61 6.52 3.8 8.57 4.99 C10.77 6.28 12.96 7.58 15.15 8.88 C16.65 9.78 16.65 9.78 18.19 10.69 C19.09 11.23 19.99 11.77 20.92 12.32 C24.83 14.45 28.93 16.19 33 18 C32.01 25.59 31.02 33.18 30 41 C31.98 41.66 33.96 42.32 36 43 C37.44 43.67 38.87 44.38 40.27 45.13 C41.01 45.52 41.76 45.92 42.52 46.33 C43.28 46.73 44.03 47.14 44.81 47.56 C45.59 47.97 46.36 48.39 47.16 48.81 C52.85 51.85 52.85 51.85 54 53 C54.55 61.38 53.67 69.84 53 78.19 C52.86 80.04 52.86 80.04 52.71 81.94 C52.48 84.96 52.24 87.98 52 91 C37.84 89.4 25.57 85.55 13 79 C11.47 78.24 11.47 78.24 9.91 77.46 C9.01 76.98 8.11 76.5 7.19 76 C6.42 75.59 5.65 75.18 4.86 74.75 C-0.94 69.28 -0.74 56.4 -1.11 48.75 C-1.24 43.95 -1.24 39.15 -1.21 34.35 C-1.19 31.87 -1.19 29.39 -1.19 26.92 C-1.16 17.9 -0.87 8.99 0 0 Z " fill="#FCFDFD" transform="translate(541,294)"/>
<path d="M0 0 C0.33 0 0.66 0 1 0 C1.04 1.2 1.07 2.4 1.11 3.63 C2.07 29.12 9.29 52.77 21.2 75.28 C25.57 83.68 27.54 92.06 29 101.38 C32.59 124.15 40.74 144.77 51.85 164.89 C53.31 167.56 54.66 170.27 56 173 C52.98 171.63 50.71 170.03 48.25 167.81 C45.13 165.01 45.13 165.01 41.95 162.27 C29.24 151.5 19.19 137.41 11 123 C10.63 122.35 10.26 121.7 9.88 121.03 C4.23 111 -0.32 100.9 -4 90 C-4.38 88.89 -4.76 87.78 -5.15 86.64 C-14.63 57.46 -11.93 28.19 0 0 Z " fill="#FAFCFC" transform="translate(462,228)"/>
<path d="M0 0 C3.23 1.42 5.27 3.14 7.75 5.62 C11.85 9.35 16.08 11.87 21 14.31 C21.65 14.64 22.3 14.96 22.98 15.3 C27.85 17.64 32.84 19.39 38 21 C37.85 21.54 37.71 22.09 37.56 22.65 C33.95 36.26 30.53 49.9 27.27 63.59 C26.99 64.77 26.71 65.95 26.42 67.17 C26.17 68.22 25.92 69.28 25.66 70.36 C25 73 25 73 24 76 C6.2 72.38 -12.91 61.48 -25 48 C-25.89 45.68 -26.13 44.45 -25.42 42.04 C-25.08 41.36 -24.75 40.68 -24.4 39.97 C-24.02 39.19 -23.64 38.41 -23.24 37.6 C-22.81 36.76 -22.38 35.93 -21.94 35.06 C-21.28 33.76 -21.28 33.76 -20.61 32.43 C-15.59 22.79 -9.55 13.86 -3.35 4.95 C-2.22 3.31 -1.11 1.66 0 0 Z " fill="#FDFDFD" transform="translate(587,171)"/>
<path d="M0 0 C0.33 0 0.66 0 1 0 C-1.49 28.42 -11.05 59.9 -33.44 78.7 C-33.95 79.13 -34.47 79.56 -35 80 C-35.54 80.44 -36.07 80.89 -36.62 81.35 C-52.51 94.42 -69.81 105.27 -88.38 114.12 C-89.01 114.43 -89.65 114.74 -90.3 115.06 C-91.84 115.77 -93.42 116.39 -95 117 C-95.66 116.67 -96.32 116.34 -97 116 C-96.35 115.38 -96.35 115.38 -95.69 114.74 C-80.41 99.94 -67.16 84.16 -57.95 64.8 C-54.25 57.06 -50.82 52.38 -43.21 47.94 C-25 36.93 -9.59 18.84 0 0 Z " fill="#FBFCFC" transform="translate(777,306)"/>
<path d="M0 0 C0.99 0.5 0.99 0.5 2 1 C-7.98 21.17 -21.45 39.68 -38 55 C-38.66 55.69 -39.33 56.37 -40.01 57.08 C-47.92 64.52 -57.69 65.92 -68 68 C-69.08 68.25 -70.17 68.49 -71.28 68.75 C-78.18 70.22 -84.97 70.2 -92 70 C-90.82 68.64 -90.82 68.64 -89.62 67.25 C-88.79 66.27 -88.79 66.27 -87.95 65.27 C-86.6 63.7 -85.24 62.15 -83.87 60.6 C-76.91 52.59 -71.11 43.93 -65.3 35.05 C-64.74 34.21 -64.18 33.37 -63.61 32.51 C-62.55 30.86 -61.55 29.18 -60.6 27.46 C-58.07 23.07 -56.24 20.63 -51.3 19.09 C-49.5 18.67 -47.69 18.29 -45.88 17.94 C-43.9 17.48 -41.93 17 -39.96 16.52 C-38.97 16.28 -37.97 16.04 -36.95 15.79 C-24.94 12.57 -13.47 7.02 -2.55 1.15 C-1.71 0.77 -0.87 0.39 0 0 Z " fill="#FCFDFD" transform="translate(717,365)"/>
<path d="M0 0 C0.66 0 1.32 0 2 0 C2.65 3.02 3.29 6.04 3.94 9.06 C4.21 10.33 4.21 10.33 4.49 11.63 C7.9 27.69 11.31 48.13 2.31 62.78 C1.55 63.84 0.79 64.91 0 66 C-0.44 66.64 -0.88 67.27 -1.33 67.93 C-10.62 81.31 -21.06 93.04 -34 103 C-34.89 103.7 -35.78 104.39 -36.69 105.11 C-38.79 106.75 -40.89 108.38 -43 110 C-44.13 106.62 -43.91 106.08 -42.71 102.89 C-42.41 102.08 -42.11 101.27 -41.8 100.44 C-41.48 99.57 -41.15 98.71 -40.81 97.81 C-36.59 86.17 -33.56 74.56 -31.38 62.38 C-31.25 61.67 -31.12 60.96 -30.99 60.23 C-30.4 56.86 -29.97 53.59 -29.72 50.17 C-29.06 41.76 -27.1 38.12 -20.8 32.55 C-11.03 23.64 -4.77 12.2 0 0 Z " fill="#FBFDFC" transform="translate(772,245)"/>
<path d="M0 0 C13.41 12.16 24.18 32.1 28.97 49.53 C29 53.4 28.2 54.84 25.54 57.61 C23.04 59.87 20.45 61.94 17.69 63.88 C16.79 64.51 16.79 64.51 15.88 65.16 C11.26 68.32 6.49 71.04 1.5 73.56 C0.84 73.9 0.18 74.23 -0.49 74.58 C-4.31 76.43 -7.78 77.52 -12 78 C-12.04 76.78 -12.04 76.78 -12.08 75.53 C-12.93 57.72 -16.65 40.25 -21 23 C-20.28 22.59 -19.55 22.18 -18.8 21.75 C-9.22 16.02 -4.64 9.99 0 0 Z " fill="#FCFDFD" transform="translate(703,164)"/>
<path d="M0 0 C2.92 2.77 5.22 5.62 7.5 8.94 C15.85 20.55 26.98 33.9 39.54 41.12 C48.34 46.2 48.34 46.2 50.24 51.34 C50.68 54.03 51.05 56.66 51.35 59.36 C51.99 64.78 53.57 69.82 55.25 75 C55.55 75.93 55.85 76.86 56.16 77.82 C58.36 84.48 60.94 90.92 63.95 97.25 C64.69 98.81 65.35 100.4 66 102 C65.67 102.66 65.34 103.32 65 104 C35.47 91.33 22.83 74.99 10.9 45.25 C5.39 31.01 0 15.44 0 0 Z " fill="#FBFDFC" transform="translate(492,320)"/>
<path d="M0 0 C1.3 2.6 0.77 3.54 0.09 6.33 C-1.22 12.47 -1.38 18.43 -1.38 24.69 C-1.38 25.83 -1.38 26.97 -1.38 28.15 C-1.29 35.9 -0.4 42.57 2.22 49.85 C4.11 57.49 0.91 65.66 -1.1 73.05 C-4.36 85.54 -5.32 98.02 -5.62 110.88 C-5.66 112.26 -5.7 113.64 -5.74 115.02 C-5.84 118.35 -5.92 121.67 -6 125 C-9.23 121.1 -11.47 117.28 -13.44 112.62 C-13.74 111.93 -14.04 111.23 -14.35 110.51 C-17.32 103.46 -19.75 96.31 -22 89 C-22.3 88.07 -22.6 87.14 -22.9 86.18 C-27.19 71.87 -31.47 48.44 -24.45 34.46 C-23.73 33.24 -23.73 33.24 -23 32 C-22.07 30.3 -22.07 30.3 -21.12 28.57 C-15.39 18.4 -8.54 8.04 0 0 Z " fill="#FCFDFD" transform="translate(493,179)"/>
<path d="M0 0 C-5.71 16.09 -18.59 30.62 -30.12 42.88 C-30.67 43.49 -31.22 44.1 -31.79 44.73 C-34.84 47.86 -36.92 49.38 -41.36 49.45 C-42.91 49.33 -44.46 49.18 -46 49 C-47.14 48.9 -47.14 48.9 -48.31 48.79 C-50.57 48.57 -52.81 48.29 -55.06 48 C-55.83 47.9 -56.6 47.81 -57.4 47.71 C-59.26 47.48 -61.13 47.24 -63 47 C-63.16 37.01 -62.67 27.14 -62 17.19 C-61.9 15.71 -61.81 14.22 -61.71 12.74 C-61.48 9.16 -61.24 5.58 -61 2 C-59.81 2.01 -58.62 2.02 -57.4 2.03 C-52.91 2.07 -48.42 2.09 -43.93 2.11 C-42.01 2.12 -40.08 2.13 -38.15 2.15 C-27.3 2.25 -16.77 2.02 -6.02 0.43 C-3 0 -3 0 0 0 Z " fill="#FCFDFD" transform="translate(656,387)"/>
<path d="M0 0 C1.07 3.2 0.95 5.1 0.75 8.44 C0.65 14.59 2.29 18.94 5 24.41 C6.11 27.29 6.21 28.21 5 31 C3.76 32.95 3.76 32.95 2.12 35.12 C-6.87 47.69 -14.37 61.06 -21 75 C-28.8 72.12 -33.9 60.62 -37.38 53.5 C-44.24 37.71 -44.24 37.71 -42.29 31.88 C-32.46 17.56 -15.02 7.91 0 0 Z " fill="#FCFDFD" transform="translate(580,139)"/>
<path d="M0 0 C3.09 1.15 6.04 2.5 8.98 3.99 C21.61 10.35 34.12 14.35 48 17 C48.43 32.05 47.14 47.01 46 62 C42 61.35 38 60.68 34 60 C33.25 59.88 32.5 59.75 31.73 59.62 C26.64 58.69 21.22 57.51 17.65 53.48 C14.67 48.99 12.83 44.04 11 39 C10.46 37.6 9.91 36.2 9.37 34.8 C6.56 27.39 4.28 19.81 2.12 12.19 C1.91 11.43 1.69 10.67 1.47 9.89 C0.53 6.44 0 3.61 0 0 Z " fill="#FCFDFD" transform="translate(544,371)"/>
<path d="M0 0 C0.66 0 1.32 0 2 0 C3.62 1.82 5.1 3.63 6.56 5.56 C7.01 6.15 7.45 6.73 7.91 7.33 C17.05 19.61 32 40.22 32 56 C21.21 60.45 10.8 62.14 -0.81 62.25 C-1.51 62.26 -2.2 62.27 -2.91 62.28 C-7.89 62.25 -12.21 61.35 -17 60 C-16.36 54.9 -15.37 49.98 -14.06 45 C-13.86 44.22 -13.65 43.43 -13.44 42.63 C-9.55 28.25 -4.71 14.12 0 0 Z " fill="#FBFCFC" transform="translate(646,130)"/>
<path d="M0 0 C3.85 3.43 6.25 7.34 8.81 11.75 C9.25 12.49 9.68 13.24 10.13 14 C14.38 21.41 17.79 29.09 21 37 C21.39 37.85 21.78 38.7 22.19 39.58 C25.03 48.04 20.19 55.59 16.5 63.02 C11.43 72.33 4.59 80.73 -4 87 C-4.01 86.31 -4.02 85.62 -4.03 84.9 C-4.36 65.42 -5.52 46.14 -11.61 27.51 C-12.3 23.05 -9.88 19.63 -7.69 15.88 C-4.78 10.74 -2.37 5.4 0 0 Z " fill="#FBFDFC" transform="translate(748,193)"/>
<path d="M0 0 C-1.51 7.59 -3.81 14.79 -6.25 22.12 C-10.35 34.63 -13.87 47.22 -17 60 C-31.67 57.17 -41.69 50.44 -52 40 C-51.41 36.75 -50.43 35.02 -48.19 32.61 C-47.61 31.99 -47.04 31.36 -46.44 30.72 C-45.82 30.07 -45.2 29.42 -44.56 28.75 C-43.93 28.08 -43.29 27.41 -42.64 26.72 C-32.69 16.37 -15.1 0 0 0 Z " fill="#FBFCFC" transform="translate(643,129)"/>
<path d="M0 0 C-0.13 0.62 -0.27 1.24 -0.4 1.88 C-1.53 7.54 -2.03 12.78 -2.06 18.56 C-2.48 25.65 -4.38 28.54 -9.4 33.37 C-22.16 46.3 -30.83 65.15 -37 82 C-37.66 82 -38.32 82 -39 82 C-42.53 62.87 -45.66 41.64 -35 24 C-33.07 21.89 -30.95 20.07 -28.75 18.25 C-27.84 17.48 -27.84 17.48 -26.91 16.7 C-6.68 0 -6.68 0 0 0 Z " fill="#FBFDFC" transform="translate(536,146)"/>
<path d="M0 0 C2.16 2.16 2.6 3.34 3.52 6.2 C10.13 25.81 18.75 44.22 31.75 60.44 C32.92 61.9 34.06 63.38 35.2 64.86 C45.06 77.44 56.35 87.76 69.42 96.88 C73.07 99.47 76.28 102.11 79.12 105.56 C87.01 114.71 95.19 122.22 105.13 129 C108 131 108 131 110 133 C105.53 132.33 101.6 130.7 97.5 128.88 C96.79 128.56 96.08 128.25 95.36 127.92 C77.15 119.71 61.26 108.95 47 95 C46.26 94.3 45.53 93.61 44.77 92.89 C26.56 75.31 13.39 52.07 6 28 C5.76 27.23 5.53 26.46 5.28 25.66 C2.7 17.14 0.43 8.94 0 0 Z " fill="#F7FAF9" transform="translate(452,311)"/>
<path d="M0 0 C5.6 2.86 10.81 5.79 15.76 9.69 C20.46 13.31 24.08 15.64 30.25 15.12 C32.5 14.76 34.75 14.38 37 14 C40.1 13.74 43.2 13.59 46.31 13.44 C47.79 13.35 49.26 13.27 50.74 13.18 C51.81 13.12 52.89 13.06 54 13 C53.86 15.19 53.71 17.38 53.56 19.56 C53.48 20.78 53.4 22 53.32 23.25 C53.01 26.87 52.55 30.41 52 34 C47.61 35.04 43.21 36.05 38.81 37.06 C37.57 37.36 36.32 37.65 35.04 37.96 C33.23 38.37 33.23 38.37 31.39 38.79 C30.29 39.04 29.18 39.3 28.05 39.56 C22.68 40.33 19.18 38.77 14.48 36.28 C12.95 35.47 12.95 35.47 11.38 34.65 C10.33 34.08 9.27 33.52 8.19 32.94 C7.11 32.37 6.04 31.8 4.93 31.22 C2.28 29.82 -0.36 28.41 -3 27 C-2.4 17.91 -1.39 9 0 0 Z " fill="#040505" transform="translate(574,308)"/>
<path d="M0 0 C1.02 0.54 2.04 1.08 3.1 1.63 C4.68 2.48 4.68 2.48 6.29 3.34 C7.37 3.91 8.44 4.48 9.55 5.06 C12.2 6.46 14.84 7.87 17.48 9.28 C17.34 11.92 17.19 14.57 17.04 17.21 C17 17.97 16.96 18.72 16.92 19.5 C16.59 25.16 16.59 25.16 15.48 26.28 C11.8 26.96 8.07 27.37 4.36 27.84 C3.32 27.98 2.29 28.12 1.22 28.26 C-1.69 28.64 -4.6 28.96 -7.52 29.28 C-8.71 29.44 -9.9 29.6 -11.12 29.76 C-16.5 29 -20.31 26.01 -24.71 22.96 C-25.6 22.37 -26.48 21.78 -27.4 21.16 C-29.79 19.56 -32.17 17.93 -34.52 16.28 C-35.27 15.77 -36.02 15.26 -36.79 14.74 C-37.65 14.01 -37.65 14.01 -38.52 13.28 C-38.69 10.8 -38.69 10.8 -38.27 8.09 C-38.14 7.19 -38.01 6.29 -37.88 5.36 C-37.76 4.67 -37.64 3.99 -37.52 3.28 C-31.53 1.06 -25.48 -0.54 -19.27 -1.97 C-18.49 -2.16 -17.71 -2.35 -16.9 -2.54 C-16.15 -2.71 -15.4 -2.88 -14.63 -3.05 C-13.96 -3.2 -13.29 -3.36 -12.6 -3.52 C-7.8 -3.99 -4.15 -2.21 0 0 Z " fill="#040505" transform="translate(613.51953125,289.72265625)"/>
<path d="M0 0 C6.36 1.12 11.66 2.96 17.31 6.06 C18.05 6.46 18.78 6.86 19.54 7.27 C26.18 10.94 32.14 15.16 38 20 C38.98 20.78 39.95 21.55 40.96 22.36 C41.88 23.13 42.8 23.89 43.75 24.69 C44.57 25.37 45.39 26.06 46.23 26.76 C48 29 48 29 48.36 32.03 C47.36 40.27 42.09 45.73 36 51 C31.69 54 31.69 54 29 54 C28.65 53.16 28.65 53.16 28.3 52.31 C21.55 36.09 14.63 21.04 4.1 6.93 C2.44 4.62 1.21 2.54 0 0 Z " fill="#FBFCFC" transform="translate(652,130)"/>
<path d="M0 0 C0 4.25 -2.46 6.03 -5.25 8.94 C-6.07 9.8 -6.07 9.8 -6.9 10.68 C-8.03 11.87 -9.18 13.06 -10.32 14.25 C-11.87 15.87 -13.41 17.5 -14.94 19.14 C-26.56 31.35 -40.12 40.23 -55 48 C-55.74 48.4 -56.48 48.8 -57.24 49.21 C-64 52.74 -70.95 55.25 -78.19 57.62 C-79.97 58.21 -79.97 58.21 -81.79 58.81 C-92.45 62.26 -102.7 65.21 -114 65 C-110.82 62.88 -107.89 61.77 -104.31 60.44 C-94.35 56.58 -84.23 51.71 -76 44.81 C-72.57 42.07 -68.85 40.7 -64.75 39.25 C-41.49 31.01 -17.56 17.56 0 0 Z " fill="#F7FAF9" transform="translate(744,387)"/>
<path d="M0 0 C4.32 1.46 7.64 3.77 11.19 6.56 C11.76 7.01 12.33 7.45 12.91 7.91 C21.48 14.66 29.53 22.05 37 30 C37.56 30.6 38.13 31.19 38.71 31.8 C41.19 34.77 42.38 37.25 42.25 41.06 C41.07 47.75 37.6 54.28 34 60 C33.01 60.33 32.02 60.66 31 61 C30.51 59.67 30.51 59.67 30 58.32 C23.52 41.25 15.11 24.43 2.38 11.12 C-0.75 7.02 -0.53 5.02 0 0 Z " fill="#FBFCFC" transform="translate(703,151)"/>
<path d="M0 0 C-2.56 2.56 -5.22 3.59 -8.5 5.12 C-15.08 8.32 -20.52 12.13 -26 17 C-26.84 17.73 -27.69 18.47 -28.55 19.23 C-33.9 23.96 -39 28.9 -44 34 C-45.33 35.33 -46.67 36.67 -48 38 C-48.28 37.37 -48.55 36.75 -48.84 36.1 C-49.2 35.28 -49.56 34.47 -49.94 33.62 C-50.3 32.81 -50.66 32 -51.03 31.16 C-51.66 29.76 -52.31 28.37 -53 27 C-53.15 24.9 -53.22 22.79 -53.25 20.69 C-53.28 19.56 -53.3 18.43 -53.33 17.26 C-52.95 13.48 -52.53 11.85 -50 9 C-47.21 7.58 -44.31 6.7 -41.31 5.81 C-40.15 5.44 -40.15 5.44 -38.96 5.06 C-25.79 0.95 -13.79 -0.18 0 0 Z " fill="#F8FAFA" transform="translate(636,127)"/>
<path d="M0 0 C-3.01 5.35 -6.02 7.57 -11.44 10.31 C-22.22 16.09 -31.85 22.67 -40.83 31.05 C-43.41 33.37 -46.04 35.21 -49 37 C-49.11 34.88 -49.19 32.75 -49.25 30.62 C-49.3 29.44 -49.34 28.26 -49.39 27.04 C-49.12 21.91 -47.86 17.29 -45 13 C-41.84 10.66 -38.5 9.38 -34.81 8.06 C-33.9 7.7 -33 7.34 -32.06 6.97 C-29.39 5.93 -26.7 4.95 -24 4 C-23.18 3.71 -22.36 3.42 -21.52 3.13 C-17.44 1.73 -13.44 0.52 -9.19 -0.25 C-8.29 -0.42 -7.4 -0.59 -6.48 -0.77 C-4.01 -1 -2.34 -0.76 0 0 Z " fill="#F9FBFB" transform="translate(586,129)"/>
<path d="M0 0 C-19.45 11.69 -37.15 18.56 -60 18 C-58.54 15.08 -56.12 14.6 -53.28 13.27 C-50.85 11.92 -49.09 10.34 -47.05 8.46 C-41.36 3.97 -35.8 3.68 -28.75 3.25 C-20.44 2.62 -12.63 1.64 -4.56 -0.49 C-2 -1 -2 -1 0 0 Z " fill="#F5F9F8" transform="translate(661,434)"/>
<path d="M0 0 C4.73 1.84 9.36 3.89 14 5.94 C14.79 6.28 15.59 6.63 16.41 6.99 C27.55 11.92 27.55 11.92 31.56 17.38 C32.16 18.17 32.75 18.97 33.37 19.79 C33.91 20.52 34.44 21.25 35 22 C37.51 25.22 40.06 28.17 43 31 C26.58 26 11.38 13.62 0 1 C0 0.67 0 0.34 0 0 Z " fill="#EFF6F4" transform="translate(535,417)"/>
<path d="M0 0 C7.41 1.39 14.69 3.13 22 5 C22 9.95 22 14.9 22 20 C12.97 16.39 5.9 8.65 0 1 C0 0.67 0 0.34 0 0 Z " fill="#F9FBFB" transform="translate(567,431)"/>
<path d="M0 0 C7.53 -0.26 14.59 0.72 22 2 C19.24 4.94 16.53 7.08 13.06 9.12 C12.23 9.62 11.39 10.12 10.54 10.63 C6.94 12.57 4.12 14 0 14 C0 9.38 0 4.76 0 0 Z " fill="#EFF5F4" transform="translate(592,437)"/>
<path d="M0 0 C7 2.07 14.24 4.38 20 9 C21.26 11.97 21.17 13.7 21 17 C19.7 15.82 19.7 15.82 18.38 14.62 C14.03 10.87 9.34 7.62 4.62 4.34 C3.07 3.25 1.53 2.13 0 1 C0 0.67 0 0.34 0 0 Z " fill="#E4EFED" transform="translate(679,138)"/>
<path d="M0 0 C-3.74 2.17 -7.77 3.06 -11.94 4.06 C-12.64 4.24 -13.34 4.41 -14.07 4.59 C-17.7 5.48 -21.33 6.3 -25 7 C-23.12 2.12 -23.12 2.12 -22 1 C-14.66 -0.1 -7.41 -0.1 0 0 Z " fill="#EAF2F1" transform="translate(613,125)"/>
<path d="M0 0 C0.33 0.66 0.66 1.32 1 2 C-3.05 2.98 -6.84 3.08 -11 3 C-3.71 -1.86 -3.71 -1.86 0 0 Z " fill="#B2D1CB" transform="translate(641,449)"/>
<path d="M0 0 C2.95 2.95 3.09 5.96 4 10 C3.01 10 2.02 10 1 10 C0.67 6.7 0.34 3.4 0 0 Z " fill="#C1DAD5" transform="translate(452,311)"/>
</svg>
