<?xml version="1.0" encoding="UTF-8"?>
<!-- Generator: https://ezgif.com/webp-to-svg -->
<svg version="1.1" xmlns="http://www.w3.org/2000/svg" width="1160" height="696">
<path d="M0 0 C382.8 0 765.6 0 1160 0 C1160 229.68 1160 459.36 1160 696 C777.2 696 394.4 696 0 696 C0 466.32 0 236.64 0 0 Z " fill="#10A5FF" transform="translate(0,0)"/>
<path d="M0 0 C1.55 1.31 3.09 2.62 4.62 3.94 C5.29 4.45 5.95 4.97 6.63 5.5 C21.48 17.47 30.88 35.08 36.62 52.94 C36.84 53.58 37.05 54.23 37.27 54.89 C45.25 79.92 41.54 109.02 29.57 132.2 C15.58 157.88 -7.42 176.83 -35.38 185.25 C-65.32 192.47 -94.1 188.69 -120.56 173.07 C-124.84 170.4 -128.62 167.28 -132.38 163.94 C-133.11 163.35 -133.84 162.76 -134.59 162.15 C-139.36 158.21 -143.29 153.83 -147.12 149 C-147.57 148.44 -148.02 147.88 -148.48 147.3 C-150.97 144.08 -153.08 140.78 -155.04 137.21 C-155.48 136.41 -155.92 135.6 -156.37 134.78 C-156.7 134.17 -157.03 133.56 -157.38 132.94 C-158.08 146.24 -158.55 159.52 -158.77 172.84 C-159.21 198.79 -160.06 224.72 -160.99 250.66 C-161.17 255.43 -161.33 260.19 -161.49 264.95 C-162.36 290.45 -163.38 315.92 -164.92 341.39 C-164.98 342.42 -165.04 343.45 -165.11 344.51 C-167.62 385.87 -167.62 385.87 -171.31 405.44 C-171.53 406.62 -171.53 406.62 -171.75 407.83 C-172.77 412.69 -174.37 415.98 -177.38 419.94 C-179.19 419.88 -179.19 419.88 -181.38 418.94 C-202.81 375.29 -194.8 307.48 -195.45 260.27 C-195.52 255.27 -195.6 250.26 -195.68 245.26 C-196.3 205.41 -196.71 165.56 -197.05 125.71 C-197.13 55.77 -197.13 55.77 -200.38 -14.06 C-184.87 -14.06 -169.36 -14.06 -153.38 -14.06 C-153.54 -9.75 -153.71 -5.44 -153.88 -1 C-154.24 8.99 -154.53 18.95 -154.38 28.94 C-154.05 28.42 -153.72 27.89 -153.38 27.36 C-146.38 16.53 -138.71 7.69 -128.38 -0.06 C-127.6 -0.67 -126.82 -1.27 -126.02 -1.89 C-89.49 -29.04 -35.67 -28.19 0 0 Z " fill="#FEFEFF" transform="translate(765.375,144.0625)"/>
<path d="M0 0 C0.78 0.61 1.56 1.23 2.37 1.86 C21.42 17.72 34.07 42.51 37 67 C39.62 99.11 31.11 126.75 10.4 151.34 C-9.2 173.05 -35.19 183.98 -64.08 185.8 C-90.49 186.97 -116.13 178.71 -136 161 C-136.77 160.36 -137.53 159.73 -138.32 159.07 C-148.01 150.88 -154.7 140.93 -161 130 C-161.47 129.18 -161.95 128.36 -162.44 127.51 C-169.23 114.88 -172.12 101.19 -173 87 C-173.05 86.25 -173.1 85.5 -173.15 84.72 C-174.71 58.22 -164.59 32.4 -148 12 C-147.22 10.95 -146.43 9.9 -145.62 8.81 C-141.49 4.38 -136.79 0.71 -132 -3 C-131.22 -3.61 -130.43 -4.22 -129.62 -4.85 C-90.59 -33.73 -37.07 -29.63 0 0 Z " fill="#FEFEFF" transform="translate(521,147)"/>
<path d="M0 0 C1.08 0.64 2.17 1.27 3.28 1.93 C7.62 4.59 11.65 7.11 15 11 C14.9 15.34 13.25 19.07 11.7 23.07 C9.66 28.7 9.3 35.07 10 41 C11.6 44.41 11.6 44.41 14 47 C14.8 48.08 14.8 48.08 15.62 49.19 C24.47 55.94 36.5 54.29 47 54 C49.24 66.71 50.31 79.23 50.31 92.12 C50.32 94.06 50.32 94.06 50.33 96.04 C50.27 103.88 49.56 111.32 48 119 C47.44 119.04 46.88 119.09 46.31 119.14 C43.72 119.35 41.14 119.58 38.56 119.81 C37.68 119.88 36.81 119.95 35.9 120.03 C29.06 120.66 19.84 121.6 15 127 C11.51 133.72 10.9 140.52 12 148 C14.29 153.96 17.36 158.63 22 163 C18.12 172.43 3.96 177.99 -5 182 C-34.56 194.21 -67.32 195.48 -97.12 183.12 C-106.04 179.19 -113.71 174.52 -121 168 C-121.83 167.31 -122.66 166.63 -123.51 165.92 C-140.41 151.55 -150.14 131.56 -154 110 C-154.19 109.06 -154.37 108.12 -154.56 107.15 C-158.52 78.62 -151.57 47.31 -134.25 24.25 C-102.58 -16.02 -43.78 -25.77 0 0 Z " fill="#FEFEFF" transform="translate(503,379)"/>
<path d="M0 0 C27.9 -1.43 52.5 6.57 73.66 24.87 C83.89 34.47 94.37 47.08 96.97 61.12 C96.21 61.42 95.45 61.73 94.66 62.04 C81.6 67.34 68.42 73.47 61.93 86.82 C61.61 87.58 61.3 88.34 60.97 89.12 C60.65 89.88 60.34 90.64 60.01 91.42 C55.61 103.77 57.19 117.63 62.72 129.31 C69.97 142.87 81.9 150.51 95.97 156.12 C86.49 172.15 74.04 183.78 57.97 193.12 C57.07 193.64 56.17 194.17 55.24 194.71 C32.06 207.26 1.12 209.03 -24.03 202.12 C-25.88 201.63 -25.88 201.63 -27.76 201.12 C-51.56 194 -71.11 178.22 -83.21 156.52 C-88.81 146.12 -92.91 135.76 -95.03 124.12 C-95.24 123.09 -95.44 122.06 -95.65 121 C-100.25 94.57 -96.23 68.96 -82.03 46.12 C-79.27 42.21 -76.27 38.64 -73.03 35.12 C-72.19 34.19 -71.34 33.27 -70.47 32.31 C-56.65 17.83 -39.33 8.16 -20.03 3.12 C-18.93 2.8 -18.93 2.8 -17.8 2.47 C-11.88 0.83 -6.1 0.36 0 0 Z " fill="#FEFEFF" transform="translate(709.03076171875,362.880859375)"/>
</svg>
