<?xml version="1.0" encoding="UTF-8"?>
<!-- Generator: https://ezgif.com/webp-to-svg -->
<svg version="1.1" xmlns="http://www.w3.org/2000/svg" width="1160" height="696">
<path d="M0 0 C382.8 0 765.6 0 1160 0 C1160 229.68 1160 459.36 1160 696 C777.2 696 394.4 696 0 696 C0 466.32 0 236.64 0 0 Z " fill="#00498F" transform="translate(0,0)"/>
<path d="M0 0 C6.72 13.51 13.23 27.03 18.81 41.06 C19.24 42.13 19.66 43.2 20.1 44.3 C23 51.71 23 51.71 23 54 C21.98 54.42 20.97 54.85 19.92 55.28 C16.07 56.88 12.23 58.48 8.39 60.08 C6.74 60.77 5.09 61.45 3.44 62.14 C1.83 62.81 0.23 63.47 -1.37 64.14 C-2.96 64.8 -4.55 65.46 -6.14 66.12 C-9.84 67.66 -13.51 69.22 -17.16 70.87 C-18.12 71.3 -18.12 71.3 -19.1 71.73 C-20.81 72.5 -22.51 73.28 -24.21 74.06 C-27 75 -27 75 -29.19 75.01 C-32.03 73.42 -32.66 71.23 -33.95 68.3 C-34.49 67.1 -35.02 65.9 -35.57 64.66 C-36.13 63.36 -36.69 62.05 -37.25 60.75 C-37.83 59.43 -38.4 58.11 -38.98 56.79 C-42.42 48.9 -45.74 40.96 -48.88 32.94 C-49.21 32.08 -49.55 31.23 -49.9 30.35 C-50.2 29.56 -50.5 28.78 -50.8 27.96 C-51.19 26.95 -51.19 26.95 -51.59 25.92 C-52.11 23.51 -51.91 22.3 -51 20 C-49.12 18.76 -49.12 18.76 -46.64 17.71 C-45.71 17.31 -44.78 16.91 -43.82 16.5 C-42.81 16.08 -41.8 15.66 -40.76 15.23 C-39.73 14.8 -38.7 14.36 -37.63 13.91 C-35.45 12.98 -33.26 12.06 -31.06 11.15 C-27.7 9.76 -24.36 8.34 -21.01 6.91 C-18.89 6.02 -16.76 5.13 -14.64 4.23 C-13.13 3.6 -13.13 3.6 -11.59 2.95 C-10.66 2.56 -9.72 2.17 -8.75 1.77 C-7.93 1.43 -7.11 1.09 -6.26 0.73 C-4 0 -4 0 0 0 Z " fill="#FDD31D" transform="translate(586,307)"/>
<path d="M0 0 C5.64 15.95 10.87 32.15 13 49 C8.68 51.04 4.35 53.03 0 55 C-1.39 55.63 -1.39 55.63 -2.81 56.28 C-5.89 57.68 -8.97 59.06 -12.06 60.44 C-13.07 60.9 -14.09 61.36 -15.13 61.84 C-16.57 62.47 -16.57 62.47 -18.04 63.12 C-18.9 63.51 -19.75 63.89 -20.64 64.29 C-23.3 65.09 -24.47 65.09 -27 64 C-28.71 61.86 -30.17 59.81 -31.62 57.5 C-32.05 56.84 -32.48 56.17 -32.93 55.49 C-37.86 47.81 -42.46 39.92 -47 32 C-47.57 31.01 -48.15 30.02 -48.74 29 C-52 23.27 -52 23.27 -52 21 C-23.98 8.26 -23.98 8.26 -11.38 3.19 C-10.56 2.86 -9.74 2.53 -8.91 2.19 C-5.8 0.96 -3.37 0 0 0 Z " fill="#FCD31E" transform="translate(613,370)"/>
<path d="M0 0 C8.4 9.97 13.4 24.99 17.94 37.06 C18.38 38.22 18.38 38.22 18.83 39.4 C20.61 44.3 21.53 48.81 22 54 C21.21 54.28 20.42 54.56 19.6 54.85 C16.62 55.92 13.63 56.99 10.64 58.05 C9.36 58.51 8.08 58.97 6.79 59.43 C-1.15 62.26 -9.08 65.11 -17 68 C-17.42 66.82 -17.83 65.64 -18.26 64.43 C-22.84 51.76 -28.33 39.72 -34.34 27.69 C-34.64 27.08 -34.94 26.48 -35.25 25.85 C-36.07 24.2 -36.9 22.55 -37.73 20.9 C-38.9 18.22 -39.57 15.88 -40 13 C-34.95 10.97 -29.9 8.96 -24.84 6.96 C-23.12 6.28 -21.4 5.6 -19.68 4.91 C-17.21 3.92 -14.74 2.94 -12.27 1.96 C-11.5 1.65 -10.73 1.34 -9.94 1.02 C-3.77 -1.38 -3.77 -1.38 0 0 Z " fill="#FCD31D" transform="translate(637,288)"/>
<path d="M0 0 C0.22 0.6 0.43 1.19 0.65 1.81 C6.16 16.99 12.25 31.81 18.91 46.52 C20 48.99 21.01 51.48 22 54 C13.63 58.24 5.23 62.42 -3.25 66.44 C-4.32 66.95 -4.32 66.95 -5.41 67.47 C-8.58 68.97 -11.58 70.23 -15 71 C-19.22 64.98 -22.8 58.89 -25.94 52.25 C-26.36 51.36 -26.79 50.46 -27.22 49.54 C-38 26.24 -38 26.24 -38 16 C-34.14 14.2 -30.28 12.41 -26.42 10.61 C-25.11 10 -23.8 9.39 -22.49 8.78 C-20.6 7.9 -18.7 7.02 -16.81 6.14 C-15.67 5.61 -14.54 5.08 -13.36 4.53 C-11.7 3.77 -11.7 3.77 -10 3 C-9.38 2.72 -8.76 2.43 -8.12 2.14 C-5.24 0.84 -3.2 0 0 0 Z " fill="#FCD31E" transform="translate(523,334)"/>
<path d="M0 0 C2.91 2.01 4.69 4.84 6.66 7.71 C7.1 8.34 7.54 8.97 7.99 9.62 C24.85 33.96 24.85 33.96 24.85 39.28 C21.22 40.9 17.6 42.51 13.97 44.13 C12.15 44.94 10.32 45.76 8.5 46.57 C1.86 49.53 -4.8 52.42 -11.53 55.18 C-14.86 56.57 -18.14 58.06 -21.41 59.58 C-23.15 60.28 -23.15 60.28 -25.15 60.28 C-28.77 49.54 -32.27 38.82 -34.59 27.71 C-34.75 26.94 -34.92 26.16 -35.09 25.36 C-35.83 21.62 -36.34 18.09 -36.15 14.28 C-28.51 10.17 -20.64 6.65 -12.65 3.28 C-11.69 2.86 -10.72 2.43 -9.72 2 C-8.8 1.62 -7.88 1.23 -6.93 0.84 C-6.11 0.49 -5.29 0.14 -4.44 -0.22 C-2.15 -0.72 -2.15 -0.72 0 0 Z " fill="#FDD31D" transform="translate(555.153076171875,258.722900390625)"/>
<path d="M0 0 C2.92 3.5 5.35 7.08 7.69 11 C13.63 20.81 20.09 30.17 27.47 38.98 C29 41 29 41 30 44 C26.3 45.88 22.59 47.72 18.88 49.56 C17.83 50.1 16.78 50.63 15.7 51.18 C14.68 51.68 13.67 52.18 12.62 52.69 C11.69 53.16 10.75 53.62 9.79 54.1 C6.4 55.19 4.41 54.94 1 54 C-0.82 53 -0.82 53 -2.33 51.78 C-2.9 51.33 -3.46 50.87 -4.05 50.41 C-4.63 49.92 -5.21 49.44 -5.81 48.94 C-6.43 48.44 -7.04 47.94 -7.67 47.42 C-9.46 45.96 -11.23 44.48 -13 43 C-13.86 42.3 -14.71 41.6 -15.59 40.88 C-21.51 35.87 -26.24 30.09 -31 24 C-31.77 23.13 -32.53 22.25 -33.32 21.36 C-33.88 20.58 -34.43 19.8 -35 19 C-34 16 -34 16 -31.52 14.51 C-29.9 13.75 -29.9 13.75 -28.24 12.97 C-27.06 12.41 -25.88 11.84 -24.66 11.26 C-23.4 10.67 -22.14 10.09 -20.88 9.5 C-19.64 8.91 -18.4 8.33 -17.16 7.74 C-11.48 5.05 -5.78 2.45 0 0 Z " fill="#FCD31E" transform="translate(549,396)"/>
<path d="M0 0 C2.82 8.46 2.18 18.17 2.19 27 C2.2 28.1 2.21 29.2 2.22 30.33 C2.26 48.02 2.26 48.02 -1.26 52.66 C-3.4 54.31 -5.5 55.24 -8 56.26 C-8.97 56.66 -9.94 57.05 -10.94 57.46 C-11.95 57.87 -12.96 58.27 -14 58.69 C-15.01 59.1 -16.02 59.52 -17.06 59.95 C-24.6 63 -24.6 63 -28 63 C-28.09 62.32 -28.18 61.64 -28.27 60.95 C-30.27 46.21 -32.9 32.12 -37.51 17.97 C-38 16 -38 16 -38 12 C-33.24 10.12 -28.47 8.25 -23.69 6.39 C-22.07 5.76 -20.45 5.12 -18.83 4.48 C-16.5 3.56 -14.16 2.65 -11.83 1.75 C-11.11 1.46 -10.38 1.17 -9.64 0.87 C-3.55 -1.46 -3.55 -1.46 0 0 Z " fill="#FCD31E" transform="translate(662,352)"/>
<path d="M0 0 C12.29 8.54 23.42 19.14 32 31.46 C29.22 33.31 26.92 34.34 23.81 35.48 C22.78 35.87 21.75 36.25 20.69 36.64 C19.08 37.23 19.08 37.23 17.44 37.84 C15.33 38.61 13.23 39.39 11.12 40.17 C10.1 40.55 9.07 40.93 8.02 41.32 C4.32 42.72 0.68 44.21 -2.96 45.75 C-5 46.46 -5 46.46 -8 46.46 C-9.61 44.16 -11.03 41.89 -12.44 39.46 C-16.11 33.35 -20.01 27.52 -24.31 21.84 C-24.8 21.19 -25.29 20.54 -25.8 19.87 C-28.77 15.98 -31.84 12.2 -35 8.46 C-32.94 4.34 -26.49 3.33 -22.38 1.77 C-21.29 1.34 -20.21 0.92 -19.1 0.47 C-11.93 -2.24 -7.13 -3.66 0 0 Z " fill="#FCD31D" transform="translate(599,246.5390625)"/>
<path d="M0 0 C0.06 0.59 0.13 1.18 0.2 1.79 C1.53 13.65 3.23 25.17 6.37 36.7 C6.58 37.47 6.79 38.25 7.01 39.04 C7.2 39.71 7.39 40.38 7.59 41.07 C8 43 8 43 8 47 C3.9 48.9 -0.21 50.79 -4.31 52.69 C-5.46 53.22 -6.61 53.75 -7.79 54.29 C-14.85 57.55 -21.92 60.79 -29 64 C-30.62 55.75 -31.31 47.84 -31.25 39.44 C-31.26 38.39 -31.27 37.35 -31.27 36.27 C-31.23 18.67 -31.23 18.67 -27 12 C-25.32 10.77 -25.32 10.77 -23.33 9.75 C-22.6 9.37 -21.87 8.99 -21.12 8.6 C-20.36 8.21 -19.6 7.83 -18.81 7.44 C-18.07 7.05 -17.33 6.67 -16.56 6.27 C-4.38 0 -4.38 0 0 0 Z " fill="#FBD31E" transform="translate(511,278)"/>
<path d="M0 0 C0.28 0.93 0.28 0.93 0.58 1.87 C5.96 19.15 12.01 36.22 22.08 51.39 C23 53 23 53 23 55 C20.94 56.4 18.9 57.68 16.75 58.94 C12.13 61.64 12.13 61.64 7.83 64.82 C6 66 6 66 4.02 66.08 C0.89 64.41 -0.58 61.64 -2.38 58.69 C-2.77 58.05 -3.16 57.42 -3.57 56.76 C-12.12 42.78 -18.95 27.39 -21 11 C-5.01 0 -5.01 0 0 0 Z " fill="#FBD31E" transform="translate(476,356)"/>
<path d="M0 0 C11.95 9.15 19.02 32.67 21.74 46.62 C22.08 49.76 22.04 52.85 22 56 C18.9 56.84 15.79 57.67 12.69 58.5 C11.81 58.74 10.93 58.98 10.02 59.22 C9.17 59.45 8.32 59.67 7.45 59.91 C6.28 60.22 6.28 60.22 5.08 60.54 C3 61 3 61 0 61 C-0.21 60.13 -0.42 59.25 -0.63 58.35 C-5.07 40.61 -11.81 23.29 -22 8 C-22 7.01 -22 6.02 -22 5 C-19.46 4.16 -16.92 3.32 -14.38 2.5 C-13.66 2.26 -12.95 2.02 -12.21 1.78 C-8.07 0.45 -4.4 -0.61 0 0 Z " fill="#FBD31E" transform="translate(668,277)"/>
<path d="M0 0 C2.48 0.5 2.48 0.5 5 1 C5.11 1.62 5.21 2.24 5.32 2.87 C7.19 13.83 9.12 24.77 11.35 35.66 C12.18 39.93 12.82 44.22 13.43 48.52 C14 52.01 14.76 55.4 15.54 58.84 C17.31 67.25 17.38 75.44 17.29 84 C17.29 85.57 17.28 87.14 17.28 88.71 C17.27 92.79 17.24 96.86 17.21 100.94 C17.17 105.13 17.16 109.31 17.15 113.49 C17.11 121.66 17.06 129.83 17 138 C15.68 138 14.36 138 13 138 C9.66 122.02 6.73 105.99 4.06 89.88 C3.93 89.16 3.81 88.43 3.69 87.68 C3.35 85.69 3.03 83.71 2.7 81.72 C2.07 78.01 2.07 78.01 0.93 74.53 C-0.78 67.84 -0.24 60.77 -0.2 53.91 C-0.19 52.35 -0.19 50.79 -0.19 49.23 C-0.18 45.16 -0.16 41.08 -0.14 37 C-0.12 32.83 -0.11 28.66 -0.1 24.49 C-0.08 16.33 -0.04 8.16 0 0 Z " fill="#F3CE22" transform="translate(584,486)"/>
<path d="M0 0 C1.65 0 3.3 0 5 0 C5.15 6.54 5.29 13.08 5.43 19.62 C5.47 21.83 5.52 24.04 5.57 26.25 C5.74 33.84 5.88 41.42 6 49 C6.03 50.61 6.03 50.61 6.06 52.25 C6.25 64.41 6.1 75.96 3.81 87.94 C3.47 89.87 3.13 91.81 2.8 93.74 C2.56 95.08 2.33 96.42 2.09 97.75 C0.76 105.21 -0.36 112.7 -1.48 120.2 C-1.81 122.41 -2.14 124.63 -2.48 126.84 C-2.99 130.23 -3.49 133.61 -4 137 C-5.94 137.56 -5.94 137.56 -8 138 C-9.75 136.25 -9.23 133.77 -9.32 131.38 C-9.38 129.54 -9.38 129.54 -9.45 127.67 C-9.64 120.94 -9.8 114.21 -9.94 107.48 C-10 104.99 -10.07 102.5 -10.14 100.01 C-10.79 76.16 -9.37 53.48 -5.21 29.98 C-4 23.15 -2.97 16.29 -1.99 9.43 C-1.88 8.63 -1.76 7.83 -1.64 7.01 C-1.54 6.31 -1.44 5.61 -1.34 4.88 C-1 3 -1 3 0 0 Z " fill="#F4CF21" transform="translate(562,487)"/>
<path d="M0 0 C1.65 0 3.3 0 5 0 C5.15 5.43 5.29 10.86 5.43 16.3 C5.47 18.13 5.52 19.96 5.57 21.79 C5.73 27.46 5.84 33.13 5.94 38.8 C5.98 40.99 6.04 43.19 6.1 45.38 C6.71 65.67 4.67 84.71 1.36 104.66 C0.74 108.44 0.15 112.22 -0.45 116 C-1.6 123.34 -2.79 130.67 -4 138 C-5.65 138 -7.3 138 -9 138 C-9.31 126.78 -9.58 115.57 -9.82 104.35 C-9.91 100.05 -10 95.76 -10.13 91.47 C-10.66 73.08 -8.98 55.97 -5.68 37.89 C-4.52 31.25 -3.64 24.56 -2.75 17.88 C-2.43 15.5 -2.12 13.12 -1.8 10.74 C-1.67 9.75 -1.54 8.76 -1.4 7.74 C-1.02 5.14 -0.54 2.57 0 0 Z " fill="#F5CF21" transform="translate(588,71)"/>
<path d="M0 0 C0.33 1.32 0.66 2.64 1 4 C-5.48 6.05 -12.07 7.18 -18.76 8.35 C-20.59 8.67 -20.59 8.67 -22.46 9 C-25.69 9.58 -28.92 10.15 -32.15 10.71 C-36.7 11.52 -41.26 12.32 -45.81 13.13 C-48.23 13.56 -50.65 13.99 -53.07 14.41 C-54.17 14.61 -55.27 14.8 -56.4 15 C-57.37 15.17 -58.33 15.34 -59.32 15.51 C-61.02 15.82 -62.72 16.17 -64.41 16.56 C-67.64 17.11 -70.72 17.12 -73.99 17.11 C-75.02 17.11 -75.02 17.11 -76.06 17.11 C-78.31 17.11 -80.56 17.11 -82.8 17.1 C-84.36 17.1 -85.93 17.09 -87.49 17.09 C-91.59 17.09 -95.69 17.08 -99.79 17.07 C-103.98 17.06 -108.17 17.05 -112.36 17.05 C-120.57 17.04 -128.79 17.02 -137 17 C-137 15.68 -137 14.36 -137 13 C-131.68 11.35 -126.45 10.36 -120.94 9.56 C-113.89 8.5 -106.99 7.19 -100.04 5.62 C-96.04 4.8 -92.06 4.41 -88 4 C-87.34 3.67 -86.68 3.34 -86 3 C-83.7 2.69 -81.4 2.49 -79.09 2.28 C-76.95 2.11 -76.95 2.11 -75 1 C-72.77 0.84 -70.54 0.75 -68.3 0.68 C-67.26 0.65 -67.26 0.65 -66.21 0.62 C-63.91 0.55 -61.61 0.5 -59.31 0.44 C-58.53 0.42 -57.74 0.4 -56.94 0.37 C-37.96 -0.13 -18.98 -0.1 0 0 Z " fill="#F7D020" transform="translate(434,359)"/>
<path d="M0 0 C16.66 -0.5 32.74 2.15 49.12 4.84 C52.89 5.46 56.66 6.05 60.43 6.65 C67.76 7.82 75.08 9 82.41 10.21 C82.41 11.86 82.41 13.51 82.41 15.21 C68.41 15.59 54.41 15.93 40.41 16.21 C39.6 16.22 38.78 16.24 37.95 16.26 C9.1 16.83 9.1 16.83 -3.04 14 C-7.11 13.09 -11.14 12.59 -15.28 12.14 C-28.46 10.69 -41.51 8.41 -54.59 6.21 C-54.92 4.56 -55.25 2.91 -55.59 1.21 C-48.89 1.06 -42.19 0.92 -35.49 0.78 C-33.22 0.73 -30.96 0.68 -28.69 0.63 C-22.04 0.49 -15.39 0.37 -8.75 0.27 C-5.83 0.21 -2.92 0.11 0 0 Z " fill="#F5CF21" transform="translate(351.591552734375,326.79296875)"/>
<path d="M0 0 C2.48 0.5 2.48 0.5 5 1 C7.88 15.97 7.88 15.97 9 23.5 C9.71 28.25 10.54 32.97 11.44 37.69 C11.69 39.07 11.95 40.45 12.21 41.83 C12.71 44.51 13.25 47.16 13.82 49.82 C19.58 77.92 17.15 108.47 17 137 C15.68 137.33 14.36 137.66 13 138 C11.5 132.2 10.23 126.39 9.12 120.5 C8.87 119.15 8.87 119.15 8.61 117.78 C7.11 109.77 5.76 101.74 4.48 93.7 C3.85 89.75 3.21 85.84 2.25 81.96 C-0.04 72.58 -0.4 63.7 -0.29 54.1 C-0.29 52.53 -0.28 50.96 -0.28 49.39 C-0.27 45.3 -0.24 41.21 -0.21 37.13 C-0.18 32.94 -0.16 28.75 -0.15 24.55 C-0.11 16.37 -0.06 8.18 0 0 Z " fill="#F6D020" transform="translate(545,72)"/>
<path d="M0 0 C3.09 1.45 5.82 3.17 8.61 5.13 C9.97 6.08 9.97 6.08 11.36 7.05 C12.34 7.74 13.31 8.42 14.31 9.12 C16.39 10.58 18.46 12.03 20.54 13.48 C21.61 14.23 22.67 14.97 23.77 15.74 C26.91 17.94 30.06 20.12 33.21 22.3 C34.21 22.99 35.22 23.69 36.25 24.4 C38.14 25.71 40.04 27.02 41.93 28.33 C53.16 36.11 63.43 43.97 73.02 53.72 C74.01 54.72 75 55.72 75.99 56.71 C78.56 59.29 81.12 61.88 83.68 64.48 C86.31 67.14 88.95 69.79 91.59 72.44 C96.74 77.62 101.87 82.81 107 88 C106.34 88.99 105.68 89.98 105 91 C100.16 89.4 96.45 86.65 92.38 83.69 C90.85 82.6 89.33 81.51 87.8 80.42 C87.02 79.85 86.23 79.29 85.41 78.71 C80.78 75.43 76.08 72.25 71.39 69.07 C69.87 68.03 68.35 66.99 66.83 65.94 C64.67 64.46 62.5 63.02 60.3 61.6 C47.94 53.4 37.87 43.42 27.56 32.81 C25.06 30.26 22.56 27.71 20.05 25.17 C18.51 23.6 16.97 22.02 15.43 20.45 C14.75 19.74 14.06 19.04 13.35 18.32 C12.75 17.7 12.15 17.08 11.53 16.44 C10.04 14.9 10.04 14.9 8 14 C8 13.34 8 12.68 8 12 C7.2 11.69 7.2 11.69 6.38 11.38 C3 9.42 0.7 6.82 -2 4 C-1.34 2.68 -0.68 1.36 0 0 Z " fill="#F9D21F" transform="translate(681,435)"/>
<path d="M0 0 C0.99 0.33 1.98 0.66 3 1 C2.44 4.98 1.29 7.45 -1.04 10.71 C-1.67 11.62 -2.31 12.52 -2.97 13.45 C-3.66 14.42 -4.35 15.38 -5.06 16.38 C-6.52 18.44 -7.98 20.5 -9.44 22.56 C-10.19 23.62 -10.94 24.68 -11.72 25.77 C-13.96 28.94 -16.17 32.12 -18.38 35.31 C-19.08 36.33 -19.78 37.35 -20.5 38.39 C-21.84 40.33 -23.17 42.26 -24.51 44.2 C-30.01 52.13 -35.53 59.85 -42.5 66.56 C-45.46 69.42 -48.25 72.27 -50.91 75.4 C-56.87 82.29 -63.48 88.59 -69.94 95 C-71.3 96.36 -72.67 97.72 -74.03 99.08 C-77.35 102.39 -80.68 105.7 -84 109 C-84.99 108.34 -85.98 107.68 -87 107 C-85.42 102.25 -82.78 98.63 -79.88 94.62 C-78.79 93.11 -77.71 91.6 -76.62 90.08 C-76.04 89.27 -75.46 88.45 -74.86 87.62 C-72.19 83.86 -69.57 80.08 -66.95 76.3 C-64.88 73.32 -62.8 70.34 -60.72 67.37 C-58.61 64.34 -56.53 61.3 -54.53 58.2 C-46.95 46.74 -36.82 37.52 -26.97 28.02 C-24.95 26.15 -24.95 26.15 -24 24 C-23.34 24 -22.68 24 -22 24 C-21.76 23.44 -21.53 22.88 -21.29 22.3 C-19.7 19.46 -17.75 17.52 -15.43 15.23 C-14.53 14.34 -13.64 13.46 -12.71 12.54 C-11.78 11.62 -10.84 10.7 -9.88 9.75 C-8.92 8.81 -7.97 7.86 -7.01 6.91 C-4.68 4.6 -2.34 2.3 0 0 Z " fill="#F9D11F" transform="translate(482,454)"/>
<path d="M0 0 C15.24 6.62 30.08 13.93 44.89 21.44 C48.21 23.11 51.54 24.75 54.91 26.32 C63.35 30.27 70.46 35.07 77.8 40.79 C82.23 44.23 86.85 47.37 91.5 50.5 C97.78 54.76 104.01 59.07 110.12 63.56 C110.81 64.05 111.49 64.54 112.19 65.04 C115.5 67.5 117.3 68.92 118 73 C113.72 73 111.87 72.23 108.05 70.44 C106.88 69.89 105.71 69.35 104.5 68.78 C103.25 68.19 102 67.59 100.75 67 C99.47 66.4 98.19 65.8 96.91 65.19 C89.08 61.51 81.28 57.75 73.57 53.8 C71.11 52.55 68.63 51.35 66.12 50.2 C55.94 45.44 47.21 39.39 38.24 32.66 C34.68 30.02 31.06 27.48 27.44 24.94 C26.05 23.96 24.66 22.98 23.27 22 C22.57 21.51 21.88 21.03 21.17 20.52 C17.34 17.83 13.51 15.13 9.69 12.44 C8.98 11.94 8.26 11.44 7.53 10.92 C4.32 8.66 1.12 6.38 -2 4 C-1.34 2.68 -0.68 1.36 0 0 Z " fill="#FAD21F" transform="translate(694,417)"/>
<path d="M0 0 C0 0.99 0 1.98 0 3 C-1.05 3.54 -1.05 3.54 -2.13 4.09 C-16.19 11.33 -30.2 18.66 -44.06 26.28 C-45.28 26.95 -45.28 26.95 -46.53 27.63 C-48.19 28.55 -49.84 29.5 -51.48 30.47 C-59.53 35.15 -67.93 37.92 -76.75 40.75 C-78.33 41.27 -79.9 41.78 -81.48 42.3 C-85.52 43.62 -89.56 44.92 -93.6 46.23 C-96.73 47.24 -99.86 48.25 -103 49.27 C-110.99 51.86 -118.99 54.44 -127 57 C-127.33 55.68 -127.66 54.36 -128 53 C-122.29 49.29 -116.43 46.05 -110.38 42.94 C-101.79 38.49 -93.28 33.92 -84.81 29.24 C-82.22 27.81 -79.61 26.4 -77 25 C-76.1 24.51 -75.21 24.02 -74.29 23.52 C-65.75 19.02 -56.9 16.07 -47.75 13.12 C-46.16 12.61 -44.56 12.08 -42.97 11.56 C-40.57 10.78 -38.18 10 -35.79 9.22 C-31 7.67 -26.24 6.06 -21.49 4.41 C-20.39 4.03 -19.29 3.65 -18.16 3.26 C-16.15 2.56 -14.15 1.86 -12.15 1.15 C-11.26 0.84 -10.38 0.54 -9.47 0.23 C-8.35 -0.17 -8.35 -0.17 -7.2 -0.57 C-4.54 -1.09 -2.6 -0.68 0 0 Z " fill="#F9D11F" transform="translate(446,403)"/>
<path d="M0 0 C0.5 1.98 0.5 1.98 1 4 C-6.29 10.19 -13.87 15.91 -21.58 21.55 C-27.81 26.1 -33.95 30.75 -40.04 35.47 C-42.02 37 -44.01 38.5 -46 40 C-46.66 40.52 -47.33 41.04 -48.01 41.57 C-56.68 48.03 -66.49 52.55 -76.12 57.38 C-79.69 59.17 -83.26 60.97 -86.82 62.77 C-88.12 63.43 -88.12 63.43 -89.44 64.09 C-95.77 67.3 -101.96 70.73 -108.02 74.43 C-112.48 77.06 -112.48 77.06 -115.43 76.74 C-115.95 76.49 -116.47 76.25 -117 76 C-116.67 73.17 -116.16 72.14 -114.02 70.2 C-112.65 69.24 -112.65 69.24 -111.25 68.25 C-110.15 67.46 -109.05 66.67 -107.96 65.87 C-107.02 65.2 -107.02 65.2 -106.07 64.52 C-101.97 61.52 -97.97 58.4 -93.94 55.31 C-86.89 49.93 -79.81 44.59 -72.69 39.31 C-71.93 38.75 -71.17 38.19 -70.39 37.6 C-62.62 31.88 -54.57 27.12 -46 22.69 C-45.08 22.21 -44.16 21.73 -43.21 21.23 C-37.12 18.07 -31 14.97 -24.85 11.94 C-18.97 9.02 -13.17 5.93 -7.41 2.79 C-2.22 0 -2.22 0 0 0 Z " fill="#F9D11F" transform="translate(455,421)"/>
<path d="M0 0 C0.87 0.32 0.87 0.32 1.76 0.65 C0.15 4.52 -2.46 7.32 -5.3 10.33 C-5.81 10.89 -6.33 11.44 -6.86 12.01 C-12.16 17.66 -17.66 23.13 -23.18 28.56 C-27.19 32.51 -30.99 36.57 -34.67 40.83 C-43.01 50.49 -52.41 57.65 -62.82 64.94 C-66.87 67.8 -70.87 70.75 -74.86 73.71 C-75.64 74.28 -76.42 74.86 -77.23 75.45 C-84.93 81.14 -92.59 86.89 -100.24 92.65 C-101.56 91.99 -102.88 91.33 -104.24 90.65 C-95.99 80.84 -87.25 71.59 -78.15 62.58 C-75.19 59.64 -72.31 56.7 -69.61 53.52 C-60.3 42.69 -50.17 34.4 -38.49 26.24 C-35.01 23.78 -31.63 21.22 -28.24 18.65 C-26.27 17.17 -24.31 15.7 -22.35 14.23 C-20.85 13.11 -19.35 11.98 -17.85 10.84 C-15.41 8.99 -12.95 7.16 -10.49 5.33 C-9.72 4.75 -8.96 4.17 -8.17 3.57 C-7.46 3.04 -6.74 2.51 -6 1.97 C-5.05 1.26 -5.05 1.26 -4.09 0.53 C-2.24 -0.35 -2.24 -0.35 0 0 Z " fill="#FAD21E" transform="translate(780.2353515625,164.354736328125)"/>
<path d="M0 0 C0.99 0 1.98 0 3 0 C3.35 0.68 3.7 1.37 4.07 2.07 C9.93 13.46 15.79 24.81 22.23 35.88 C25.03 40.82 27.53 45.89 30 50.99 C30.75 52.5 31.53 54 32.32 55.49 C36.32 63.18 39.28 70.97 42 79.19 C42.44 80.51 42.88 81.83 43.32 83.15 C44.24 85.89 45.15 88.63 46.05 91.38 C47.21 94.89 48.39 98.4 49.57 101.91 C50.48 104.62 51.38 107.34 52.28 110.05 C52.72 111.35 53.15 112.64 53.59 113.94 C54.19 115.74 54.78 117.54 55.37 119.34 C55.71 120.37 56.05 121.39 56.4 122.44 C57 125 57 125 56 128 C54.24 127.92 54.24 127.92 52 127 C50.51 124.75 49.29 122.64 48.09 120.24 C47.73 119.54 47.37 118.85 47 118.14 C45.82 115.87 44.66 113.59 43.5 111.31 C42.29 108.97 41.07 106.62 39.86 104.28 C39.05 102.71 38.24 101.15 37.43 99.59 C33.75 92.47 29.89 85.45 25.88 78.51 C17.87 64.2 13.42 47.71 8.23 32.22 C7.05 28.71 5.86 25.21 4.66 21.7 C3.91 19.46 3.16 17.22 2.41 14.98 C2.05 13.94 1.69 12.89 1.32 11.82 C1 10.85 0.68 9.88 0.35 8.88 C-0.08 7.61 -0.08 7.61 -0.52 6.31 C-1.04 3.81 -0.82 2.39 0 0 Z " fill="#F9D11F" transform="translate(628,475)"/>
<path d="M0 0 C1.32 0.66 2.64 1.32 4 2 C2.01 4.34 0.01 6.68 -2 9 C-2.91 10.05 -2.91 10.05 -3.84 11.13 C-9.36 17.39 -15.2 23.27 -21.15 29.11 C-25.09 33 -28.81 36.99 -32.42 41.17 C-40.76 50.83 -50.14 57.94 -60.53 65.24 C-64.79 68.27 -68.95 71.42 -73.12 74.56 C-73.95 75.19 -74.78 75.81 -75.63 76.45 C-77.28 77.69 -78.92 78.93 -80.57 80.17 C-84.46 83.1 -88.35 86.02 -92.25 88.94 C-93.57 89.93 -94.89 90.91 -96.2 91.9 C-97.59 92.94 -97.59 92.94 -99 94 C-99.99 93.34 -100.98 92.68 -102 92 C-100.71 89.2 -99.34 87.06 -97.23 84.82 C-96.68 84.23 -96.13 83.64 -95.56 83.03 C-94.96 82.4 -94.36 81.77 -93.75 81.12 C-93.13 80.47 -92.51 79.81 -91.88 79.14 C-86.94 73.92 -81.87 68.84 -76.76 63.78 C-73.88 60.92 -71.07 58.04 -68.44 54.94 C-59.93 45 -50.78 36.72 -39.98 29.37 C-36.2 26.75 -32.51 23.99 -28.81 21.25 C-27.21 20.06 -25.6 18.88 -24 17.7 C-23.19 17.09 -22.38 16.49 -21.54 15.88 C-17.13 12.62 -12.72 9.37 -8.31 6.12 C-6.7 4.94 -5.1 3.76 -3.49 2.57 C-2.33 1.71 -1.16 0.86 0 0 Z " fill="#FAD21F" transform="translate(466,439)"/>
<path d="M0 0 C1.9 0.18 1.9 0.18 4 1 C5.37 2.76 5.37 2.76 6.59 5.05 C7.04 5.89 7.49 6.72 7.96 7.59 C8.42 8.49 8.89 9.39 9.38 10.31 C10.11 11.69 10.11 11.69 10.87 13.1 C13.77 18.56 16.56 24.06 19.27 29.61 C22.24 35.43 25.42 41.12 28.6 46.82 C29.09 47.72 29.59 48.61 30.1 49.54 C30.76 50.72 30.76 50.72 31.43 51.92 C35.98 60.82 39.51 69.9 42.68 79.37 C43.1 80.6 43.51 81.84 43.94 83.12 C44.82 85.71 45.68 88.31 46.55 90.91 C47.66 94.23 48.78 97.55 49.91 100.86 C50.99 104.05 52.05 107.24 53.12 110.43 C53.52 111.62 53.93 112.8 54.34 114.03 C54.71 115.13 55.07 116.24 55.45 117.37 C55.77 118.34 56.1 119.31 56.43 120.31 C57.05 123.24 56.8 125.14 56 128 C55.01 128 54.02 128 53 128 C52.46 126.95 52.46 126.95 51.91 125.87 C45.14 112.73 38.35 99.61 31.17 86.69 C24.67 74.92 19.13 63.46 14.98 50.65 C14.54 49.33 14.11 48.02 13.67 46.7 C12.54 43.29 11.42 39.87 10.31 36.46 C9.39 33.66 8.47 30.87 7.54 28.07 C5.63 22.3 3.73 16.52 1.84 10.74 C1.51 9.72 1.17 8.71 0.83 7.66 C-0.62 3.03 -0.62 3.03 -1 1 C-0.67 0.67 -0.34 0.34 0 0 Z " fill="#F8D11F" transform="translate(462,93)"/>
<path d="M0 0 C0.99 0.66 1.98 1.32 3 2 C1.42 6.75 -1.22 10.37 -4.12 14.38 C-5.21 15.89 -6.29 17.4 -7.38 18.92 C-7.96 19.73 -8.54 20.55 -9.14 21.38 C-13.16 27.04 -17.09 32.75 -21.04 38.45 C-22.33 40.32 -23.63 42.18 -24.94 44.03 C-26.35 46.06 -27.73 48.11 -29.08 50.18 C-36.42 61.21 -45.73 70.15 -55.19 79.38 C-57.62 81.76 -60.05 84.16 -62.47 86.55 C-63.97 88.02 -65.47 89.5 -66.97 90.96 C-71.01 94.93 -74.84 98.99 -78.52 103.29 C-80.25 105.29 -82.09 107.17 -84 109 C-84.99 108.67 -85.98 108.34 -87 108 C-86.45 104.33 -85.57 101.95 -83.4 98.95 C-82.58 97.79 -82.58 97.79 -81.75 96.62 C-81.15 95.79 -80.55 94.97 -79.94 94.12 C-78.66 92.34 -77.38 90.54 -76.11 88.75 C-75.44 87.82 -74.77 86.88 -74.08 85.91 C-70.57 80.99 -67.13 76.03 -63.69 71.06 C-63.01 70.09 -62.34 69.13 -61.64 68.13 C-58.76 63.99 -55.88 59.84 -53.06 55.66 C-52.64 55.04 -52.22 54.42 -51.78 53.78 C-50.72 52.2 -49.66 50.62 -48.6 49.04 C-48.07 48.36 -47.54 47.69 -47 47 C-46.34 47 -45.68 47 -45 47 C-44.63 46.15 -44.63 46.15 -44.26 45.28 C-42.77 42.58 -41.01 40.77 -38.83 38.6 C-37.96 37.74 -37.1 36.88 -36.22 35.99 C-34.82 34.61 -34.82 34.61 -33.4 33.2 C-32.44 32.25 -31.48 31.29 -30.51 30.33 C-27.99 27.81 -25.46 25.3 -22.93 22.79 C-20.35 20.23 -17.77 17.66 -15.19 15.09 C-10.13 10.05 -5.07 5.03 0 0 Z " fill="#F9D11F" transform="translate(748,133)"/>
<path d="M0 0 C3.31 1.29 6.53 2.68 9.73 4.22 C10.66 4.67 11.59 5.12 12.55 5.58 C14.66 6.6 16.77 7.62 18.88 8.64 C20.59 9.47 20.59 9.47 22.35 10.32 C22.95 10.61 23.55 10.9 24.16 11.2 C28.29 13.19 32.44 15.15 36.59 17.09 C66.97 31.29 66.97 31.29 79.16 41.53 C82.78 44.42 86.66 46.93 90.5 49.5 C98.14 54.65 105.55 60.05 112.88 65.64 C114.87 67.15 116.91 68.61 119 70 C118.01 71.98 118.01 71.98 117 74 C110.39 71.4 103.99 68.55 97.66 65.33 C91.93 62.43 86.16 59.64 80.34 56.92 C51.5 43.39 51.5 43.39 39.74 33.42 C36.48 30.76 33.01 28.4 29.56 26 C28.15 25.01 26.74 24.02 25.33 23.03 C24.63 22.54 23.92 22.04 23.19 21.54 C19.37 18.86 15.56 16.18 11.75 13.5 C11.05 13.01 10.34 12.52 9.62 12.01 C5.98 9.45 2.44 6.83 -1 4 C-0.67 2.68 -0.34 1.36 0 0 Z " fill="#F9D11F" transform="translate(335,205)"/>
<path d="M0 0 C0.5 1.98 0.5 1.98 1 4 C-10.29 12.72 -21.64 21.37 -33 30 C-33.64 30.49 -34.29 30.98 -34.95 31.48 C-38.29 34.01 -41.62 36.53 -45 39 C-45.66 39.5 -46.32 40 -46.99 40.51 C-54.52 46.03 -62.63 50.13 -70.94 54.31 C-72.41 55.06 -73.89 55.81 -75.36 56.57 C-78.26 58.04 -81.16 59.52 -84.05 60.99 C-89.1 63.56 -94.12 66.17 -99.12 68.81 C-100.2 69.38 -100.2 69.38 -101.3 69.96 C-104.53 71.66 -107.72 73.41 -110.87 75.26 C-114 77 -114 77 -116 77 C-116.33 75.68 -116.66 74.36 -117 73 C-105.73 64.19 -94.41 55.43 -82.99 46.81 C-79.99 44.54 -77.04 42.24 -74.13 39.85 C-62.65 30.55 -49.59 24.29 -36.44 17.73 C-31.72 15.36 -27.04 12.91 -22.38 10.44 C-21.62 10.04 -20.87 9.64 -20.09 9.24 C-15.02 6.57 -10 3.81 -5.03 0.96 C-3 0 -3 0 0 0 Z " fill="#F9D21F" transform="translate(807,198)"/>
<path d="M0 0 C0 1.32 0 2.64 0 4 C-11.33 8.07 -22.69 12.07 -34.05 16.05 C-36.1 16.77 -38.16 17.49 -40.21 18.21 C-43.22 19.27 -46.24 20.33 -49.26 21.38 C-50.16 21.7 -51.06 22.02 -51.99 22.35 C-62.71 26.07 -73.55 28.41 -84.74 30.23 C-85.9 30.42 -87.07 30.61 -88.27 30.81 C-91.95 31.42 -95.63 32.02 -99.31 32.62 C-101.8 33.04 -104.29 33.45 -106.78 33.86 C-126.13 37.06 -126.13 37.06 -133 38 C-133.33 36.68 -133.66 35.36 -134 34 C-97.42 18.51 -60.83 7.23 -21.38 2.3 C-19.07 2.01 -16.78 1.7 -14.48 1.38 C-13.78 1.28 -13.09 1.19 -12.38 1.09 C-11.73 1 -11.08 0.91 -10.41 0.82 C-6.85 0.32 -3.6 0 0 0 Z " fill="#F8D120" transform="translate(438,381)"/>
<path d="M0 0 C1.89 0.27 1.89 0.27 4 1 C5 2.62 5 2.62 5.72 4.74 C6 5.54 6.27 6.34 6.56 7.16 C6.99 8.47 6.99 8.47 7.43 9.8 C7.74 10.71 8.05 11.61 8.37 12.54 C9.36 15.46 10.34 18.39 11.31 21.31 C11.96 23.21 12.6 25.11 13.25 27.01 C14.22 29.85 15.18 32.7 16.14 35.55 C17.66 40.11 19.22 44.63 20.91 49.13 C25.39 61.11 27.88 72.79 29.69 85.44 C30.09 88.14 30.5 90.85 30.91 93.55 C31.19 95.34 31.46 97.12 31.72 98.91 C32.85 106.35 34.24 113.73 35.75 121.1 C36.62 125.48 37.21 129.51 37 134 C35.68 134 34.36 134 33 134 C28.25 120.86 23.53 107.7 18.85 94.53 C18.37 93.19 17.89 91.85 17.41 90.5 C16.74 88.6 16.06 86.69 15.38 84.78 C14.99 83.69 14.61 82.6 14.21 81.47 C13.81 80.33 13.41 79.18 13 78 C12.76 77.38 12.53 76.75 12.28 76.11 C9.64 68.87 8.51 61.36 7.27 53.79 C7.02 52.33 6.78 50.87 6.53 49.41 C6.02 46.37 5.52 43.33 5.02 40.29 C4.38 36.39 3.72 32.49 3.07 28.6 C2.56 25.59 2.06 22.58 1.56 19.58 C1.32 18.14 1.08 16.7 0.84 15.27 C0.5 13.26 0.18 11.26 -0.15 9.26 C-0.34 8.12 -0.53 6.98 -0.72 5.81 C-1 3 -1 3 0 0 Z " fill="#F9D11F" transform="translate(503,79)"/>
<path d="M0 0 C1.32 0.33 2.64 0.66 4 1 C4.16 7.96 3.56 14.58 2.61 21.47 C2.46 22.55 2.32 23.64 2.17 24.75 C1.86 27.03 1.54 29.31 1.23 31.59 C0.75 35.03 0.3 38.47 -0.16 41.9 C-2.57 59.68 -6.59 76.25 -12.09 93.31 C-13.43 97.46 -14.75 101.62 -16.07 105.77 C-16.33 106.58 -16.58 107.38 -16.85 108.21 C-19.68 117.11 -22.37 126.04 -25 135 C-26.32 135 -27.64 135 -29 135 C-29.45 127.48 -28.53 120.49 -27.21 113.13 C-26.23 107.62 -25.51 102.13 -24.94 96.56 C-24.35 90.87 -23.59 85.3 -22.46 79.68 C-22.01 77.05 -21.81 74.49 -21.65 71.82 C-21.14 66.09 -19.64 61.14 -17.69 55.75 C-13.7 44.31 -10.1 32.77 -6.56 21.19 C-6.03 19.43 -5.49 17.67 -4.95 15.92 C-4.21 13.5 -3.47 11.09 -2.74 8.67 C-1.85 5.77 -0.96 2.88 0 0 Z " fill="#F8D11F" transform="translate(631,77)"/>
<path d="M0 0 C0.99 0.33 1.98 0.66 3 1 C2.52 7.29 -0.4 12.41 -3.17 17.95 C-3.69 19.01 -4.21 20.06 -4.75 21.15 C-6.41 24.52 -8.08 27.89 -9.75 31.25 C-10.86 33.5 -11.97 35.75 -13.08 38 C-15.59 43.09 -18.11 48.18 -20.64 53.26 C-21.55 55.1 -22.46 56.94 -23.36 58.79 C-23.8 59.66 -24.23 60.54 -24.67 61.45 C-25.05 62.22 -25.43 63 -25.82 63.79 C-27.88 67.64 -30.45 71.08 -33.06 74.56 C-34.22 76.14 -35.38 77.71 -36.54 79.29 C-37.12 80.07 -37.7 80.86 -38.29 81.67 C-40.91 85.24 -43.46 88.87 -46 92.5 C-46.98 93.89 -47.96 95.27 -48.94 96.66 C-50.54 98.92 -52.14 101.2 -53.72 103.48 C-55.47 105.99 -57.24 108.5 -59 111 C-59.54 111.78 -60.08 112.57 -60.64 113.38 C-61.15 114.1 -61.66 114.82 -62.19 115.56 C-62.63 116.2 -63.08 116.84 -63.54 117.5 C-65.29 119.3 -66.56 119.62 -69 120 C-69 115.72 -68.23 113.87 -66.44 110.05 C-65.89 108.88 -65.35 107.71 -64.78 106.5 C-64.19 105.25 -63.59 104 -63 102.75 C-62.4 101.47 -61.8 100.19 -61.19 98.91 C-57.51 91.08 -53.75 83.28 -49.81 75.57 C-48.54 73.1 -47.34 70.6 -46.16 68.08 C-41.58 58.36 -35.98 49.82 -29.6 41.18 C-26.92 37.53 -24.27 33.86 -21.62 30.19 C-21.1 29.46 -20.57 28.73 -20.02 27.98 C-15.07 21.14 -10.23 14.22 -5.4 7.28 C-4.84 6.48 -4.28 5.67 -3.7 4.84 C-3.2 4.12 -2.71 3.4 -2.19 2.66 C-1 1 -1 1 0 0 Z " fill="#F9D21F" transform="translate(500,467)"/>
<path d="M0 0 C1.65 0 3.3 0 5 0 C4.22 6.6 3.4 13.19 2.54 19.77 C2.15 22.79 1.77 25.81 1.4 28.82 C-1.19 49.43 -4.03 69.35 -10.71 89.09 C-12.33 93.94 -13.78 98.83 -15.26 103.72 C-16.13 106.58 -17.01 109.43 -17.88 112.28 C-18.46 114.17 -19.03 116.06 -19.6 117.95 C-20.4 120.6 -21.22 123.24 -22.05 125.88 C-22.29 126.69 -22.52 127.49 -22.77 128.32 C-23.48 130.55 -23.48 130.55 -25 134 C-27.1 134.72 -27.1 134.72 -29 135 C-29.22 127.64 -28.35 120.76 -27.19 113.5 C-26.09 106.48 -25.02 99.48 -24.24 92.41 C-24.13 91.36 -24.01 90.3 -23.89 89.21 C-23.68 87.26 -23.49 85.31 -23.3 83.37 C-21.16 63.37 -14.4 44.19 -8.19 25.19 C-7.39 22.73 -6.59 20.27 -5.8 17.81 C-3.87 11.87 -1.94 5.94 0 0 Z " fill="#F8D11F" transform="translate(540,484)"/>
<path d="M0 0 C0.99 0.33 1.98 0.66 3 1 C2.36 6.7 0.94 11.89 -0.78 17.34 C-2.75 23.73 -4.57 30.11 -6.16 36.59 C-11.7 58.48 -20.37 78.27 -30.47 98.38 C-31.5 100.44 -32.53 102.5 -33.56 104.56 C-35.2 107.84 -36.85 111.1 -38.53 114.35 C-39.15 115.56 -39.77 116.78 -40.39 118 C-41.24 119.68 -42.11 121.35 -42.98 123.01 C-43.47 123.96 -43.96 124.9 -44.46 125.87 C-46 128 -46 128 -48.19 128.81 C-48.79 128.87 -49.38 128.94 -50 129 C-51.11 125.68 -50.92 124.97 -49.92 121.75 C-49.66 120.9 -49.4 120.04 -49.13 119.16 C-48.84 118.23 -48.55 117.3 -48.25 116.35 C-47.95 115.38 -47.65 114.41 -47.34 113.41 C-46.38 110.29 -45.41 107.18 -44.44 104.06 C-43.5 101.02 -42.56 97.98 -41.62 94.93 C-40.99 92.91 -40.37 90.9 -39.74 88.88 C-38.24 84.07 -36.77 79.26 -35.38 74.42 C-32.81 65.53 -30.17 57.13 -25.75 48.94 C-25.28 48.03 -24.81 47.12 -24.33 46.19 C-22.9 43.45 -21.45 40.72 -20 38 C-18.69 35.52 -17.38 33.04 -16.07 30.56 C-15.24 29 -14.41 27.43 -13.58 25.87 C-10.34 19.76 -7.36 13.55 -4.51 7.25 C-2.2 2.2 -2.2 2.2 0 0 Z " fill="#F9D11F" transform="translate(520,477)"/>
<path d="M0 0 C4.3 1.47 7.7 3.76 11.31 6.44 C12.57 7.35 13.82 8.26 15.07 9.17 C15.72 9.64 16.37 10.11 17.04 10.59 C20.2 12.86 23.41 15.05 26.62 17.25 C29.42 19.17 32.21 21.08 35 23 C35.83 23.57 36.67 24.15 37.53 24.74 C40.19 26.57 42.85 28.41 45.5 30.25 C46.32 30.82 47.15 31.38 48 31.97 C59.31 39.84 68.65 49.56 78.3 59.32 C87.09 68.22 87.09 68.22 96.38 76.6 C98.7 78.6 100.85 80.75 103 82.94 C103.76 83.71 104.53 84.48 105.31 85.28 C105.87 85.85 106.43 86.41 107 87 C106.01 88.98 106.01 88.98 105 91 C99.39 87.93 94.21 84.45 89 80.75 C87.23 79.5 85.47 78.26 83.7 77.01 C82.78 76.36 81.85 75.71 80.9 75.04 C77.91 72.93 74.9 70.85 71.89 68.77 C70.88 68.07 69.87 67.37 68.82 66.64 C66.87 65.29 64.91 63.94 62.96 62.59 C54.6 56.81 46.61 50.98 39.56 43.62 C36.14 39.86 36.14 39.86 32 37 C32 36.34 32 35.68 32 35 C31.11 34.6 31.11 34.6 30.2 34.19 C27.99 32.99 26.55 31.8 24.79 30.02 C24.19 29.42 23.59 28.82 22.97 28.2 C22.34 27.55 21.7 26.91 21.05 26.24 C20.39 25.58 19.73 24.92 19.05 24.23 C16.94 22.12 14.85 20 12.75 17.88 C11.32 16.44 9.9 15 8.47 13.57 C4.97 10.05 1.49 6.53 -2 3 C-1.34 2.01 -0.68 1.02 0 0 Z " fill="#F9D21F" transform="translate(360,170)"/>
<path d="M0 0 C1.85 2.28 3.59 4.56 5.31 6.94 C6.41 8.42 7.5 9.91 8.6 11.39 C9.16 12.16 9.73 12.93 10.31 13.72 C12.92 17.24 15.58 20.71 18.25 24.19 C18.78 24.88 19.31 25.58 19.85 26.29 C22.87 30.25 25.93 34.18 29.03 38.07 C37.11 48.32 43.89 58.43 49.6 70.16 C52.22 75.47 54.97 80.71 57.7 85.96 C58.65 87.81 59.61 89.66 60.56 91.51 C64.23 98.64 64.23 98.64 68.01 105.7 C68.34 106.3 68.67 106.9 69 107.51 C69.91 109.16 70.82 110.81 71.73 112.46 C73 115 73 115 73 117 C71.68 117.33 70.36 117.66 69 118 C61.86 109.26 54.98 100.38 48.35 91.24 C45.51 87.33 42.62 83.49 39.53 79.77 C29.87 68.12 22.9 55.45 16.05 42 C13.83 37.66 11.57 33.33 9.31 29 C7.75 26 6.18 23 4.62 20 C4.06 18.91 4.06 18.91 3.48 17.81 C2.41 15.75 1.35 13.69 0.29 11.62 C-0.19 10.71 -0.19 10.71 -0.68 9.77 C-2.15 6.89 -3.41 4.2 -4 1 C-2 0 -2 0 0 0 Z " fill="#FAD21F" transform="translate(427,113)"/>
<path d="M0 0 C3.81 1.28 5.46 3.61 7.75 6.81 C8.54 7.9 9.34 8.99 10.13 10.08 C10.58 10.7 11.03 11.31 11.49 11.95 C13.81 15.11 16.2 18.22 18.59 21.33 C20.67 24.06 22.74 26.79 24.81 29.52 C27.46 33 30.14 36.44 32.88 39.85 C42.47 51.97 49.5 64.79 56.32 78.63 C58.99 83.98 61.78 89.27 64.56 94.56 C66.38 98.04 68.2 101.51 70 105 C70.48 105.92 70.96 106.85 71.45 107.8 C71.91 108.7 72.37 109.6 72.84 110.53 C73.25 111.34 73.67 112.15 74.1 112.98 C75 115 75 115 75 117 C73.68 117.33 72.36 117.66 71 118 C52.51 93.79 52.51 93.79 47.43 86.91 C44.96 83.58 42.45 80.3 39.82 77.09 C28.67 63.16 21.13 47.37 13.23 31.47 C9.86 24.69 6.35 17.99 2.76 11.31 C0.97 7.94 -0.67 4.59 -2 1 C-1.34 0.67 -0.68 0.34 0 0 Z " fill="#FAD21F" transform="translate(648,465)"/>
<path d="M0 0 C2.35 0.2 2.35 0.2 5 1 C6.32 3.02 6.32 3.02 7.32 5.73 C7.71 6.75 8.09 7.78 8.49 8.83 C8.89 9.96 9.28 11.09 9.7 12.26 C10.34 14.04 10.34 14.04 11 15.85 C12.17 19.11 13.3 22.37 14.42 25.64 C15.12 27.68 15.83 29.72 16.54 31.76 C27.87 64.53 34.4 98.53 38 133 C36.68 133.33 35.36 133.66 34 134 C27.86 118.46 22.42 102.73 17.28 86.84 C16.43 84.25 15.52 81.7 14.55 79.15 C9.39 65.26 7.26 50.81 4.95 36.24 C4.51 33.48 4.06 30.71 3.6 27.95 C3.05 24.63 2.51 21.3 1.98 17.98 C1.78 16.75 1.58 15.52 1.37 14.25 C1.19 13.11 1.01 11.97 0.82 10.79 C0.66 9.79 0.5 8.79 0.34 7.76 C0.02 5.14 -0.06 2.64 0 0 Z " fill="#F9D11F" transform="translate(606,483)"/>
<path d="M0 0 C10.23 8.6 19.86 17.72 29.22 27.25 C33.07 31.16 37.03 34.85 41.19 38.43 C49.27 45.43 55.54 53.23 61.58 61.97 C64.23 65.76 67 69.47 69.75 73.19 C70.33 73.98 70.91 74.77 71.51 75.59 C74.65 79.85 77.82 84.09 81.04 88.3 C82.02 89.59 82.02 89.59 83.02 90.91 C84.28 92.56 85.54 94.22 86.82 95.86 C87.38 96.6 87.95 97.35 88.53 98.12 C89.03 98.78 89.53 99.43 90.05 100.1 C91 102 91 102 90.65 104.24 C90.44 104.82 90.22 105.4 90 106 C87.1 104.68 84.95 103.23 82.64 101.05 C82 100.46 81.37 99.86 80.72 99.25 C80.05 98.61 79.38 97.97 78.69 97.31 C77.99 96.65 77.29 95.99 76.56 95.31 C70.97 90 65.52 84.56 60.1 79.08 C56.48 75.44 52.78 71.98 48.88 68.64 C40.8 61.59 34.49 53.81 28.43 45.04 C25.73 41.19 22.92 37.41 20.12 33.62 C19.54 32.83 18.95 32.03 18.34 31.2 C12.98 23.95 7.57 16.73 2.15 9.52 C0.76 7.68 -0.62 5.84 -2 4 C-1.34 2.68 -0.68 1.36 0 0 Z " fill="#FAD21E" transform="translate(666,451)"/>
<path d="M0 0 C1.32 0.66 2.64 1.32 4 2 C0.8 9.96 -2.72 17.67 -6.62 25.31 C-10.32 32.61 -13.94 39.93 -17.41 47.33 C-21.45 55.93 -25.44 64.26 -31 72 C-31.45 72.63 -31.9 73.26 -32.37 73.91 C-35.09 77.72 -37.84 81.52 -40.59 85.3 C-43.83 89.76 -47.02 94.25 -50.19 98.75 C-55.42 106.19 -60.7 113.6 -66 121 C-66.99 120.67 -67.98 120.34 -69 120 C-68.42 114.79 -66.71 110.77 -64.44 106.12 C-64.08 105.38 -63.72 104.64 -63.36 103.87 C-60.66 98.27 -57.88 92.71 -55.07 87.17 C-53.25 83.56 -51.5 79.94 -49.81 76.27 C-42.89 61.18 -34.24 48.18 -24.48 34.8 C-19.11 27.42 -13.9 19.91 -8.68 12.41 C-5.79 8.27 -2.9 4.13 0 0 Z " fill="#F9D21F" transform="translate(712,108)"/>
<path d="M0 0 C3.01 1.34 5 2.8 7.25 5.19 C9.61 7.68 12.07 9.94 14.67 12.18 C20.16 16.94 25.19 22.15 30.29 27.33 C34.46 31.54 38.69 35.59 43.19 39.44 C49.99 45.3 55.2 51.84 60.31 59.18 C63.04 63.08 65.88 66.89 68.75 70.69 C75.09 79.09 81.33 87.57 87.56 96.06 C89.03 98.04 90.51 100.02 92 102 C91.01 103.98 91.01 103.98 90 106 C87.66 104.01 85.32 102.01 83 100 C82.31 99.4 81.62 98.81 80.91 98.2 C74.4 92.47 68.31 86.38 62.24 80.2 C57.67 75.58 52.93 71.24 48 67 C40.27 60.11 34.5 52.41 28.57 44 C24.78 38.64 20.81 33.45 16.81 28.25 C14.2 24.84 11.6 21.42 9 18 C8.44 17.27 7.88 16.53 7.3 15.77 C5.83 13.84 4.38 11.89 2.94 9.94 C2.51 9.38 2.09 8.83 1.65 8.26 C-1.06 4.54 -1.06 4.54 -0.75 1.63 C-0.5 1.09 -0.25 0.55 0 0 Z " fill="#FAD21F" transform="translate(390,139)"/>
<path d="M0 0 C7.19 -0.24 14.08 0.68 21.19 1.68 C22.44 1.85 23.7 2.03 25 2.2 C27.65 2.57 30.3 2.94 32.94 3.31 C36.32 3.78 39.69 4.25 43.07 4.71 C46.32 5.15 49.57 5.6 52.81 6.05 C54.01 6.22 55.22 6.38 56.46 6.55 C67.12 8.06 76.86 10.83 87.11 14.1 C89.01 14.7 90.91 15.3 92.81 15.9 C95.46 16.74 98.1 17.58 100.74 18.42 C105.38 19.9 110.02 21.37 114.66 22.84 C117.13 23.63 119.6 24.41 122.06 25.19 C123.18 25.55 124.29 25.9 125.44 26.27 C126.42 26.58 127.4 26.89 128.41 27.21 C130.6 27.88 132.78 28.47 135 29 C135 30.32 135 31.64 135 33 C123.65 33.33 112.48 31.42 101.27 29.85 C96.84 29.24 92.42 28.71 87.97 28.22 C62.99 25.17 39.4 16.68 15.6 8.82 C10.43 7.12 5.22 5.53 0 4 C0 2.68 0 1.36 0 0 Z " fill="#F8D11F" transform="translate(302,286)"/>
<path d="M0 0 C35.65 7.64 69.22 19.44 101.62 36 C102.62 36.51 102.62 36.51 103.64 37.03 C108.06 39.28 112.46 41.57 116.85 43.88 C117.97 44.46 119.09 45.05 120.25 45.66 C121.26 46.2 122.27 46.75 123.31 47.3 C124.64 48.02 124.64 48.02 126 48.74 C128 50 128 50 129 52 C128.67 52.66 128.34 53.32 128 54 C119.98 53.3 112.74 50.9 105.1 48.45 C99.12 46.55 93.17 44.76 87.07 43.3 C67.22 38.31 49.32 29.81 31.08 20.72 C29 19.69 26.92 18.66 24.83 17.63 C21.52 15.99 18.22 14.33 14.93 12.65 C13.69 12.02 12.45 11.4 11.21 10.78 C9.5 9.93 7.8 9.04 6.1 8.16 C5.13 7.67 4.17 7.18 3.18 6.67 C1 5 1 5 0.18 2.3 C0.12 1.54 0.06 0.78 0 0 Z " fill="#FAD21F" transform="translate(315,244)"/>
<path d="M0 0 C2.06 0.44 2.06 0.44 4 1 C0.6 14.16 -2.85 27.26 -7.34 40.09 C-7.73 41.22 -7.73 41.22 -8.13 42.37 C-8.42 43.21 -8.72 44.05 -9.02 44.92 C-9.77 47.28 -10.42 49.59 -11.02 51.99 C-15.01 67.3 -21.92 81.05 -29.05 95.09 C-30.8 98.54 -32.53 102.01 -34.25 105.49 C-35.58 108.18 -36.93 110.87 -38.29 113.55 C-38.93 114.83 -39.57 116.11 -40.2 117.39 C-41.09 119.17 -41.99 120.93 -42.89 122.7 C-43.39 123.7 -43.9 124.7 -44.42 125.74 C-46 128 -46 128 -48.19 128.83 C-48.79 128.89 -49.39 128.94 -50 129 C-49.45 121.77 -47.79 115.39 -45.56 108.5 C-43.27 101.39 -41.03 94.34 -39.3 87.07 C-33.02 62.12 -18.66 18.66 0 0 Z " fill="#FAD21F" transform="translate(673,90)"/>
<path d="M0 0 C1.65 1.7 1.65 1.7 3.38 4.12 C13.01 16.73 25.39 29.3 40 36 C40 36.66 40 37.32 40 38 C38.66 38.88 37.3 39.73 35.94 40.56 C35.18 41.04 34.43 41.51 33.65 42 C28.25 44.03 23.22 41.93 18.2 39.68 C17.17 39.19 17.17 39.19 16.12 38.69 C15.39 38.34 14.66 37.99 13.91 37.63 C0.53 31 -10.96 22.01 -21 11 C-17.87 7.53 -14.6 5.45 -10.5 3.25 C-9.38 2.64 -8.25 2.02 -7.09 1.39 C-4 0 -4 0 0 0 Z " fill="#FAD21F" transform="translate(506,418)"/>
<path d="M0 0 C0.57 18.03 -2 34 -8 51 C-8.27 51.88 -8.54 52.76 -8.82 53.67 C-9.62 55.81 -9.62 55.81 -12 59 C-15.61 60.52 -19.16 61.3 -23 62 C-22.79 60.63 -22.79 60.63 -22.57 59.24 C-20.94 47.78 -20.76 36.56 -20.88 25 C-20.89 23.15 -20.89 21.29 -20.9 19.44 C-20.92 14.96 -20.96 10.48 -21 6 C-18.06 4.99 -15.13 4 -12.19 3 C-11.35 2.71 -10.52 2.43 -9.66 2.13 C-8.46 1.73 -8.46 1.73 -7.23 1.31 C-6.49 1.06 -5.75 0.81 -4.99 0.55 C-3 0 -3 0 0 0 Z " fill="#F9D11F" transform="translate(692,340)"/>
<path d="M0 0 C1 0.55 1.99 1.1 3.02 1.67 C12.55 7.32 21.29 15.17 28 24 C25.11 24.84 22.21 25.67 19.31 26.5 C18.5 26.74 17.68 26.98 16.84 27.22 C7.99 29.73 7.99 29.73 5 29 C2.9 26.92 1.17 24.94 -0.62 22.62 C-8.01 13.58 -15.99 6.01 -25.81 -0.43 C-28.13 -2.09 -30.04 -3.93 -32 -6 C-19.05 -10.41 -11.28 -6.35 0 0 Z " fill="#FBD21E" transform="translate(634,246)"/>
<path d="M0 0 C-0.14 0.8 -0.29 1.61 -0.44 2.44 C-2.95 18.36 -2.97 35 -1 51 C-1.96 51.54 -2.93 52.09 -3.92 52.64 C-5.2 53.37 -6.47 54.09 -7.75 54.81 C-8.38 55.17 -9.02 55.53 -9.67 55.89 C-12.35 57.41 -14.87 58.9 -17.33 60.76 C-19 62 -19 62 -21 62 C-21.75 43.48 -21.59 23.58 -12 7 C-9.49 4.59 -9.49 4.59 -6.88 2.94 C-6.01 2.37 -5.14 1.8 -4.24 1.21 C-2 0 -2 0 0 0 Z " fill="#FAD21F" transform="translate(475,296)"/>
<path d="M0 0 C0.83 21.5 0.83 21.5 -5.81 29.06 C-9.24 30.53 -11.27 30.54 -15 30 C-23.04 26.12 -29.14 21.49 -34 14 C-3.15 0 -3.15 0 0 0 Z " fill="#FAD21F" transform="translate(627,427)"/>
<path d="M0 0 C7.58 1.52 12.77 6.4 17.21 12.45 C10.02 15.81 2.79 19.11 -4.47 22.32 C-5.51 22.79 -5.51 22.79 -6.58 23.26 C-11.55 25.45 -11.55 25.45 -13.79 25.45 C-14.22 17.53 -14.49 11.09 -9.79 4.45 C-9.21 3.62 -8.63 2.8 -8.04 1.95 C-5.35 0.16 -3.21 -0.18 0 0 Z " fill="#FAD21F" transform="translate(531.78515625,239.5546875)"/>
<path d="M0 0 C-1.76 12.57 -12.06 23.65 -21 32 C-23.86 33.86 -23.86 33.86 -26 35 C-25.87 34.3 -25.73 33.59 -25.6 32.87 C-24.18 24.93 -23.45 17.05 -23 9 C-19.54 7.49 -16.08 6 -12.62 4.5 C-11.64 4.07 -10.66 3.64 -9.64 3.2 C-8.7 2.79 -7.76 2.39 -6.79 1.97 C-5.92 1.59 -5.05 1.21 -4.15 0.83 C-2 0 -2 0 0 0 Z " fill="#F5D020" transform="translate(658,414)"/>
<path d="M0 0 C0.52 0.39 1.03 0.78 1.56 1.18 C6.23 4.7 10.97 8.09 15.8 11.39 C17.74 12.81 19.37 14.25 21 16 C6.13 18.77 -7.94 16.09 -22 11 C-20.62 8.25 -19.13 8.02 -16.31 6.84 C-14.89 6.24 -14.89 6.24 -13.45 5.62 C-12.45 5.21 -11.46 4.8 -10.44 4.38 C-9.44 3.95 -8.44 3.53 -7.42 3.1 C-4.95 2.06 -2.47 1.03 0 0 Z " fill="#F5CF21" transform="translate(584,445)"/>
<path d="M0 0 C0.77 -0 1.53 -0.01 2.32 -0.01 C10.86 0.16 18.57 2.61 26.56 5.44 C22.52 8.13 18.25 9.51 13.69 11.12 C12.79 11.46 11.89 11.79 10.96 12.13 C10.09 12.44 9.22 12.75 8.32 13.07 C7.53 13.36 6.74 13.65 5.92 13.94 C2.34 14.7 -0.36 14.12 -3.43 12.17 C-4.05 11.66 -4.67 11.15 -5.31 10.62 C-8.87 7.82 -12.46 5.59 -16.44 3.44 C-16.44 3.11 -16.44 2.78 -16.44 2.44 C-10.86 0.88 -5.78 0.02 0 0 Z " fill="#F3CE22" transform="translate(556.4375,233.5625)"/>
<path d="M0 0 C1.66 3.32 -0.16 6.37 -1.21 9.79 C-2.1 12.8 -2.1 12.8 -1.94 15.15 C-1.91 17.75 -2.05 19.56 -3 22 C-6.34 24.88 -10.1 26.67 -14.06 28.56 C-15.11 29.09 -16.15 29.63 -17.23 30.17 C-19.81 31.48 -22.39 32.75 -25 34 C-25.33 33.34 -25.66 32.68 -26 32 C-20.67 19.26 -11.04 8.19 0 0 Z " fill="#F8D11F" transform="translate(513,247)"/>
<path d="M0 0 C5.93 1.84 11.81 3.13 17.94 4.06 C17.94 4.39 17.94 4.72 17.94 5.06 C-8.24 5.68 -8.24 5.68 -18.06 2.06 C-10.84 -3.42 -8.48 -2.73 0 0 Z " fill="#EDCB24" transform="translate(563.0625,461.9375)"/>
<path d="M0 0 C-3.79 6.46 -7.92 12.35 -12.75 18.06 C-13.22 18.62 -13.69 19.18 -14.18 19.76 C-16.33 22.26 -18.23 24.15 -21 26 C-19.43 21.87 -17.54 17.94 -15.56 14 C-15.26 13.4 -14.96 12.79 -14.65 12.17 C-7.33 -2.44 -7.33 -2.44 0 0 Z " fill="#EBCA25" transform="translate(676,408)"/>
<path d="M0 0 C11.49 -0.35 23.1 0.04 34 4 C29.75 6.83 26.07 7.18 21 7 C16.56 5.96 12.31 4.48 8 3 C5.34 2.27 2.68 1.63 0 1 C0 0.67 0 0.34 0 0 Z " fill="#DDC22B" transform="translate(569,229)"/>
<path d="M0 0 C0 4.04 -1.63 5.87 -3.81 9.25 C-6.04 12.71 -7.95 15.89 -9.5 19.71 C-11.05 23.11 -12.14 24.39 -15.19 26.44 C-15.9 26.93 -16.62 27.42 -17.36 27.93 C-17.9 28.29 -18.44 28.64 -19 29 C-19.66 28.67 -20.32 28.34 -21 28 C-14.79 17.9 -7.91 8.82 0 0 Z " fill="#EBCA25" transform="translate(489,263)"/>
<path d="M0 0 C0 3.61 -0.98 5.1 -2.81 8.19 C-3.33 9.09 -3.86 9.99 -4.39 10.92 C-4.92 11.61 -5.45 12.29 -6 13 C-6.99 13 -7.98 13 -9 13 C-9 8.86 -7.28 7.79 -4.5 4.81 C-3.66 3.91 -2.83 3.01 -1.97 2.08 C-0.99 1.05 -0.99 1.05 0 0 Z " fill="#B5AC3D" transform="translate(489,263)"/>
</svg>
