<?xml version="1.0" encoding="UTF-8"?>
<!-- Generator: https://ezgif.com/webp-to-svg -->
<svg version="1.1" xmlns="http://www.w3.org/2000/svg" width="1160" height="773">
<path d="M0 0 C382.8 0 765.6 0 1160 0 C1160 255.09 1160 510.18 1160 773 C777.2 773 394.4 773 0 773 C0 517.91 0 262.82 0 0 Z " fill="#3F724A" transform="translate(0,0)"/>
<path d="M0 0 C14.66 1.58 29.23 3.75 43.81 5.94 C46.17 6.29 48.52 6.64 50.88 6.99 C52.03 7.16 53.18 7.33 54.37 7.51 C56.66 7.85 58.96 8.19 61.25 8.54 C66.46 9.31 71.67 10.1 76.87 10.92 C77.78 11.06 78.68 11.2 79.62 11.35 C81.27 11.61 82.92 11.87 84.57 12.14 C88.23 12.71 91.72 13.06 95.44 13 C99 13 99 13 100.84 14.17 C104.78 19.84 104.78 19.84 105 23 C104.5 24.49 104.5 24.49 104 26 C104.66 26 105.32 26 106 26 C106.31 27.42 106.31 27.42 106.62 28.88 C107.31 30.42 107.31 30.42 108 32 C109.98 32.74 111.98 33.39 114 34 C118.43 37.17 122.16 41.16 126 45 C129.44 47.99 132.74 50.32 137 52 C140.61 51.55 143.61 50.37 146.94 48.94 C154.51 46.12 163 45.48 170.62 48.38 C175.64 49.3 178.71 47.01 183.04 44.58 C185.97 43.02 188.84 42.01 192 41 C192.33 40.67 192.66 40.34 193 40 C195.37 39.5 197.59 39.21 200 39 C201.67 38.85 201.67 38.85 203.37 38.69 C212.73 38.21 212.73 38.21 216.17 40.35 C219.31 43.88 220.6 47.51 222 52 C223.46 51.89 223.46 51.89 224.96 51.78 C226.23 51.69 227.5 51.6 228.81 51.5 C230.08 51.41 231.34 51.31 232.64 51.22 C236.22 50.99 238.59 50.86 242 52 C242.33 52.99 242.66 53.98 243 55 C243.99 55.33 244.98 55.66 246 56 C248.38 59.32 248.1 62.04 247.69 66 C247.59 67.03 247.49 68.06 247.39 69.12 C247.07 71.5 246.62 73.69 246 76 C245.78 77.3 245.78 77.3 245.56 78.62 C245 82 245 82 244.35 84.33 C243.19 88.78 242.8 91.34 244.19 95.81 C246.86 100.33 250.45 104.27 253.94 108.17 C258.5 113.32 261.93 118.5 263.5 125.31 C264.45 129.16 265.64 132.63 267.25 136.25 C268.66 139.61 269.04 140.72 268.5 144.44 C267.84 149.13 269.36 152.03 271.06 156.36 C272.79 161.23 272.55 164.64 270.62 169.38 C269 172 269 172 267 173 C264.12 178.51 262.93 184.24 261.65 190.3 C261 193 261 193 260 194 C259.14 203 258.98 210.09 264.39 217.68 C266.98 221.41 268.78 225.63 270 230 C269 232 269 232 267 234 C266.28 236.21 266.28 236.21 265.74 238.83 C265.51 239.84 265.28 240.85 265.05 241.89 C264.81 243 264.56 244.11 264.31 245.25 C263.77 247.65 263.23 250.05 262.7 252.45 C262.42 253.7 262.14 254.95 261.85 256.24 C260.77 261.01 259.66 265.77 258.54 270.53 C255.38 283.92 252.33 297.33 249.31 310.75 C249.03 311.99 249.03 311.99 248.75 313.26 C248.38 314.89 248.02 316.52 247.65 318.15 C247.3 319.74 246.94 321.32 246.58 322.91 C245.67 326.98 244.77 331.05 243.91 335.13 C243.73 335.96 243.56 336.79 243.37 337.65 C243.04 339.23 242.7 340.82 242.38 342.4 C241.22 347.78 241.22 347.78 239 350 C239.08 349.38 239.15 348.76 239.23 348.12 C241.09 332.87 242.82 317.62 244.45 302.35 C246.76 280.67 249.28 259.03 252.08 237.42 C253.3 227.95 254.43 218.53 255 209 C245.05 236.74 235.1 264.49 225.19 292.25 C224.77 293.42 224.35 294.6 223.92 295.8 C219.25 308.86 214.6 321.92 210 335 C209.67 335 209.34 335 209 335 C209.52 326.4 211.48 318.3 213.58 309.98 C214.62 305.85 215.64 301.72 216.66 297.58 C216.86 296.76 217.06 295.94 217.27 295.09 C219.02 288 220.63 280.88 222.19 273.75 C224.95 261.12 227.95 248.56 231 236 C231.92 232.21 232.84 228.42 233.75 224.62 C233.95 223.81 234.15 223 234.35 222.16 C235.8 216.14 236.94 210.1 238 204 C232.56 214.78 227.17 225.58 222 236.5 C216.99 247.08 211.75 257.54 206.5 268 C199.95 281.06 193.48 294.15 187.25 307.36 C185.4 311.26 183.55 315.15 181.69 319.04 C179.79 323.03 177.9 327.01 176 331 C174.84 327.51 175.16 326.9 176.47 323.6 C176.82 322.69 177.17 321.79 177.53 320.86 C177.92 319.86 178.31 318.87 178.72 317.84 C179.56 315.65 180.4 313.46 181.24 311.27 C181.69 310.09 182.14 308.92 182.61 307.7 C185.03 301.26 187.31 294.77 189.59 288.28 C190.08 286.9 190.57 285.52 191.05 284.15 C192.54 279.93 194.02 275.72 195.5 271.5 C197.47 265.91 199.43 260.31 201.41 254.72 C201.64 254.04 201.88 253.37 202.13 252.67 C205.98 241.76 209.98 230.9 214.09 220.08 C215.98 215.1 217.78 210.09 219.56 205.06 C219.81 204.35 220.06 203.65 220.32 202.92 C221.5 200.03 221.5 200.03 222 197 C215.63 206.81 209.3 216.64 203 226.5 C198.1 234.17 193.18 241.83 188.22 249.47 C184.12 255.8 180.06 262.15 176 268.5 C170.52 277.07 165.02 285.63 159.48 294.16 C155.64 300.1 151.82 306.05 148 312 C147.67 311.34 147.34 310.68 147 310 C147.68 308.17 147.68 308.17 148.82 305.92 C149.25 305.07 149.67 304.22 150.11 303.35 C150.59 302.43 151.06 301.5 151.55 300.55 C152.03 299.59 152.52 298.62 153.02 297.63 C154.59 294.52 156.17 291.42 157.75 288.31 C159.79 284.29 161.83 280.26 163.86 276.24 C164.37 275.23 164.88 274.21 165.41 273.17 C169.38 265.3 173.2 257.36 176.98 249.4 C181.62 239.65 186.45 230.01 191.31 220.38 C196.71 209.66 202.08 198.95 207 188 C200.5 195.46 194.15 202.99 188.08 210.81 C184.48 215.44 180.73 219.92 176.92 224.38 C173.51 228.37 170.22 232.43 166.96 236.54 C163.35 241.07 159.67 245.53 156 250 C154.5 251.83 153 253.67 151.5 255.5 C148.5 259.17 145.5 262.83 142.5 266.5 C141.76 267.41 141.02 268.31 140.25 269.25 C138.74 271.09 137.23 272.94 135.71 274.79 C130.77 280.82 125.86 286.89 121 293 C121 289.67 121.49 288.87 123.24 286.15 C123.72 285.39 124.21 284.63 124.71 283.85 C125.24 283.03 125.77 282.22 126.31 281.38 C126.86 280.52 127.41 279.67 127.97 278.79 C129.64 276.19 131.32 273.59 133 271 C133.89 269.61 134.79 268.23 135.68 266.84 C136.98 264.84 138.27 262.84 139.57 260.84 C143.74 254.41 147.87 247.96 152 241.5 C156.48 234.49 160.97 227.48 165.5 220.5 C175.09 205.72 184.55 190.86 194 176 C193.16 176.84 192.33 177.68 191.46 178.55 C188.33 181.71 185.19 184.86 182.05 188.01 C180.7 189.36 179.34 190.72 177.99 192.08 C165.26 204.89 165.26 204.89 159.13 210.09 C153.51 215.13 148.31 220.64 143 226 C129.3 239.85 129.3 239.85 125.06 243.44 C118.32 249.17 112.23 255.67 106 261.94 C104.64 263.3 103.28 264.67 101.92 266.03 C98.61 269.35 95.3 272.68 92 276 C92 272.08 93.14 271.48 95.81 268.69 C99.53 264.68 102.98 260.58 106.31 256.25 C110.62 250.68 115.11 245.3 119.72 239.98 C123.27 235.87 126.71 231.68 130.08 227.42 C133.66 222.9 137.34 218.46 141 214 C142.5 212.17 144 210.33 145.5 208.5 C151.5 201.17 157.5 193.83 163.5 186.5 C164.23 185.6 164.97 184.7 165.72 183.78 C167.31 181.85 168.9 179.92 170.5 178 C171.3 177.03 172.11 176.06 172.94 175.06 C174.03 173.75 174.03 173.75 175.15 172.41 C176.76 170.32 177.94 168.4 179 166 C178.32 166.58 177.64 167.17 176.94 167.77 C170.48 173.23 163.87 178.42 157.07 183.46 C152.6 186.79 148.18 190.17 143.81 193.62 C137.25 198.81 130.64 203.91 124 209 C115.96 215.17 107.96 221.36 99.97 227.59 C96.05 230.64 92.13 233.67 88.18 236.68 C87.4 237.27 86.63 237.86 85.83 238.47 C84.35 239.59 82.87 240.71 81.39 241.83 C80.73 242.33 80.06 242.84 79.38 243.36 C78.8 243.8 78.22 244.24 77.62 244.69 C75.96 246.03 74.48 247.47 73 249 C72.34 248.67 71.68 248.34 71 248 C74.84 244.14 78.68 240.28 82.52 236.42 C83.83 235.11 85.13 233.8 86.43 232.49 C98.67 220.17 98.67 220.17 104.85 214.93 C110.48 209.88 115.69 204.37 121 199 C134.81 185.04 134.81 185.04 140.93 179.84 C145.98 175.34 150.67 170.43 155.44 165.62 C156.55 164.51 157.66 163.39 158.77 162.28 C161.52 159.52 164.26 156.76 167 154 C167.33 153.67 167.66 153.34 168 153 C149.45 163.69 149.45 163.69 131.19 174.88 C123.38 179.85 115.4 184.54 107.44 189.25 C97.7 195.01 87.98 200.8 78.31 206.69 C76.93 207.53 76.93 207.53 75.51 208.39 C71.58 210.79 67.66 213.2 63.77 215.67 C63.16 216.06 62.54 216.45 61.9 216.85 C60.34 217.84 58.78 218.84 57.23 219.84 C56.49 220.22 55.76 220.61 55 221 C54.34 220.67 53.68 220.34 53 220 C62.89 212.01 72.91 204.19 83.04 196.49 C90.98 190.45 98.87 184.32 106.75 178.19 C114.15 172.43 121.58 166.72 129.03 161.03 C132.63 158.28 136.22 155.52 139.81 152.75 C145.83 148.11 151.91 143.54 158 139 C149.59 142.18 141.47 145.93 133.32 149.71 C129.2 151.62 125.07 153.52 120.94 155.42 C120.1 155.81 119.26 156.2 118.4 156.59 C110.4 160.28 102.39 163.93 94.38 167.56 C91.7 168.78 89.02 169.99 86.35 171.21 C85.68 171.51 85.01 171.81 84.33 172.13 C76.6 175.64 68.88 179.16 61.15 182.68 C59.61 183.39 58.07 184.09 56.52 184.79 C54.37 185.77 52.23 186.75 50.08 187.73 C49.45 188.02 48.82 188.31 48.17 188.6 C45.31 189.91 42.51 191.26 39.74 192.77 C37 194 37 194 34 193 C34.86 192.49 35.72 191.99 36.6 191.46 C56.65 179.65 56.65 179.65 76.5 167.5 C85.11 162.12 93.82 156.92 102.56 151.75 C112.74 145.73 122.9 139.69 133.02 133.56 C134.25 132.82 135.48 132.07 136.71 131.33 C138.41 130.3 140.11 129.28 141.8 128.25 C142.76 127.67 143.72 127.08 144.71 126.49 C147.07 125.07 147.07 125.07 149 123 C136.39 127 123.79 131.04 111.25 135.25 C99.77 139.1 88.26 142.85 76.73 146.56 C67.72 149.47 58.73 152.41 49.77 155.47 C48.11 156.03 46.44 156.6 44.78 157.16 C41.6 158.24 38.44 159.33 35.27 160.43 C33.84 160.92 32.4 161.41 30.96 161.89 C30.32 162.12 29.67 162.35 29 162.59 C25.66 163.71 23.34 164.35 20 163 C38.59 154.4 57.21 145.86 75.94 137.56 C77.07 137.06 77.07 137.06 78.22 136.55 C78.97 136.22 79.71 135.89 80.48 135.55 C81.95 134.9 83.42 134.25 84.88 133.6 C85.59 133.29 86.29 132.98 87.02 132.66 C100.77 126.56 114.44 120.3 128.06 113.91 C131.35 112.37 134.65 110.83 137.94 109.29 C138.97 108.81 138.97 108.81 140.01 108.33 C141.68 107.55 143.34 106.78 145 106 C143.7 106.28 143.7 106.28 142.37 106.56 C121.04 111.12 99.7 115.54 78.3 119.69 C77.53 119.84 76.77 119.98 75.99 120.13 C75.22 120.28 74.45 120.43 73.65 120.59 C72.08 120.89 70.51 121.2 68.94 121.5 C68.16 121.65 67.39 121.8 66.59 121.95 C56.92 123.83 47.27 125.74 37.62 127.75 C36.19 128.05 36.19 128.05 34.73 128.35 C30.67 129.21 26.62 130.08 22.57 131.01 C21.31 131.29 20.05 131.58 18.75 131.88 C17.71 132.12 16.68 132.36 15.61 132.62 C12.97 133 11.52 132.72 9 132 C27.1 125.92 45.24 119.96 63.43 114.14 C68.96 112.37 74.5 110.59 80.03 108.8 C81.93 108.19 83.84 107.58 85.74 106.96 C93.18 104.56 100.61 102.15 108.05 99.73 C109.75 99.18 111.45 98.63 113.16 98.07 C116.46 97 119.76 95.92 123.07 94.85 C124.58 94.35 126.09 93.86 127.61 93.37 C128.3 93.15 128.99 92.92 129.7 92.69 C132.78 91.69 135.85 90.76 139 90 C132.24 89.89 125.65 90.3 118.93 90.95 C117.86 91.05 116.8 91.15 115.71 91.26 C113.43 91.47 111.15 91.69 108.87 91.91 C102.81 92.49 96.74 93.06 90.68 93.63 C89.45 93.74 88.21 93.86 86.95 93.98 C73.15 95.28 59.35 96.47 45.55 97.66 C44.24 97.77 44.24 97.77 42.91 97.88 C41.19 98.03 39.48 98.18 37.76 98.32 C33.23 98.71 28.69 99.12 24.16 99.56 C23.18 99.65 22.2 99.74 21.2 99.84 C19.34 100.02 17.49 100.2 15.63 100.38 C9.74 100.94 3.92 101.1 -2 101 C-2 100.67 -2 100.34 -2 100 C-1.39 99.88 -0.79 99.77 -0.17 99.65 C43.98 91.21 88.09 82.6 132 73 C128.13 71.71 124.4 71.74 120.36 71.63 C119.47 71.6 118.59 71.57 117.67 71.54 C114.72 71.45 111.77 71.37 108.82 71.28 C106.74 71.22 104.67 71.15 102.59 71.09 C97.07 70.92 91.56 70.76 86.04 70.6 C81.66 70.47 77.28 70.34 72.9 70.2 C46.6 69.4 20.3 68.67 -6 68 C-6 67.67 -6 67.34 -6 67 C4.74 65.93 15.48 64.94 26.24 64.15 C37.61 63.3 48.97 62.32 60.33 61.31 C61.17 61.23 62.02 61.16 62.89 61.08 C69.01 60.53 75.13 59.99 81.25 59.44 C87.42 58.88 93.59 58.33 99.76 57.78 C102.19 57.57 104.61 57.35 107.04 57.13 C116.02 56.33 125 55.6 134 55 C134 54.67 134 54.34 134 54 C133.01 53.87 132.02 53.75 131 53.62 C114.38 51.51 97.78 49.39 81.25 46.62 C64.99 43.91 48.67 41.66 32.34 39.41 C30.27 39.12 28.19 38.84 26.12 38.55 C24.64 38.35 24.64 38.35 23.13 38.14 C16.07 37.16 9.03 36.13 2 35 C2 34.67 2 34.34 2 34 C14.94 33.87 27.86 34.05 40.79 34.44 C41.9 34.47 41.9 34.47 43.04 34.5 C48.42 34.66 53.8 34.83 59.19 35 C65.33 35.19 71.47 35.38 77.61 35.56 C78.7 35.6 78.7 35.6 79.82 35.63 C90.88 35.95 101.93 36.13 113 36 C112.43 35.76 111.87 35.52 111.29 35.27 C110.55 34.93 109.82 34.6 109.06 34.25 C108.33 33.93 107.6 33.6 106.85 33.27 C105 32 105 32 104.25 29.86 C104.16 29.25 104.08 28.63 104 28 C97.58 26.31 91.17 24.62 84.75 22.94 C83.8 22.69 82.84 22.44 81.86 22.18 C68.87 18.77 55.87 15.44 42.83 12.22 C36.33 10.6 29.89 8.88 23.46 6.98 C15.69 4.79 7.84 2.92 0 1 C0 0.67 0 0.34 0 0 Z " fill="#FBFCFC" transform="translate(290,328)"/>
<path d="M0 0 C1.82 1.37 3.65 2.74 5.47 4.11 C7.23 5.42 8.99 6.74 10.75 8.05 C17.65 13.21 24.5 18.44 31.32 23.7 C34.23 25.95 37.15 28.19 40.06 30.44 C41.11 31.24 42.15 32.04 43.22 32.87 C45.47 34.59 47.73 36.31 50 38 C50 37.34 50 36.68 50 36 C50.78 35.81 51.57 35.63 52.38 35.44 C55.38 34.18 55.38 34.18 56.12 30.5 C56.41 29.35 56.7 28.19 57 27 C57.99 26.34 58.98 25.68 60 25 C62.87 30.93 64.16 35.97 64.56 42.56 C65.24 48.24 66.11 50.98 70.56 54.62 C72.09 55.69 73.61 56.75 75.17 57.76 C78.07 59.72 80.83 61.87 83.61 64.01 C85.09 65.14 86.58 66.28 88.07 67.4 C92.02 70.37 95.6 73.4 99 77 C95.45 75.67 92.27 74.09 89.02 72.14 C88.08 71.58 87.14 71.02 86.18 70.45 C84.73 69.58 84.73 69.58 83.25 68.69 C76.56 64.68 69.85 60.74 63 57 C61.22 60.44 60.38 63.5 59.66 67.29 C58.69 71.27 57.29 75.12 56 79 C63.59 86.59 71.18 94.18 79 102 C74.71 102 72.54 99.49 69.38 96.88 C64.09 92.61 58.76 88.61 53 85 C52.76 85.93 52.76 85.93 52.52 86.88 C52.29 87.76 52.05 88.65 51.81 89.56 C51.56 90.57 51.3 91.57 51.04 92.61 C50 96 50 96 48.3 99.58 C46.48 103.5 45.34 106.63 45 111 C47.22 116.59 51.76 120.87 56 125 C56.96 125.97 57.92 126.93 58.88 127.9 C59.93 128.94 59.93 128.94 61 130 C60.67 130.66 60.34 131.32 60 132 C59.53 131.52 59.06 131.04 58.58 130.55 C56.45 128.38 54.32 126.22 52.19 124.06 C51.08 122.93 51.08 122.93 49.95 121.78 C49.24 121.06 48.53 120.34 47.79 119.6 C47.14 118.93 46.48 118.27 45.81 117.58 C43.98 115.78 43.98 115.78 41 115 C40.5 116.49 40.5 116.49 40 118 C35.62 119.98 31.77 120.35 27 120 C22.75 118.39 21.6 116.14 19.75 112.17 C18.68 109.07 18.81 106.24 19 103 C18.67 102.34 18.34 101.68 18 101 C18.08 99.44 18.19 97.88 18.31 96.32 C18.35 91.35 17.27 89.1 13.86 85.57 C12.96 84.73 12.96 84.73 12.05 83.86 C11.44 83.25 10.83 82.64 10.2 82.02 C8.92 80.74 7.62 79.48 6.31 78.23 C4.31 76.31 2.35 74.35 0.39 72.38 C-0.86 71.14 -2.12 69.91 -3.39 68.68 C-4.27 67.8 -4.27 67.8 -5.16 66.9 C-8.45 63.73 -8.45 63.73 -12.79 63.04 C-15.6 64.26 -16.69 65.22 -18 68 C-16.86 71.57 -15.15 74.53 -13.09 77.64 C-12.2 78.98 -12.2 78.98 -11.3 80.35 C-10.35 81.78 -10.35 81.78 -9.38 83.25 C-8.01 85.32 -6.65 87.39 -5.29 89.46 C-4.58 90.53 -3.88 91.61 -3.15 92.71 C0.36 98.08 3.8 103.47 7.25 108.88 C19.46 128.04 19.46 128.04 32 147 C31.67 147.66 31.34 148.32 31 149 C25.22 142.23 19.49 135.43 13.96 128.46 C10.35 123.93 6.67 119.47 3 115 C0.75 112.25 -1.51 109.49 -3.76 106.73 C-5.22 104.95 -6.68 103.17 -8.14 101.39 C-8.86 100.52 -9.58 99.65 -10.31 98.75 C-11.04 97.86 -11.77 96.97 -12.52 96.06 C-14.42 93.71 -16.3 91.35 -18.16 88.97 C-18.71 88.28 -19.25 87.6 -19.81 86.89 C-20.88 85.52 -21.95 84.15 -23.01 82.77 C-24.3 81.15 -25.64 79.57 -27 78 C-27.66 78 -28.32 78 -29 78 C-28.55 80.33 -28.09 82.65 -27.49 84.95 C-26.43 89.14 -25.99 92.6 -26.35 96.92 C-26.4 104.53 -22.91 110.61 -19.5 117.19 C-18.85 118.48 -18.2 119.78 -17.55 121.08 C-16.28 123.61 -15 126.13 -13.71 128.65 C-12.33 131.36 -10.96 134.08 -9.61 136.81 C-6.94 142.19 -4.23 147.55 -1.48 152.89 C-1.06 153.72 -0.64 154.55 -0.2 155.4 C0.63 157.02 1.46 158.63 2.3 160.24 C3.26 162.13 4.14 164.06 5 166 C4.67 166.66 4.34 167.32 4 168 C3.63 167.42 3.27 166.85 2.89 166.25 C-3.29 156.52 -9.47 146.79 -15.75 137.12 C-20.93 129.15 -25.98 121.09 -31 113 C-32.28 113.47 -33.56 113.95 -34.84 114.43 C-35.91 114.82 -35.91 114.82 -37.01 115.23 C-39.08 116.03 -41.05 116.94 -43 118 C-43 118.99 -43 119.98 -43 121 C-43.13 122.7 -43.13 122.7 -43.26 124.43 C-43.24 130.39 -40.95 135.68 -38.88 141.2 C-38.46 142.35 -38.04 143.51 -37.61 144.69 C-36.27 148.36 -34.92 152.03 -33.56 155.69 C-32.21 159.36 -30.87 163.04 -29.53 166.71 C-28.69 169 -27.85 171.28 -27.01 173.56 C-26.63 174.59 -26.25 175.63 -25.86 176.69 C-25.52 177.6 -25.19 178.51 -24.84 179.44 C-24.02 181.95 -23.46 184.4 -23 187 C-25.34 184.07 -27.03 181.13 -28.64 177.74 C-29.13 176.71 -29.62 175.68 -30.13 174.62 C-30.9 172.98 -30.9 172.98 -31.69 171.31 C-32.22 170.2 -32.75 169.08 -33.29 167.94 C-34.36 165.69 -35.43 163.44 -36.49 161.19 C-37.84 158.33 -39.2 155.49 -40.57 152.64 C-41.29 151.11 -42.02 149.59 -42.75 148.06 C-43.08 147.37 -43.42 146.67 -43.76 145.95 C-46 141.23 -46 141.23 -46 139 C-48.64 140.65 -51.28 142.3 -54 144 C-52 140 -52 140 -50.06 138.38 C-46.92 134.76 -45.82 130.68 -45 126 C-45.19 124.72 -45.37 123.44 -45.56 122.12 C-46 119 -46 119 -44.62 116.81 C-41.62 114.74 -38.6 113.38 -35.22 112.03 C-31.8 110.45 -31.8 110.45 -29 108 C-28.64 105.3 -28.53 103.06 -28.62 100.38 C-28.64 99.66 -28.65 98.94 -28.67 98.2 C-28.85 92.17 -29.85 86.74 -31.63 80.95 C-32 79 -32 79 -31 76 C-28.28 73.63 -25.43 71.46 -22.57 69.25 C-20.13 67.12 -19.33 65.83 -18 63 C-13.18 59.09 -6.27 55 0 55 C0.96 56.35 1.91 57.72 2.78 59.13 C5.19 62.82 8.12 66.12 10.94 69.5 C11.55 70.23 12.15 70.97 12.78 71.72 C13.97 73.15 15.16 74.58 16.35 76.01 C17.4 77.28 18.45 78.55 19.48 79.83 C21.86 82.86 21.86 82.86 25 85 C26.19 81.42 26.15 78.5 26.06 74.75 C26 72 26 72 26.16 69.4 C26.19 66.58 26.03 64.64 25 62 C21.67 58.78 17.91 56.46 14 54 C12.83 53.02 11.68 52.03 10.56 51 C8.02 48.59 8.02 48.59 4 49 C4.33 47.99 4.66 46.98 4.99 45.94 C6.6 40.31 6.15 34.68 5.94 28.87 C5.87 26.81 5.84 24.74 5.8 22.67 C5.76 21.36 5.72 20.06 5.68 18.71 C5.65 17.52 5.61 16.32 5.58 15.1 C4.9 11.45 3.76 10.37 1 8 C0.23 5.29 0.19 2.84 0 0 Z " fill="#44754E" transform="translate(718,472)"/>
<path d="M0 0 C0.5 0.99 0.5 0.99 1 2 C-0.07 4.37 -0.07 4.37 -1.76 7.36 C-2.38 8.47 -3 9.57 -3.64 10.71 C-4.32 11.91 -5 13.11 -5.69 14.31 C-6.38 15.55 -7.08 16.78 -7.77 18.01 C-9.84 21.68 -11.92 25.34 -14 29 C-14.56 29.98 -15.11 30.95 -15.68 31.96 C-18.12 36.25 -20.57 40.53 -23.03 44.81 C-26.83 51.43 -30.59 58.07 -34.32 64.73 C-36.78 69.12 -39.27 73.47 -41.89 77.76 C-42.54 78.85 -42.54 78.85 -43.2 79.95 C-44 81.27 -44.81 82.57 -45.64 83.87 C-47.05 86.25 -48.1 88.18 -47.77 90.99 C-47.2 93.15 -47.2 93.15 -46 96 C-42.78 94.93 -42.25 94.39 -40.19 91.88 C-36.62 87.67 -32.9 83.64 -29.12 79.62 C-24.45 74.64 -19.82 69.61 -15.27 64.52 C-12.07 60.97 -8.82 57.46 -5.58 53.96 C-2.21 50.31 1.15 46.66 4.5 43 C8.36 38.78 12.24 34.57 16.12 30.38 C21.13 24.96 26.08 19.5 31 14 C31 17.92 29.8 18.7 27.25 21.62 C23.35 26.26 19.77 31.02 16.31 36 C11.98 42.21 7.57 48.35 3.06 54.44 C-3.7 63.57 -10.36 72.78 -17 82 C-19.31 85.21 -21.62 88.42 -23.94 91.62 C-24.46 92.35 -24.98 93.07 -25.51 93.81 C-26.01 94.51 -26.51 95.2 -27.03 95.91 C-27.51 96.59 -27.99 97.26 -28.49 97.96 C-29.54 99.38 -30.63 100.78 -31.75 102.16 C-32.31 102.86 -32.87 103.55 -33.44 104.27 C-33.96 104.89 -34.47 105.51 -35 106.15 C-36.21 107.96 -36.21 107.96 -35.72 110.11 C-35.02 112.05 -35.02 112.05 -34 114 C-33.09 113.21 -32.18 112.42 -31.25 111.61 C-30.65 111.09 -30.05 110.57 -29.43 110.04 C-28.08 108.87 -26.74 107.71 -25.4 106.54 C-21.94 103.55 -18.48 100.55 -15.02 97.56 C-9.55 92.84 -4.09 88.11 1.25 83.25 C4.56 80.24 7.96 77.38 11.44 74.56 C16.21 70.7 20.74 66.62 25.25 62.46 C28.78 59.3 32.46 56.35 36.15 53.38 C39.91 50.24 43.49 46.92 47.03 43.54 C49.36 41.35 50.91 40.03 54 39 C54 39.66 54 40.32 54 41 C53.32 41.54 52.64 42.07 51.94 42.62 C49.63 44.49 47.96 46.09 46.06 48.31 C42.57 52.4 38.93 56.33 35.25 60.25 C30.84 64.96 26.43 69.68 22.06 74.44 C20.84 75.77 20.84 75.77 19.6 77.12 C17.59 79.35 15.61 81.59 13.64 83.86 C10.07 87.96 6.36 91.92 2.62 95.88 C-2.19 100.98 -6.95 106.12 -11.61 111.36 C-13.56 113.52 -15.54 115.63 -17.55 117.73 C-18.18 118.39 -18.81 119.06 -19.46 119.74 C-20.71 121.05 -21.96 122.35 -23.22 123.65 C-26.59 127.2 -29.05 130.42 -31 135 C-24.37 131.51 -18.27 127.54 -12.19 123.19 C-10.41 121.93 -8.63 120.67 -6.86 119.42 C-6.01 118.82 -5.17 118.23 -4.3 117.61 C-1.56 115.69 1.21 113.84 4 112 C9.16 108.6 14.2 105.06 19.25 101.5 C27.81 95.47 36.5 89.64 45.23 83.86 C53.94 78.07 62.5 72.09 71 66 C71.66 66.33 72.32 66.66 73 67 C66.07 73.51 59.1 79.83 51.68 85.79 C48.87 88.11 46.18 90.53 43.5 93 C39.05 97.09 34.45 100.92 29.75 104.72 C26.92 107.07 24.21 109.51 21.5 112 C17.05 116.09 12.45 119.92 7.75 123.72 C3.97 126.85 0.39 130.18 -3.22 133.51 C-6.91 136.81 -10.77 139.86 -14.69 142.89 C-17.09 145.09 -18.39 147.19 -20 150 C-9.26 144.65 1.46 139.24 12.12 133.75 C12.84 133.38 13.56 133.01 14.3 132.63 C23.72 127.78 33.08 122.83 42.36 117.69 C52.86 111.91 63.56 106.5 74.24 101.05 C74.98 100.67 75.72 100.3 76.48 99.91 C77.87 99.2 79.26 98.49 80.66 97.78 C83.46 96.35 86.18 94.89 88.84 93.2 C89.55 92.8 90.26 92.41 91 92 C91.66 92.33 92.32 92.66 93 93 C85.95 98.28 78.72 103.23 71.38 108.09 C62.47 114 53.64 120.04 44.81 126.08 C42.05 127.97 39.28 129.85 36.52 131.73 C25.8 139.02 15.12 146.37 4.5 153.81 C3.59 154.45 2.68 155.08 1.75 155.73 C0.95 156.29 0.15 156.85 -0.67 157.43 C-2.32 158.54 -4.01 159.58 -5.73 160.58 C-8.12 161.8 -8.12 161.8 -9 164 C-2.01 163.52 3.53 161.38 9.94 158.62 C12.33 157.62 14.72 156.63 17.12 155.64 C17.78 155.36 18.45 155.08 19.14 154.8 C29.54 150.51 40.06 146.5 50.56 142.44 C52.72 141.6 54.87 140.77 57.02 139.94 C65.91 136.5 74.8 133.07 83.69 129.66 C84.9 129.2 86.1 128.73 87.34 128.26 C89.44 127.45 91.53 126.65 93.63 125.85 C94.53 125.51 95.43 125.17 96.35 124.81 C97.15 124.51 97.96 124.2 98.79 123.88 C100.88 123.05 102.91 122.13 104.96 121.19 C108 120 108 120 111 121 C110.24 121.39 109.47 121.78 108.69 122.19 C89.81 131.87 89.81 131.87 71.12 141.94 C62.27 146.82 53.31 151.5 44.31 156.12 C43.65 156.47 42.98 156.81 42.3 157.16 C39.68 158.51 37.07 159.85 34.45 161.2 C28.9 164.05 23.35 166.92 17.81 169.81 C16.68 170.4 16.68 170.4 15.53 170.99 C9.31 173.96 9.31 173.96 5 179 C2.5 177.19 2.5 177.19 0 175 C0 174.01 0 173.02 0 172 C-0.62 171.75 -1.24 171.5 -1.88 171.25 C-4 170 -4 170 -4.81 168 C-5.92 165.61 -5.92 165.61 -9.31 165.06 C-13.65 163.81 -15.2 162.5 -18 159 C-20.61 153.97 -21.85 148.88 -23.06 143.36 C-23.79 140.87 -23.79 140.87 -25.96 139.77 C-26.97 139.39 -26.97 139.39 -28 139 C-30.98 137.04 -31.84 136.47 -33 133 C-33.13 131.13 -33.23 129.25 -33.31 127.38 C-33.86 120.38 -35.22 114.45 -40.62 109.69 C-41.41 109.13 -42.19 108.57 -43 108 C-44.55 105.63 -45.1 103.59 -45.81 100.82 C-46.95 96.78 -48.82 93.33 -50.88 89.69 C-53.7 84.56 -56.08 79.5 -58.14 74.01 C-59.31 71.27 -61.07 69.24 -63 67 C-66.1 61.76 -66.1 61.76 -65.69 58.62 C-65.46 58.09 -65.23 57.55 -65 57 C-61.61 60.01 -59.49 63.3 -57.25 67.2 C-55.96 69.29 -55.96 69.29 -53 71 C-52.93 70.1 -52.93 70.1 -52.85 69.17 C-52.78 68.37 -52.7 67.57 -52.62 66.75 C-52.56 65.96 -52.49 65.17 -52.41 64.36 C-51.98 61.91 -51.21 60.15 -50 58 C-48.76 61.59 -49.32 64.32 -50 68 C-43.58 59.78 -37.4 51.44 -31.37 42.93 C-21.11 28.49 -10.65 14.17 0 0 Z " fill="#F8FAF9" transform="translate(734,146)"/>
<path d="M0 0 C0.66 0.33 1.32 0.66 2 1 C1.67 1.66 1.34 2.32 1 3 C2.02 3.14 3.04 3.28 4.09 3.42 C7.59 3.94 11.04 4.54 14.5 5.21 C15.75 5.45 17 5.69 18.29 5.94 C19.65 6.2 21 6.47 22.36 6.73 C23.78 7.01 25.21 7.28 26.63 7.56 C29.63 8.14 32.62 8.72 35.62 9.3 C38.63 9.88 41.64 10.47 44.65 11.05 C61.03 14.21 77.39 17.43 93.7 21 C104.08 23.28 114.53 25.18 125 27 C125 27.33 125 27.66 125 28 C123.44 28.03 121.88 28.05 120.31 28.06 C119.44 28.07 118.57 28.09 117.68 28.1 C115 28 115 28 112.64 27.52 C110.09 27.02 107.65 26.75 105.06 26.57 C104.1 26.5 103.14 26.43 102.14 26.35 C101.11 26.28 100.07 26.21 99.01 26.13 C96.77 25.97 94.53 25.81 92.29 25.64 C91.12 25.56 89.95 25.47 88.74 25.39 C68.89 23.95 49.07 22.33 29.27 20.32 C23.81 19.78 18.34 19.29 12.88 18.81 C11.96 18.73 11.04 18.64 10.09 18.56 C3.05 17.96 -3.94 17.92 -11 18 C-5.94 19.74 -0.87 21.49 4.19 23.22 C5.91 23.81 7.62 24.4 9.33 24.99 C23.68 29.94 38.1 34.62 52.63 39.01 C53.56 39.29 54.49 39.58 55.44 39.87 C57.3 40.44 59.16 40.99 61.02 41.54 C61.92 41.82 62.83 42.1 63.76 42.39 C64.95 42.75 64.95 42.75 66.17 43.11 C67.08 43.55 67.08 43.55 68 44 C68.33 44.99 68.66 45.98 69 47 C69.85 46.79 70.7 46.59 71.58 46.38 C75.57 45.94 77.91 46.63 81.69 47.95 C82.32 48.16 82.94 48.38 83.59 48.6 C85.59 49.28 87.57 49.98 89.56 50.69 C91.52 51.37 93.48 52.04 95.44 52.72 C96.73 53.16 98.01 53.61 99.3 54.06 C105.49 56.2 111.73 58.12 118 60 C113.4 61.43 109.61 60.14 105.06 59 C94.72 56.52 84.33 54.5 73.88 52.56 C59.24 49.84 44.69 46.89 30.15 43.69 C16.15 40.62 2.11 37.89 -12.01 35.41 C-12.79 35.27 -13.56 35.13 -14.36 34.99 C-16.24 34.66 -18.12 34.33 -20 34 C-0.8 42.84 18.41 51.66 37.66 60.39 C44.79 63.63 51.91 66.87 59.03 70.14 C75.28 77.6 91.55 84.98 108 92 C104.03 93.32 101.5 92.08 97.71 90.75 C96.98 90.51 96.26 90.26 95.51 90.01 C93.13 89.2 90.75 88.38 88.38 87.56 C85.89 86.72 83.41 85.88 80.93 85.04 C79.27 84.48 77.61 83.91 75.95 83.35 C69.43 81.13 62.88 79.01 56.31 76.94 C49.65 74.83 42.99 72.68 36.36 70.45 C35.36 70.12 35.36 70.12 34.34 69.77 C31.58 68.85 28.82 67.92 26.06 66.99 C17.81 64.22 9.54 61.52 1.22 58.96 C0.01 58.58 0.01 58.58 -1.22 58.2 C-5.13 56.99 -9.05 55.8 -12.97 54.62 C-14.38 54.18 -15.8 53.75 -17.21 53.31 C-18.45 52.94 -19.69 52.56 -20.97 52.18 C-23.79 51.08 -25.29 50.46 -27 48 C-27 47.01 -27 46.02 -27 45 C-27.66 46.32 -28.32 47.64 -29 49 C-28.18 49.49 -27.35 49.97 -26.51 50.47 C-10.65 59.85 5.17 69.28 20.91 78.86 C28.42 83.44 35.95 87.98 43.5 92.5 C52.13 97.67 60.76 102.85 69.37 108.05 C70.61 108.8 71.85 109.55 73.09 110.29 C74.82 111.33 76.54 112.37 78.27 113.42 C79.25 114.01 80.24 114.61 81.26 115.22 C83.99 117 86.49 118.92 89 121 C84.49 120.36 80.69 118.61 76.64 116.65 C75.93 116.31 75.22 115.97 74.49 115.63 C72.22 114.55 69.95 113.46 67.69 112.38 C64.73 110.96 61.78 109.55 58.82 108.15 C58.09 107.8 57.36 107.45 56.61 107.1 C50.32 104.12 43.96 101.31 37.56 98.55 C32.76 96.46 28.02 94.24 23.29 92 C6.6 84.18 -10.22 76.61 -27 69 C-27 67.68 -27 66.36 -27 65 C-27.66 66.98 -28.32 68.96 -29 71 C-29.33 71 -29.66 71 -30 71 C-29.97 69.94 -29.93 68.88 -29.89 67.79 C-29.87 66.4 -29.84 65.01 -29.81 63.62 C-29.79 62.93 -29.76 62.23 -29.74 61.51 C-29.67 59.23 -29.67 59.23 -30 56 C-30.99 55.34 -31.98 54.68 -33 54 C-32.09 46.38 -29.96 40.72 -26.17 34.12 C-24.89 31.9 -24.89 31.9 -23.81 29 C-23 27 -23 27 -21 26 C-20.67 25.01 -20.34 24.02 -20 23 C-19.38 22.73 -18.76 22.46 -18.12 22.19 C-15.73 21.11 -15.73 21.11 -14.64 18.24 C-12.95 14.91 -11.11 12.65 -8.56 9.94 C-5.56 6.72 -2.71 3.47 0 0 Z " fill="#F8FAF8" transform="translate(747,401)"/>
<path d="M0 0 C2.48 1.24 3.28 2.9 4.75 5.18 C7.21 8.77 10.08 12.04 12.88 15.38 C17.42 20.8 21.81 26.29 26 32 C25.25 33.94 25.25 33.94 24 36 C22.11 36.78 22.11 36.78 20 37 C17.68 35.05 15.71 33.15 13.66 30.94 C12.42 29.65 11.18 28.37 9.94 27.09 C8 25.04 6.06 22.99 4.12 20.94 C2.25 18.97 0.36 17.02 -1.53 15.06 C-2.1 14.44 -2.68 13.82 -3.27 13.18 C-5.07 11.25 -5.07 11.25 -8 9 C-11.36 9.01 -12.46 9.51 -14.94 11.75 C-16.3 13.98 -16.3 13.98 -15.25 16.35 C-14.02 18.95 -12.67 21.25 -11.09 23.64 C-10.5 24.53 -9.91 25.43 -9.3 26.35 C-8.67 27.31 -8.03 28.26 -7.38 29.25 C-6.01 31.32 -4.65 33.39 -3.29 35.46 C-2.58 36.53 -1.88 37.61 -1.15 38.71 C2.36 44.08 5.8 49.47 9.25 54.88 C21.46 74.04 21.46 74.04 34 93 C33.67 93.66 33.34 94.32 33 95 C27.22 88.23 21.49 81.43 15.96 74.46 C12.35 69.93 8.67 65.47 5 61 C2.75 58.25 0.49 55.49 -1.76 52.73 C-3.22 50.95 -4.68 49.17 -6.14 47.39 C-7.22 46.08 -7.22 46.08 -8.31 44.75 C-9.04 43.86 -9.77 42.97 -10.52 42.06 C-12.42 39.71 -14.3 37.35 -16.16 34.97 C-16.71 34.28 -17.25 33.6 -17.81 32.89 C-18.88 31.52 -19.95 30.15 -21.01 28.77 C-22.3 27.15 -23.64 25.57 -25 24 C-25.66 24 -26.32 24 -27 24 C-26.55 26.33 -26.09 28.65 -25.49 30.95 C-24.43 35.14 -23.99 38.6 -24.35 42.92 C-24.4 50.53 -20.91 56.61 -17.5 63.19 C-16.85 64.48 -16.2 65.78 -15.55 67.08 C-14.28 69.61 -13 72.13 -11.71 74.65 C-10.33 77.36 -8.96 80.08 -7.61 82.81 C-4.94 88.19 -2.23 93.55 0.52 98.89 C0.94 99.72 1.36 100.55 1.8 101.4 C2.63 103.02 3.46 104.63 4.3 106.24 C5.26 108.13 6.14 110.06 7 112 C6.67 112.66 6.34 113.32 6 114 C5.63 113.42 5.27 112.85 4.89 112.25 C-1.29 102.52 -7.47 92.79 -13.75 83.12 C-18.93 75.15 -23.98 67.09 -29 59 C-30.28 59.47 -31.56 59.95 -32.84 60.43 C-33.56 60.69 -34.27 60.96 -35.01 61.23 C-37.08 62.03 -39.05 62.94 -41 64 C-41 64.99 -41 65.98 -41 67 C-41.13 68.7 -41.13 68.7 -41.26 70.43 C-41.24 76.39 -38.95 81.68 -36.88 87.2 C-36.46 88.35 -36.04 89.51 -35.61 90.69 C-34.27 94.36 -32.92 98.03 -31.56 101.69 C-30.21 105.36 -28.87 109.04 -27.53 112.71 C-26.69 115 -25.85 117.28 -25.01 119.56 C-24.63 120.59 -24.25 121.63 -23.86 122.69 C-23.52 123.6 -23.19 124.51 -22.84 125.44 C-22.02 127.95 -21.46 130.4 -21 133 C-23.34 130.07 -25.03 127.13 -26.64 123.74 C-27.13 122.71 -27.62 121.68 -28.13 120.62 C-28.64 119.53 -29.16 118.44 -29.69 117.31 C-30.22 116.2 -30.75 115.08 -31.29 113.94 C-32.36 111.69 -33.43 109.44 -34.49 107.19 C-35.84 104.33 -37.2 101.49 -38.57 98.64 C-39.29 97.11 -40.02 95.59 -40.75 94.06 C-41.08 93.37 -41.42 92.67 -41.76 91.95 C-44 87.23 -44 87.23 -44 85 C-46.64 86.65 -49.28 88.3 -52 90 C-50 86 -50 86 -48.06 84.38 C-44.92 80.76 -43.82 76.68 -43 72 C-43.19 70.72 -43.37 69.44 -43.56 68.12 C-44 65 -44 65 -42.62 62.81 C-39.62 60.74 -36.6 59.38 -33.22 58.03 C-29.8 56.45 -29.8 56.45 -27 54 C-26.64 51.3 -26.53 49.06 -26.62 46.38 C-26.64 45.66 -26.65 44.94 -26.67 44.2 C-26.85 38.17 -27.85 32.74 -29.63 26.95 C-30 25 -30 25 -29 22 C-26.28 19.63 -23.43 17.46 -20.57 15.25 C-18.13 13.12 -17.33 11.83 -16 9 C-11.55 5.39 -6.27 3.15 -1 1 C-0.67 0.67 -0.34 0.34 0 0 Z " fill="#F4F7F4" transform="translate(716,526)"/>
<path d="M0 0 C0.33 0 0.66 0 1 0 C0.44 7.57 -0.84 14.93 -2.3 22.37 C-5.1 36.71 -7.57 51.09 -9.91 65.5 C-11.41 74.71 -13.1 83.86 -15 93 C-12.69 93.33 -10.38 93.66 -8 94 C-8 94.33 -8 94.66 -8 95 C-10.15 94.89 -12.29 94.76 -14.44 94.62 C-15.63 94.56 -16.83 94.49 -18.06 94.41 C-19.03 94.28 -20 94.14 -21 94 C-21.33 93.34 -21.66 92.68 -22 92 C-24.54 91.4 -27.07 91.04 -29.65 90.66 C-32 90 -32 90 -34 87 C-38.52 85.57 -42.19 85.67 -46.56 87.44 C-47.77 88.21 -47.77 88.21 -49 89 C-48.97 89.6 -48.93 90.21 -48.89 90.83 C-48.67 97.44 -48.67 97.44 -50.5 100.56 C-51 101.04 -51.49 101.51 -52 102 C-52.66 101.67 -53.32 101.34 -54 101 C-53.01 100.01 -53.01 100.01 -52 99 C-51.9 96.74 -52.07 94.55 -52.22 92.29 C-52 90 -52 90 -50.58 88.3 C-48.47 85.23 -48.12 82.54 -47.5 78.88 C-47.38 78.17 -47.26 77.47 -47.13 76.75 C-46.74 74.5 -46.37 72.25 -46 70 C-45.75 68.53 -45.5 67.05 -45.25 65.58 C-44.49 61.05 -43.74 56.53 -43 52 C-41.14 40.64 -39.16 29.31 -37 18 C-36.68 16.31 -36.37 14.63 -36.05 12.94 C-35.37 9.29 -34.68 5.65 -34 2 C-33.67 2 -33.34 2 -33 2 C-32.62 16.09 -33.83 30.16 -34.72 44.21 C-35.55 57.49 -36.25 70.69 -36 84 C-34.68 84.66 -33.36 85.32 -32 86 C-32 86.66 -32 87.32 -32 88 C-28.53 88.5 -28.53 88.5 -25 89 C-24.79 88.11 -24.58 87.22 -24.37 86.31 C-22.4 78.14 -20.17 70.09 -17.69 62.06 C-14.22 50.85 -11.03 39.58 -7.91 28.27 C-6.3 22.49 -4.68 16.71 -3.06 10.94 C-2.47 8.82 -1.88 6.71 -1.29 4.59 C-0.86 3.06 -0.43 1.53 0 0 Z " fill="#F5F7F5" transform="translate(646,99)"/>
<path d="M0 0 C-0.89 0.22 -1.78 0.44 -2.7 0.67 C-6.08 1.51 -9.47 2.35 -12.85 3.2 C-14.3 3.56 -15.75 3.92 -17.2 4.28 C-25.99 6.47 -34.76 8.72 -43.51 11.07 C-46.72 11.93 -49.93 12.77 -53.14 13.6 C-54.09 13.84 -55.03 14.09 -56.01 14.34 C-57.9 14.83 -59.79 15.31 -61.68 15.8 C-67.11 17.21 -72.47 18.72 -77.82 20.45 C-80 21 -80 21 -84 21 C-84.37 21.96 -84.37 21.96 -84.75 22.94 C-85.81 25.55 -86.93 28.12 -88.08 30.69 C-88.44 31.5 -88.8 32.31 -89.17 33.14 C-89.58 34.06 -89.58 34.06 -90 35 C-89.22 34.97 -88.44 34.95 -87.64 34.92 C-80.2 34.69 -72.76 34.45 -65.32 34.22 C-61.5 34.1 -57.68 33.98 -53.86 33.85 C-36.57 33.3 -19.3 32.83 -2 33 C-2 33.33 -2 33.66 -2 34 C-13.65 35.7 -25.3 37.39 -36.94 39.08 C-42.35 39.87 -47.76 40.66 -53.17 41.45 C-58.39 42.21 -63.61 42.97 -68.83 43.72 C-70.82 44.01 -72.81 44.3 -74.8 44.59 C-77.59 45 -80.38 45.4 -83.17 45.81 C-83.99 45.93 -84.82 46.05 -85.67 46.18 C-89.48 46.72 -93.14 47.15 -97 47 C-97.99 49.48 -97.99 49.48 -99 52 C-99.33 51.34 -99.66 50.68 -100 50 C-98.89 47.93 -98.89 47.93 -97.25 45.44 C-95.27 42.26 -93.65 39.42 -92.62 35.81 C-91.56 32.13 -89.93 29.08 -87.99 25.78 C-83.09 17.39 -81.78 10.74 -82 1 C-83.98 1.99 -83.98 1.99 -86 3 C-85.67 2.01 -85.34 1.02 -85 0 C-82.52 0.5 -82.52 0.5 -80 1 C-79.67 3.31 -79.34 5.62 -79 8 C-74.76 9.13 -71.39 8.83 -67.07 8.18 C-66.39 8.08 -65.72 7.98 -65.02 7.88 C-63.56 7.66 -62.09 7.45 -60.63 7.22 C-58.31 6.87 -56 6.53 -53.68 6.19 C-48.77 5.47 -43.85 4.74 -38.94 4 C-33.24 3.15 -27.54 2.3 -21.84 1.47 C-19.56 1.13 -17.28 0.78 -15 0.44 C-13.6 0.23 -12.2 0.03 -10.8 -0.18 C-9.58 -0.36 -8.36 -0.55 -7.1 -0.73 C-4.34 -0.97 -2.58 -0.9 0 0 Z " fill="#F5F7F5" transform="translate(870,329)"/>
<path d="M0 0 C-0.69 0.26 -1.38 0.52 -2.09 0.79 C-20.74 7.82 -39.34 14.99 -57.91 22.23 C-66.21 25.47 -74.51 28.7 -82.81 31.93 C-86.67 33.43 -90.53 34.93 -94.39 36.43 C-95.68 36.93 -96.97 37.43 -98.27 37.94 C-99.17 38.29 -100.07 38.64 -101 39 C-100.67 39.66 -100.34 40.32 -100 41 C-109.57 44.96 -109.57 44.96 -114 44 C-115.75 42.32 -117.17 40.58 -118.61 38.63 C-120 36.71 -120 36.71 -123 36 C-122.67 35.01 -122.34 34.02 -122 33 C-121.01 32.5 -121.01 32.5 -120 32 C-119.35 29.98 -119.35 29.98 -119 28 C-118.01 28.33 -117.02 28.66 -116 29 C-113.38 28.57 -113.38 28.57 -110.47 27.74 C-108.8 27.3 -108.8 27.3 -107.1 26.85 C-105.91 26.53 -104.72 26.21 -103.5 25.88 C-102.28 25.55 -101.06 25.23 -99.8 24.89 C-97.33 24.24 -94.86 23.58 -92.4 22.91 C-88.76 21.94 -85.12 20.98 -81.48 20.02 C-79.23 19.43 -76.98 18.84 -74.73 18.25 C-69.33 16.82 -63.91 15.41 -58.5 14 C-56.54 13.49 -54.58 12.98 -52.62 12.46 C-49.14 11.56 -45.67 10.65 -42.2 9.75 C-40.67 9.36 -39.15 8.96 -37.62 8.56 C-36.88 8.37 -36.14 8.18 -35.38 7.98 C-30.69 6.75 -26.03 5.44 -21.37 4.1 C-19.66 3.61 -19.66 3.61 -17.92 3.11 C-15.67 2.46 -13.43 1.81 -11.19 1.15 C-10.17 0.85 -9.15 0.56 -8.09 0.26 C-6.73 -0.14 -6.73 -0.14 -5.33 -0.55 C-3 -1 -3 -1 0 0 Z " fill="#F7F9F8" transform="translate(860,297)"/>
<path d="M0 0 C1.82 1.37 3.65 2.74 5.47 4.11 C7.23 5.42 8.99 6.74 10.75 8.05 C17.65 13.21 24.5 18.44 31.32 23.7 C34.23 25.95 37.15 28.19 40.06 30.44 C41.11 31.24 42.15 32.04 43.22 32.87 C45.47 34.59 47.73 36.31 50 38 C49.67 39.98 49.34 41.96 49 44 C45.62 45.15 44.29 45.13 40.99 43.63 C39.89 42.95 38.8 42.26 37.67 41.55 C37.07 41.19 36.48 40.82 35.86 40.44 C33.96 39.27 32.08 38.07 30.19 36.88 C28.93 36.09 27.67 35.31 26.41 34.53 C22.93 32.37 19.46 30.19 16 28 C14.37 26.98 12.74 25.96 11.11 24.95 C10.09 24.3 9.06 23.66 8 23 C7.37 27.4 6.9 31.34 9.44 35.17 C11.45 37.21 13.54 39.05 15.75 40.88 C16.48 41.51 17.21 42.15 17.96 42.8 C19.36 44.02 20.76 45.23 22.18 46.43 C24.22 48.19 26.1 50.09 28 52 C30.13 53.24 30.13 53.24 32 54 C30.68 54 29.36 54 28 54 C28.04 54.78 28.08 55.57 28.12 56.38 C28 59 28 59 26 61 C21.16 60.82 17.42 56.54 13.87 53.59 C10.63 50.99 8.18 49.38 4 49 C4.33 47.99 4.66 46.98 4.99 45.94 C6.6 40.31 6.15 34.68 5.94 28.87 C5.87 26.81 5.84 24.74 5.8 22.67 C5.76 21.36 5.72 20.06 5.68 18.71 C5.65 17.52 5.61 16.32 5.58 15.1 C4.9 11.45 3.76 10.37 1 8 C0.23 5.29 0.19 2.84 0 0 Z " fill="#F4F7F5" transform="translate(718,472)"/>
<path d="M0 0 C0 1.67 0 3.33 0 5 C1.24 5.1 2.47 5.2 3.75 5.3 C8.59 5.68 13.43 6.07 18.27 6.46 C22.34 6.79 26.42 7.11 30.49 7.44 C55.35 9.43 80.19 11.46 105 14 C105 14.33 105 14.66 105 15 C103.69 15.04 102.39 15.07 101.04 15.11 C88.67 15.44 76.3 15.78 63.92 16.12 C57.57 16.3 51.21 16.47 44.85 16.64 C38.7 16.81 32.55 16.98 26.41 17.15 C24.07 17.21 21.74 17.28 19.4 17.34 C8.15 17.64 -3.08 17.96 -14.3 18.81 C-16.2 18.94 -18.1 19 -20 19 C-18.97 18.2 -18.97 18.2 -17.91 17.38 C-11.22 12.08 -5.52 6.53 0 0 Z " fill="#F8FAF9" transform="translate(769,381)"/>
<path d="M0 0 C0.66 0 1.32 0 2 0 C2.06 1.07 2.12 2.13 2.18 3.23 C2.75 13.31 3.33 23.38 3.9 33.46 C4.2 38.64 4.49 43.82 4.79 49 C5.07 54.01 5.36 59.01 5.64 64.02 C5.75 65.92 5.86 67.82 5.97 69.72 C6.76 83.88 6.76 83.88 8 98 C9.65 98.66 11.3 99.32 13 100 C13 100.33 13 100.66 13 101 C10.81 101.25 10.81 101.25 8 101 C7.32 100.4 6.64 99.8 5.94 99.19 C2.07 96.31 -1.67 95.79 -6.36 94.91 C-9 94 -9 94 -10.36 91.91 C-10.68 90.96 -10.68 90.96 -11 90 C-9.02 90.99 -7.04 91.98 -5 93 C-5.01 92.2 -5.02 91.39 -5.03 90.56 C-5.08 83.14 -4.79 75.83 -4.19 68.44 C-3.06 53.72 -2.21 38.99 -1.38 24.25 C-1.31 23.05 -1.24 21.86 -1.17 20.63 C-0.78 13.75 -0.39 6.88 0 0 Z " fill="#FAFBFA" transform="translate(579,101)"/>
<path d="M0 0 C1.31 3.92 0.4 5.61 -0.88 9.52 C-1.19 10.49 -1.19 10.49 -1.51 11.48 C-1.95 12.87 -2.4 14.26 -2.86 15.64 C-4.05 19.29 -5.21 22.95 -6.37 26.61 C-6.71 27.7 -6.71 27.7 -7.07 28.81 C-8.93 34.69 -10.61 40.6 -12.19 46.56 C-14.51 55.37 -17.1 64.07 -19.82 72.77 C-20.1 73.68 -20.39 74.6 -20.68 75.55 C-21.06 76.77 -21.06 76.77 -21.45 78.01 C-22.09 79.98 -22.09 79.98 -22 82 C-18.7 82 -15.4 82 -12 82 C-12.33 82.66 -12.66 83.32 -13 84 C-13.83 83.92 -14.65 83.83 -15.5 83.75 C-18.92 83.99 -20.13 84.45 -23 86.06 C-26.78 88.09 -28.79 88.25 -33 87 C-33.64 86.83 -34.27 86.65 -34.93 86.47 C-36.62 86.01 -38.31 85.51 -40 85 C-39.09 84.89 -39.09 84.89 -38.15 84.78 C-35.85 84.18 -35.85 84.18 -34.67 82.09 C-34.29 81.26 -33.92 80.44 -33.53 79.6 C-33.1 78.69 -32.68 77.78 -32.25 76.84 C-30.3 72.39 -28.4 67.93 -26.56 63.44 C-25.69 61.33 -24.82 59.22 -23.95 57.12 C-23.48 55.98 -23.02 54.85 -22.53 53.68 C-19.66 46.79 -16.73 39.93 -13.81 33.06 C-9.14 22.07 -4.49 11.07 0 0 Z " fill="#F7F9F8" transform="translate(678,110)"/>
<path d="M0 0 C0.33 0 0.66 0 1 0 C1.2 1.28 1.2 1.28 1.41 2.59 C1.93 5.85 2.45 9.11 2.97 12.37 C3.19 13.76 3.42 15.15 3.64 16.55 C4.93 24.68 6.31 32.77 7.85 40.86 C9.25 48.25 10.5 55.67 11.73 63.09 C12.13 65.46 12.53 67.83 12.93 70.19 C14.14 77.45 15.31 84.68 16 92 C17.65 92.33 19.3 92.66 21 93 C21.33 94.65 21.66 96.3 22 98 C21.34 97.01 20.68 96.02 20 95 C14.9 92.18 10.44 91.58 4.65 91.31 C1.81 90.98 -0.4 90.17 -3 89 C-3 88.34 -3 87.68 -3 87 C2.75 88.88 2.75 88.88 5 90 C4.54 81.94 4.09 73.87 3.62 65.81 C3.56 64.63 3.49 63.44 3.42 62.21 C2.57 47.29 1.69 32.37 0.56 17.47 C0.13 11.62 -0.08 5.86 0 0 Z " fill="#F1F5F2" transform="translate(546,93)"/>
<path d="M0 0 C1.49 0.99 1.49 0.99 3 2 C3.37 4.81 3.37 4.81 3.44 8.44 C3.68 14.79 4.57 20.85 5.88 27.06 C6.04 27.86 6.2 28.66 6.36 29.48 C7.36 34.07 8.82 37.81 11 42 C11 42.99 11 43.98 11 45 C10.5 45.5 10.5 45.5 10 46 C9.67 48.17 9.4 50.36 9.15 52.54 C9.07 53.22 9 53.91 8.92 54.61 C8.66 56.88 8.4 59.14 8.15 61.41 C7.97 62.98 7.8 64.55 7.62 66.11 C7.15 70.25 6.69 74.38 6.22 78.52 C5.75 82.73 5.27 86.95 4.79 91.17 C3.86 99.44 2.93 107.72 2 116 C1.67 116 1.34 116 1 116 C0.67 77.72 0.34 39.44 0 0 Z " fill="#FAFBFA" transform="translate(562,564)"/>
<path d="M0 0 C6.72 3.75 13.36 7.59 19.91 11.61 C21.45 12.56 21.45 12.56 23.02 13.52 C25.07 14.79 27.13 16.06 29.18 17.34 C30.13 17.93 31.09 18.51 32.07 19.12 C32.92 19.65 33.78 20.18 34.66 20.73 C36.81 21.9 38.61 22.55 41 23 C29.64 31.96 29.64 31.96 21 31 C18.48 29.32 16.57 27.19 14.56 24.94 C13.44 23.73 12.31 22.52 11.18 21.32 C10.64 20.74 10.1 20.16 9.54 19.56 C7.59 17.59 5.43 16 3.19 14.38 C0.66 12.28 0.07 11.43 -0.48 8.14 C-0.5 5.37 -0.36 2.74 0 0 Z " fill="#477751" transform="translate(725,494)"/>
<path d="M0 0 C1.73 3.17 2.76 6.31 3.73 9.78 C4.06 10.92 4.38 12.07 4.72 13.25 C5.06 14.46 5.4 15.68 5.75 16.94 C6.46 19.46 7.18 21.99 7.89 24.51 C8.24 25.77 8.6 27.03 8.96 28.32 C10.46 33.64 11.98 38.94 13.5 44.25 C13.99 45.96 14.48 47.68 14.97 49.39 C15.31 50.58 15.65 51.77 16 53 C16.66 53 17.32 53 18 53 C20 53 22 53 24 53 C22.67 53.67 21.33 54.33 20 55 C19.43 55.35 18.87 55.7 18.28 56.07 C15.18 57.34 12.59 57.15 9.25 57.06 C3.45 56.97 3.45 56.97 -2.31 57.5 C-5.14 57.88 -7.5 58.01 -10.31 57.94 C-14.83 57.87 -19.01 58.63 -23.42 59.56 C-26 60 -28.39 60.08 -31 60 C-30.67 59.34 -30.34 58.68 -30 58 C-27.71 57.59 -27.71 57.59 -24.94 57.38 C-24.02 57.3 -23.1 57.23 -22.15 57.15 C-21.44 57.1 -20.73 57.05 -20 57 C-20.61 53.04 -21.41 49.23 -22.49 45.37 C-22.78 44.31 -23.08 43.26 -23.38 42.17 C-23.84 40.54 -23.84 40.54 -24.31 38.88 C-24.76 37.28 -24.76 37.28 -25.21 35.65 C-27.03 29.16 -29.05 22.8 -31.35 16.47 C-32 14 -32 14 -31 11 C-30.61 11.94 -30.61 11.94 -30.21 12.9 C-29.84 13.79 -29.47 14.67 -29.09 15.58 C-28.68 16.57 -28.27 17.56 -27.85 18.57 C-26.95 20.74 -26.04 22.91 -25.12 25.08 C-22.94 30.29 -20.79 35.5 -18.8 40.79 C-18.46 41.66 -18.13 42.53 -17.78 43.43 C-17.15 45.07 -16.54 46.72 -15.95 48.37 C-15.05 50.87 -15.05 50.87 -13 54 C-9.51 55.08 -9.51 55.08 -6 55 C-4.51 55.5 -4.51 55.5 -3 56 C-1.68 56 -0.36 56 1 56 C1 55.34 1 54.68 1 54 C3.64 54 6.28 54 9 54 C8.89 53.4 8.77 52.79 8.66 52.17 C7.49 45.9 6.32 39.62 5.15 33.34 C4.72 31 4.28 28.65 3.85 26.31 C3.22 22.94 2.59 19.58 1.97 16.21 C1.77 15.16 1.58 14.12 1.37 13.04 C1.19 12.06 1.01 11.08 0.83 10.07 C0.67 9.21 0.51 8.35 0.34 7.46 C-0.01 4.94 -0.06 2.54 0 0 Z " fill="#EAF0EB" transform="translate(513,99)"/>
<path d="M0 0 C0.5 0.99 0.5 0.99 1 2 C0.36 3.92 0.36 3.92 -0.75 6.33 C-1.16 7.26 -1.58 8.18 -2.01 9.14 C-2.72 10.68 -2.72 10.68 -3.44 12.25 C-4.45 14.5 -5.46 16.75 -6.46 19 C-6.73 19.61 -7.01 20.23 -7.29 20.86 C-11.18 29.6 -14.86 38.43 -18.56 47.25 C-19.27 48.94 -19.98 50.63 -20.69 52.31 C-21.36 53.9 -22.02 55.49 -22.69 57.08 C-23 57.8 -23.3 58.53 -23.62 59.28 C-24.41 61.18 -25.21 63.09 -26 65 C-26.4 65.92 -26.79 66.84 -27.2 67.79 C-28.22 70.6 -28.14 73.04 -28 76 C-28.66 74.68 -29.32 73.36 -30 72 C-30.99 72.5 -30.99 72.5 -32 73 C-34.09 73.2 -34.09 73.2 -36.5 73.25 C-37.29 73.28 -38.09 73.3 -38.91 73.33 C-39.6 73.22 -40.29 73.11 -41 73 C-41.66 72.01 -42.32 71.02 -43 70 C-41.68 70.33 -40.36 70.66 -39 71 C-38.6 69.94 -38.6 69.94 -38.19 68.85 C-36.96 65.91 -35.54 63.2 -33.98 60.41 C-33.38 59.33 -32.77 58.25 -32.15 57.13 C-31.5 55.96 -30.84 54.79 -30.19 53.62 C-29.51 52.42 -28.84 51.21 -28.16 49.99 C-22.3 39.5 -16.39 29.04 -10.46 18.58 C-8.2 14.58 -5.94 10.57 -3.69 6.56 C-3.31 5.89 -2.93 5.21 -2.54 4.52 C-1.69 3.01 -0.85 1.51 0 0 Z " fill="#F7F9F7" transform="translate(709,123)"/>
<path d="M0 0 C7.66 1.42 15.16 3.27 22.69 5.25 C23.86 5.56 25.03 5.86 26.24 6.18 C28.65 6.81 31.06 7.44 33.47 8.07 C36.81 8.95 40.15 9.82 43.49 10.69 C45.49 11.21 47.5 11.73 49.5 12.25 C50.4 12.48 51.3 12.72 52.23 12.96 C58.5 14.59 64.75 16.28 71 18 C70.5 16.02 70.5 16.02 70 14 C72.27 15.78 72.96 16.85 73.69 19.69 C74.05 23.49 74.07 27.18 74 31 C73.34 31 72.68 31 72 31 C72 30.01 72 29.02 72 28 C71.41 27.83 70.82 27.67 70.21 27.49 C63.58 25.57 57.18 23.25 50.76 20.73 C49.72 20.32 48.68 19.92 47.6 19.5 C44.3 18.21 40.99 16.92 37.69 15.62 C35.48 14.77 33.28 13.91 31.07 13.05 C26.88 11.41 22.69 9.78 18.51 8.15 C12.35 5.74 6.18 3.36 0 1 C0 0.67 0 0.34 0 0 Z " fill="#F4F7F5" transform="translate(300,296)"/>
<path d="M0 0 C4.22 0.69 7.93 2.04 11.9 3.62 C12.56 3.89 13.23 4.15 13.91 4.42 C16.07 5.28 18.22 6.14 20.38 7 C21.86 7.59 23.34 8.18 24.82 8.77 C27.8 9.95 30.78 11.13 33.75 12.31 C39.68 14.67 45.62 16.99 51.56 19.31 C52.53 19.69 53.5 20.07 54.5 20.46 C56.66 21.31 58.83 22.15 61 23 C61 19.37 61 15.74 61 12 C61.66 12.33 62.32 12.66 63 13 C63.67 24.34 62.74 35.16 55 44 C54.01 43.5 54.01 43.5 53 43 C53.62 42.32 54.24 41.64 54.88 40.94 C57.33 37.54 58.05 35.04 59 31 C58.13 30.73 57.26 30.46 56.36 30.19 C53.08 29.03 50.22 27.64 47.17 25.98 C46.05 25.38 44.93 24.77 43.78 24.15 C43.2 23.83 42.61 23.51 42.01 23.18 C38.9 21.49 35.79 19.81 32.68 18.13 C32.05 17.79 31.42 17.45 30.76 17.09 C24.13 13.52 17.44 10.03 10.75 6.56 C9.67 6 8.58 5.44 7.47 4.86 C4.98 3.57 2.49 2.29 0 1 C0 0.67 0 0.34 0 0 Z " fill="#F1F4F2" transform="translate(315,266)"/>
<path d="M0 0 C1.95 2.92 2.45 4.63 3 8 C6.3 8 9.6 8 13 8 C11.79 9.11 11.79 9.11 10.56 10.25 C7.69 13.22 7.69 13.22 7 17 C7.27 19.01 7.59 21.01 8 23 C7.5 22.66 7.01 22.33 6.5 21.98 C4.32 20.68 2.45 19.68 0 19 C-2.9 19.87 -4.53 21.15 -7 23 C-6.86 22.41 -6.72 21.82 -6.57 21.21 C-6.1 18.7 -5.81 16.55 -6 14 C-7.76 11.68 -9.52 10.62 -12 9 C-12 8.67 -12 8.34 -12 8 C-7.55 7.5 -7.55 7.5 -3 7 C-2.01 4.69 -1.02 2.38 0 0 Z " fill="#DFBE2F" transform="translate(272,274)"/>
<path d="M0 0 C2.13 3.19 2.5 5.27 3 9 C6.3 9 9.6 9 13 9 C10 12 10 12 7.69 13.69 C5.75 15.8 5.75 15.8 6.19 18.04 C6.7 20.05 7.34 22.03 8 24 C7.44 23.71 6.89 23.42 6.31 23.12 C3.92 21.96 1.48 20.97 -1 20 C-1.78 20.66 -2.57 21.32 -3.38 22 C-6 24 -6 24 -8 24 C-7.01 20.7 -6.02 17.4 -5 14 C-6.32 13.34 -7.64 12.68 -9 12 C-9.99 11.01 -10.98 10.02 -12 9 C-9.03 9 -6.06 9 -3 9 C-2.01 6.03 -1.02 3.06 0 0 Z " fill="#E3C12E" transform="translate(580,50)"/>
<path d="M0 0 C0.89 0.85 1.77 1.69 2.69 2.56 C5.26 4.76 5.26 4.76 8.62 4.88 C9.8 4.44 9.8 4.44 11 4 C12.33 3.66 13.66 3.32 15 3 C14.71 3.87 14.71 3.87 14.42 4.76 C13 9.35 13 9.35 13.76 13.93 C14.96 15.76 14.96 15.76 17 18 C14.03 18 11.06 18 8 18 C6.68 20.31 5.36 22.62 4 25 C3.67 25 3.34 25 3 25 C2.67 21.7 2.34 18.4 2 15 C-0.97 14.67 -3.94 14.34 -7 14 C-2.25 10.12 -2.25 10.12 0 9 C0 6.03 0 3.06 0 0 Z " fill="#E3C02E" transform="translate(860,526)"/>
<path d="M0 0 C0.84 1.21 0.84 1.21 1.69 2.44 C3.74 5.11 3.74 5.11 6.38 5.88 C9.39 6.02 12.05 5.62 15 5 C14.3 6.07 13.6 7.14 12.88 8.25 C11.75 10.13 11.75 10.13 11 12 C11.5 14.25 11.5 14.25 13 16 C13.66 17.32 14.32 18.64 15 20 C12.03 19.67 9.06 19.34 6 19 C4.02 21.97 4.02 21.97 2 25 C0 23 0 23 -0.12 19.38 C-0.08 18.26 -0.04 17.15 0 16 C-4.46 15.01 -4.46 15.01 -9 14 C-6.06 11.5 -3.82 10.53 0 10 C0 6.7 0 3.4 0 0 Z " fill="#E1C02E" transform="translate(252,383)"/>
<path d="M0 0 C0.74 0.8 1.49 1.61 2.25 2.44 C5.21 5.31 5.21 5.31 9 6 C9.99 5.34 10.98 4.68 12 4 C12.99 4 13.98 4 15 4 C14.47 5.08 14.47 5.08 13.94 6.19 C12.85 9.44 12.87 10.78 14 14 C15.97 16.77 15.97 16.77 18 19 C14.7 19 11.4 19 8 19 C6.68 21.31 5.36 23.62 4 26 C3.67 26 3.34 26 3 26 C2.67 23.03 2.34 20.06 2 17 C-2.46 16.01 -2.46 16.01 -7 15 C-4 12 -4 12 1 11 C0.67 7.37 0.34 3.74 0 0 Z " fill="#E1C02E" transform="translate(806,149)"/>
<path d="M0 0 C2.25 2.05 3 3.01 4 6 C6.97 6.33 9.94 6.66 13 7 C12.11 7.99 11.23 8.98 10.31 10 C8.59 12.35 7.9 13.32 8.34 16.25 C9.25 18.71 9.25 18.71 11 22 C7.92 20.8 4.94 19.52 2 18 C1.55 18.5 1.09 18.99 0.62 19.5 C-1 21 -1 21 -3 21 C-3.33 21.99 -3.66 22.98 -4 24 C-5.24 20.42 -4.75 17.66 -4 14 C-7.47 12.02 -7.47 12.02 -11 10 C-11 9.67 -11 9.34 -11 9 C-6.54 8.5 -6.54 8.5 -2 8 C-1.86 6.87 -1.71 5.73 -1.56 4.56 C-1 1 -1 1 0 0 Z " fill="#E1C02E" transform="translate(797,613)"/>
<path d="M0 0 C0.66 0 1.32 0 2 0 C2 2.97 2 5.94 2 9 C4.64 9.99 7.28 10.98 10 12 C9.67 12.66 9.34 13.32 9 14 C6.35 14.59 3.71 14.74 1 15 C1 18.3 1 21.6 1 25 C-2.88 21.25 -2.88 21.25 -4 19 C-7.52 18.92 -10.62 18.96 -14 20 C-13.32 19.11 -12.64 18.23 -11.94 17.31 C-9.77 14.27 -9.77 14.27 -10.06 11.44 C-11.1 8.73 -12.41 6.42 -14 4 C-13.28 4.14 -12.56 4.29 -11.81 4.44 C-10.42 4.72 -10.42 4.72 -9 5 C-7.33 5.33 -5.67 5.67 -4 6 C-3.07 4.51 -3.07 4.51 -2.12 3 C-1.42 2.01 -0.72 1.02 0 0 Z " fill="#E4C12E" transform="translate(327,177)"/>
<path d="M0 0 C0.33 0 0.66 0 1 0 C1.66 2.64 2.32 5.28 3 8 C6.3 8.33 9.6 8.66 13 9 C10.72 11.28 8.59 13.12 6 15 C6.66 17.97 7.32 20.94 8 24 C6.95 23.3 5.9 22.6 4.81 21.88 C1.78 20.1 1.78 20.1 -1.69 20.62 C-2.83 21.31 -2.83 21.31 -4 22 C-5.98 22.99 -5.98 22.99 -8 24 C-7.01 20.7 -6.02 17.4 -5 14 C-5.78 13.73 -6.57 13.46 -7.38 13.19 C-10 12 -10 12 -12 9 C-9.03 9 -6.06 9 -3 9 C-2.01 6.03 -1.02 3.06 0 0 Z " fill="#E4C12E" transform="translate(770,635)"/>
<path d="M0 0 C2.76 2.76 2.58 5.21 3 9 C5.97 9.33 8.94 9.66 12 10 C9.7 11.74 7.4 13.4 5 15 C5.33 18.3 5.66 21.6 6 25 C3.36 23.02 0.72 21.04 -2 19 C-5.96 20.98 -5.96 20.98 -10 23 C-8.89 19.51 -7.74 16.23 -6 13 C-6.6 12.75 -7.2 12.5 -7.81 12.25 C-10 11 -10 11 -13 7 C-9.7 7 -6.4 7 -3 7 C-2.01 4.69 -1.02 2.38 0 0 Z " fill="#E3C12E" transform="translate(362,612)"/>
<path d="M0 0 C0.76 0.8 1.53 1.61 2.31 2.44 C4.79 5.17 4.79 5.17 8 6 C10.34 5.72 12.68 5.39 15 5 C13.68 7.64 12.36 10.28 11 13 C12.65 15.31 14.3 17.62 16 20 C12.7 19.67 9.4 19.34 6 19 C5.36 19.99 4.72 20.98 4.06 22 C3.04 23.49 3.04 23.49 2 25 C1.67 25 1.34 25 1 25 C1 21.7 1 18.4 1 15 C-0.3 14.88 -1.6 14.75 -2.94 14.62 C-5.15 14.41 -5.15 14.41 -7 14 C-7.33 13.34 -7.66 12.68 -8 12 C-6.87 11.53 -5.73 11.05 -4.56 10.56 C-1.24 9.36 -1.24 9.36 0 8 C0.07 6.65 0.08 5.29 0.06 3.94 C0.04 2.64 0.02 1.34 0 0 Z " fill="#E2C02E" transform="translate(842,557)"/>
<path d="M0 0 C2 1 2 1 2.63 2.85 C3.09 4.9 3.54 6.95 4 9 C6.97 9 9.94 9 13 9 C11.38 10.71 9.71 12.37 8 14 C7.34 14 6.68 14 6 14 C6.99 17.3 7.98 20.6 9 24 C5 22 5 22 2 20 C-1.49 20.35 -4.09 22.14 -7 24 C-6.87 23.34 -6.74 22.67 -6.61 21.99 C-6.18 19.26 -5.88 16.77 -6 14 C-8.23 10.85 -8.23 10.85 -11 9 C-8.03 9 -5.06 9 -2 9 C-1.34 6.03 -0.68 3.06 0 0 Z " fill="#E5C12E" transform="translate(389,635)"/>
<path d="M0 0 C0.89 0.85 1.77 1.69 2.69 2.56 C5.26 4.75 5.26 4.75 8.62 4.94 C10.83 4.07 12.89 3.07 15 2 C14.79 2.89 14.79 2.89 14.57 3.79 C14.1 6.3 13.81 8.45 14 11 C15.76 13.32 17.52 14.38 20 16 C20 16.33 20 16.66 20 17 C16.7 17 13.4 17 10 17 C9.01 19.64 8.02 22.28 7 25 C4.87 21.81 4.5 19.73 4 16 C1.03 15.67 -1.94 15.34 -5 15 C-4.2 14.44 -3.39 13.89 -2.56 13.31 C0.11 11.26 0.11 11.26 0.88 8.62 C1.02 5.61 0.62 2.95 0 0 Z " fill="#E3C12E" transform="translate(398,103)"/>
<path d="M0 0 C1.6 3.2 0.03 5.72 -1 9 C-0.49 9.35 0.01 9.7 0.53 10.06 C1.51 10.74 1.51 10.74 2.5 11.44 C3.15 11.89 3.8 12.34 4.47 12.81 C4.97 13.2 5.48 13.59 6 14 C6 14.33 6 14.66 6 15 C1.55 15.5 1.55 15.5 -3 16 C-3.66 18.64 -4.32 21.28 -5 24 C-7 23 -7 23 -8.12 19.94 C-8.41 18.97 -8.7 18 -9 17 C-12.3 16.67 -15.6 16.34 -19 16 C-17.38 14.29 -15.71 12.63 -14 11 C-13.34 11 -12.68 11 -12 11 C-12.99 7.7 -13.98 4.4 -15 1 C-11.92 2.2 -8.94 3.48 -6 5 C-4.02 3.35 -2.04 1.7 0 0 Z " fill="#E4C12E" transform="translate(285,493)"/>
<path d="M0 0 C4 4 4 4 5.25 5.88 C6.93 7.22 6.93 7.22 8.96 6.74 C11 6.23 13 5.62 15 5 C14.57 5.84 14.57 5.84 14.12 6.69 C13.75 7.45 13.38 8.21 13 9 C12.55 9.78 12.09 10.57 11.62 11.38 C10.63 14.23 10.63 14.23 12.88 17.31 C13.58 18.2 14.28 19.09 15 20 C12.03 19.67 9.06 19.34 6 19 C5.36 19.99 4.72 20.98 4.06 22 C3.04 23.49 3.04 23.49 2 25 C1.67 25 1.34 25 1 25 C0.34 22.03 -0.32 19.06 -1 16 C-3.31 15.34 -5.62 14.68 -8 14 C-5.61 12.11 -3.93 10.98 -1 10 C-0.67 6.7 -0.34 3.4 0 0 Z " fill="#E3C12E" transform="translate(484,684)"/>
<path d="M0 0 C3.01 1.51 3.61 4.03 5 7 C9.45 6.5 9.45 6.5 14 6 C13.32 6.7 12.64 7.4 11.94 8.12 C9.69 10.85 9.69 10.85 10.12 14.06 C10.88 16.6 11.79 18.67 13 21 C12.34 20.8 11.67 20.6 10.99 20.39 C8.27 19.68 5.81 19.12 3 19 C-0.17 21.17 -0.17 21.17 -2 24 C-2 21.03 -2 18.06 -2 15 C-2.95 14.71 -3.9 14.42 -4.88 14.12 C-8 13 -8 13 -10 11 C-7.03 10.34 -4.06 9.68 -1 9 C-1.02 7.89 -1.04 6.77 -1.06 5.62 C-1 2 -1 2 0 0 Z " fill="#E5C12E" transform="translate(451,672)"/>
<path d="M0 0 C0.66 0 1.32 0 2 0 C2 2.97 2 5.94 2 9 C4.64 9.99 7.28 10.98 10 12 C6.81 14.13 4.73 14.5 1 15 C1 18.3 1 21.6 1 25 C-2 22 -2 22 -4 19 C-7.54 18.69 -10.61 18.96 -14 20 C-14 19.34 -14 18.68 -14 18 C-13.34 18 -12.68 18 -12 18 C-10.52 15.65 -9.97 14.37 -10.19 11.56 C-11.09 8.72 -12.37 6.48 -14 4 C-9.05 4.99 -9.05 4.99 -4 6 C-3.07 4.51 -3.07 4.51 -2.12 3 C-1.42 2.01 -0.72 1.02 0 0 Z " fill="#E3C02E" transform="translate(316,557)"/>
<path d="M0 0 C0.89 0.68 1.77 1.36 2.69 2.06 C5.73 4.25 5.73 4.25 8.56 3.88 C11.07 2.97 13.55 2.05 16 1 C15.01 3.97 14.02 6.94 13 10 C13.99 10.8 14.98 11.61 16 12.44 C16.99 13.28 17.98 14.13 19 15 C19 15.33 19 15.66 19 16 C16.03 16 13.06 16 10 16 C9.01 18.64 8.02 21.28 7 24 C4.87 20.81 4.5 18.73 4 15 C1.03 15 -1.94 15 -5 15 C-5 14.34 -5 13.68 -5 13 C-0.62 10 -0.62 10 2 10 C1.34 6.7 0.68 3.4 0 0 Z " fill="#E5C12E" transform="translate(260,458)"/>
<path d="M0 0 C0.33 0 0.66 0 1 0 C1 3.3 1 6.6 1 10 C3.97 10.66 6.94 11.32 10 12 C7 14 7 14 3 16 C3 18.97 3 21.94 3 25 C2.34 25 1.68 25 1 25 C-0.38 23.37 -1.72 21.71 -3 20 C-6.38 20.54 -9.7 21.11 -13 22 C-12.5 21.09 -12.01 20.19 -11.5 19.25 C-9.72 15.99 -9.72 15.99 -10 12 C-11.92 8.78 -11.92 8.78 -14 6 C-9.05 6.99 -9.05 6.99 -4 8 C-3.71 7.24 -3.42 6.47 -3.12 5.69 C-2 3 -2 3 0 0 Z " fill="#E4C12E" transform="translate(905,346)"/>
<path d="M0 0 C3.25 1.62 3.7 4.75 5 8 C7.97 8 10.94 8 14 8 C12.72 9.71 11.38 11.37 10 13 C9.34 13 8.68 13 8 13 C8.66 15.97 9.32 18.94 10 22 C8.74 21.61 7.48 21.22 6.19 20.81 C4.03 20.21 4.03 20.21 2 20 C0.08 21.25 0.08 21.25 -1 23 C-1.66 23 -2.32 23 -3 23 C-3 23.66 -3 24.32 -3 25 C-3.66 24.67 -4.32 24.34 -5 24 C-4.5 19.55 -4.5 19.55 -4 15 C-5.98 14.01 -7.96 13.02 -10 12 C-10 11.34 -10 10.68 -10 10 C-7.03 10 -4.06 10 -1 10 C-0.67 6.7 -0.34 3.4 0 0 Z " fill="#E3C12E" transform="translate(872,239)"/>
<path d="M0 0 C1.71 1.62 3.37 3.29 5 5 C5 5.66 5 6.32 5 7 C9.95 5.52 9.95 5.52 15 4 C14.3 5.05 13.6 6.1 12.88 7.19 C11.1 10.22 11.1 10.22 11.62 13.69 C12.31 14.83 12.31 14.83 13 16 C13.66 17.32 14.32 18.64 15 20 C12.03 19.34 9.06 18.68 6 18 C5.2 19.16 4.39 20.31 3.56 21.5 C2.74 22.69 1.89 23.86 1 25 C0.67 25 0.34 25 0 25 C0 21.7 0 18.4 0 15 C-2.31 14.67 -4.62 14.34 -7 14 C-7 13.01 -7 12.02 -7 11 C-3.54 10.5 -3.54 10.5 0 10 C0 6.7 0 3.4 0 0 Z " fill="#E4C12E" transform="translate(467,70)"/>
<path d="M0 0 C2.83 2.83 3.72 4.35 5 8 C5.74 7.67 6.49 7.34 7.25 7 C10 6 10 6 14 6 C14 6.66 14 7.32 14 8 C13.34 8 12.68 8 12 8 C10.31 10.77 10.31 10.77 10.25 13.94 C11.11 16.32 12.03 18.66 13 21 C9.98 20.41 6.98 19.77 4 19 C3.2 19.99 2.39 20.98 1.56 22 C0.72 22.99 -0.13 23.98 -1 25 C-1.33 25 -1.66 25 -2 25 C-2.12 18.38 -2.12 18.38 -1 15 C-1.95 14.71 -2.9 14.42 -3.88 14.12 C-7 13 -7 13 -9 11 C-3.38 9 -3.38 9 0 9 C0 6.03 0 3.06 0 0 Z " fill="#E4C12E" transform="translate(821,586)"/>
<path d="M0 0 C2 1 2 1 2.63 2.85 C3.09 4.9 3.54 6.95 4 9 C6.97 9 9.94 9 13 9 C12.2 9.58 11.39 10.15 10.56 10.75 C7.98 12.71 7.98 12.71 7.12 14.88 C6.96 17.69 7.44 20.24 8 23 C7.3 22.48 6.6 21.97 5.88 21.44 C2.32 19.66 0.78 19.96 -3 21 C-4.34 21.65 -5.68 22.31 -7 23 C-6.86 22.41 -6.72 21.82 -6.57 21.21 C-6.1 18.7 -5.81 16.55 -6 14 C-7.76 11.68 -9.52 10.62 -12 9 C-12 8.67 -12 8.34 -12 8 C-8.7 8.33 -5.4 8.66 -2 9 C-1.34 6.03 -0.68 3.06 0 0 Z " fill="#E4C12E" transform="translate(887,274)"/>
<path d="M0 0 C2.22 2.22 2.93 4.08 4 7 C6.97 7.33 9.94 7.66 13 8 C12.13 8.83 11.27 9.65 10.38 10.5 C8.61 12.57 7.97 13.43 8.11 16.18 C8.72 18.64 8.72 18.64 10 22 C9.42 21.8 8.84 21.6 8.24 21.39 C3.6 19.88 3.6 19.88 -0.93 20.98 C-2.77 22.5 -2.77 22.5 -5 25 C-4.34 21.7 -3.68 18.4 -3 15 C-3.76 14.73 -4.53 14.46 -5.31 14.19 C-7.87 13.06 -9.2 12.09 -11 10 C-8.36 9.67 -5.72 9.34 -3 9 C-2.01 6.03 -1.02 3.06 0 0 Z " fill="#E5C12E" transform="translate(419,655)"/>
<path d="M0 0 C1.53 3.07 0.55 5.7 0 9 C1.98 10.32 3.96 11.64 6 13 C5.67 13.66 5.34 14.32 5 15 C2.36 15 -0.28 15 -3 15 C-3.66 17.97 -4.32 20.94 -5 24 C-6.78 21.33 -7.88 18.97 -9 16 C-11.97 16 -14.94 16 -18 16 C-18 15.34 -18 14.68 -18 14 C-16.04 12.61 -14.04 11.27 -12 10 C-12.66 7.03 -13.32 4.06 -14 1 C-12.68 1.66 -11.36 2.32 -10 3 C-7.59 4 -7.59 4 -5 4 C-2.19 2.17 -2.19 2.17 0 0 Z " fill="#E4C12E" transform="translate(761,104)"/>
<path d="M0 0 C1.64 3.28 0.52 6.43 0 10 C1.13 10.29 2.27 10.58 3.44 10.88 C4.61 11.25 5.79 11.62 7 12 C7.33 12.66 7.66 13.32 8 14 C5.03 14.66 2.06 15.32 -1 16 C-1.12 17.13 -1.25 18.27 -1.38 19.44 C-1.58 20.61 -1.79 21.79 -2 23 C-2.66 23.33 -3.32 23.66 -4 24 C-4.99 22.02 -5.98 20.04 -7 18 C-10.3 18 -13.6 18 -17 18 C-15.02 15.36 -13.04 12.72 -11 10 C-11.5 9.22 -11.99 8.43 -12.5 7.62 C-14 5 -14 5 -14 3 C-13.44 3.14 -12.89 3.29 -12.31 3.44 C-11.55 3.62 -10.79 3.81 -10 4 C-9.2 4.29 -8.39 4.58 -7.56 4.88 C-4.7 5.31 -4.7 5.31 -2.19 2.56 C-1.1 1.29 -1.1 1.29 0 0 Z " fill="#E5C12E" transform="translate(299,526)"/>
<path d="M0 0 C0.8 0.87 1.61 1.73 2.44 2.62 C4.61 4.49 5.5 5.02 8.4 4.89 C10.65 4.36 12.82 3.76 15 3 C14.69 3.74 14.38 4.49 14.06 5.25 C13.19 7.51 12.52 9.65 12 12 C13.24 12.93 13.24 12.93 14.5 13.88 C15.74 14.93 15.74 14.93 17 16 C17 16.66 17 17.32 17 18 C14.03 17.67 11.06 17.34 8 17 C6.68 19.31 5.36 21.62 4 24 C3.67 24 3.34 24 3 24 C2.67 21.03 2.34 18.06 2 15 C-0.97 14.67 -3.94 14.34 -7 14 C-4.17 11.67 -2.7 10.93 1 10 C0.67 6.7 0.34 3.4 0 0 Z " fill="#E4C12E" transform="translate(254,421)"/>
<path d="M0 0 C0.33 0 0.66 0 1 0 C1 2.97 1 5.94 1 9 C3.31 10.32 5.62 11.64 8 13 C8 13.33 8 13.66 8 14 C3.55 14.5 3.55 14.5 -1 15 C-1.33 17.97 -1.66 20.94 -2 24 C-5 21 -5 21 -7 17 C-9.97 17 -12.94 17 -16 17 C-14.35 14.69 -12.7 12.38 -11 10 C-11.52 9.05 -12.03 8.1 -12.56 7.12 C-13.04 6.09 -13.51 5.06 -14 4 C-13.67 3.34 -13.34 2.68 -13 2 C-12.09 2.54 -11.19 3.07 -10.25 3.62 C-7.22 5.31 -7.22 5.31 -4.81 4.38 C-3.04 3.03 -1.53 1.6 0 0 Z " fill="#E6C22E" transform="translate(353,150)"/>
<path d="M0 0 C1.23 3.69 0.64 6.21 0 10 C0.97 10.29 1.94 10.58 2.94 10.88 C6 12 6 12 7 14 C2.54 14.5 2.54 14.5 -2 15 C-2.33 17.97 -2.66 20.94 -3 24 C-4.51 22.04 -5.89 20.22 -7 18 C-10.3 18 -13.6 18 -17 18 C-15.73 16.67 -15.73 16.67 -14.44 15.31 C-12.24 12.74 -12.24 12.74 -12.12 9.38 C-12.41 8.59 -12.7 7.81 -13 7 C-13.34 5.67 -13.68 4.34 -14 3 C-13.41 3.2 -12.82 3.4 -12.21 3.61 C-9.74 4.33 -7.57 4.88 -5 5 C-1.89 2.81 -1.89 2.81 0 0 Z " fill="#E4C12E" transform="translate(728,85)"/>
<path d="M0 0 C0.66 0 1.32 0 2 0 C2.99 2.31 3.98 4.62 5 7 C7.97 7 10.94 7 14 7 C12.72 8.71 11.38 10.37 10 12 C9.34 12 8.68 12 8 12 C8.66 14.97 9.32 17.94 10 21 C8.76 20.59 7.52 20.17 6.25 19.75 C4.09 19.13 4.09 19.13 2 19 C-0.42 20.75 -0.42 20.75 -2 23 C-2.66 23 -3.32 23 -4 23 C-4 20.03 -4 17.06 -4 14 C-5.98 13.01 -7.96 12.02 -10 11 C-10 10.34 -10 9.68 -10 9 C-7.03 9 -4.06 9 -1 9 C-0.67 6.03 -0.34 3.06 0 0 Z " fill="#E4C12E" transform="translate(541,53)"/>
<path d="M0 0 C0.33 0 0.66 0 1 0 C1 3.3 1 6.6 1 10 C3.64 10.99 6.28 11.98 9 13 C5.81 15.13 3.73 15.5 0 16 C0 18.97 0 21.94 0 25 C-1.71 23.38 -3.37 21.71 -5 20 C-5 19.34 -5 18.68 -5 18 C-7.97 18.66 -10.94 19.32 -14 20 C-13.48 19.3 -12.97 18.6 -12.44 17.88 C-10.66 14.32 -10.96 12.78 -12 9 C-12.66 7.68 -13.32 6.36 -14 5 C-9.54 5.99 -9.54 5.99 -5 7 C-4.2 5.85 -3.39 4.69 -2.56 3.5 C-1.74 2.31 -0.89 1.14 0 0 Z " fill="#E6C22E" transform="translate(675,684)"/>
<path d="M0 0 C1.95 2.92 2.45 4.63 3 8 C5.97 8.33 8.94 8.66 12 9 C9.78 12.33 8.65 12.75 5 14 C5 16.97 5 19.94 5 23 C4.13 22.3 3.27 21.6 2.38 20.88 C-0.85 18.6 -0.85 18.6 -4.19 19.69 C-5.12 20.12 -6.04 20.55 -7 21 C-7.99 21.33 -8.98 21.66 -10 22 C-9.54 20.89 -9.54 20.89 -9.06 19.75 C-8.71 18.84 -8.36 17.93 -8 17 C-7.69 16.36 -7.38 15.72 -7.06 15.06 C-6.95 11.47 -9.64 9.54 -12 7 C-11.39 7 -10.77 6.99 -10.14 6.99 C-7.63 6.87 -5.42 6.68 -3 6 C-0.84 3.1 -0.84 3.1 0 0 Z " fill="#E5C22E" transform="translate(740,656)"/>
<path d="M0 0 C1.58 1.3 1.58 1.3 3.19 2.62 C5.06 4.03 5.06 4.03 7 5 C9.74 4.59 9.74 4.59 12 3 C12.76 2.63 13.53 2.26 14.31 1.88 C14.87 1.59 15.43 1.3 16 1 C15.67 1.91 15.34 2.81 15 3.75 C13.8 7.07 13.8 7.07 14 11 C16.42 13.75 16.42 13.75 19 16 C16.03 16.33 13.06 16.66 10 17 C9.01 19.31 8.02 21.62 7 24 C5.53 21.25 4.78 19.1 4 16 C1.03 15.67 -1.94 15.34 -5 15 C-5 14.34 -5 13.68 -5 13 C-3.02 12.01 -1.04 11.02 1 10 C0.67 6.7 0.34 3.4 0 0 Z " fill="#E5C22E" transform="translate(874,493)"/>
<path d="M0 0 C1.23 3.69 0.64 6.21 0 10 C2.31 11.32 4.62 12.64 7 14 C7 14.33 7 14.66 7 15 C3.7 15 0.4 15 -3 15 C-3.66 17.97 -4.32 20.94 -5 24 C-7.57 21.43 -7.54 19.52 -8 16 C-11.3 16 -14.6 16 -18 16 C-17.2 15.22 -16.39 14.43 -15.56 13.62 C-13.01 11.28 -13.01 11.28 -12 9 C-12.54 6.99 -12.54 6.99 -13.44 4.88 C-13.87 3.79 -13.87 3.79 -14.31 2.68 C-14.54 2.13 -14.76 1.57 -15 1 C-11.92 2.2 -8.94 3.48 -6 5 C-4.02 3.35 -2.04 1.7 0 0 Z " fill="#E6C22E" transform="translate(899,458)"/>
<path d="M0 0 C0.99 0.33 1.98 0.66 3 1 C3 1.66 3 2.32 3 3 C3.66 3 4.32 3 5 3 C5.33 3.66 5.66 4.32 6 5 C9.02 4.41 12.01 3.76 15 3 C14.8 3.58 14.6 4.16 14.39 4.76 C12.88 9.4 12.88 9.4 13.98 13.93 C15.5 15.77 15.5 15.77 18 18 C14.53 17.54 11.33 17.11 8 16 C7.71 16.95 7.42 17.9 7.12 18.88 C6 22 6 22 4 24 C3.67 21.03 3.34 18.06 3 15 C-0.3 14.67 -3.6 14.34 -7 14 C-3.89 10.89 -2.11 10.19 2 9 C1.34 6.03 0.68 3.06 0 0 Z " fill="#E5C12E" transform="translate(431,85)"/>
<path d="M0 0 C3.74 1.25 4.19 2.63 6 6 C10.46 5.5 10.46 5.5 15 5 C13.35 7.64 11.7 10.28 10 13 C10.5 13.78 10.99 14.57 11.5 15.38 C13 18 13 18 13 20 C9.85 19.3 6.97 18.24 4 17 C3.73 17.62 3.46 18.24 3.19 18.88 C2 21 2 21 -1 23 C-1.33 20.03 -1.66 17.06 -2 14 C-4.31 13.01 -6.62 12.02 -9 11 C-5.81 8.87 -3.73 8.5 0 8 C0 5.36 0 2.72 0 0 Z " fill="#E6C22E" transform="translate(503,60)"/>
<path d="M0 0 C0.33 0 0.66 0 1 0 C0.67 3.3 0.34 6.6 0 10 C1.13 10.29 2.27 10.58 3.44 10.88 C4.61 11.25 5.79 11.62 7 12 C7.33 12.66 7.66 13.32 8 14 C5.03 14.66 2.06 15.32 -1 16 C-1.33 18.31 -1.66 20.62 -2 23 C-2.66 23 -3.32 23 -4 23 C-4.99 21.02 -5.98 19.04 -7 17 C-11.95 17.5 -11.95 17.5 -17 18 C-16.15 17.13 -15.31 16.27 -14.44 15.38 C-12.32 12.83 -11.99 12.35 -12.06 8.88 C-12.86 6.41 -13.71 4.24 -15 2 C-14.28 2.31 -13.56 2.62 -12.81 2.94 C-9 4.46 -9 4.46 -5 5 C-2.23 2.65 -2.23 2.65 0 0 Z " fill="#E5C12E" transform="translate(640,694)"/>
<path d="M0 0 C0.87 0.87 1.73 1.73 2.62 2.62 C4.22 4.05 4.22 4.05 6 5 C9.21 4.51 9.21 4.51 12 3 C12.99 2.67 13.98 2.34 15 2 C14.69 2.74 14.38 3.49 14.06 4.25 C13.54 5.61 13.54 5.61 13 7 C12.69 7.64 12.38 8.28 12.06 8.94 C11.95 12.53 14.64 14.46 17 17 C14.03 17 11.06 17 8 17 C6.68 19.31 5.36 21.62 4 24 C3.67 24 3.34 24 3 24 C2.67 21.03 2.34 18.06 2 15 C-0.97 14.67 -3.94 14.34 -7 14 C-7 13.34 -7 12.68 -7 12 C-4.69 11.01 -2.38 10.02 0 9 C0 6.03 0 3.06 0 0 Z " fill="#E6C22E" transform="translate(519,694)"/>
<path d="M0 0 C3.08 2.78 3.95 3.81 5 8 C8.3 7.34 11.6 6.68 15 6 C13.7 7.58 13.7 7.58 12.38 9.19 C10.96 11.06 10.96 11.06 10 13 C10.48 15.78 10.48 15.78 12 18 C12.33 18.99 12.66 19.98 13 21 C12.44 20.86 11.89 20.71 11.31 20.56 C10.55 20.38 9.79 20.19 9 20 C8.2 19.71 7.39 19.42 6.56 19.12 C3.7 18.69 3.7 18.69 1.19 21.44 C0.47 22.28 -0.26 23.13 -1 24 C-1 21.03 -1 18.06 -1 15 C-3.97 14.01 -6.94 13.02 -10 12 C-10 11.67 -10 11.34 -10 11 C-6.7 10.67 -3.4 10.34 0 10 C0 6.7 0 3.4 0 0 Z " fill="#E5C12E" transform="translate(254,346)"/>
<path d="M0 0 C1.65 2.97 2.44 5.66 3 9 C5.64 9.33 8.28 9.66 11 10 C8.6 12.76 7.84 13.04 4 14 C4.66 17.3 5.32 20.6 6 24 C4.45 22.7 4.45 22.7 2.88 21.38 C1.01 19.95 1.01 19.95 -1 19 C-4.25 19.55 -4.25 19.55 -7 21 C-7.99 21 -8.98 21 -10 21 C-9.2 19.64 -9.2 19.64 -8.38 18.25 C-6.71 15.23 -6.71 15.23 -7.56 12.88 C-9.22 10.72 -11.01 8.85 -13 7 C-6.38 6.88 -6.38 6.88 -3 8 C-2.88 7.24 -2.75 6.47 -2.62 5.69 C-2 3 -2 3 0 0 Z " fill="#E5C12E" transform="translate(898,310)"/>
<path d="M0 0 C1.05 0.7 2.1 1.4 3.19 2.12 C6.24 3.91 6.24 3.91 9.75 3.38 C11.53 2.29 13.27 1.15 15 0 C14.67 2.97 14.34 5.94 14 9 C16.31 10.32 18.62 11.64 21 13 C21 13.66 21 14.32 21 15 C16.54 15.5 16.54 15.5 12 16 C11.34 17.98 10.68 19.96 10 22 C9.34 22 8.68 22 8 22 C7.34 19.69 6.68 17.38 6 15 C3.03 15 0.06 15 -3 15 C-2.15 14.3 -1.31 13.6 -0.44 12.88 C2.36 10.24 2.36 10.24 1.88 6.94 C1.59 5.97 1.3 5 1 4 C0.72 2.82 0.72 2.82 0.44 1.62 C0.29 1.09 0.15 0.55 0 0 Z " fill="#E6C22E" transform="translate(590,699)"/>
<path d="M0 0 C0.33 0 0.66 0 1 0 C1 2.97 1 5.94 1 9 C3.97 9.66 6.94 10.32 10 11 C7.78 13.22 5.92 13.93 3 15 C3 18.3 3 21.6 3 25 C2.28 24.2 1.56 23.39 0.81 22.56 C-2.1 19.91 -3.14 19.09 -7 19 C-10.24 19.86 -10.24 19.86 -13 21 C-12.3 19.93 -11.6 18.86 -10.88 17.75 C-9.75 15.87 -9.75 15.87 -9 14 C-9.5 11.75 -9.5 11.75 -11 10 C-11.68 8.67 -12.35 7.34 -13 6 C-12.4 6.07 -11.79 6.14 -11.17 6.21 C-8.66 6.38 -6.48 6.44 -4 6 C-1.43 3.15 -1.43 3.15 0 0 Z " fill="#E6C22E" transform="translate(338,586)"/>
<path d="M0 0 C3 3 3 3 5 6 C9.46 5.5 9.46 5.5 14 5 C12.35 7.64 10.7 10.28 9 13 C10.98 15.97 10.98 15.97 13 19 C12.67 19.66 12.34 20.32 12 21 C11.09 20.46 10.18 19.93 9.25 19.38 C6.22 17.69 6.22 17.69 3.88 18.62 C2.95 19.31 2.95 19.31 2 20 C1.26 20.54 0.51 21.07 -0.25 21.62 C-0.83 22.08 -1.4 22.53 -2 23 C-2.33 20.03 -2.66 17.06 -3 14 C-5.31 13.01 -7.62 12.02 -10 11 C-10 10.67 -10 10.34 -10 10 C-5.54 9.5 -5.54 9.5 -1 9 C-0.67 6.03 -0.34 3.06 0 0 Z " fill="#E6C22E" transform="translate(854,208)"/>
<path d="M0 0 C0.66 0 1.32 0 2 0 C2.33 2.64 2.66 5.28 3 8 C5.64 8.66 8.28 9.32 11 10 C8.17 12.33 6.7 13.07 3 14 C3 16.97 3 19.94 3 23 C2.3 22.15 1.6 21.31 0.88 20.44 C-1.76 17.64 -1.76 17.64 -5.06 18.12 C-6.52 18.56 -6.52 18.56 -8 19 C-9.32 19.33 -10.64 19.66 -12 20 C-10.68 17.36 -9.36 14.72 -8 12 C-9.65 9.69 -11.3 7.38 -13 5 C-10.03 5.33 -7.06 5.66 -4 6 C-3.07 4.51 -3.07 4.51 -2.12 3 C-1.42 2.01 -0.72 1.02 0 0 Z " fill="#E7C22D" transform="translate(305,208)"/>
<path d="M0 0 C0.64 0.85 1.28 1.69 1.94 2.56 C4.65 5.21 4.65 5.21 7.34 5.11 C9.59 4.84 11.78 4.49 14 4 C13.48 4.91 12.97 5.81 12.44 6.75 C10.82 9.72 10.82 9.72 11.12 12.06 C12.23 14.51 13.56 16.74 15 19 C11.7 18.67 8.4 18.34 5 18 C4.36 18.99 3.72 19.98 3.06 21 C2.04 22.49 2.04 22.49 1 24 C0.67 24 0.34 24 0 24 C0 20.7 0 17.4 0 14 C-0.95 13.88 -1.9 13.75 -2.88 13.62 C-6 13 -6 13 -8 11 C-5.09 9.74 -3.2 9 0 9 C0 6.03 0 3.06 0 0 Z " fill="#E7C22E" transform="translate(832,178)"/>
<path d="M0 0 C0.33 0 0.66 0 1 0 C1.02 1.26 1.04 2.52 1.06 3.81 C1.23 6.02 1.23 6.02 2 8 C4.29 9.69 6.21 10.19 9 11 C6.43 13.57 4.52 13.54 1 14 C1 17.3 1 20.6 1 24 C-2.88 20.25 -2.88 20.25 -4 18 C-7.52 17.92 -10.62 17.96 -14 19 C-12.8 16.51 -11.55 14.32 -10 12 C-10.35 8.51 -12.14 5.91 -14 3 C-9.05 3.99 -9.05 3.99 -4 5 C-3.36 4.17 -2.72 3.35 -2.06 2.5 C-1.38 1.67 -0.7 0.85 0 0 Z " fill="#E6C22E" transform="translate(692,71)"/>
<path d="M0 0 C2.5 2.94 3.47 5.18 4 9 C7.3 8.67 10.6 8.34 14 8 C13.2 8.76 12.39 9.53 11.56 10.31 C8.83 12.79 8.83 12.79 8 16 C8.92 18.37 9.92 20.7 11 23 C10.28 22.69 9.56 22.38 8.81 22.06 C5 20.59 5 20.59 1 20 C-1.81 21.83 -1.81 21.83 -4 24 C-4 21.03 -4 18.06 -4 15 C-7.47 13.02 -7.47 13.02 -11 11 C-11 10.67 -11 10.34 -11 10 C-8.36 9.67 -5.72 9.34 -3 9 C-2.01 6.03 -1.02 3.06 0 0 Z " fill="#E6C22E" transform="translate(261,309)"/>
<path d="M0 0 C0.33 0 0.66 0 1 0 C1.33 3.3 1.66 6.6 2 10 C4.97 10.33 7.94 10.66 11 11 C10 13 10 13 6.94 14.12 C5.97 14.41 5 14.7 4 15 C3.67 17.97 3.34 20.94 3 24 C2.11 23.15 1.23 22.31 0.31 21.44 C-2.26 19.24 -2.26 19.24 -5.62 19.12 C-6.41 19.41 -7.19 19.7 -8 20 C-8.76 20.19 -9.53 20.37 -10.31 20.56 C-10.87 20.71 -11.43 20.85 -12 21 C-11.48 20.11 -10.97 19.23 -10.44 18.31 C-8.88 14.73 -8.68 13.59 -10 10 C-11.47 7.74 -11.47 7.74 -13 6 C-10.03 6.33 -7.06 6.66 -4 7 C-2.68 4.69 -1.36 2.38 0 0 Z " fill="#E7C22D" transform="translate(708,672)"/>
<path d="M0 0 C0.33 0 0.66 0 1 0 C0.67 3.3 0.34 6.6 0 10 C1.42 10.43 1.42 10.43 2.88 10.88 C6 12 6 12 8 14 C5.04 15.48 2.26 15.06 -1 15 C-1.33 18.3 -1.66 21.6 -2 25 C-5.01 23.5 -5.58 20.96 -7 18 C-7.33 17.67 -7.66 17.34 -8 17 C-10.69 17.18 -13.33 17.62 -16 18 C-15.13 17.13 -14.27 16.27 -13.38 15.38 C-11.95 13.78 -11.95 13.78 -11 12 C-11.49 8.79 -11.49 8.79 -13 6 C-13.33 5.01 -13.66 4.02 -14 3 C-11 4 -8 5 -5 6 C-4.2 5.01 -3.39 4.02 -2.56 3 C-1.72 2.01 -0.87 1.02 0 0 Z " fill="#E7C22E" transform="translate(905,421)"/>
<path d="M0 0 C6.07 1.66 11.29 4.76 16.75 7.81 C20.49 9.89 24.24 11.96 28 14 C28.92 14.51 29.84 15.01 30.79 15.54 C32.11 16.24 32.11 16.24 33.45 16.95 C34.23 17.37 35.01 17.79 35.82 18.22 C38.38 19.13 39.49 18.94 42 18 C42.66 17.67 43.32 17.34 44 17 C43.69 17.54 43.38 18.07 43.06 18.62 C41.28 22.62 40.61 25.82 42 30 C42.66 30 43.32 30 44 30 C44.69 32.75 44.69 32.75 45 36 C43.56 38.38 43.56 38.38 42 40 C42.21 38.93 42.41 37.86 42.62 36.75 C42.99 33.12 42.98 31.92 41 29 C40.34 29 39.68 29 39 29 C37.66 27.67 36.33 26.34 35 25 C33.28 23.75 31.52 22.55 29.75 21.39 C28.73 20.72 27.71 20.04 26.65 19.35 C25.59 18.66 24.53 17.96 23.44 17.25 C6.55 6.18 6.55 6.18 0 1 C0 0.67 0 0.34 0 0 Z " fill="#EEF3EF" transform="translate(333,238)"/>
<path d="M0 0 C0.33 0 0.66 0 1 0 C1.33 2.97 1.66 5.94 2 9 C4.31 9.66 6.62 10.32 9 11 C9 11.66 9 12.32 9 13 C6.69 13.66 4.38 14.32 2 15 C2 17.97 2 20.94 2 24 C1.36 23.13 0.72 22.27 0.06 21.38 C-2.66 18.73 -2.66 18.73 -5.34 19.11 C-7.61 19.64 -9.8 20.25 -12 21 C-11.54 19.89 -11.54 19.89 -11.06 18.75 C-10.71 17.84 -10.36 16.94 -10 16 C-9.69 15.36 -9.38 14.72 -9.06 14.06 C-8.95 10.47 -11.64 8.54 -14 6 C-9.05 6.99 -9.05 6.99 -4 8 C-3.71 7.24 -3.42 6.47 -3.12 5.69 C-2 3 -2 3 0 0 Z " fill="#E8C32D" transform="translate(656,59)"/>
<path d="M0 0 C0.33 0 0.66 0 1 0 C1.33 3.3 1.66 6.6 2 10 C5.3 10 8.6 10 12 10 C9 13 9 13 5 15 C5 17.97 5 20.94 5 24 C4.11 23.32 3.23 22.64 2.31 21.94 C-0.74 19.75 -0.74 19.75 -3.62 20.12 C-5.85 20.95 -7.92 21.85 -10 23 C-9.67 21.91 -9.34 20.81 -9 19.69 C-7.87 16.15 -7.87 16.15 -8 13 C-9.94 10.33 -9.94 10.33 -12 8 C-9.36 8 -6.72 8 -4 8 C-2.68 5.36 -1.36 2.72 0 0 Z " fill="#E6C22E" transform="translate(287,239)"/>
<path d="M0 0 C1.95 2.92 2.45 4.63 3 8 C5.64 8.66 8.28 9.32 11 10 C6.25 14 6.25 14 4 14 C4.33 16.97 4.66 19.94 5 23 C4.13 22.3 3.27 21.6 2.38 20.88 C-0.85 18.6 -0.85 18.6 -4.19 19.69 C-5.12 20.12 -6.04 20.55 -7 21 C-7.99 21.33 -8.98 21.66 -10 22 C-9.54 20.89 -9.54 20.89 -9.06 19.75 C-8.19 17.49 -7.52 15.35 -7 13 C-7.99 12.2 -8.98 11.39 -10 10.56 C-10.99 9.72 -11.98 8.87 -13 8 C-13 7.67 -13 7.34 -13 7 C-9.7 7.33 -6.4 7.66 -3 8 C-2.69 6.87 -2.38 5.73 -2.06 4.56 C-1 1 -1 1 0 0 Z " fill="#E8C32D" transform="translate(618,53)"/>
<path d="M0 0 C0.33 0 0.66 0 1 0 C1 3.3 1 6.6 1 10 C1.95 10.12 2.9 10.25 3.88 10.38 C7 11 7 11 9 13 C6.36 13.99 3.72 14.98 1 16 C0.67 18.64 0.34 21.28 0 24 C-3.88 20.25 -3.88 20.25 -5 18 C-7.97 18.33 -10.94 18.66 -14 19 C-12.95 17.67 -12.95 17.67 -11.88 16.31 C-9.63 13.23 -9.63 13.23 -10.62 10.38 C-11.08 9.59 -11.53 8.81 -12 8 C-12.66 6.68 -13.32 5.36 -14 4 C-9.54 4.99 -9.54 4.99 -5 6 C-4.2 5.01 -3.39 4.02 -2.56 3 C-1.72 2.01 -0.87 1.02 0 0 Z " fill="#E8C32D" transform="translate(907,384)"/>
<path d="M0 0 C1.61 1.05 1.61 1.05 3.25 2.12 C5.13 3.25 5.13 3.25 7 4 C9.25 3.5 9.25 3.5 11 2 C12.32 1.34 13.64 0.68 15 0 C14.34 2.97 13.68 5.94 13 9 C14.14 9.4 14.14 9.4 15.31 9.81 C18 11 18 11 21 14 C16.55 14.5 16.55 14.5 12 15 C11.34 17.31 10.68 19.62 10 22 C9.34 22 8.68 22 8 22 C7.34 19.69 6.68 17.38 6 15 C3.03 15 0.06 15 -3 15 C-2.15 14.3 -1.31 13.6 -0.44 12.88 C2.36 10.24 2.36 10.24 1.88 6.94 C1.59 5.97 1.3 5 1 4 C0.72 2.82 0.72 2.82 0.44 1.62 C0.29 1.09 0.15 0.55 0 0 Z " fill="#E9C32D" transform="translate(367,126)"/>
<path d="M0 0 C0.89 0.7 1.77 1.4 2.69 2.12 C5.79 4.38 5.79 4.38 8.69 3.31 C9.83 2.66 9.83 2.66 11 2 C11.99 1.67 12.98 1.34 14 1 C13.87 1.59 13.74 2.18 13.61 2.79 C13.17 5.27 12.88 7.48 13 10 C15.25 13.09 15.25 13.09 18 15 C15.03 15 12.06 15 9 15 C8.71 16.13 8.42 17.27 8.12 18.44 C7.75 19.61 7.38 20.79 7 22 C6.34 22.33 5.68 22.66 5 23 C4.34 20.69 3.68 18.38 3 16 C-1.46 15.01 -1.46 15.01 -6 14 C-5.22 13.38 -4.43 12.76 -3.62 12.12 C-1.03 10.1 -1.03 10.1 1 8 C1.02 6.01 1.02 6.01 0.62 3.88 C0.42 2.6 0.21 1.32 0 0 Z " fill="#E9C42D" transform="translate(555,699)"/>
<path d="M0 0 C1.36 1.02 1.36 1.02 2.75 2.06 C5.67 4.21 5.67 4.21 8.06 3.88 C8.7 3.59 9.34 3.3 10 3 C10.91 2.65 11.82 2.3 12.75 1.94 C13.49 1.63 14.24 1.32 15 1 C14.8 1.59 14.6 2.18 14.39 2.79 C13.67 5.26 13.12 7.43 13 10 C15.19 13.11 15.19 13.11 18 15 C15.03 15 12.06 15 9 15 C8.86 15.76 8.71 16.53 8.56 17.31 C8 20 8 20 7 23 C6.34 23 5.68 23 5 23 C4.34 20.36 3.68 17.72 3 15 C0.03 14.67 -2.94 14.34 -6 14 C-1.25 10.12 -1.25 10.12 1 9 C0.67 6.03 0.34 3.06 0 0 Z " fill="#EAC42D" transform="translate(778,126)"/>
<path d="M0 0 C5.04 1.63 8.95 4.62 13.19 7.69 C13.94 8.22 14.69 8.76 15.47 9.31 C18.23 11.28 20.98 13.27 23.73 15.25 C25.13 16.25 26.53 17.25 27.94 18.25 C28.69 18.79 29.44 19.33 30.21 19.89 C31.93 21.18 31.93 21.18 34 21 C34.62 19.89 34.62 19.89 35.25 18.75 C37.35 15.45 39.68 13.99 43 12 C41.97 14.4 41.12 15.9 39.12 17.62 C36.91 20.11 36.15 21.91 35 25 C33.55 28.88 32.24 31.3 29 34 C28.34 34.99 27.68 35.98 27 37 C27.54 33.13 28.59 31.03 31 28 C28.79 26.08 26.58 24.17 24.38 22.25 C23.71 21.67 23.04 21.09 22.34 20.49 C18.9 17.5 15.44 14.52 11.96 11.57 C11.01 10.76 11.01 10.76 10.04 9.94 C8.82 8.91 7.61 7.89 6.39 6.87 C3.83 4.7 1.88 2.82 0 0 Z " fill="#EEF2EF" transform="translate(353,212)"/>
<path d="M0 0 C3.86 1.6 6.58 4.22 9.56 7.06 C14.37 11.56 19.32 15.79 24.44 19.92 C28.05 22.85 31.53 25.91 35 29 C35.54 28.59 36.09 28.18 36.64 27.76 C37.36 27.22 38.08 26.68 38.81 26.12 C39.87 25.32 39.87 25.32 40.96 24.51 C42.6 23.29 44.3 22.14 46 21 C43.83 26.2 39.64 29.02 35 32 C32.67 32.69 30.34 33.36 28 34 C25.57 36.47 25.57 36.47 24 39 C24.56 35.66 25.35 32.97 27 30 C24.89 27.16 23.16 25.13 20.38 22.94 C17.24 20.33 14.65 17.43 12.01 14.33 C8.75 10.55 5.33 6.9 1.94 3.22 C0 1 0 1 0 0 Z " fill="#ECF1ED" transform="translate(372,185)"/>
<path d="M0 0 C4.08 3.18 7.44 6.53 10.79 10.46 C13.77 13.88 16.85 17.19 19.94 20.5 C20.53 21.14 21.12 21.77 21.73 22.43 C23.15 23.95 24.58 25.48 26 27 C26.61 26.06 27.22 25.11 27.86 24.14 C31.74 18.46 35.52 16.53 42 15 C39.44 17.98 36.48 19.26 33 21 C29.53 24.08 27.42 27.6 26 32 C25.85 34.94 25.93 37.75 26.15 40.68 C26.1 41.45 26.05 42.21 26 43 C25.01 43.66 24.02 44.32 23 45 C23.19 44.07 23.37 43.14 23.56 42.19 C24.24 38.99 24.24 38.99 23 36 C22.93 35.27 22.86 34.54 22.78 33.79 C21.62 29.65 19.12 26.79 16.5 23.44 C15.96 22.74 15.43 22.04 14.87 21.32 C13.26 19.21 11.63 17.1 10 15 C8.26 12.74 6.54 10.46 4.81 8.19 C4.1 7.25 3.38 6.32 2.64 5.36 C1 3 1 3 0 0 Z " fill="#E4EBE6" transform="translate(395,161)"/>
<path d="M0 0 C1.49 0.99 1.49 0.99 3 2 C3.99 2 4.98 2 6 2 C8.21 3.57 10.29 5.16 12.38 6.88 C13.63 7.89 14.89 8.9 16.14 9.91 C16.78 10.42 17.42 10.94 18.08 11.47 C22.04 14.63 26.11 17.66 30.16 20.71 C33 23 35.47 25.38 38 28 C34.46 26.67 31.29 25.1 28.05 23.17 C27.12 22.62 26.19 22.07 25.23 21.5 C24.27 20.92 23.3 20.34 22.31 19.75 C21.37 19.19 20.43 18.63 19.46 18.05 C17.57 16.93 15.68 15.8 13.8 14.67 C11.92 13.55 10.02 12.45 8.1 11.38 C7.2 10.86 6.29 10.35 5.36 9.82 C4.55 9.37 3.74 8.92 2.9 8.45 C0.67 6.75 0.27 5.86 -0.12 3.12 C-0.08 2.09 -0.04 1.06 0 0 Z " fill="#F2F5F3" transform="translate(779,521)"/>
<path d="M0 0 C2.31 2.12 3.75 4.13 5.16 6.92 C5.56 7.69 5.96 8.47 6.36 9.26 C6.99 10.49 6.99 10.49 7.62 11.75 C11.26 18.82 15.09 25.71 19.31 32.45 C22 36.8 22 36.8 22 39 C23.64 38.5 23.64 38.5 25.31 38 C29 37 29 37 32 37 C29.84 39.41 28.05 40.57 25 41.62 C24.32 41.86 23.64 42.1 22.94 42.35 C21.29 42.9 19.65 43.45 18 44 C17.6 43.05 17.19 42.09 16.78 41.11 C15.27 37.54 13.75 33.97 12.24 30.4 C11.59 28.86 10.93 27.32 10.28 25.78 C9.34 23.55 8.4 21.32 7.45 19.1 C7 18.02 7 18.02 6.53 16.93 C4.92 13.12 3.26 9.33 1.55 5.56 C0 2 0 2 0 0 Z " fill="#EAF0EC" transform="translate(450,123)"/>
<path d="M0 0 C4.34 3.81 6.26 7.23 8.19 12.62 C10.18 18.01 10.18 18.01 13 23 C13.4 26.42 13.56 29.87 12 33 C14.59 38.28 14.59 38.28 19 42 C19 42.66 19 43.32 19 44 C21.48 43.5 21.48 43.5 24 43 C23.67 51.58 23.34 60.16 23 69 C22.67 69 22.34 69 22 69 C21.66 66.31 21.33 63.63 21 60.94 C20.9 60.19 20.81 59.43 20.71 58.66 C20.15 54.07 19.9 49.63 20 45 C18.51 44.5 18.51 44.5 17 44 C17 43.34 17 42.68 17 42 C15.35 42 13.7 42 12 42 C10.86 37.73 10 34.44 10 30 C10.66 30 11.32 30 12 30 C10.3 24.57 8.35 19.38 5.98 14.2 C5.02 12.05 4.18 9.89 3.38 7.69 C2.37 5 1.36 2.51 0 0 Z " fill="#CDDAD0" transform="translate(574,609)"/>
<path d="M0 0 C0.33 0.66 0.66 1.32 1 2 C0.34 2 -0.32 2 -1 2 C-0.86 3.21 -0.71 4.41 -0.56 5.66 C-0.37 7.27 -0.19 8.89 0 10.5 C0.1 11.29 0.19 12.08 0.29 12.9 C0.87 17.97 1.09 22.89 1 28 C-1.3 24.1 -2.12 19.87 -3.12 15.5 C-3.31 14.74 -3.49 13.98 -3.68 13.2 C-4.51 9.62 -5 6.73 -5 3 C-7.46 2.95 -9.92 2.91 -12.38 2.88 C-13.07 2.86 -13.77 2.84 -14.49 2.82 C-16.33 2.81 -18.17 2.9 -20 3 C-20.66 3.66 -21.32 4.32 -22 5 C-24.16 5.2 -24.16 5.2 -26.62 5.12 C-27.44 5.11 -28.26 5.09 -29.1 5.07 C-29.73 5.05 -30.35 5.02 -31 5 C-22.23 -0.85 -10.16 -0.42 0 0 Z " fill="#D1DED4" transform="translate(629,647)"/>
<path d="M0 0 C0 3 0 3 -2 6 C-2.56 12.04 -1.08 17.3 0.5 23.06 C3.36 33.52 3.36 33.52 3 39 C0.62 36.62 0.11 34.82 -0.95 31.62 C-1.3 30.56 -1.65 29.49 -2.02 28.39 C-2.38 27.27 -2.75 26.15 -3.12 25 C-3.5 23.88 -3.87 22.76 -4.25 21.61 C-7 13.28 -7 13.28 -7 11 C-7.66 11 -8.32 11 -9 11 C-7.44 7.17 -4.97 4.82 -2 2 C-1.34 1.34 -0.68 0.68 0 0 Z " fill="#EAF0EC" transform="translate(658,624)"/>
<path d="M0 0 C5.18 4.78 8.87 10.38 12.8 16.2 C13.32 16.95 13.83 17.69 14.36 18.46 C14.82 19.14 15.28 19.82 15.75 20.52 C16.16 21.01 16.58 21.5 17 22 C17.66 22 18.32 22 19 22 C19.66 21.34 20.32 20.68 21 20 C20.52 24.99 19.05 28.03 16 32 C15.01 32.5 15.01 32.5 14 33 C14.34 31.94 14.34 31.94 14.68 30.87 C15.1 27.06 13.99 25.44 12.07 22.15 C11.44 21.05 10.81 19.95 10.16 18.82 C9.48 17.67 8.8 16.52 8.12 15.38 C6.81 13.11 5.5 10.85 4.2 8.59 C3.61 7.59 3.02 6.59 2.41 5.56 C1 3 1 3 0 0 Z " fill="#EBF0EC" transform="translate(423,143)"/>
<path d="M0 0 C3.77 1.56 6.14 3.91 8.98 6.79 C9.44 7.25 9.91 7.72 10.38 8.19 C11.84 9.67 13.3 11.15 14.75 12.62 C15.74 13.63 16.74 14.63 17.73 15.63 C20.16 18.08 22.58 20.54 25 23 C20.7 23 18.49 20.48 15.31 17.88 C14.06 16.86 12.8 15.84 11.54 14.82 C10.94 14.33 10.33 13.84 9.7 13.34 C7.58 11.67 5.36 10.19 3.12 8.69 C1.29 7.35 1.29 7.35 0 6 C-0.5 2.62 -0.5 2.62 0 0 Z " fill="#F2F5F3" transform="translate(772,551)"/>
<path d="M0 0 C0.66 0.33 1.32 0.66 2 1 C1.24 1.75 1.24 1.75 0.46 2.51 C-1.85 4.77 -4.14 7.04 -6.44 9.31 C-7.24 10.1 -8.04 10.88 -8.87 11.69 C-9.63 12.45 -10.4 13.21 -11.18 13.99 C-12.24 15.03 -12.24 15.03 -13.33 16.1 C-15.21 18 -15.21 18 -16 21 C-17.96 22.82 -17.96 22.82 -20.38 24.69 C-21.17 25.31 -21.96 25.93 -22.77 26.57 C-25 28 -25 28 -28 28 C-18.76 18.76 -9.52 9.52 0 0 Z " fill="#E8EEE9" transform="translate(389,548)"/>
<path d="M0 0 C3.78 3.69 7.28 7.53 10.69 11.56 C11.42 12.41 11.42 12.41 12.16 13.27 C14.51 16.04 16.59 18.64 18 22 C12.73 17.64 7.92 12.97 3.14 8.07 C1.18 5.96 1.18 5.96 -1 5 C-0.67 3.35 -0.34 1.7 0 0 Z " fill="#DBE4DD" transform="translate(761,582)"/>
<path d="M0 0 C2.57 4.18 1.88 7.03 0.85 11.65 C-0.32 14.88 -2.07 16.3 -5 18 C-5.45 17.05 -5.91 16.1 -6.38 15.12 C-7.8 12 -7.8 12 -10 10 C-9.67 9.01 -9.34 8.02 -9 7 C-9 7.66 -9 8.32 -9 9 C-8.1 9.43 -8.1 9.43 -7.19 9.88 C-5 11 -5 11 -2 13 C-1.94 12.4 -1.88 11.79 -1.82 11.17 C-1.73 10.37 -1.65 9.57 -1.56 8.75 C-1.48 7.96 -1.4 7.17 -1.32 6.36 C-1.02 4.18 -0.58 2.12 0 0 Z " fill="#9DB7A1" transform="translate(683,204)"/>
<path d="M0 0 C0.66 0.33 1.32 0.66 2 1 C1.67 9.25 1.34 17.5 1 26 C0.67 26 0.34 26 0 26 C-0.99 17.75 -1.98 9.5 -3 1 C-2.01 0.67 -1.02 0.34 0 0 Z " fill="#F5F8F6" transform="translate(596,652)"/>
<path d="M0 0 C2.34 2.26 4.19 4.28 6 7 C5.81 7.66 5.63 8.32 5.44 9 C5.29 9.66 5.15 10.32 5 11 C5.45 11.45 5.91 11.91 6.38 12.38 C8.67 14.67 8.65 16.85 9 20 C6.79 17.79 5.57 15.72 4 13 C3.34 11.92 3.34 11.92 2.66 10.81 C2.19 10.03 1.73 9.25 1.25 8.44 C0.58 7.32 0.58 7.32 -0.11 6.18 C-1.15 3.64 -0.94 2.54 0 0 Z " fill="#E3EAE5" transform="translate(669,203)"/>
<path d="M0 0 C0 4.11 -1.69 5.39 -4.31 8.5 C-5.11 9.46 -5.91 10.42 -6.74 11.41 C-9.96 15.1 -12.71 17.57 -17 20 C-15.51 16.49 -13.49 14.32 -10.75 11.69 C-6.92 7.95 -3.41 4.11 0 0 Z " fill="#DFE7E0" transform="translate(765,160)"/>
<path d="M0 0 C1 2 1 2 0.29 4.15 C-0.09 5.02 -0.48 5.89 -0.87 6.79 C-1.28 7.73 -1.69 8.67 -2.11 9.64 C-2.55 10.63 -2.99 11.61 -3.44 12.62 C-4.09 14.11 -4.09 14.11 -4.75 15.63 C-5.83 18.09 -6.91 20.55 -8 23 C-8.99 22.67 -9.98 22.34 -11 22 C-9.49 16.74 -7.1 12.33 -4.38 7.62 C-3.95 6.89 -3.53 6.15 -3.1 5.39 C-2.07 3.59 -1.04 1.8 0 0 Z " fill="#DAE4DD" transform="translate(709,123)"/>
<path d="M0 0 C0.66 0 1.32 0 2 0 C2 0.66 2 1.32 2 2 C3.65 2 5.3 2 7 2 C7.66 4.64 8.32 7.28 9 10 C9.99 10 10.98 10 12 10 C11.67 11.32 11.34 12.64 11 14 C10.67 13.01 10.34 12.02 10 11 C9.34 11 8.68 11 8 11 C6.38 9.75 6.38 9.75 5 8 C5 6.68 5 5.36 5 4 C4.34 4 3.68 4 3 4 C3.33 5.32 3.66 6.64 4 8 C3.01 8.5 3.01 8.5 2 9 C2 8.34 2 7.68 2 7 C1.34 6.67 0.68 6.34 0 6 C0 4 0 2 0 0 Z " fill="#BDCFC1" transform="translate(374,327)"/>
<path d="M0 0 C1.14 3.43 0.83 4.32 -0.21 7.67 C-0.49 8.56 -0.76 9.45 -1.04 10.37 C-1.34 11.3 -1.63 12.23 -1.94 13.19 C-2.23 14.13 -2.52 15.07 -2.82 16.04 C-3.54 18.36 -4.27 20.68 -5 23 C-5.99 23 -6.98 23 -8 23 C-9 21 -9 21 -8.29 18.85 C-7.91 17.98 -7.52 17.11 -7.13 16.21 C-6.72 15.27 -6.31 14.33 -5.89 13.36 C-5.45 12.37 -5.01 11.39 -4.56 10.38 C-4.13 9.38 -3.69 8.39 -3.25 7.37 C-2.17 4.91 -1.09 2.45 0 0 Z " fill="#D6E1D9" transform="translate(678,110)"/>
<path d="M0 0 C0.33 0.66 0.66 1.32 1 2 C1.66 2 2.32 2 3 2 C1.52 9.71 -0.2 17.36 -2 25 C-3.08 21.75 -2.92 20.24 -2.44 16.89 C-2.3 15.91 -2.16 14.93 -2.02 13.92 C-1.87 12.89 -1.72 11.87 -1.56 10.81 C-1.41 9.78 -1.27 8.74 -1.12 7.67 C-0.75 5.11 -0.38 2.56 0 0 Z " fill="#CEDBD1" transform="translate(532,653)"/>
<path d="M0 0 C0.33 0.66 0.66 1.32 1 2 C2.65 1.67 4.3 1.34 6 1 C5.65 1.74 5.3 2.49 4.94 3.25 C3.91 6.25 4 7.09 5 10 C5.75 12.56 5.75 12.56 6 15 C4.56 16.81 4.56 16.81 3 18 C3.04 16.89 3.08 15.77 3.12 14.62 C3.41 10.96 3.41 10.96 1 9 C0.96 7.33 0.96 5.67 1 4 C0.71 2.66 0.39 1.32 0 0 Z " fill="#C4D4C8" transform="translate(537,153)"/>
<path d="M0 0 C2.73 0.31 5.46 0.62 8.19 0.94 C8.96 1.02 9.73 1.11 10.52 1.2 C14.39 1.65 18.19 2.15 22 3 C21.01 4.49 21.01 4.49 20 6 C13.4 4.35 6.8 2.7 0 1 C0 0.67 0 0.34 0 0 Z " fill="#CAD8CD" transform="translate(290,328)"/>
<path d="M0 0 C-3.12 0.87 -6.25 1.72 -9.38 2.56 C-10.26 2.81 -11.15 3.06 -12.07 3.31 C-13.35 3.65 -13.35 3.65 -14.65 4 C-15.43 4.22 -16.22 4.43 -17.03 4.65 C-19 5 -19 5 -21 4 C-19.09 1.45 -17.95 0.99 -14.79 0.23 C-13.56 0.07 -12.33 -0.09 -11.06 -0.25 C-9.22 -0.51 -9.22 -0.51 -7.35 -0.77 C-4.41 -0.97 -2.75 -0.79 0 0 Z " fill="#C3D3C6" transform="translate(870,329)"/>
<path d="M0 0 C2.25 3.84 3.1 7.96 4.12 12.25 C4.31 13 4.49 13.74 4.68 14.51 C5.12 16.34 5.56 18.17 6 20 C5.01 20.33 4.02 20.66 3 21 C2.49 18.44 2 15.88 1.5 13.31 C1.36 12.59 1.21 11.87 1.07 11.13 C0.34 7.36 -0.18 3.86 0 0 Z " fill="#C7D6CA" transform="translate(513,99)"/>
<path d="M0 0 C0.33 0 0.66 0 1 0 C0.42 7.09 -0.63 14.02 -2 21 C-2.99 20.67 -3.98 20.34 -5 20 C-3.33 13.33 -1.67 6.67 0 0 Z " fill="#C7D6CA" transform="translate(646,99)"/>
<path d="M0 0 C0 0.66 0 1.32 0 2 C-2.25 2.53 -4.5 3.05 -6.75 3.56 C-8.63 4 -8.63 4 -10.55 4.44 C-13.59 4.93 -15.18 5.08 -18 4 C-15.57 3.13 -13.13 2.28 -10.69 1.44 C-10 1.19 -9.31 0.94 -8.6 0.69 C-3.34 -1.11 -3.34 -1.11 0 0 Z " fill="#E2EAE4" transform="translate(317,456)"/>
<path d="M0 0 C0.66 0.33 1.32 0.66 2 1 C1.36 5.33 -0.19 8.87 -2.06 12.81 C-2.61 13.97 -3.16 15.14 -3.72 16.33 C-4.14 17.21 -4.57 18.09 -5 19 C-6.42 14.73 -4.65 11.8 -3.06 7.81 C-2.77 7.06 -2.48 6.31 -2.18 5.54 C-1.46 3.69 -0.73 1.84 0 0 Z " fill="#CCD9CF" transform="translate(471,640)"/>
<path d="M0 0 C1.12 1.75 1.12 1.75 2 4 C1.36 5.35 0.69 6.68 0 8 C-0.57 10.31 -1 12.63 -1.44 14.98 C-2 17 -2 17 -4 19 C-3.89 17.23 -3.76 15.46 -3.62 13.69 C-3.56 12.7 -3.49 11.72 -3.41 10.7 C-3 8 -3 8 -1 5 C-0.62 3.34 -0.27 1.68 0 0 Z " fill="#90AD95" transform="translate(779,525)"/>
<path d="M0 0 C2.07 3.1 3.32 6.03 4.69 9.5 C5.15 10.64 5.6 11.79 6.07 12.97 C7 16 7 16 6 19 C4.8 16.59 3.61 14.17 2.44 11.75 C1.92 10.73 1.92 10.73 1.4 9.68 C-0.38 5.98 -1.31 3.92 0 0 Z " fill="#CAD8CD" transform="translate(688,640)"/>
<path d="M0 0 C0.66 0.33 1.32 0.66 2 1 C0.74 4.78 -0.56 5.26 -3.94 7.25 C-5.28 8.06 -5.28 8.06 -6.65 8.89 C-7.43 9.26 -8.2 9.62 -9 10 C-9.66 9.67 -10.32 9.34 -11 9 C-7.37 6.03 -3.74 3.06 0 0 Z " fill="#E8EEE9" transform="translate(354,539)"/>
<path d="M0 0 C0.66 0.33 1.32 0.66 2 1 C0.23 2.32 -1.54 3.63 -3.31 4.94 C-4.3 5.67 -5.28 6.4 -6.3 7.15 C-9 9 -9 9 -12 10 C-11.84 8.21 -11.84 8.21 -11 6 C-8.57 4.26 -8.57 4.26 -5.56 2.69 C-4.57 2.16 -3.59 1.62 -2.57 1.07 C-1.72 0.72 -0.87 0.37 0 0 Z " fill="#E6EDE8" transform="translate(825,238)"/>
<path d="M0 0 C0.33 0.66 0.66 1.32 1 2 C-0.73 6.41 -2.62 10.23 -6.81 12.56 C-7.53 12.71 -8.26 12.85 -9 13 C-7.51 9.72 -5.61 7.07 -3.38 4.25 C-2.74 3.45 -2.11 2.65 -1.46 1.83 C-0.98 1.22 -0.5 0.62 0 0 Z " fill="#608966" transform="translate(498,513)"/>
<path d="M0 0 C0.66 0.33 1.32 0.66 2 1 C2 1.66 2 2.32 2 3 C0.26 3.7 -1.5 4.39 -3.25 5.06 C-4.22 5.45 -5.2 5.83 -6.2 6.22 C-9.04 7.01 -10.29 7.02 -13 6 C-10.88 4.97 -8.75 3.95 -6.62 2.94 C-5.44 2.37 -4.26 1.8 -3.04 1.21 C-2.04 0.81 -1.03 0.41 0 0 Z " fill="#E0E8E2" transform="translate(323,485)"/>
<path d="M0 0 C6.05 1.17 12.03 2.45 18 4 C15 6 15 6 12.7 5.61 C11.85 5.33 11 5.04 10.12 4.75 C9.24 4.46 8.36 4.17 7.45 3.87 C4.94 2.98 2.45 2.06 0 1 C0 0.67 0 0.34 0 0 Z " fill="#C6D5C9" transform="translate(300,296)"/>
<path d="M0 0 C-2.12 1.17 -4.25 2.34 -6.38 3.5 C-6.98 3.83 -7.58 4.17 -8.2 4.51 C-12.77 7 -12.77 7 -15 7 C-15 6.01 -15 5.02 -15 4 C-13.07 3.13 -11.13 2.28 -9.19 1.44 C-8.11 0.96 -7.03 0.49 -5.92 -0 C-3 -1 -3 -1 0 0 Z " fill="#E0E8E2" transform="translate(845,267)"/>
<path d="M0 0 C0.33 0 0.66 0 1 0 C1.06 0.92 1.12 1.83 1.18 2.77 C1.27 3.96 1.35 5.15 1.44 6.38 C1.52 7.56 1.6 8.74 1.68 9.96 C1.81 12.92 1.81 12.92 3 15 C-0.38 14.75 -0.38 14.75 -4 14 C-5.44 11.94 -5.44 11.94 -6 10 C-4.02 10.99 -2.04 11.98 0 13 C0 8.71 0 4.42 0 0 Z " fill="#BCCEC0" transform="translate(574,181)"/>
<path d="M0 0 C0.33 0 0.66 0 1 0 C1 4.29 1 8.58 1 13 C0.01 13.33 -0.98 13.66 -2 14 C-1.86 12.23 -1.71 10.46 -1.56 8.69 C-1.48 7.7 -1.4 6.72 -1.32 5.7 C-1 3 -1 3 0 0 Z " fill="#DFE8E1" transform="translate(612,101)"/>
<path d="M0 0 C0.5 0.39 0.99 0.78 1.5 1.19 C0.29 1.62 0.29 1.62 -0.94 2.06 C-3.63 2.92 -3.63 2.92 -4.5 5.19 C-7.37 4.61 -8.36 4.33 -10.5 2.19 C-3.29 -1.07 -3.29 -1.07 0 0 Z " fill="#6F9576" transform="translate(766.5,333.8125)"/>
<path d="M0 0 C0.66 0 1.32 0 2 0 C1.45 4.57 0.58 8.67 -1 13 C-1.33 13 -1.66 13 -2 13 C-1.86 11.4 -1.71 9.79 -1.56 8.19 C-1.48 7.29 -1.4 6.4 -1.32 5.48 C-1 3 -1 3 0 0 Z " fill="#DFE7E1" transform="translate(501,650)"/>
<path d="M0 0 C1.16 3.55 0.92 6.56 0.56 10.25 C0.41 11.87 0.41 11.87 0.25 13.52 C0.17 14.34 0.09 15.16 0 16 C-0.33 16 -0.66 16 -1 16 C-1.14 15.24 -1.29 14.47 -1.44 13.69 C-1.96 10.92 -1.96 10.92 -3 8 C-2.44 5.96 -2.44 5.96 -1.56 3.81 C-1.13 2.74 -1.13 2.74 -0.69 1.64 C-0.46 1.1 -0.24 0.56 0 0 Z " fill="#678E6D" transform="translate(545,534)"/>
<path d="M0 0 C0.33 0.99 0.66 1.98 1 3 C-0.19 5.19 -0.19 5.19 -2 7 C-3.32 7 -4.64 7 -6 7 C-6 7.66 -6 8.32 -6 9 C-6.66 8.67 -7.32 8.34 -8 8 C-6.35 6.35 -4.7 4.7 -3 3 C-2.34 3.33 -1.68 3.66 -1 4 C-0.67 2.68 -0.34 1.36 0 0 Z " fill="#97B29C" transform="translate(774,501)"/>
<path d="M0 0 C-0.33 0.99 -0.66 1.98 -1 3 C-4.3 3 -7.6 3 -11 3 C-10.67 2.34 -10.34 1.68 -10 1 C-6.63 0.06 -3.48 -0.1 0 0 Z " fill="#E9EFEA" transform="translate(313,424)"/>
<path d="M0 0 C0.99 0.33 1.98 0.66 3 1 C-0.3 4.3 -3.6 7.6 -7 11 C-7 7.22 -6 6.54 -3.5 3.81 C-2.85 3.1 -2.2 2.38 -1.53 1.64 C-1.03 1.1 -0.52 0.56 0 0 Z " fill="#C4D4C8" transform="translate(389,593)"/>
<path d="M0 0 C2.49 4.99 1.89 6.67 1 12 C0.01 12 -0.98 12 -2 12 C-1.34 8.04 -0.68 4.08 0 0 Z " fill="#B9CCBD" transform="translate(683,204)"/>
<path d="M0 0 C-1.25 2 -1.25 2 -3 4 C-4.32 4 -5.64 4 -7 4 C-7.33 3.01 -7.66 2.02 -8 1 C-2.25 -1.12 -2.25 -1.12 0 0 Z " fill="#D7E2DA" transform="translate(381,214)"/>
<path d="M0 0 C3 1 3 1 4.2 2.78 C4.55 3.49 4.89 4.2 5.25 4.94 C5.78 6 5.78 6 6.33 7.09 C6.55 7.72 6.77 8.35 7 9 C6.67 9.66 6.34 10.32 6 11 C4.99 9.55 4 8.09 3 6.62 C2.44 5.81 1.89 5 1.31 4.16 C0 2 0 2 0 0 Z " fill="#DDE6DF" transform="translate(716,629)"/>
<path d="M0 0 C-2.55 2 -4.97 3.83 -8 5 C-8.99 4.67 -9.98 4.34 -11 4 C-9.74 3.13 -8.46 2.28 -7.19 1.44 C-6.48 0.96 -5.77 0.49 -5.04 -0 C-3 -1 -3 -1 0 0 Z " fill="#D9E3DB" transform="translate(335,517)"/>
<path d="M0 0 C3.96 0 7.92 0 12 0 C11.67 0.66 11.34 1.32 11 2 C10.07 1.98 9.14 1.96 8.19 1.94 C4.98 1.84 4.98 1.84 2 3 C1.34 2.67 0.68 2.34 0 2 C0 1.34 0 0.68 0 0 Z " fill="#CAD8CD" transform="translate(654,192)"/>
</svg>
