<?xml version="1.0" encoding="UTF-8"?>
<!-- Generator: https://ezgif.com/webp-to-svg -->
<svg version="1.1" xmlns="http://www.w3.org/2000/svg" width="1160" height="773">
<path d="M0 0 C382.8 0 765.6 0 1160 0 C1160 255.09 1160 510.18 1160 773 C777.2 773 394.4 773 0 773 C0 517.91 0 262.82 0 0 Z " fill="#003C6E" transform="translate(0,0)"/>
<path d="M0 0 C0.65 0.34 1.3 0.69 1.96 1.04 C34.43 18.35 65.74 43.66 88 73 C89 74.26 90 75.52 91 76.77 C107.54 97.74 121.36 120.93 131.14 145.81 C131.94 147.84 132.75 149.85 133.58 151.87 C141.82 172.45 146.58 194.16 150 216 C150.13 216.82 150.27 217.64 150.4 218.49 C154.5 245.09 153.58 274.58 149 301 C148.74 302.52 148.74 302.52 148.48 304.08 C143.47 332.95 134.81 361.1 121.04 387.04 C119.92 389.15 118.83 391.28 117.75 393.41 C113.65 401.37 109.33 408.78 104 416 C103.07 417.33 102.14 418.66 101.21 420 C85.48 442.65 66.88 464.06 45 481 C43.94 481.86 42.87 482.73 41.81 483.6 C-7.47 523.64 -69.13 543.27 -132 546 C-133.12 546.05 -133.12 546.05 -134.26 546.1 C-201.49 548.83 -270.62 522.57 -322 480 C-322.54 479.57 -323.07 479.13 -323.62 478.69 C-339.79 465.57 -354.64 450.76 -367 434 C-367.81 432.98 -368.62 431.97 -369.46 430.92 C-376.76 421.77 -382.94 412.01 -389 402 C-389.41 401.34 -389.81 400.67 -390.23 399.99 C-428.92 336.29 -437.06 255.92 -419.83 184.31 C-405.05 125.18 -370.06 67.05 -321 30 C-319.72 28.99 -318.44 27.98 -317.16 26.97 C-307.47 19.37 -297.5 12.42 -287 6 C-286.38 5.62 -285.77 5.24 -285.13 4.85 C-267.15 -6.16 -247.11 -14.74 -227 -21 C-226.23 -21.24 -225.46 -21.49 -224.67 -21.74 C-204.32 -28.14 -183.27 -32.32 -162 -34 C-160.95 -34.09 -160.95 -34.09 -159.88 -34.19 C-104.67 -38.91 -48.67 -26.06 0 0 Z " fill="#007845" transform="translate(718,131)"/>
<path d="M0 0 C1.66 1.46 3.31 2.94 4.94 4.44 C5.65 5.06 6.37 5.68 7.1 6.32 C18.48 16.8 25.53 32.27 27.94 47.44 C27.94 50.74 27.94 54.04 27.94 57.44 C16.39 57.44 4.84 57.44 -7.06 57.44 C-8.05 53.15 -9.04 48.86 -10.06 44.44 C-16.15 29.84 -25.86 22.41 -40.05 16.2 C-50.56 12.21 -65.91 12.88 -76.06 17.44 C-76.87 17.77 -77.69 18.09 -78.52 18.43 C-88.78 22.99 -96.47 30.2 -101.06 40.44 C-101.37 41.08 -101.67 41.72 -101.99 42.38 C-106.45 52.14 -106.77 64.93 -103.16 75.04 C-92.3 98.73 -67.86 109.79 -46.17 121.72 C-20.4 135.93 -20.4 135.93 -11.06 143.44 C-10.55 143.83 -10.04 144.23 -9.52 144.63 C4.36 155.42 12.66 167.05 18.94 183.44 C19.44 184.7 19.44 184.7 19.96 186 C26.11 202.59 25.19 220.81 18.14 236.95 C8.39 257.03 -7.03 271.61 -28.06 279.44 C-37.35 282.49 -46.3 284.11 -56.06 284.44 C-53.05 275.8 -49.85 267.28 -46.39 258.81 C-45.01 255.5 -45.01 255.5 -44.2 252.18 C-42.75 248.67 -41.4 248.08 -38 246.5 C-26.52 240.68 -18.96 233.52 -14.4 221.23 C-12.81 216.2 -12.52 211.43 -12.56 206.19 C-12.57 205.27 -12.58 204.35 -12.58 203.4 C-12.98 188.65 -19.54 178.49 -30 168.5 C-42.71 157.68 -58 149.95 -72.61 142.06 C-86.63 134.48 -99.8 126.72 -112.06 116.44 C-113.2 115.52 -113.2 115.52 -114.37 114.58 C-129.62 101.81 -139.11 83 -141.3 63.29 C-142.8 44.49 -137.66 26.1 -125.51 11.58 C-93.9 -24.17 -37.71 -29.99 0 0 Z " fill="#FDDB14" transform="translate(518.0625,214.5625)"/>
<path d="M0 0 C12.31 10.8 21.61 25.78 25.12 41.81 C25.46 47.09 25.78 52.37 26.12 57.81 C14.25 57.81 2.37 57.81 -9.88 57.81 C-10.87 52.37 -10.87 52.37 -11.88 46.81 C-15.66 35.16 -21.56 26.51 -32.16 20.15 C-40.29 16.14 -48.79 15.46 -57.66 17.43 C-68.62 21.35 -76.91 29.36 -81.88 39.81 C-86.18 49.49 -85.29 60.05 -85.26 70.4 C-85.26 72.49 -85.27 74.58 -85.28 76.67 C-85.29 81.16 -85.29 85.65 -85.29 90.13 C-85.28 97.24 -85.29 104.34 -85.31 111.44 C-85.35 126.53 -85.36 141.61 -85.38 156.69 C-85.39 172.96 -85.4 189.24 -85.45 205.52 C-85.46 212.57 -85.47 219.62 -85.46 226.68 C-85.46 231.07 -85.47 235.47 -85.48 239.87 C-85.49 241.9 -85.49 243.93 -85.48 245.96 C-85.45 256.33 -85.5 265.88 -88.88 275.81 C-101.89 269.51 -112.16 255.76 -116.97 242.4 C-121.46 229.38 -122.17 216.39 -122.15 202.74 C-122.15 201.06 -122.16 199.38 -122.17 197.71 C-122.18 193.19 -122.18 188.67 -122.18 184.16 C-122.18 180.37 -122.18 176.59 -122.19 172.8 C-122.2 163.87 -122.2 154.94 -122.19 146 C-122.18 136.82 -122.2 127.63 -122.22 118.44 C-122.24 110.52 -122.24 102.6 -122.24 94.69 C-122.24 89.97 -122.24 85.25 -122.25 80.54 C-122.27 76.1 -122.26 71.67 -122.25 67.23 C-122.25 65.61 -122.25 64 -122.26 62.38 C-122.3 53.14 -121.69 44.7 -118.88 35.81 C-118.5 34.61 -118.12 33.42 -117.73 32.18 C-110.11 12.02 -96.35 -2.34 -76.85 -11.34 C-51.39 -22.26 -21.6 -16.55 0 0 Z " fill="#FDDB14" transform="translate(761.875,212.1875)"/>
<path d="M0 0 C11.88 0 23.76 0 36 0 C43.88 19.43 43.88 19.43 47.06 28.69 C49.27 35.11 51.76 41.37 54.39 47.63 C56.73 53.22 58.76 58.89 60.73 64.62 C62.48 69.66 64.43 74.59 66.5 79.5 C69.15 85.8 71.51 92.16 73.73 98.62 C75.48 103.66 77.43 108.59 79.5 113.5 C82.15 119.8 84.51 126.16 86.73 132.62 C88.48 137.66 90.43 142.59 92.5 147.5 C94.82 153.01 96.94 158.53 98.88 164.19 C101.54 171.98 104.65 179.56 107.81 187.17 C110.18 192.91 112.31 198.65 114.18 204.57 C114.95 206.86 115.85 209 116.88 211.19 C118.81 215.36 120.32 219.66 121.81 224 C124.14 230.76 126.75 237.36 129.53 243.96 C131.65 249.03 133.44 254.16 135.11 259.39 C135.91 261.75 136.83 263.94 137.88 266.19 C140.27 271.34 142.06 276.69 143.89 282.06 C144.87 284.91 145.82 287.64 147.18 290.32 C148 292 148 292 148 295 C136.12 295 124.24 295 112 295 C111.15 292.55 110.31 290.09 109.44 287.56 C107.31 281.46 105.01 275.46 102.5 269.5 C99.85 263.2 97.49 256.84 95.27 250.38 C93.52 245.34 91.57 240.41 89.5 235.5 C86.85 229.2 84.49 222.84 82.27 216.38 C80.52 211.34 78.57 206.41 76.5 201.5 C73.85 195.21 71.49 188.86 69.28 182.4 C67.2 176.39 64.81 170.54 62.27 164.71 C60.54 160.65 59.74 157.46 59 153 C53.72 153 48.44 153 43 153 C43 144.42 43 135.84 43 127 C44.65 127 46.3 127 48 127 C47.79 126.48 47.58 125.96 47.36 125.42 C42.13 112.45 37.09 99.44 32.29 86.31 C31.69 84.69 31.1 83.06 30.5 81.44 C30.21 80.64 29.92 79.84 29.62 79.02 C27.74 73.92 25.75 68.89 23.69 63.88 C21.54 58.6 19.98 53.61 19 48 C18.34 48 17.68 48 17 48 C16.66 49.86 16.66 49.86 16.31 51.75 C14.84 58.48 12.08 64.85 9 71 C5.94 70.38 3.77 69.39 1.17 67.67 C0.09 66.97 0.09 66.97 -1 66.25 C-1.75 65.75 -2.49 65.26 -3.25 64.75 C-4.71 63.79 -6.18 62.82 -7.64 61.86 C-8.36 61.39 -9.07 60.91 -9.81 60.43 C-13.18 58.23 -16.58 56.11 -20 54 C-19.33 49.8 -17.94 46.17 -16.31 42.25 C-14.06 36.76 -11.99 31.24 -10.06 25.62 C-7.06 16.93 -3.56 8.48 0 0 Z " fill="#FCDB14" transform="translate(503,283)"/>
<path d="M0 0 C11.32 3.65 18.66 16.13 24 26 C24.42 26.77 24.84 27.54 25.27 28.33 C31.17 40.28 31.44 53.3 31.4 66.31 C31.41 68 31.42 69.69 31.42 71.38 C31.44 75.93 31.44 80.48 31.44 85.03 C31.43 88.84 31.44 92.66 31.44 96.48 C31.46 105.49 31.46 114.5 31.45 123.52 C31.43 132.78 31.45 142.03 31.48 151.29 C31.5 159.28 31.5 167.27 31.5 175.25 C31.5 180.01 31.5 184.76 31.51 189.51 C31.53 193.99 31.53 198.46 31.51 202.93 C31.5 204.56 31.51 206.19 31.52 207.82 C31.64 227.96 26.77 246.64 13 262 C12.32 262.76 11.64 263.52 10.95 264.3 C-0.97 276.92 -16.04 283.31 -33 286 C-34.32 286 -35.64 286 -37 286 C-42.86 271.35 -42.86 271.35 -43.92 268.69 C-44.66 266.85 -45.41 265.01 -46.16 263.17 C-46.71 261.83 -46.71 261.83 -47.27 260.46 C-47.6 259.65 -47.93 258.84 -48.27 258.01 C-49 256 -49 256 -49 254 C-47.66 253.94 -47.66 253.94 -46.29 253.89 C-32.83 253.16 -23.6 250.54 -13.31 241.69 C-5.44 232.54 -1.53 223.78 -1.61 211.66 C-1.6 210.77 -1.6 209.87 -1.59 208.95 C-1.57 205.97 -1.58 202.99 -1.58 200.01 C-1.58 197.87 -1.57 195.73 -1.56 193.58 C-1.53 187.78 -1.53 181.97 -1.53 176.17 C-1.52 170.09 -1.5 164.01 -1.48 157.94 C-1.44 146.43 -1.41 134.93 -1.4 123.43 C-1.36 102.81 -1.3 82.19 -1.24 61.57 C-1.22 54.33 -1.2 47.09 -1.19 39.85 C-1.19 35.36 -1.18 30.86 -1.16 26.37 C-1.16 24.28 -1.16 22.19 -1.16 20.1 C-1.15 17.26 -1.15 14.42 -1.14 11.58 C-1.14 10.74 -1.14 9.91 -1.14 9.05 C-1.13 5.78 -1.04 3.13 0 0 Z " fill="#FCDB14" transform="translate(682,261)"/>
<path d="M0 0 C22.75 13.69 22.75 13.69 27 23 C26.43 27.32 24.94 31.12 23 35 C25.97 35 28.94 35 32 35 C34.19 43.76 33.04 52.32 31 61 C24.73 61 18.46 61 12 61 C11.67 62.65 11.34 64.3 11 66 C10.14 68.27 9.24 70.51 8.31 72.75 C6.06 78.24 3.99 83.76 2.06 89.38 C-0.19 95.9 -2.72 102.26 -5.39 108.62 C-7.44 113.53 -9.27 118.48 -11 123.5 C-13.23 129.99 -15.73 136.31 -18.39 142.62 C-20.73 148.22 -22.76 153.9 -24.73 159.63 C-26.46 164.61 -28.39 169.46 -30.44 174.31 C-34.41 183.72 -37.69 193.34 -41 203 C-52.88 203 -64.76 203 -77 203 C-75.61 197.46 -74.28 192.92 -72.12 187.75 C-70.2 183.09 -68.42 178.43 -66.88 173.62 C-65.78 170.25 -64.62 167.03 -63.12 163.81 C-61.19 159.64 -59.68 155.34 -58.19 151 C-56.14 145.08 -53.93 139.27 -51.5 133.5 C-49.14 127.89 -46.98 122.26 -45 116.5 C-43.02 110.74 -40.86 105.11 -38.5 99.5 C-36.12 93.85 -33.94 88.17 -31.94 82.38 C-28.77 73.22 -25.16 64.29 -21.5 55.33 C-18.86 48.81 -16.36 42.27 -14.06 35.62 C-11.28 27.57 -8.08 19.72 -4.78 11.87 C-3.14 7.93 -1.57 3.97 0 0 Z " fill="#FCDB14" transform="translate(468,375)"/>
<path d="M0 0 C26.73 0 53.46 0 81 0 C80.34 3.96 79.68 7.92 79 12 C78.73 15.77 78.5 19.48 78.38 23.25 C78.19 28.08 78.19 28.08 78 33 C64.14 33 50.28 33 36 33 C36 75.57 36 118.14 36 162 C33.45 160.72 33.41 159.92 32.48 157.27 C32.21 156.5 31.93 155.72 31.64 154.92 C31.35 154.08 31.05 153.24 30.75 152.38 C30.12 150.63 29.49 148.88 28.86 147.13 C28.55 146.26 28.24 145.39 27.91 144.49 C26.66 141.07 25.31 137.69 23.94 134.31 C20.55 125.93 17.4 117.46 14.25 108.98 C11.08 100.44 7.82 91.94 4.39 83.5 C3.7 81.77 3.7 81.77 3 80 C2.48 78.95 1.96 77.9 1.43 76.81 C-1.07 70.06 -0.37 62.57 -0.29 55.47 C-0.29 54.05 -0.29 52.63 -0.28 51.2 C-0.27 45.97 -0.23 40.73 -0.19 35.5 C-0.13 23.79 -0.06 12.07 0 0 Z " fill="#F9D915" transform="translate(557,246)"/>
<path d="M0 0 C11.88 0 23.76 0 36 0 C36 18.55 29.58 36.11 17 50 C16.43 50.66 15.86 51.32 15.28 52 C3.22 65.11 -14.7 73.29 -32.46 74.11 C-34.31 74.12 -36.15 74.07 -38 74 C-37.71 73.07 -37.71 73.07 -37.41 72.11 C-34.54 61.9 -33.82 51.54 -33 41 C-32.33 40.82 -31.66 40.64 -30.97 40.45 C-24.31 38.61 -24.31 38.61 -18.56 34.88 C-16.22 32.91 -14.97 31.99 -12 31 C-10.94 29.16 -10.94 29.16 -10 27 C-9.03 25.62 -8.05 24.24 -7.06 22.88 C-2.16 15.6 -1.08 8.65 0 0 Z " fill="#FCDA14" transform="translate(752,427)"/>
<path d="M0 0 C11.88 0 23.76 0 36 0 C36.66 3.96 37.32 7.92 38 12 C41.95 22.64 47.81 29.57 57 36 C56.45 41.15 55.22 45.53 53.19 50.31 C52.65 51.62 52.11 52.93 51.57 54.24 C51.3 54.88 51.04 55.51 50.76 56.17 C49.69 58.75 48.66 61.34 47.62 63.94 C47.08 65.29 46.54 66.65 46 68 C28.32 60.42 13.45 46.33 5.53 28.73 C1.52 18.7 0 11 0 0 Z " fill="#FBDA14" transform="translate(372,423)"/>
<path d="M0 0 C2.92 1.46 3.1 3.72 4.11 6.67 C4.36 7.44 4.61 8.21 4.88 9 C7.18 15.85 7.18 15.85 10 22.5 C11.85 26.47 13.27 30.55 14.69 34.69 C17.42 42.65 20.58 50.4 23.81 58.17 C26.18 63.9 28.31 69.65 30.18 75.57 C30.95 77.86 31.85 80 32.88 82.19 C34.96 86.69 36.6 91.32 38.25 96 C38.52 96.77 38.79 97.53 39.07 98.32 C41 103.86 41 103.86 41 105 C27.47 105 13.94 105 0 105 C0 70.35 0 35.7 0 0 Z " fill="#FDDB14" transform="translate(557,442)"/>
</svg>
